<svg width="34" height="24" viewBox="0 0 34 24" fill="none" xmlns="http://www.w3.org/2000/svg">
<rect width="34" height="24" rx="4" fill="#22577A" fill-opacity="0.06"/>
<path d="M4 9.97266C4.07222 9.97991 4.14444 9.99199 4.22148 9.99199C4.2937 9.99199 4.3587 9.97991 4.44296 9.97266V12.3464C4.67407 11.9475 4.96778 11.6865 5.3987 11.6865C6.1763 11.6865 6.51333 12.4624 6.51333 13.1731C6.51333 14.0263 6.06074 14.8409 5.2663 14.8409C4.8137 14.8409 4.58259 14.5605 4.48148 14.3841C4.34907 14.5001 4.23352 14.6403 4.10593 14.7684H4V9.97266ZM4.43093 13.4583C4.43093 14.1496 4.72463 14.6331 5.2037 14.6331C5.82963 14.6331 6.02704 13.7943 6.02704 13.1972C6.02704 12.5059 5.80074 11.9596 5.25907 11.9524C4.63074 11.9475 4.43093 12.6969 4.43093 13.4583Z" fill="#DF146E"/>
<path d="M8.54287 11.5076L8.07343 12.1119C8.51398 12.7597 8.97139 13.393 9.41435 14.0481L9.85972 14.7515V14.7878C9.74898 14.7805 9.65028 14.766 9.55639 14.766C9.45287 14.766 9.34695 14.7805 9.24824 14.7878C9.12787 14.563 9.0051 14.3527 8.86787 14.1472L7.66417 12.3536C7.63769 12.3246 7.57028 12.3053 7.57028 12.3319V14.7878C7.48121 14.7805 7.40658 14.766 7.32713 14.766C7.24528 14.766 7.16102 14.7805 7.08398 14.7878V9.97266C7.16102 9.97991 7.24287 9.99441 7.32713 9.99441C7.40417 9.99441 7.48121 9.97991 7.57028 9.97266V12.1482C7.5751 12.1892 7.65213 12.1627 7.7075 12.1071C7.80861 12.008 7.92176 11.8605 7.9988 11.7614L9.35658 9.97266C9.4288 9.97991 9.49861 9.99441 9.57806 9.99441C9.64306 9.99441 9.71528 9.97991 9.79232 9.97266L8.54287 11.5076Z" fill="#221F1F"/>
<path d="M12.1946 14.2463C12.1946 14.4953 12.1777 14.6258 12.5027 14.5412V14.6814C12.4642 14.7008 12.3968 14.7322 12.3366 14.7467C12.0501 14.8047 11.8118 14.7539 11.7684 14.3744L11.7203 14.4324C11.4892 14.7008 11.234 14.8361 10.9018 14.8361C10.5118 14.8361 10.1699 14.5291 10.1699 14.0529C10.1699 13.3229 10.6707 13.2262 11.1907 13.1296C11.6264 13.045 11.7757 13.0087 11.7757 12.7017C11.7757 12.2279 11.5446 11.9524 11.1305 11.9524C10.7284 11.9524 10.5142 12.2545 10.4733 12.3947H10.4131V12.0346C10.6779 11.8243 10.9764 11.6816 11.3014 11.6816C11.8816 11.6816 12.197 12.0346 12.197 12.7573C12.1946 12.7597 12.1946 14.2463 12.1946 14.2463ZM11.754 13.19L11.5614 13.2359C11.1858 13.3181 10.6225 13.3834 10.6225 13.9659C10.6225 14.3696 10.8271 14.5678 11.1642 14.5678C11.3134 14.5678 11.5012 14.4469 11.6047 14.3237C11.6457 14.2777 11.754 14.169 11.754 14.1255V13.19Z" fill="#221F1F"/>
<path d="M13.1769 14.1641C13.3093 14.4155 13.5525 14.6379 13.8101 14.6379C14.0821 14.6379 14.3517 14.3938 14.3517 14.0529C14.3517 13.1876 13.0493 13.7532 13.0493 12.6292C13.0493 12.0128 13.4514 11.6816 13.9497 11.6816C14.2362 11.6816 14.4745 11.7783 14.5732 11.8484C14.5178 11.9959 14.4745 12.1506 14.4408 12.3053H14.3903C14.318 12.0926 14.1254 11.8823 13.9208 11.8823C13.6464 11.8823 13.4201 12.0684 13.4201 12.4141C13.4201 13.2335 14.7225 12.7984 14.7225 13.8233C14.7225 14.5098 14.1928 14.8361 13.7066 14.8361C13.4803 14.8361 13.2106 14.766 13.0156 14.6307C13.0614 14.476 13.1095 14.3237 13.1336 14.1617C13.1336 14.1641 13.1769 14.1641 13.1769 14.1641Z" fill="#221F1F"/>
<path d="M15.4688 9.97266C15.541 9.97991 15.6108 9.99199 15.6902 9.99199C15.7625 9.99199 15.8299 9.97991 15.9117 9.97266V12.3053C16.1043 11.9137 16.4076 11.6841 16.8 11.6841C17.4404 11.6841 17.6884 12.1264 17.6884 12.9338V14.7878C17.6041 14.7805 17.5391 14.7684 17.4669 14.7684C17.3899 14.7684 17.3176 14.7829 17.2454 14.7878V13.0812C17.2454 12.3705 17.101 12.0176 16.6339 12.0176C16.138 12.0176 15.9117 12.3778 15.9117 13.0425V14.7878C15.8299 14.7805 15.7649 14.7684 15.6902 14.7684C15.6132 14.7684 15.541 14.7829 15.4688 14.7878V9.97266Z" fill="#221F1F"/>
<path d="M29.4729 17.7059H19.8144C19.5255 17.7059 19.2896 17.469 19.2896 17.1789V7.52937C19.2896 7.23931 19.5255 7 19.8144 7H29.4753C29.7642 7 30.0001 7.23689 30.0001 7.52937V17.1789C30.0001 17.469 29.7642 17.7059 29.4729 17.7059Z" fill="#DF146E"/>
<path d="M23.5698 12.3174L24.0296 14.3309L26.9667 12.8613L23.5698 12.3174Z" fill="white"/>
<path d="M24.434 8.97266L23.5626 12.1416L27.1039 12.6976L24.434 8.97266Z" fill="white"/>
<path d="M20.5967 8.50781L24.2632 8.94775L23.3965 12.0974L20.5967 8.50781Z" fill="white"/>
<path d="M20.4858 9.13867H20.8951L22.0386 10.6083L20.4858 9.13867Z" fill="white"/>
<path d="M27.2799 12.6779L26.2158 11.1985L27.9371 10.8867L27.2799 12.6779Z" fill="white"/>
<path d="M27.0222 13.2682L27.1305 12.9395L24.4438 14.3076L27.0222 13.2682Z" fill="white"/>
<path d="M23.3989 12.3057L23.9574 14.8389L22.2939 16.1974L23.3989 12.3057Z" fill="white"/>
<path d="M27.8237 11.6386L28.8011 11.6241L28.0958 10.9014L27.8237 11.6386Z" fill="white"/>
</svg>
