<svg width="34" height="24" viewBox="0 0 34 24" fill="none" xmlns="http://www.w3.org/2000/svg">
<rect width="34" height="24" rx="4" fill="#22577A" fill-opacity="0.06"/>
<path d="M20.7756 10.3799H16.2331C16.1431 10.3799 16.0981 10.4469 16.0981 10.514V10.8716C16.0981 10.961 16.1656 11.0057 16.2331 11.0057H19.6287V12.8832C19.5387 12.7491 19.4263 12.615 19.3139 12.4808C18.9091 12.0785 18.4818 11.8774 18.0321 11.8774C17.6723 11.8774 17.3799 12.0562 17.1326 12.3691C16.9302 12.6373 16.8177 12.9502 16.8177 13.2408C16.8177 13.5313 16.8627 13.9113 17.0876 14.2689C17.3574 14.6936 17.8072 14.8277 18.212 14.8277C18.7292 14.8277 19.1565 14.4701 19.1565 14.0007C19.1565 13.7325 19.0215 13.509 18.7742 13.3525L18.5268 13.2184V13.509C18.5268 13.5313 18.5268 13.5537 18.5268 13.576C18.5268 13.5984 18.5268 13.6207 18.5268 13.6207C18.5043 13.7325 18.3244 13.8889 18.122 13.8889C17.9421 13.8889 17.7847 13.8219 17.6723 13.7101C17.6048 13.6431 17.5598 13.509 17.5823 13.4196C17.5823 13.2855 17.6273 13.1737 17.7172 13.062C17.8297 12.9279 17.9421 12.8608 18.122 12.8608C18.5718 12.8608 18.9541 13.062 19.2689 13.509C19.5163 13.8889 19.6512 14.2466 19.6512 14.6489V15.5876L20.3258 15.9899C20.3483 16.0123 20.3708 16.0123 20.3933 16.0123C20.4832 16.0123 20.5282 15.9452 20.5282 15.8782V11.0281H20.798C20.888 11.0281 20.933 10.961 20.933 10.8939V10.5363C20.933 10.4469 20.8655 10.3799 20.7756 10.3799Z" fill="#ED1C24"/>
<path d="M29.8607 10.3803H25.813H25.2733H24.1039C24.014 10.3803 23.969 10.4474 23.969 10.5144V11.1402C23.4068 10.5591 22.9121 10.2686 22.4623 10.2686C22.035 10.2686 21.6752 10.358 21.3604 10.6038C21.0681 10.8273 20.8882 11.1179 20.8882 11.4531C20.8882 12.4589 22.0126 12.4366 22.3049 12.3025C22.3499 12.2801 22.4173 12.2354 22.4848 12.2354C22.7097 12.2354 22.7996 12.4142 22.7996 12.5707C22.7996 12.7942 22.4623 12.9953 22.0575 12.9953C21.8327 12.9953 21.6977 12.9283 21.6078 12.7942L21.4279 12.526L21.3154 12.8389C21.293 12.9059 21.248 12.9953 21.248 13.1071C21.248 13.3306 21.3604 13.5541 21.5853 13.7553C21.7877 13.9341 22.035 14.0235 22.3049 14.0235C22.7322 14.0235 23.092 13.867 23.3168 13.5541C23.5192 13.3082 23.6092 13.0177 23.6092 12.6824C23.6092 12.5036 23.5417 12.3025 23.3843 12.079C23.2044 11.8108 22.9795 11.6766 22.7322 11.6766C22.6422 11.6766 22.5298 11.699 22.4173 11.7437C22.3724 11.7661 22.2824 11.7884 22.2599 11.7884C22.2149 11.7884 22.1475 11.7661 22.1025 11.699C22.0575 11.6543 22.0126 11.5872 22.0126 11.4755C22.0126 11.2296 22.2374 10.9838 22.6422 10.9838H22.6647C22.9346 10.9838 23.2044 11.1179 23.4518 11.3637C23.6542 11.5649 23.8116 11.7661 23.9465 11.9896V15.5433L24.6211 15.9456C24.6436 15.968 24.6661 15.968 24.6886 15.968C24.7785 15.968 24.8235 15.9009 24.8235 15.8339V11.0285H25.2508H25.7905H25.8579V14.1352L26.6675 14.4705C26.69 14.4705 26.7125 14.4705 26.7125 14.4705C26.7799 14.4705 26.8474 14.4258 26.8474 14.3364V14.314C26.9823 13.3977 27.3871 12.7718 28.0617 12.3919C28.0617 12.4366 28.0617 12.5036 28.0617 12.5707C28.0617 12.7048 28.0617 13.04 28.0842 13.2188C28.0842 13.3306 28.0842 13.3977 28.1067 13.4647C28.1067 13.8223 28.1517 14.3587 28.2641 14.761C28.489 15.521 28.8713 15.6998 29.1411 15.6998H29.1636C29.321 15.6998 29.4559 15.6551 29.5459 15.5657C29.5909 15.521 29.6583 15.4316 29.6583 15.2751C29.6583 15.141 29.6358 15.0293 29.5909 14.9398L29.5234 14.8281L29.3885 14.8504C29.2536 14.8951 29.1861 14.8951 29.1861 14.8728H29.1636C29.1186 14.8728 29.1186 14.8728 29.0961 14.8504C29.0512 14.8281 28.9612 14.761 28.8938 14.5152C28.8488 14.3364 28.8263 14.0905 28.8263 13.9564C28.8263 12.9506 29.0287 12.1907 29.366 12.0343H29.3885C29.4335 12.0119 29.4784 11.9672 29.4784 11.9002C29.4784 11.8778 29.4784 11.8555 29.4559 11.8331V11.8108C29.2985 11.4978 28.9612 11.2743 28.5115 11.1626H28.4665H28.4215C28.0617 11.2296 27.6344 11.4755 27.0947 11.9225C26.9598 12.0343 26.8249 12.146 26.7125 12.2578V11.0285H29.8607C29.9507 11.0285 29.9956 10.9614 29.9956 10.8944V10.5368C30.0181 10.4474 29.9507 10.3803 29.8607 10.3803Z" fill="#ED1C24"/>
<path d="M14.6141 12.0344C14.6141 12.1908 14.6141 12.3249 14.5916 12.459C14.5467 13.0848 14.3892 13.666 14.1419 14.2024C14.0519 14.4259 13.9395 14.627 13.8046 14.8282C12.8601 16.3033 11.196 17.2868 9.30706 17.2868C8.49751 17.2868 7.73293 17.108 7.05831 16.7951C5.2593 15.9681 4 14.1353 4 12.0344C4 9.95574 5.21433 8.16769 6.94587 7.31836C6.81094 7.49716 6.67602 7.67597 6.56358 7.87713C6.56358 7.89948 6.54109 7.89948 6.54109 7.92183C6.47363 7.98888 6.40617 8.03358 6.3387 8.10063C6.24875 8.16769 6.18129 8.25709 6.09134 8.32414C6.06885 8.34649 6.04637 8.36884 6.04637 8.36884C6.02388 8.39119 6.00139 8.41354 6.00139 8.41354C5.9789 8.43589 5.95642 8.4806 5.91144 8.50295C5.86647 8.57 5.799 8.63705 5.75403 8.7041C5.52915 8.99466 5.34925 9.30757 5.21433 9.64283C5.19184 9.66518 5.19184 9.70988 5.16935 9.73223C5.14686 9.77694 5.14686 9.82164 5.12438 9.84399C5.12438 9.86634 5.10189 9.88869 5.10189 9.91104C5.0794 9.97809 5.05691 10.0228 5.03443 10.0898C5.01194 10.1345 5.01194 10.1792 4.98945 10.2016C4.98945 10.2239 4.96696 10.2463 4.96696 10.2687C4.96696 10.3134 4.94448 10.3581 4.94448 10.4028C4.92199 10.5369 4.8995 10.671 4.87701 10.8051C4.87701 10.8498 4.87701 10.8721 4.85453 10.9168C4.85453 10.9392 4.85453 10.9615 4.85453 11.0062C4.85453 11.0509 4.85453 11.0956 4.85453 11.118C4.85453 11.1627 4.85453 11.2074 4.85453 11.2521C4.85453 11.3191 4.85453 11.3862 4.85453 11.4532C4.85453 12.8837 5.50667 14.18 6.56358 15.007C7.37313 15.6552 8.38507 16.0575 9.48696 16.0575C10.4989 16.0575 11.4209 15.7446 12.1855 15.1858C12.7477 14.7835 13.1974 14.2694 13.5347 13.666C13.5797 13.5766 13.6247 13.5095 13.6696 13.4201C13.9395 12.8613 14.0969 12.2579 14.0969 11.6097C14.0969 11.565 14.0969 11.5203 14.0969 11.4532C14.0969 11.2968 14.0969 11.1627 14.0744 11.0062L14.0969 11.0286C14.1644 11.0956 14.2318 11.1403 14.2993 11.2074C14.3668 11.0956 14.4342 11.0062 14.5017 10.8945C14.5467 11.0956 14.5691 11.2968 14.5916 11.5203C14.6141 11.7214 14.6141 11.8779 14.6141 12.0344Z" fill="#ED1C24"/>
<path d="M9.93706 7.81041L8.94761 6C7.30602 6.73757 6.18164 8.36917 6.18164 10.269C6.18164 11.2301 6.47398 12.1241 6.9687 12.8617C6.92373 12.6158 6.92373 12.3699 6.92373 12.1017C6.94622 10.1572 8.18303 8.50328 9.93706 7.81041Z" fill="#F7941D"/>
<path d="M10.724 8.70423C11.1287 8.59248 11.5785 8.54777 12.0058 8.54777C12.2756 8.54777 12.5679 8.57012 12.8153 8.61483L12.7928 7.8102L12.7478 6.20095C12.5679 6.1786 12.3656 6.15625 12.1632 6.15625C11.2637 6.15625 10.4316 6.44681 9.757 6.91617L10.2967 7.8996C9.32974 8.23486 8.54267 8.90539 8.04795 9.77706C7.80059 10.2017 7.62069 10.6934 7.55322 11.2075C7.68815 10.9393 7.84556 10.6934 8.02546 10.4699C8.6776 9.62061 9.62208 8.97244 10.724 8.70423Z" fill="#ED1C24"/>
<path d="M13.085 7.78809L13.13 8.92797C12.7477 8.81622 12.3654 8.74917 11.9381 8.74917C11.1511 8.74917 10.409 8.97267 9.75684 9.35263C8.94728 9.84435 8.31763 10.6266 8.00281 11.543C8.31763 11.1183 8.69992 10.7384 9.14967 10.4478C9.80181 10.0232 10.5889 9.7773 11.4209 9.7773C12.0506 9.7773 12.6352 9.9114 13.1749 10.1573C13.5797 10.3361 13.9395 10.5819 14.2543 10.8948L14.884 9.9561L15.6935 8.72681C14.9739 8.1457 14.0744 7.78809 13.085 7.78809Z" fill="#F7941D"/>
<path d="M14.0969 11.4982C14.0969 11.5429 14.0969 11.5876 14.0969 11.6547C14.0969 12.5934 13.7146 13.3757 13.6696 13.4651C13.6246 13.5545 13.5797 13.6215 13.5347 13.7109C13.1974 14.3144 12.7476 14.8285 12.1854 15.2308C11.4209 15.7672 10.4989 16.1024 9.48693 16.1024C8.38504 16.1024 7.35061 15.7225 6.56355 15.052C5.52912 14.2026 4.85449 12.9286 4.85449 11.4982C4.85449 11.4312 4.85449 11.3641 4.85449 11.297C4.85449 11.2523 4.85449 11.2076 4.85449 11.1629C4.85449 11.1182 4.85449 11.0735 4.85449 11.0512C4.85449 11.0288 4.85449 11.0065 4.85449 10.9618C4.85449 10.9171 4.85449 10.8947 4.87698 10.85C4.89947 10.7159 4.92195 10.5818 4.94444 10.4477C4.94444 10.403 4.96693 10.3583 4.96693 10.3136C4.96693 10.2913 4.98942 10.2689 4.98942 10.2466C5.0119 10.2019 5.01191 10.1572 5.03439 10.1348C5.05688 10.0678 5.07937 10.0007 5.10186 9.95601C5.10186 9.93366 5.12434 9.91131 5.12434 9.88896C5.14683 9.84425 5.14683 9.79955 5.16932 9.7772C5.19181 9.75485 5.19181 9.71015 5.21429 9.6878C5.34922 9.35254 5.55161 9.03963 5.75399 8.74907C5.79897 8.68202 5.86643 8.61497 5.91141 8.54791C5.93389 8.52556 5.95638 8.48086 6.00136 8.45851C6.02384 8.43616 6.02384 8.41381 6.04633 8.41381C6.06882 8.39146 6.06882 8.36911 6.09131 8.36911C6.15877 8.27971 6.24872 8.21265 6.33867 8.1456C6.40613 8.07855 6.4736 8.03385 6.54106 7.9668C6.54106 7.98915 6.51857 7.98915 6.51857 8.0115C6.51857 8.03385 6.49608 8.0562 6.49608 8.0562C6.22623 8.59262 6.04633 9.24079 5.97887 9.91131C5.95638 10.0901 5.95638 10.2689 5.95638 10.4701C5.95638 12.8839 7.3731 14.8285 9.12713 14.8285H9.14961C9.19459 14.8285 9.26205 14.8285 9.30703 14.8285C9.55439 14.8285 9.80175 14.7838 10.0491 14.7391C11.241 14.4261 12.118 13.331 12.118 12.057C12.118 12.0346 12.118 12.0123 12.118 11.9899C12.0955 11.23 11.7807 10.5371 11.2634 10.0678C11.6232 10.0678 11.983 10.1348 12.3204 10.2242C12.9725 10.3807 13.5572 10.6936 14.0744 11.0959L14.0969 11.1182C14.0744 11.2076 14.0969 11.3641 14.0969 11.4982Z" fill="#F7941D"/>
<path d="M14.097 11.4978C14.097 11.5425 14.097 11.6095 14.097 11.6542C14.097 12.6377 13.6472 13.487 13.6472 13.487C13.6023 13.5764 13.5573 13.6434 13.5123 13.7328C13.175 14.3363 12.7028 14.8504 12.1406 15.2527C11.3535 15.8338 10.409 16.1244 9.41957 16.1244C8.34017 16.1244 7.30574 15.7444 6.4737 15.0739C5.3943 14.2022 4.76465 12.8835 4.76465 11.4978C4.76465 10.112 5.3943 8.79333 6.4737 7.92165L6.51868 7.87695C6.51868 7.8993 6.49619 7.8993 6.49619 7.92165C6.49619 7.94401 6.4737 7.94401 6.4737 7.96636C5.41679 8.83803 4.80962 10.112 4.80962 11.4978C4.80962 12.8835 5.41679 14.1575 6.49619 15.0515C7.30574 15.722 8.36266 16.0797 9.41957 16.0797C10.3865 16.0797 11.331 15.7891 12.1181 15.208C12.6803 14.8057 13.13 14.2916 13.4673 13.6881C13.5123 13.5987 13.5573 13.5317 13.5798 13.4423C13.5798 13.4423 14.0295 12.6153 14.0295 11.6319C14.0295 11.5872 14.0295 11.5201 14.0295 11.4754C14.0295 11.319 14.0295 11.1849 14.007 11.0284V11.006L14.0295 11.0284L14.052 11.0508C14.097 11.2296 14.097 11.3637 14.097 11.4978Z" fill="#F7941D"/>
</svg>
