<svg width="34" height="24" viewBox="0 0 34 24" fill="none" xmlns="http://www.w3.org/2000/svg">
<rect width="34" height="24" rx="4" fill="#22577A" fill-opacity="0.06"/>
<path fill-rule="evenodd" clip-rule="evenodd" d="M4 14.4061C4.01731 14.3131 4.03317 14.223 4.04871 14.1347C4.07273 13.9982 4.096 13.8659 4.12276 13.7336C4.23608 13.1353 4.35018 12.5378 4.46429 11.9403L4.4643 11.9402C4.5784 11.3427 4.6925 10.7453 4.80581 10.147C4.82155 10.0712 4.84358 10.0207 4.91913 10.0081C5.50775 9.91967 6.09952 9.85653 6.68814 10.0049C7.20121 10.1312 7.56005 10.4943 7.61986 10.9205C7.74262 11.7698 7.24843 12.4486 6.51501 12.6917C6.12785 12.818 5.73438 12.8496 5.33463 12.8117C5.24019 12.8022 5.21187 12.8275 5.19613 12.9191C5.11114 13.3832 5.023 13.8441 4.93172 14.3051C4.92542 14.343 4.8908 14.403 4.86877 14.403C4.65484 14.4077 4.44443 14.4071 4.22572 14.4065C4.15159 14.4063 4.0765 14.4061 4 14.4061ZM5.35351 12.0603C5.41505 12.0603 5.47465 12.0619 5.53272 12.0635C5.65585 12.0668 5.77211 12.07 5.88547 12.0571C6.21284 12.0224 6.47409 11.874 6.62204 11.5614C6.78886 11.2078 6.66925 10.8321 6.35448 10.7216C6.131 10.6427 5.90121 10.6585 5.67143 10.69C5.6431 10.6932 5.60533 10.7374 5.59903 10.7658C5.55504 10.9971 5.51104 11.2293 5.46539 11.4702L5.46535 11.4704L5.46527 11.4709L5.35351 12.0603ZM9.58088 13.7999C9.53107 13.8519 9.48442 13.9042 9.43882 13.9552C9.34034 14.0656 9.24679 14.1704 9.13705 14.2546C8.80655 14.5103 8.42882 14.5671 8.04795 14.3903C7.67023 14.2167 7.51599 13.8789 7.50025 13.481C7.46562 12.6444 7.75836 11.9529 8.4603 11.473C8.90098 11.1699 9.40776 11.0784 9.93342 11.1068C10.1073 11.1171 10.2799 11.1473 10.4528 11.1776L10.4528 11.1777C10.546 11.194 10.6393 11.2103 10.7329 11.2236C10.84 11.2394 10.8557 11.2994 10.8368 11.3909C10.8116 11.523 10.786 11.6549 10.7605 11.7867C10.6651 12.279 10.57 12.7701 10.4906 13.2632C10.445 13.5455 10.4268 13.8346 10.4088 14.1209L10.3993 14.2704C10.393 14.3714 10.3678 14.4124 10.2639 14.4093C10.0688 14.403 9.87362 14.403 9.67846 14.4093C9.57773 14.4124 9.54311 14.3745 9.55255 14.2767C9.56154 14.1685 9.56732 14.0572 9.57332 13.9414V13.9414V13.9414L9.57332 13.9414L9.57333 13.9413L9.57334 13.9412L9.57334 13.9411L9.57334 13.941L9.57335 13.941C9.57575 13.8947 9.57819 13.8477 9.58088 13.7999ZM9.80122 11.8487C9.4959 11.7635 9.24093 11.8235 9.02689 12.0034C8.62398 12.3444 8.44142 12.7864 8.47604 13.3137C8.48549 13.4747 8.54844 13.6294 8.71841 13.6989C8.88839 13.7683 9.04263 13.7178 9.17483 13.6041C9.25352 13.5347 9.32907 13.4558 9.38573 13.3674C9.60775 13.0275 9.6684 12.644 9.73 12.2546L9.73 12.2546C9.75137 12.1195 9.77285 11.9837 9.80122 11.8487ZM14.2615 13.6168C14.4346 14.1725 14.9099 14.4819 15.7441 14.4819C16.317 14.4661 16.8867 14.1409 17.2424 13.4716C17.4312 13.1116 17.5005 12.7265 17.4753 12.3223C17.4533 11.934 17.299 11.6056 16.9843 11.372C16.6538 11.1257 16.276 11.0752 15.8731 11.1194C14.5259 11.271 13.9751 12.7012 14.2615 13.6168ZM15.1579 13.1531C15.1583 13.137 15.1586 13.121 15.1586 13.1053C15.1681 12.7422 15.2562 12.4044 15.4734 12.1045C15.571 11.9719 15.6937 11.8708 15.8574 11.8329C16.1911 11.7572 16.4649 11.9498 16.4964 12.3128C16.5342 12.758 16.4271 13.1685 16.147 13.5252C16.04 13.6578 15.9046 13.7494 15.7315 13.7652C15.4199 13.7936 15.1838 13.5821 15.1586 13.2505C15.1565 13.2189 15.1572 13.1858 15.1579 13.1532V13.1532V13.1532V13.1531V13.1531ZM18.2245 11.1857H19.024C19.0114 11.3562 18.9988 11.5204 18.9831 11.6877C19.0122 11.6606 19.0403 11.6337 19.0678 11.6074L19.0679 11.6073L19.0681 11.6072L19.0681 11.6072L19.0681 11.6072L19.0681 11.6072C19.127 11.551 19.1834 11.4972 19.2412 11.4478C19.5528 11.1763 19.9085 11.0563 20.3209 11.1226C20.6608 11.1794 20.8969 11.4288 20.9347 11.7793C20.9757 12.144 20.9075 12.4977 20.8395 12.8506L20.8395 12.8506L20.8245 12.9285C20.797 13.0714 20.7698 13.2143 20.7426 13.3571L20.7422 13.3589C20.6825 13.673 20.6227 13.9866 20.5601 14.2988C20.5506 14.3398 20.5034 14.3998 20.4719 14.403C20.2012 14.4093 19.9305 14.4061 19.6598 14.403C19.6508 14.403 19.6417 14.398 19.6279 14.3906L19.6279 14.3906L19.6278 14.3905C19.6225 14.3876 19.6165 14.3844 19.6095 14.3809C19.6598 14.1188 19.7102 13.8536 19.7574 13.5884C19.8298 13.1811 19.8991 12.777 19.962 12.3697C19.9746 12.3002 19.9683 12.2276 19.9589 12.1582C19.9337 11.9151 19.7543 11.8045 19.5213 11.8772C19.2947 11.9498 19.1594 12.1266 19.0492 12.3223C18.8855 12.6096 18.8288 12.9285 18.7722 13.2474L18.7299 13.4841L18.7299 13.4842C18.6818 13.7547 18.6338 14.0242 18.5802 14.2956C18.5707 14.3367 18.5235 14.3998 18.492 14.403C18.2713 14.4105 18.0486 14.41 17.8112 14.4095H17.8111H17.8111H17.8111L17.6264 14.4093C17.8342 13.3232 18.0293 12.2592 18.2245 11.1857ZM22.7634 13.7463C22.4298 13.7052 22.2063 13.4716 22.2283 13.1432C22.2979 13.1432 22.3672 13.1443 22.4361 13.1453C22.5728 13.1474 22.7082 13.1495 22.8421 13.1432C23.1664 13.1243 23.4843 13.0706 23.7802 12.9222C24.1579 12.7328 24.3341 12.4202 24.3058 12.0129C24.2775 11.5993 24.054 11.2994 23.6542 11.1794C23.0562 10.9994 22.5053 11.1257 22.0363 11.5267C21.4666 12.0129 21.2526 12.657 21.3344 13.3926C21.391 13.9136 21.6743 14.2861 22.1906 14.4187C22.7446 14.5608 23.2891 14.485 23.8148 14.2704C23.8526 14.2546 23.8966 14.1946 23.8935 14.1567C23.8859 14.0026 23.8703 13.8485 23.8547 13.6945L23.8431 13.5789C23.8328 13.5789 23.8251 13.5784 23.8192 13.578C23.8107 13.5774 23.8059 13.5771 23.8022 13.5789C23.7676 13.5915 23.7329 13.6042 23.7015 13.6168C23.3993 13.7336 23.0877 13.7841 22.7634 13.7463ZM23.2513 12.3476C23.0593 12.4486 22.562 12.5086 22.3196 12.4581C22.37 12.0382 22.8138 11.7098 23.1884 11.8014C23.3143 11.8329 23.4056 11.8992 23.4276 12.035C23.4496 12.1676 23.3835 12.2781 23.2513 12.3476ZM25.3729 13.1559C25.3446 13.4653 25.5649 13.7021 25.9017 13.7463C26.2165 13.7842 26.5187 13.7368 26.8146 13.6295C26.8418 13.6192 26.8682 13.609 26.8971 13.5977C26.9216 13.5882 26.9479 13.5779 26.9782 13.5663C26.9844 13.6331 26.9912 13.6985 26.9979 13.7631L26.9979 13.7634V13.7634C27.0119 13.8971 27.0254 14.0269 27.0317 14.1567C27.0349 14.1946 26.9908 14.2546 26.9562 14.2704C26.4211 14.4914 25.8702 14.5672 25.3068 14.4125C24.8 14.2735 24.5356 13.9041 24.4727 13.399C24.394 12.7517 24.5608 12.1677 25.0109 11.6878C25.4957 11.1731 26.0906 10.99 26.7768 11.1794C27.1954 11.2963 27.4189 11.5993 27.4441 12.0256C27.4693 12.4423 27.2804 12.7549 26.887 12.938C26.4903 13.1211 26.0686 13.1496 25.6405 13.159C25.5555 13.1559 25.4673 13.1559 25.3729 13.1559ZM25.6331 12.4742L25.6331 12.4742C25.7728 12.4672 25.9073 12.4604 26.0402 12.4423C26.1661 12.4266 26.292 12.3887 26.4054 12.335C26.5281 12.2813 26.5879 12.1677 26.569 12.0287C26.5502 11.8961 26.462 11.833 26.3393 11.8014C25.9678 11.7004 25.5051 12.0414 25.4642 12.4834C25.5214 12.4798 25.5777 12.477 25.6331 12.4742ZM27.6172 13.7463C27.5763 13.9609 27.5385 14.1725 27.4976 14.4061C27.5606 14.4061 27.6228 14.4062 27.6842 14.4064C27.9264 14.4069 28.1574 14.4074 28.3884 14.3998C28.4104 14.3998 28.445 14.3398 28.4513 14.3019C28.4834 14.1442 28.5132 13.9858 28.543 13.8273C28.5978 13.5353 28.6527 13.2435 28.722 12.9569C28.8763 12.3192 29.1375 12.0982 29.7576 12.0161C29.7828 12.0129 29.8237 11.9845 29.83 11.9624C29.8695 11.781 29.9049 11.5981 29.9416 11.4085C29.9605 11.311 29.9797 11.2118 30 11.11C29.4019 11.0468 29.0683 11.3941 28.7787 11.8203L28.7833 11.7587C28.7976 11.5702 28.812 11.3783 28.8291 11.1763C28.7636 11.1763 28.6994 11.1761 28.6361 11.1759C28.4496 11.1753 28.2711 11.1747 28.0925 11.1794C28.0673 11.1826 28.0201 11.2394 28.0169 11.2741C27.9498 12.0856 27.7908 12.8792 27.632 13.6723L27.6172 13.7463Z" fill="black"/>
<path fill-rule="evenodd" clip-rule="evenodd" d="M19.2833 7.377C19.2514 7.36857 19.2195 7.36013 19.1877 7.35303C19.0901 7.35303 18.9925 7.35303 18.8886 7.35618C18.8532 7.3633 18.8177 7.37106 18.7819 7.37888C18.7383 7.38841 18.6943 7.39803 18.6494 7.4067C18.1678 7.49826 17.7145 7.66559 17.277 7.8866C16.3295 8.3665 15.4797 8.98848 14.7179 9.72412C14.2111 10.2103 13.7201 10.7187 13.2448 11.2396C12.4107 12.1552 11.6961 13.1624 11.1264 14.2674C10.8337 14.8389 10.5693 15.423 10.4496 16.0576C10.4276 16.1744 10.4654 16.3101 10.5032 16.427C10.5189 16.4743 10.607 16.509 10.6668 16.528C10.6826 16.5343 10.7298 16.4554 10.7518 16.4112C10.7596 16.394 10.7677 16.3765 10.7758 16.3586C10.9125 16.0591 11.0974 15.6541 11.2578 15.386C11.5977 14.8177 11.8661 14.3779 12.247 13.838C12.8576 12.9698 13.5711 12.1179 14.3203 11.3665C15.0285 10.6561 15.7378 10.0209 16.6286 9.541C17.0378 9.32315 17.4564 9.10846 17.8845 8.93165C18.6242 8.6254 19.3954 8.41702 20.1886 8.3002C20.2736 8.28757 20.3869 8.22127 20.4153 8.15181C20.4404 8.08867 20.3806 7.96869 20.3208 7.9087C20.0785 7.65928 19.7952 7.46985 19.4426 7.41302C19.3895 7.40512 19.3364 7.39106 19.2833 7.377ZM12.077 11.6848C12.2281 11.2743 12.3036 10.8481 12.3131 10.4061C12.3089 10.3587 12.3054 10.3114 12.3019 10.264C12.2949 10.1693 12.2879 10.0746 12.2753 9.97986C12.1903 9.24737 11.8756 8.6254 11.3751 8.09182C11.3153 8.03183 11.2334 7.98448 11.1516 7.95606C11.0697 7.92449 11.0162 7.97185 11.0225 8.06656C11.0227 8.06856 11.0228 8.07057 11.023 8.07257C11.0291 8.1528 11.0355 8.2359 11.0509 8.31599C11.073 8.44215 11.0949 8.56847 11.1169 8.69487C11.195 9.14417 11.2734 9.59455 11.3593 10.043C11.4443 10.4945 11.5388 10.9428 11.6395 11.388C11.6741 11.5301 11.7308 11.6721 11.8 11.8047C11.8535 11.9058 11.9291 11.8963 11.9983 11.8047C12.0298 11.7669 12.0613 11.729 12.077 11.6848Z" fill="#FC461E"/>
</svg>
