<svg width="34" height="24" viewBox="0 0 34 24" fill="none" xmlns="http://www.w3.org/2000/svg">
<rect width="34" height="24" rx="4" fill="#22577A" fill-opacity="0.06"/>
<g clip-path="url(#clip0_119_4168)">
<path fill-rule="evenodd" clip-rule="evenodd" d="M23.3232 6.07539L19.4812 9.82966L19.7508 11.9377L20.4586 10.4888L22.6488 13.2226L25.7154 4L15.5039 8.14994L18.2675 9.56616L23.3232 6.07539Z" fill="#8C3494"/>
<path d="M19.9867 12.6631H15.9418C12.8606 13.124 12.538 17.5048 15.9084 18.1004H19.9867V14.1446C21.3458 14.1889 21.6266 15.8469 20.6269 16.4508C20.8289 16.6809 21.6377 17.5383 21.6377 17.5383C23.7603 15.7482 22.5475 12.8019 19.9867 12.6631ZM18.5043 16.6156H16.2465C14.848 16.6993 14.3927 14.4407 16.1113 14.1446H18.5077L18.5043 16.6156Z" fill="#8C3494"/>
<path fill-rule="evenodd" clip-rule="evenodd" d="M28.4455 14.6426H26.9622L26.322 16.0922H28.2092C28.5884 16.0755 28.6055 16.6192 28.2092 16.6519H24.9406V14.1448H29.9647V12.6634H29.22C29.0009 9.60006 25.2522 9.50888 24.2662 11.1811C24.4605 11.3375 25.3788 12.1364 25.3788 12.1364C25.9429 11.2714 27.51 11.3124 27.7377 12.6634H23.46V18.1007H28.2794C29.3741 18.0848 29.8799 17.2943 29.998 16.6192C30.0631 15.5284 29.3886 14.804 28.4455 14.6426Z" fill="#8C3494"/>
<path fill-rule="evenodd" clip-rule="evenodd" d="M14.0214 12.6631H12.0665C11.4435 13.4042 10.365 16.399 12.5047 18.6576C12.5047 18.6576 13.4317 17.8838 13.6174 17.7374C12.9601 17.1092 11.8645 14.5586 14.0214 12.6631Z" fill="#8C3494"/>
<path fill-rule="evenodd" clip-rule="evenodd" d="M9.04646 18.7088C9.04663 18.9457 8.97489 19.1774 8.84032 19.3745C8.70575 19.5716 8.5144 19.7253 8.29046 19.8161C8.06652 19.9069 7.82006 19.9307 7.58226 19.8846C7.34445 19.8384 7.12599 19.7244 6.95449 19.5569C6.783 19.3894 6.66619 19.176 6.61883 18.9436C6.57147 18.7112 6.59569 18.4703 6.68843 18.2514C6.78117 18.0325 6.93826 17.8453 7.13983 17.7137C7.3414 17.582 7.5784 17.5117 7.82084 17.5117C8.14575 17.5117 8.45736 17.6378 8.68718 17.8623C8.91701 18.0867 9.04624 18.3912 9.04646 18.7088Z" fill="#8C3494"/>
<path fill-rule="evenodd" clip-rule="evenodd" d="M6.43854 12.6631C3.35736 13.124 3.03555 17.5048 6.40516 18.1004H6.42827C6.549 17.838 6.74474 17.6153 6.99193 17.459C7.23913 17.3027 7.52726 17.2196 7.82165 17.2196C8.11605 17.2196 8.40417 17.3027 8.65137 17.459C8.89856 17.6153 9.0943 17.838 9.21503 18.1004H10.4843V12.6631H6.43854ZM9.0002 16.6156H6.74238C5.34387 16.6993 4.88854 14.4407 6.60715 14.1446H9.00363L9.0002 16.6156Z" fill="#8C3494"/>
<path fill-rule="evenodd" clip-rule="evenodd" d="M7.88811 11.3799C8.38452 11.2962 8.6293 10.3008 7.8205 10.0791H6.50586V11.973H7.04507V11.3799L7.65189 11.973H8.49493L7.88811 11.3799ZM7.82392 10.7107C7.82392 10.7437 7.81048 10.7754 7.78657 10.7988C7.76265 10.8222 7.73021 10.8353 7.69639 10.8353H7.05191V10.5718H7.69639C7.73021 10.5718 7.76265 10.5849 7.78657 10.6083C7.81048 10.6317 7.82392 10.6634 7.82392 10.6964V10.7107Z" fill="#8C3494"/>
<path fill-rule="evenodd" clip-rule="evenodd" d="M9.43324 10.0469C9.23887 10.0469 9.04887 10.1032 8.88727 10.2088C8.72567 10.3143 8.59974 10.4644 8.5254 10.6399C8.45105 10.8154 8.43164 11.0085 8.46963 11.1948C8.50761 11.3812 8.60127 11.5523 8.73877 11.6865C8.87627 11.8208 9.05142 11.9122 9.24208 11.9492C9.43273 11.9861 9.63031 11.967 9.80984 11.8942C9.98936 11.8214 10.1428 11.6981 10.2506 11.5401C10.3585 11.3821 10.416 11.1963 10.4158 11.0064C10.4156 10.7518 10.3119 10.5078 10.1277 10.3278C9.94346 10.1479 9.69368 10.0469 9.43324 10.0469ZM9.43324 11.428C9.3486 11.428 9.26586 11.4034 9.19549 11.3575C9.12511 11.3115 9.07026 11.2462 9.03787 11.1698C9.00548 11.0933 8.99701 11.0092 9.01352 10.9281C9.03003 10.847 9.07079 10.7724 9.13064 10.7139C9.19049 10.6555 9.26674 10.6156 9.34975 10.5995C9.43276 10.5833 9.51881 10.5916 9.597 10.6233C9.6752 10.6549 9.74203 10.7085 9.78906 10.7773C9.83608 10.8461 9.86118 10.927 9.86118 11.0097C9.86118 11.1206 9.81609 11.227 9.73584 11.3055C9.65558 11.3839 9.54673 11.428 9.43324 11.428Z" fill="#8C3494"/>
<path fill-rule="evenodd" clip-rule="evenodd" d="M15.0043 10.5924H15.8867V10.0361H15.1404C14.5533 10.0361 14.0723 10.4694 14.0723 10.9981C14.0723 11.5268 14.5533 11.9651 15.1404 11.9651H15.8867V11.4047H15.0043C14.9426 11.4045 14.8818 11.3906 14.8264 11.3639C14.7711 11.3372 14.7227 11.2985 14.6851 11.2508H15.8833V10.7488H14.6851C14.7226 10.7007 14.7708 10.6616 14.8261 10.6344C14.8815 10.6073 14.9424 10.593 15.0043 10.5924Z" fill="#8C3494"/>
<path fill-rule="evenodd" clip-rule="evenodd" d="M11.4959 11.4047C11.3889 11.4042 11.2864 11.3625 11.2107 11.2885C11.135 11.2146 11.0923 11.1144 11.0919 11.0098V10.9872C11.0921 10.8826 11.1347 10.7823 11.2105 10.7083C11.2862 10.6343 11.3888 10.5926 11.4959 10.5924H12.3338V10.0361H11.5814C10.9943 10.0361 10.5142 10.4694 10.5142 10.9981C10.5142 11.5268 10.9952 11.9651 11.5823 11.9651H12.3338V11.4047H11.4959Z" fill="#8C3494"/>
<path fill-rule="evenodd" clip-rule="evenodd" d="M17.9364 10.0723H16.0347V10.5708H16.7305V11.9318H17.2398V10.5708H17.9364V10.0723Z" fill="#8C3494"/>
<path d="M13.4093 10.9949L14.3457 10.0723H13.5874L13.061 10.5917V10.0723H12.5518V11.9318H13.061V11.399L13.6019 11.9318H14.3594L13.4093 10.9949Z" fill="#8C3494"/>
<path d="M21.0678 19.0192C20.9763 19.0409 20.8969 19.0963 20.8462 19.1739C20.7885 19.2457 20.7561 19.3337 20.7537 19.4249C20.7539 19.4759 20.7649 19.5263 20.7862 19.5729C20.8136 19.634 20.8513 19.6641 20.8975 19.6641C20.9313 19.6604 20.9634 19.6473 20.9899 19.6265L21.043 19.7645C21.0014 19.7911 20.9531 19.8059 20.9035 19.8072C20.8383 19.8057 20.7756 19.782 20.7263 19.7402C20.6834 19.699 20.6514 19.6482 20.633 19.5922C20.6159 19.5404 20.6084 19.486 20.6108 19.4316V19.3805C20.6108 19.269 20.6721 19.1421 20.7948 18.9999C20.8357 18.9562 20.8794 18.9151 20.9258 18.877H21.1175V19.0133L21.0678 19.0192Z" fill="#8C3494"/>
<path d="M21.9196 19.0141V19.7963H21.7595V19.6951C21.7498 19.6423 21.7209 19.5948 21.6782 19.5612C21.6394 19.5212 21.5964 19.4854 21.5499 19.4541C21.5023 19.4214 21.4454 19.4039 21.3872 19.404C21.3603 19.4026 21.3335 19.409 21.3102 19.4224C21.2869 19.4358 21.2682 19.4555 21.2563 19.4792C21.2529 19.4857 21.2514 19.4929 21.252 19.5002C21.2525 19.5113 21.2555 19.5222 21.2608 19.532C21.2661 19.5419 21.2737 19.5504 21.2828 19.557C21.3002 19.5725 21.3227 19.5814 21.3461 19.5821C21.3884 19.575 21.4295 19.5626 21.4685 19.5453L21.5156 19.6875C21.4613 19.7185 21.4004 19.7368 21.3376 19.7411C21.2854 19.7414 21.2344 19.7263 21.1912 19.6976C21.1477 19.6694 21.1137 19.6292 21.0937 19.5821C21.0841 19.5579 21.0794 19.532 21.08 19.506C21.0783 19.4654 21.0879 19.4252 21.1078 19.3895C21.1277 19.3539 21.1571 19.3242 21.1929 19.3036C21.2422 19.2708 21.3003 19.253 21.3598 19.2525H21.3753C21.3703 19.2182 21.3548 19.1861 21.3307 19.1605C21.3212 19.1464 21.3086 19.1344 21.2938 19.1256C21.279 19.1168 21.2624 19.1113 21.2452 19.1095H21.068V19.0141H20.9961V18.877H22.0232V19.0141H21.9196ZM21.7595 19.0141H21.383C21.4313 19.0409 21.4719 19.0792 21.5011 19.1254C21.5302 19.1716 21.547 19.2243 21.5499 19.2785C21.6308 19.314 21.7024 19.3669 21.7595 19.4332V19.0141Z" fill="#8C3494"/>
<path d="M22.2313 19.0141V19.7963H22.0712V19.0141H21.9531V18.877H22.3383V19.0141H22.2313Z" fill="#8C3494"/>
<path d="M23.0034 19.0141H22.2827V18.877H23.2807V19.0141H23.1703V19.7963H23.0325C23.0188 19.7561 22.9469 19.6942 22.8253 19.6097C22.7594 19.5676 22.6884 19.5336 22.6139 19.5085C22.5412 19.479 22.464 19.4615 22.3854 19.4567L22.3426 19.3011C22.4408 19.2414 22.5445 19.191 22.6525 19.1505C22.7192 19.1195 22.8382 19.0752 23.0034 19.0141ZM23.0128 19.1814C22.9828 19.1915 22.9512 19.2024 22.9169 19.2157L22.643 19.3329L22.6122 19.3454C22.7425 19.3907 22.8649 19.4553 22.9751 19.537L23.0128 19.5646V19.1814Z" fill="#8C3494"/>
<path d="M23.4818 19.0141V19.7963H23.3217V19.0141H23.2036V18.877H23.5879V19.0141H23.4818Z" fill="#8C3494"/>
<path d="M23.5322 19.0142V18.877H24.0047C24.0053 18.8732 24.0053 18.8692 24.0047 18.8653C24.007 18.8336 23.9979 18.802 23.979 18.7761C23.9601 18.7501 23.9326 18.7314 23.9011 18.7231C23.8909 18.7222 23.8805 18.7222 23.8703 18.7231C23.8492 18.7235 23.8281 18.7266 23.8078 18.7323L23.7462 18.7474C23.721 18.751 23.6969 18.7596 23.6752 18.7725C23.6481 18.7908 23.6195 18.8068 23.5896 18.8202L23.5382 18.7039C23.6129 18.6572 23.6943 18.6214 23.7796 18.5976C23.8182 18.5865 23.8582 18.5805 23.8985 18.5801C23.9463 18.5825 23.9925 18.5969 24.0329 18.6219C24.0765 18.6494 24.1118 18.6878 24.1351 18.7331C24.1585 18.7784 24.169 18.8289 24.1656 18.8796H24.258V19.0167L23.5322 19.0142ZM24.0886 19.9277C24.0229 19.8701 23.9537 19.8165 23.8814 19.7671C23.8262 19.7345 23.7673 19.7081 23.706 19.6885C23.6693 19.6733 23.6312 19.6618 23.5921 19.6542V19.471H23.6538H23.7162C23.7763 19.4729 23.8361 19.4636 23.8926 19.4434C23.9781 19.4082 24.0218 19.3664 24.0218 19.3187C24.0218 19.3012 24.0173 19.2839 24.0088 19.2684C24.0003 19.2529 23.988 19.2397 23.973 19.2301C23.9411 19.2116 23.9085 19.1941 23.8754 19.1774C23.8672 19.1732 23.8582 19.1709 23.8489 19.1707C23.8271 19.1714 23.8056 19.1762 23.7856 19.1849C23.7573 19.1983 23.7445 19.2125 23.7462 19.2284C23.7522 19.2694 23.7958 19.2861 23.8771 19.2802L23.7916 19.4099C23.7532 19.4107 23.7157 19.3992 23.6846 19.3773C23.6555 19.3614 23.6311 19.3384 23.6139 19.3105C23.5966 19.2826 23.5871 19.2509 23.5861 19.2183C23.5864 19.1871 23.5961 19.1565 23.6139 19.1305C23.6316 19.1045 23.6568 19.0842 23.6863 19.0719C23.7439 19.042 23.8085 19.027 23.8737 19.0285C23.9007 19.0276 23.9276 19.0324 23.9525 19.0427L24.0192 19.0753C24.0685 19.0956 24.1105 19.1298 24.1396 19.1737C24.1688 19.2176 24.1838 19.2689 24.1827 19.3212C24.1835 19.3588 24.1747 19.3959 24.1573 19.4293C24.1398 19.4627 24.1141 19.4914 24.0826 19.5128C24.0167 19.5554 23.9418 19.5826 23.8635 19.5923C23.8917 19.6056 23.9319 19.6274 23.9858 19.6583C24.0628 19.7139 24.1359 19.7743 24.205 19.839L24.0886 19.9277Z" fill="#8C3494"/>
<path d="M25.212 19.015V19.7971H25.0519V19.4868C25.0502 19.4558 25.0379 19.4263 25.0168 19.4031C25.0082 19.3908 24.9967 19.3805 24.9834 19.3731C24.97 19.3657 24.9551 19.3614 24.9398 19.3605C24.9252 19.362 24.9111 19.3669 24.8987 19.3747C24.8864 19.3826 24.8761 19.3932 24.8688 19.4056C24.8463 19.4354 24.8346 19.4716 24.8354 19.5085H24.6642C24.6652 19.4686 24.6532 19.4293 24.63 19.3964C24.6219 19.3828 24.6104 19.3714 24.5967 19.3632C24.5829 19.3551 24.5673 19.3504 24.5512 19.3496C24.525 19.35 24.4996 19.3591 24.4794 19.3755C24.4693 19.3826 24.4607 19.3915 24.4543 19.4019C24.4478 19.4122 24.4435 19.4237 24.4417 19.4357L24.4366 19.4767V19.4943C24.4366 19.5746 24.4871 19.6148 24.588 19.6148C24.6168 19.6136 24.6454 19.6103 24.6736 19.6047L24.618 19.7628C24.5846 19.767 24.5649 19.7687 24.5581 19.7687C24.4806 19.7668 24.4065 19.737 24.3501 19.685C24.3219 19.6591 24.301 19.6266 24.2893 19.5905C24.2752 19.555 24.2677 19.5173 24.2671 19.4792C24.2651 19.4415 24.2713 19.4038 24.2851 19.3686C24.2989 19.3333 24.3202 19.3013 24.3474 19.2745C24.3746 19.2477 24.4073 19.2268 24.4433 19.2131C24.4793 19.1994 24.5178 19.1932 24.5564 19.1948C24.5972 19.1954 24.6372 19.2061 24.6726 19.2258C24.7081 19.2456 24.7379 19.2738 24.7592 19.3078C24.7797 19.2755 24.8076 19.2485 24.8408 19.2289C24.874 19.2093 24.9114 19.1976 24.9501 19.1948C24.9707 19.1957 24.9909 19.2006 25.0096 19.2093C25.0282 19.2179 25.045 19.23 25.0588 19.245V19.0141H24.1875V18.877H25.3001V19.0141L25.212 19.015Z" fill="#8C3494"/>
<path d="M26.413 19.0141H25.6923V18.877H26.6903V19.0141H26.579V19.7963H26.4378C26.4241 19.7561 26.3522 19.6942 26.2298 19.6097C26.1642 19.5676 26.0935 19.5335 26.0193 19.5085C25.9465 19.479 25.8693 19.4615 25.7908 19.4567L25.748 19.3011C25.846 19.2412 25.9498 19.1908 26.0578 19.1505C26.1288 19.1195 26.2478 19.0752 26.413 19.0141ZM26.4224 19.1814C26.3924 19.1915 26.3608 19.2024 26.3265 19.2157L26.0527 19.3329L26.0218 19.3454C26.1521 19.3907 26.2745 19.4553 26.3847 19.537L26.4224 19.5646V19.1814Z" fill="#8C3494"/>
<path d="M26.9583 19.0144C26.9168 19.0616 26.8905 19.1199 26.883 19.1817C26.9014 19.2673 26.9272 19.3513 26.96 19.4327C26.9841 19.4902 26.998 19.5513 27.0011 19.6134C27.0013 19.6579 26.9859 19.7011 26.9574 19.7359C26.9289 19.7706 26.889 19.7947 26.8445 19.8041C26.7889 19.8208 26.7314 19.8307 26.6733 19.8334L26.6956 19.6987C26.7897 19.6786 26.8368 19.646 26.8368 19.6008C26.8296 19.5326 26.8096 19.4662 26.7777 19.4051C26.7461 19.3445 26.726 19.2787 26.7187 19.211C26.7245 19.1415 26.748 19.0745 26.7871 19.0161H26.6211V18.8789H27.067V19.0161L26.9583 19.0144Z" fill="#8C3494"/>
<path d="M27.3016 19.0141V19.7963H27.1407V19.0141H27.0234V18.877H27.4077V19.0141H27.3016Z" fill="#8C3494"/>
<path d="M27.6703 19.3851C27.6369 19.3864 27.6036 19.3809 27.5725 19.3689C27.5414 19.357 27.5132 19.3388 27.4897 19.3156C27.4669 19.2918 27.4492 19.2638 27.4376 19.2332C27.426 19.2026 27.4207 19.17 27.4221 19.1375C27.4214 19.1064 27.4272 19.0756 27.4391 19.0468C27.451 19.0181 27.4688 18.992 27.4914 18.9701C27.5139 18.9482 27.5406 18.9309 27.57 18.9193C27.5994 18.9077 27.6309 18.9019 27.6626 18.9024C27.7072 18.9015 27.751 18.9143 27.7877 18.9391C27.8244 18.9639 27.8522 18.9993 27.8672 19.0404C27.8843 19.0766 27.8933 19.116 27.8937 19.1559C27.8973 19.2169 27.8764 19.2769 27.8355 19.3232C27.8139 19.3441 27.788 19.3605 27.7596 19.3711C27.7311 19.3818 27.7007 19.3865 27.6703 19.3851ZM27.8458 19.887C27.7185 19.7737 27.58 19.6731 27.4324 19.5867V19.37C27.6362 19.5 27.8206 19.6571 27.9801 19.8368V19.9982L27.8458 19.887ZM27.7037 19.0647C27.6969 19.0596 27.6892 19.0558 27.681 19.0537C27.6728 19.0515 27.6642 19.051 27.6557 19.0521C27.595 19.0613 27.565 19.0906 27.565 19.14C27.5657 19.1657 27.5764 19.1902 27.595 19.2086C27.6033 19.2183 27.6136 19.2261 27.6253 19.2316C27.6369 19.2371 27.6497 19.2401 27.6626 19.2403H27.6848C27.7045 19.2364 27.7221 19.2259 27.7346 19.2106C27.7471 19.1954 27.7537 19.1763 27.7533 19.1567C27.7535 19.1388 27.7491 19.1211 27.7404 19.1053C27.7317 19.0895 27.7191 19.0761 27.7037 19.0663V19.0647Z" fill="#8C3494"/>
<path d="M28.9883 18.785C28.8536 18.6905 28.6955 18.6328 28.5304 18.6177C28.472 18.6131 28.4133 18.6225 28.3595 18.6451C28.3057 18.6677 28.2583 18.7028 28.2214 18.7473C28.196 18.7874 28.1832 18.834 28.1846 18.8812H28.2968V19.0183H28.1846V19.8005H28.0212V19.0183H27.915V18.8812H28.0212C28.0207 18.831 28.0305 18.7814 28.0499 18.735C28.0693 18.6886 28.0979 18.6464 28.1341 18.611C28.2135 18.5377 28.3156 18.4927 28.4243 18.483L28.4962 18.4746H28.5304C28.6308 18.4754 28.7298 18.4964 28.8214 18.5365C28.9094 18.5796 28.9951 18.6271 29.0782 18.6787L28.9883 18.785Z" fill="#8C3494"/>
<path d="M28.852 19.0147V19.0197C28.9256 19.0244 28.9971 19.0456 29.0609 19.0816C29.1052 19.1007 29.1431 19.1316 29.1702 19.1708C29.1973 19.2101 29.2125 19.256 29.2141 19.3033C29.2151 19.3547 29.1969 19.4047 29.1627 19.4438C29.1284 19.4838 29.0814 19.5115 29.0292 19.5225C28.9831 19.5346 28.9349 19.5366 28.888 19.5283V19.3803C28.9051 19.3814 28.9222 19.3814 28.9393 19.3803C29.0198 19.3803 29.0592 19.3518 29.0592 19.2966C29.0592 19.2414 28.9898 19.187 28.852 19.1695V19.7943H28.71C28.6921 19.7578 28.6693 19.7238 28.6423 19.6931C28.6349 19.6847 28.6144 19.6588 28.5807 19.6153C28.5641 19.5956 28.5455 19.5777 28.5251 19.5618C28.5038 19.5465 28.4848 19.5285 28.4686 19.5082C28.458 19.4984 28.445 19.4912 28.4309 19.4873C28.3762 19.4664 28.3184 19.4543 28.2598 19.4514L28.2178 19.2958C28.2529 19.2707 28.3325 19.2247 28.4558 19.1561L28.5687 19.0917L28.6894 19.0231V19.0122H28.1836V18.875H29.2885V19.0122L28.852 19.0147ZM28.692 19.1954C28.6655 19.2146 28.6261 19.2406 28.5722 19.2732C28.5545 19.2813 28.5385 19.2927 28.5251 19.3066C28.508 19.3234 28.4909 19.3384 28.4754 19.3526C28.4926 19.3677 28.5191 19.3886 28.5568 19.4162C28.5944 19.4438 28.6372 19.4999 28.692 19.5609V19.1954Z" fill="#8C3494"/>
<path d="M29.5277 19.3851C29.4943 19.3865 29.461 19.381 29.4299 19.3691C29.3988 19.3571 29.3706 19.3389 29.3471 19.3156C29.3243 19.2918 29.3066 19.2638 29.295 19.2332C29.2834 19.2026 29.2781 19.17 29.2795 19.1374C29.2788 19.1064 29.2846 19.0756 29.2965 19.0468C29.3085 19.0181 29.3263 18.992 29.3488 18.9701C29.3713 18.9482 29.398 18.9309 29.4274 18.9192C29.4568 18.9076 29.4883 18.9019 29.52 18.9024C29.5645 18.9015 29.6082 18.9144 29.6447 18.9392C29.6813 18.9639 29.709 18.9994 29.7237 19.0404C29.7415 19.0764 29.7509 19.1159 29.7511 19.1558C29.7543 19.2168 29.7334 19.2767 29.6929 19.3232C29.6713 19.3441 29.6454 19.3605 29.617 19.3711C29.5885 19.3818 29.5581 19.3865 29.5277 19.3851ZM29.6989 19.887C29.5717 19.774 29.4335 19.6735 29.2864 19.5867V19.37C29.5645 19.5657 29.7477 19.7213 29.8333 19.8368V19.9982L29.6989 19.887ZM29.5577 19.0647C29.5509 19.0596 29.5432 19.0558 29.535 19.0537C29.5268 19.0515 29.5182 19.051 29.5097 19.0521C29.449 19.0613 29.419 19.0906 29.419 19.14C29.4197 19.1657 29.4304 19.1902 29.449 19.2086C29.4573 19.2183 29.4676 19.2261 29.4793 19.2316C29.4909 19.2371 29.5037 19.2401 29.5166 19.2403H29.5388C29.5585 19.2364 29.5761 19.2259 29.5886 19.2106C29.6011 19.1953 29.6077 19.1763 29.6073 19.1567C29.6079 19.1391 29.604 19.1216 29.5959 19.1058C29.5878 19.09 29.5759 19.0765 29.5611 19.0663L29.5577 19.0647Z" fill="#8C3494"/>
<path d="M11.832 19.8638L12.1307 19.9625L12.2497 19.8638L11.9519 19.7617L11.832 19.8638Z" fill="#8C3494"/>
<path d="M11.9315 19.0554V18.8789H9.58984V19.0554H9.98355V19.4494H10.3259C10.3259 19.4494 10.4218 19.4193 10.4449 19.3716V19.5272C10.4463 19.5597 10.4346 19.5915 10.4124 19.6157C10.3902 19.6399 10.3591 19.6547 10.3259 19.6569H9.82863C9.79868 19.6569 9.76872 19.6443 9.76872 19.5272V19.16H9.59755V19.6309C9.59755 19.6702 9.62237 19.8074 9.74818 19.8074H10.4218C10.4712 19.8011 10.5168 19.778 10.5507 19.7423C10.5847 19.7066 10.6047 19.6604 10.6075 19.6117V19.16H10.4483C10.432 19.2294 10.4414 19.2762 10.3687 19.2938H10.1701V19.0554H10.747V19.8083H10.9456V19.0554H11.0842V19.8083H11.7347C11.7883 19.8067 11.8392 19.7847 11.8764 19.7468C11.9135 19.7089 11.934 19.6583 11.9333 19.6058V19.16H11.7741C11.7741 19.2035 11.7681 19.2679 11.6953 19.2679H11.258V19.0554H11.9315ZM11.6748 19.4235C11.7047 19.4318 11.745 19.385 11.7741 19.3457V19.5272C11.7741 19.5966 11.7184 19.6569 11.6748 19.6569H11.258V19.4235H11.6748Z" fill="#8C3494"/>
<path d="M12.5484 19.2676H12.1504V19.475H12.5484V19.2676Z" fill="#8C3494"/>
<path d="M12.7676 18.8778V19.0543H13.4224V19.1589H12.7676V19.5771C12.7813 19.7135 12.8532 19.8055 12.9893 19.8055H13.5816V19.0526H13.7211V19.8055H13.9V18.877L12.7676 18.8778ZM13.4224 19.6817H13.0253C12.9653 19.6733 12.926 19.6039 12.926 19.5261V19.3186H13.4224V19.6817Z" fill="#8C3494"/>
<path d="M14.7585 19.0554H15.5699V19.16H15.3294C15.3294 19.1806 15.321 19.2004 15.3061 19.215C15.2912 19.2296 15.2709 19.2378 15.2498 19.2378C15.2287 19.2378 15.2085 19.2296 15.1935 19.215C15.1786 19.2004 15.1702 19.1806 15.1702 19.16H14.7568V19.605C14.7568 19.6485 14.7637 19.7899 14.8852 19.8074H15.2105V19.6569H14.9913C14.9675 19.652 14.9463 19.6388 14.9318 19.6197C14.9172 19.6005 14.9104 19.5769 14.9126 19.5531V19.3197H15.1309V19.4494H15.3294V19.3457C15.3166 19.298 15.5383 19.3022 15.5485 19.3457V19.8074H15.7274V19.0546H15.8464V19.8074H16.0253V18.8789H14.7585V19.0554Z" fill="#8C3494"/>
<path d="M14.4736 18.9297H14.0542V19.1731C14.0591 19.2227 14.0826 19.2687 14.1203 19.3022C14.1579 19.3358 14.207 19.3544 14.2579 19.3546H14.596V19.0543C14.592 19.0235 14.5779 18.9947 14.5559 18.9722C14.5339 18.9497 14.505 18.9348 14.4736 18.9297ZM14.3452 19.1898C14.269 19.1898 14.2074 19.1622 14.2074 19.1288C14.2074 19.0953 14.269 19.0677 14.3452 19.0677C14.4214 19.0677 14.483 19.0953 14.483 19.1288C14.483 19.1622 14.4239 19.1898 14.3478 19.1898H14.3452Z" fill="#8C3494"/>
<path d="M14.082 19.4473V19.6003L14.5921 19.807V19.6447L14.082 19.4473Z" fill="#8C3494"/>
<path d="M18.7597 18.9297H18.3369V19.1731C18.342 19.2226 18.3656 19.2685 18.4032 19.302C18.4408 19.3355 18.4897 19.3543 18.5406 19.3546H18.883V19.0543C18.8791 19.0233 18.8649 18.9943 18.8427 18.9718C18.8205 18.9493 18.7913 18.9345 18.7597 18.9297ZM18.6313 19.1898C18.5543 19.1898 18.4927 19.1622 18.4927 19.1288C18.4927 19.0953 18.5543 19.0677 18.6313 19.0677C18.7084 19.0677 18.7691 19.0953 18.7691 19.1288C18.7691 19.1622 18.7075 19.1898 18.6313 19.1898Z" fill="#8C3494"/>
<path d="M18.3652 19.4473V19.6003L18.8762 19.807V19.6447L18.3652 19.4473Z" fill="#8C3494"/>
<path d="M19.8442 19.16V19.0554H20.1737V18.8789H19.0303V19.0554H19.685V19.16H19.0303V19.5782C19.0448 19.7146 19.1159 19.8066 19.2519 19.8066H19.8442V19.3448H20.0034C20.0299 19.3448 20.0368 19.3323 20.0428 19.3708V19.4486C20.0334 19.4879 20.0299 19.5138 20.0034 19.5264H19.9444V19.682H20.0633C20.0911 19.6774 20.1171 19.6652 20.1381 19.6469C20.1591 19.6285 20.1745 19.6047 20.1823 19.5782V19.16H19.8442ZM19.685 19.6828H19.2879C19.228 19.6744 19.1886 19.605 19.1886 19.5272V19.3197H19.6825V19.3457L19.685 19.6828Z" fill="#8C3494"/>
<path d="M16.5625 18.8778V19.0543H17.2172V19.1589H16.5625V19.5771C16.5762 19.7135 16.6481 19.8055 16.7842 19.8055H17.3764V19.0526H17.5836L17.5082 19.1998V19.3036H17.6469C17.7214 19.3119 17.747 19.3596 17.747 19.4851C17.747 19.5687 17.7265 19.634 17.6615 19.6407H17.5314V19.7963H17.6709C17.7102 19.7963 17.8925 19.8138 17.9088 19.6407C17.9285 19.291 17.9456 19.1998 17.6906 19.1739L17.7274 19.0526H18.0081V19.8055H18.187V18.877L16.5625 18.8778ZM17.2172 19.6817H16.8193C16.7602 19.6733 16.72 19.6039 16.72 19.5261V19.3186H17.2172V19.6817Z" fill="#8C3494"/>
</g>
<defs>
<clipPath id="clip0_119_4168">
<rect width="26" height="16" fill="white" transform="translate(4 4)"/>
</clipPath>
</defs>
</svg>
