<svg width="34" height="24" viewBox="0 0 34 24" fill="none" xmlns="http://www.w3.org/2000/svg">
<rect width="34" height="24" rx="4" fill="#22577A" fill-opacity="0.06"/>
<g clip-path="url(#clip0_119_4208)">
<path d="M17.256 17.3598C16.7146 17.6976 16.1867 18.0406 15.6437 18.3595C15.3959 18.5049 15.1317 18.4454 14.9339 18.2535C14.7941 18.1175 14.7399 17.9634 14.8079 17.769C14.8678 17.6021 14.9151 17.4312 14.9495 17.2575C14.9982 17.004 14.9302 16.7706 14.7815 16.559C14.7496 16.5142 14.7151 16.4707 14.6878 16.423C14.4573 16.0204 14.5812 15.6423 15.0276 15.5047C15.7164 15.2939 16.3787 15.379 16.9901 15.7689C17.0662 15.8174 17.1371 15.8733 17.2111 15.925C17.2144 15.9275 17.2236 15.9217 17.2556 15.9131C17.2556 15.8014 17.2556 15.6814 17.2556 15.561C17.2556 15.4106 17.324 15.3301 17.4815 15.3301H19.2639C19.4122 15.3301 19.4772 15.402 19.4768 15.5466C19.4751 16.5735 19.4751 17.6007 19.4768 18.6282C19.4768 18.7835 19.4113 18.8525 19.2513 18.8513C18.6213 18.846 18.6705 18.9146 18.6713 18.3172C18.6713 17.6598 18.6713 17.0024 18.6713 16.3449C18.6713 16.112 18.66 16.1136 18.3504 16.105C18.1631 16.0997 18.072 16.1387 18.0754 16.3515C18.088 17.0911 18.0808 17.8307 18.08 18.5703C18.08 18.802 18.0329 18.8488 17.8015 18.8497C17.2304 18.8525 17.2488 18.8969 17.2535 18.3196C17.2581 17.9868 17.256 17.6536 17.256 17.3598ZM15.6055 17.4658C15.6672 17.4629 15.7054 17.4716 15.7315 17.4584C16.1446 17.2589 16.514 16.9825 16.8188 16.6445C16.9162 16.5372 16.8364 16.4678 16.7474 16.4185C16.4188 16.2364 16.046 16.1449 15.6685 16.1535C15.4686 16.1568 15.4345 16.2357 15.5568 16.3922C15.7336 16.6157 15.7714 16.8581 15.6958 17.1248C15.6672 17.2287 15.6408 17.3331 15.6055 17.4658Z" fill="#4B4A4A"/>
<path d="M12.2685 16.1008C11.943 16.1008 11.6218 16.095 11.3026 16.1033C11.1186 16.1078 11.0363 16.0482 11.0355 15.8567C11.0355 15.3308 11.0279 15.3308 11.5709 15.3308C11.9981 15.3308 12.4248 15.3308 12.8519 15.3308C12.9854 15.3308 13.1312 15.3197 13.1291 15.157C13.127 14.9943 12.9909 14.9281 12.833 14.9413C12.5272 14.9668 12.2223 15.0206 11.9166 15.0235C11.7285 15.0218 11.5426 14.9825 11.3706 14.908C11.0892 14.7889 11.0304 14.355 11.2602 14.1577C11.3089 14.1167 11.4391 14.0969 11.4832 14.1298C11.8927 14.433 12.3332 14.3114 12.7738 14.2461C12.9177 14.2194 13.065 14.2141 13.2105 14.2305C13.7145 14.3102 13.9585 14.7157 13.8157 15.2067C13.8065 15.2388 13.7998 15.2721 13.7855 15.33H14.1467C14.3063 15.33 14.3928 15.3912 14.3911 15.5625C14.384 16.1542 14.4503 16.1008 13.8598 16.1C13.6498 16.1 13.4398 16.1045 13.2299 16.1C13.111 16.0967 13.0556 16.125 13.0497 16.2569C13.0262 16.7734 13.1022 16.8404 13.6171 16.7266C13.7599 16.6949 13.9014 16.6551 14.0459 16.6312C14.2206 16.6021 14.3735 16.6941 14.3819 16.8585C14.394 17.172 14.4239 17.4953 14.3625 17.7994C14.2538 18.3557 13.825 18.645 13.305 18.8019C12.8888 18.9276 12.46 18.9059 12.0451 18.7888C11.437 18.6178 11.0401 18.0792 11.0069 17.3696C10.9943 17.105 11.0237 16.8354 11.0489 16.5729C11.0636 16.4258 11.1569 16.3407 11.3227 16.358C11.3716 16.3607 11.4205 16.3607 11.4693 16.358C11.7507 16.358 11.7746 16.3942 11.7885 16.6616C11.7993 16.9475 11.8272 17.2324 11.8721 17.515C11.9279 17.8372 12.1455 18.0254 12.4777 18.0393C12.7191 18.0473 12.9608 18.0297 13.1984 17.9867C13.3146 17.9594 13.4181 17.8947 13.4923 17.8031C13.5637 17.716 13.5826 17.5886 13.6246 17.4789C13.5249 17.4702 13.4248 17.4675 13.3248 17.4707C13.1513 17.485 12.9787 17.5319 12.8061 17.5311C12.439 17.5311 12.3051 17.3868 12.3021 17.0265C12.2984 16.7389 12.2984 16.4513 12.2963 16.1637C12.2894 16.1418 12.2801 16.1207 12.2685 16.1008Z" fill="#4B4A4A"/>
<path d="M22.9987 16.9541C22.9987 17.3925 23.0012 17.8309 22.9987 18.2689C22.9949 18.6921 22.6816 18.9448 22.2738 18.8203C21.6535 18.6309 21.024 18.6149 20.3839 18.6506C19.9304 18.6753 19.7775 18.5274 19.772 18.0803C19.772 18.0664 19.772 18.0528 19.772 18.0392C19.772 17.4311 19.772 17.4369 20.3529 17.2134C20.4646 17.1723 20.6342 17.0638 20.633 16.989C20.6292 16.8115 20.4377 16.814 20.2932 16.7955C19.8938 16.7446 19.7825 16.6312 19.7741 16.2396C19.7695 16.014 19.7767 15.7876 19.7741 15.5621C19.7741 15.3977 19.8581 15.3291 20.0207 15.3291C20.9303 15.3307 21.8403 15.3307 22.7505 15.3291C22.9303 15.3291 23.0025 15.4063 22.9991 15.5785C22.9954 16.0366 22.9987 16.4956 22.9987 16.9541ZM21.4028 16.0999C21.2348 16.0999 21.0668 16.095 20.8988 16.1032C20.8455 16.1057 20.7934 16.1443 20.7409 16.1652C20.7712 16.2166 20.7888 16.2885 20.8337 16.3144C20.9398 16.3652 21.0492 16.409 21.1613 16.4455C21.6107 16.6193 21.6846 17.0963 21.3003 17.386C21.1861 17.4726 21.0425 17.5215 20.9224 17.6025C20.8602 17.6436 20.8211 17.7192 20.7716 17.7792C20.8405 17.8108 20.9068 17.8638 20.9782 17.8708C21.3247 17.9049 21.6729 17.923 22.0193 17.953C22.1609 17.9657 22.2142 17.9065 22.2071 17.7779C22.1999 17.6415 22.1865 17.5055 22.1823 17.3671C22.1722 17.0384 22.1676 16.7096 22.1583 16.3809C22.1533 16.1961 22.0744 16.0847 21.8644 16.0933C21.709 16.1052 21.5553 16.1003 21.4011 16.1003L21.4028 16.0999Z" fill="#4B4A4A"/>
<path d="M21.3021 20.0007C21.2304 20.0014 21.1592 19.9882 21.0927 19.9618C21.0262 19.9355 20.9657 19.8965 20.9147 19.8471C20.8637 19.7978 20.8232 19.739 20.7956 19.6742C20.7679 19.6095 20.7537 19.54 20.7536 19.4698C20.7517 19.3995 20.7644 19.3294 20.791 19.264C20.8175 19.1986 20.8574 19.1391 20.9081 19.0892C20.9588 19.0393 21.0194 18.9999 21.0861 18.9735C21.1528 18.9471 21.2243 18.9343 21.2962 18.9357C21.368 18.9341 21.4394 18.9465 21.5062 18.9723C21.573 18.998 21.6339 19.0366 21.6853 19.0856C21.7367 19.1347 21.7775 19.1933 21.8055 19.258C21.8334 19.3227 21.8479 19.3922 21.8481 19.4624C21.8482 19.6045 21.7908 19.7408 21.6885 19.8417C21.5862 19.9425 21.4473 19.9997 21.3021 20.0007Z" fill="#4B4A4A"/>
<path d="M21.7582 11.6135L21.7557 11.6171C21.2578 12.2372 20.6311 12.747 19.9171 13.1127C19.1456 13.4756 18.2371 13.6058 17.3817 13.6231C17.6257 13.5199 17.8286 13.3416 17.9596 13.1153C18.0906 12.889 18.1424 12.627 18.1073 12.3692C18.0722 12.1114 17.952 11.8719 17.765 11.6871C17.578 11.5022 17.3344 11.3822 17.0713 11.3451C18.6622 11.2897 19.9406 10.1635 20.0027 8.76195C20.0044 8.72662 20.0053 8.69087 20.0053 8.65471C20.0053 8.57993 20.0019 8.50597 19.9948 8.43325C19.9948 8.30752 19.9948 8.16535 20.0053 8.04579C20.0263 7.75489 20.4374 7.55273 20.4374 7.55273H22.0951C22.4604 7.60779 22.5726 7.99238 22.5726 7.99238C22.7775 10.0197 21.8128 11.5296 21.7582 11.6135Z" fill="#144A96"/>
<path d="M14.0252 5.70793C14.2155 4.97349 13.7613 4.22712 13.0106 4.04087C12.2599 3.85461 11.497 4.29901 11.3066 5.03345C11.1162 5.7679 11.5705 6.51427 12.3212 6.70052C13.0719 6.88677 13.8348 6.44237 14.0252 5.70793Z" fill="#FED600"/>
<path d="M22.564 5.6922C22.7445 4.95538 22.2803 4.21489 21.5272 4.03827C20.7741 3.86165 20.0172 4.31577 19.8366 5.05259C19.6561 5.78941 20.1203 6.5299 20.8734 6.70652C21.6266 6.88314 22.3834 6.42902 22.564 5.6922Z" fill="#144A96"/>
<path d="M18.1177 12.526C18.1182 12.7592 18.0488 12.9874 17.918 13.1823C17.7872 13.3772 17.6008 13.5303 17.3819 13.6226C17.03 13.6296 16.6864 13.6169 16.3639 13.5926C15.6688 13.5417 14.9794 13.4332 14.3031 13.2685C13.1343 12.7475 12.1902 11.892 11.6337 10.8443L11.6186 10.8163C11.1986 10.0102 11.2708 7.99689 11.2708 7.99689C11.2797 7.66819 11.6883 7.54492 11.6883 7.54492H13.3422C13.6622 7.57985 13.8222 7.95375 13.8222 7.95375L13.8923 8.45173C13.8382 8.69826 13.8923 8.99286 13.9663 9.24719C14.0161 9.44439 14.0906 9.63483 14.188 9.8142C14.188 9.81626 14.1901 9.8179 14.1909 9.81995L14.1939 9.82529C14.663 10.6795 15.6289 11.2819 16.762 11.3414C16.8234 11.3447 16.8851 11.3464 16.9473 11.3464C16.989 11.3464 17.0301 11.3455 17.0707 11.3439C17.3616 11.3842 17.6278 11.5261 17.8202 11.7433C18.0126 11.9606 18.1183 12.2385 18.1177 12.526Z" fill="#FED600"/>
</g>
<defs>
<clipPath id="clip0_119_4208">
<rect width="12" height="16" fill="white" transform="translate(11 4)"/>
</clipPath>
</defs>
</svg>
