<svg width="96" height="96" viewBox="0 0 96 96" fill="none" xmlns="http://www.w3.org/2000/svg"><g id="fi_10337227" clip-path="url(#clip0_846_1047)"><g id="Layer 2"><g id="03.square_pen"><path id="background" d="M48 96C74.5097 96 96 74.5097 96 48C96 21.4903 74.5097 0 48 0C21.4903 0 0 21.4903 0 48C0 74.5097 21.4903 96 48 96Z" fill="url(#paint0_linear_846_1047)"></path><g id="Group"><path id="Vector" d="M59.7225 56.0625V66.4312H29.1863V35.895H40.7363C41.7224 35.895 42.6681 35.5033 43.3654 34.806C44.0627 34.1087 44.4544 33.163 44.4544 32.1769C44.4544 31.1908 44.0627 30.245 43.3654 29.5478C42.6681 28.8505 41.7224 28.4587 40.7363 28.4587H28.0913C26.4095 28.4587 24.7965 29.1268 23.6073 30.3161C22.4181 31.5053 21.75 33.1182 21.75 34.8V67.5262C21.749 68.3596 21.9123 69.185 22.2305 69.9552C22.5488 70.7255 23.0157 71.4254 23.6047 72.015C24.1936 72.6047 24.893 73.0724 25.6628 73.3916C26.4327 73.7107 27.2579 73.875 28.0913 73.875H60.8175C62.4993 73.875 64.1122 73.2069 65.3014 72.0177C66.4907 70.8285 67.1588 69.2155 67.1588 67.5337V56.0625C67.1588 55.0764 66.767 54.1307 66.0697 53.4334C65.3725 52.7361 64.4267 52.3444 63.4406 52.3444C62.4545 52.3444 61.5088 52.7361 60.8115 53.4334C60.1142 54.1307 59.7225 55.0764 59.7225 56.0625Z" fill="white"></path><path id="Vector_2" d="M67.126 39.1669L67.1073 39.1481L57.2129 29.25C57.2129 29.25 45.1623 41.3062 39.3479 47.235C38.6178 48.023 38.0727 48.964 37.7523 49.9894C36.7979 52.905 36.0085 55.875 35.1273 58.815C34.891 59.6044 34.9398 60.3 35.5567 60.8887C36.1398 61.4512 36.796 61.47 37.5517 61.2431C40.3642 60.4031 43.1767 59.6006 45.9892 58.7962C47.437 58.3758 48.7494 57.5833 49.7954 56.4975C55.3417 50.9363 67.126 39.1669 67.126 39.1669Z" fill="white"></path><path id="Vector_3" d="M72.8959 26.8687L69.5209 23.4937C68.6535 22.6268 67.4773 22.1397 66.2509 22.1397C65.0245 22.1397 63.8483 22.6268 62.9809 23.4937L59.1484 27.3262L69.0691 37.2487L72.9034 33.4144C73.3331 32.9843 73.6737 32.4737 73.9059 31.9119C74.1381 31.35 74.2572 30.7479 74.2565 30.14C74.2558 29.5321 74.1353 28.9303 73.9018 28.3689C73.6684 27.8076 73.3266 27.2979 72.8959 26.8687Z" fill="white"></path></g></g></g></g><defs><linearGradient id="paint0_linear_846_1047" x1="2.82129e-07" y1="40" x2="113.6" y2="153.6" gradientUnits="userSpaceOnUse"><stop stop-color="#262626"></stop><stop offset="1" stop-color="#262626"></stop></linearGradient><clipPath id="clip0_846_1047"><rect width="96" height="96" fill="white"></rect></clipPath></defs></svg>
