<svg width="96" height="96" viewBox="0 0 96 96" fill="none" xmlns="http://www.w3.org/2000/svg"><g id="fi_4340187" clip-path="url(#clip0_846_779)"><path id="Vector" fill-rule="evenodd" clip-rule="evenodd" d="M47.9998 0C74.5095 0 95.9998 21.4903 95.9998 48C95.9998 74.5097 74.5095 96 47.9998 96C21.4901 96 0 74.5097 0 48C0 21.4903 21.4901 0 47.9998 0ZM28.3301 38.9149C27.2286 38.9149 26.3301 39.8132 26.3301 40.9148V71.0166C26.3301 72.1181 27.2286 73.0164 28.3301 73.0164H67.6697C68.7713 73.0164 69.6696 72.1179 69.6696 71.0166V40.9149C69.6696 39.8134 68.7713 38.9151 67.6697 38.9151H64.8249V32.6085C64.8249 27.9782 62.9331 23.7712 59.8851 20.7232C56.8371 17.6751 52.6299 15.7834 47.9998 15.7834C43.3697 15.7834 39.1626 17.6753 36.1146 20.7231C33.0666 23.7711 31.1747 27.9782 31.1747 32.6083V38.9149H28.3301ZM37.5746 38.9149H58.425V32.6083C58.425 29.7448 57.2511 27.1391 55.3599 25.2482C53.469 23.3571 50.8633 22.1831 47.9998 22.1831C45.1363 22.1831 42.5306 23.3571 40.6397 25.248C38.7487 27.1391 37.5748 29.7448 37.5748 32.6083L37.5746 38.9149ZM51.1999 61.6284V53.0032C51.1999 51.2361 49.7672 49.8034 47.9998 49.8034C46.2326 49.8034 44.7999 51.2361 44.7999 53.0032V61.6284C44.7999 63.3958 46.2326 64.8283 47.9998 64.8283C49.7672 64.8283 51.1999 63.3956 51.1999 61.6284Z" fill="url(#paint0_linear_846_779)"></path></g><defs><linearGradient id="paint0_linear_846_779" x1="2.82128e-07" y1="40" x2="113.6" y2="153.6" gradientUnits="userSpaceOnUse"><stop stop-color="#262626"></stop><stop offset="1" stop-color="#262626"></stop></linearGradient><clipPath id="clip0_846_779"><rect width="96" height="96" fill="white"></rect></clipPath></defs></svg>
