<svg width="80" height="80" viewBox="0 0 80 80" fill="none" xmlns="http://www.w3.org/2000/svg">
<path d="M25.2948 45.4117C25.6477 45.0587 25.6477 44.4705 25.2948 44.1175L22.4713 41.294L26.1183 37.647C26.4713 37.294 26.4713 36.7058 26.1183 36.3528C25.7654 35.9999 25.1772 35.9999 24.8242 36.3528L21.1772 39.9999L17.883 36.7058C17.5301 36.3528 16.9419 36.3528 16.5889 36.7058C16.236 37.0587 16.236 37.647 16.5889 37.9999L19.883 41.294L16.5889 44.5881C16.236 44.9411 16.236 45.5293 16.5889 45.8823C16.9419 46.2352 17.5301 46.2352 17.883 45.8823L21.1772 42.5881L24.0007 45.4117C24.4713 45.7646 24.9419 45.7646 25.2948 45.4117ZM24.9419 57.0587C24.5889 57.4117 24.5889 57.9999 25.0595 58.3528C25.4125 58.7058 26.0007 58.7058 26.3536 58.2352C32.1183 51.8823 42.0007 51.9999 47.6478 57.8823C48.0007 58.2352 48.5889 58.2352 48.9419 57.8823C49.2948 57.5293 49.2948 56.9411 48.9419 56.5881C42.4713 49.9999 31.4125 49.8823 24.9419 57.0587Z" fill="#0074E4"/>
<path d="M68.9421 64.1175L72.0009 32.941C72.1186 31.6469 71.648 30.3528 70.8244 29.4116C70.0009 28.4704 68.7068 27.8822 67.4127 27.8822V19.7646C67.4127 16.7057 65.0597 14.2352 62.0009 14.1175L12.4715 13.4116C9.29503 13.4116 6.94209 15.8822 6.82444 18.8234V20.941C5.41268 21.294 4.35386 22.2352 3.76562 23.6469C3.05974 24.4704 2.58915 25.5293 2.35386 26.3528C1.76562 28.4704 1.88327 30.7057 2.11856 32.941C3.05974 43.294 4.00091 53.5293 4.82444 63.8822C5.17738 68.3528 6.35386 70.2351 12.8244 70.5881C31.295 71.5293 49.7656 71.4116 68.2362 71.0587C68.9421 71.0587 69.7656 71.0587 70.3539 70.7057C71.0597 70.3528 71.5303 69.6469 71.4127 68.941C71.0597 67.4116 68.4715 67.6469 66.9421 67.5293C68.0009 66.8234 68.7068 65.6469 68.9421 64.1175ZM12.4715 15.294L62.0009 15.9999C64.0009 15.9999 65.7656 17.7646 65.648 19.7646V27.9999H48.3539C47.0597 27.9999 45.7656 27.4116 44.8244 26.4704L42.1186 23.4116C40.7068 21.8822 38.7068 20.941 36.5891 20.941H8.58915V19.0587C8.58915 16.8234 10.3539 15.1763 12.4715 15.294ZM64.3539 66.5881H11.295C9.88327 66.5881 8.58915 65.5293 8.4715 63.9999L5.05974 25.6469C4.94209 23.9999 6.23621 22.5881 7.88327 22.5881H36.5891C38.2362 22.5881 39.7656 23.294 40.8244 24.4704L43.5303 27.5293C44.7068 28.941 46.4715 29.7646 48.3539 29.7646H67.4127C68.2362 29.7646 68.9421 30.1175 69.5303 30.7057C70.1186 31.294 70.3539 32.1175 70.2362 32.8234L67.1774 63.9999C67.0597 65.4116 65.7656 66.5881 64.3539 66.5881Z" fill="#0074E4"/>
<path d="M52.0006 39.7646L54.5888 37.1764C54.9418 36.8234 54.9418 36.2352 54.5888 35.8823C54.2359 35.5293 53.6476 35.5293 53.2947 35.8823L50.7065 38.4705L47.4123 35.1764C47.0594 34.8234 46.4712 34.8234 46.1182 35.1764C45.7653 35.5293 45.7653 36.1176 46.1182 36.4705L49.4123 39.7646L46.3535 42.8234C46.0006 43.1764 46.0006 43.7646 46.3535 44.1176C46.7065 44.4705 47.2947 44.4705 47.6476 44.1176L50.7065 41.0587L54.0006 44.3528C54.3535 44.7058 54.9418 44.7058 55.2947 44.3528C55.6476 43.9999 55.6476 43.4117 55.2947 43.0587L52.0006 39.7646ZM68.0006 8.94108C66.9417 10.3528 66.1182 11.7646 65.53 13.4117C65.4123 13.8823 65.6476 14.3528 66.1182 14.4705C66.5888 14.5881 67.0594 14.3528 67.177 13.8823C67.6476 12.4705 68.3535 11.0587 69.2947 9.88225C69.6476 9.52931 69.53 8.94108 69.177 8.58813C68.8241 8.58813 68.3535 8.58813 68.0006 8.94108ZM75.53 12.3528C75.2947 11.9999 74.7065 11.7646 74.3535 12.1175L68.8241 15.647C68.4712 15.8823 68.3535 16.4705 68.5888 16.8234C68.8241 17.1764 69.4123 17.4117 69.7653 17.0587L75.2947 13.5293C75.6476 13.294 75.7653 12.7058 75.53 12.3528ZM77.177 18.7058L70.9418 19.1764C70.4712 19.1764 70.1182 19.647 70.1182 20.1175C70.1182 20.5881 70.5888 20.9411 71.0594 20.9411L77.2947 20.4705C77.7653 20.4705 78.1182 19.9999 78.1182 19.5293C78.0006 19.0587 77.6476 18.7058 77.177 18.7058Z" fill="#0074E4"/>
</svg>
