<svg width="108" height="108" viewBox="0 0 108 108" fill="none" xmlns="http://www.w3.org/2000/svg">
<g clip-path="url(#clip0_1276_7826)">
<path d="M33.75 0C15.1103 0 0 15.1103 0 33.75C0 52.3897 15.1103 67.5 33.75 67.5C34.0457 67.5006 34.3386 67.4428 34.6119 67.3301C34.8853 67.2173 35.1337 67.0518 35.343 66.8429L66.8429 35.343C67.0517 35.1337 67.2172 34.8852 67.33 34.6119C67.4427 34.3386 67.5005 34.0457 67.5 33.75C67.4802 15.1185 52.3815 0.0198281 33.75 0Z" fill="#FEA82F"/>
<path d="M40.5601 15.3599H27.1201C24.3313 15.3599 22.0801 17.6111 22.0801 20.3999V47.2799C22.0801 50.0687 24.3313 52.3199 27.1201 52.3199H40.5601C43.3489 52.3199 45.6001 50.0687 45.6001 47.2799V20.3999C45.6001 17.6111 43.3489 15.3599 40.5601 15.3599ZM36.3601 48.9599H31.3201C30.8497 48.9599 30.4801 48.5903 30.4801 48.1199C30.4801 47.6495 30.8497 47.2799 31.3201 47.2799H36.3601C36.8305 47.2799 37.2001 47.6495 37.2001 48.1199C37.2001 48.5903 36.8305 48.9599 36.3601 48.9599ZM42.2401 43.9199H25.4401V20.3999H42.2401V43.9199Z" fill="white"/>
<path d="M69.7499 31.5C48.625 31.5 31.5 48.6252 31.5 69.7499C31.5 90.8747 48.625 108 69.7499 108C90.8749 108 108 90.8749 108 69.7501C107.975 48.6355 90.8646 31.5249 69.7499 31.5Z" fill="#0074E4"/>
<path d="M33.7496 99C24.4547 98.5127 16.5996 91.9433 14.4761 82.881L19.2371 85.2616C20.3492 85.817 21.7011 85.3658 22.2567 84.2536C22.8121 83.1415 22.3609 81.7896 21.2486 81.234L12.2486 76.7341C12.1855 76.7026 12.1136 76.7071 12.0461 76.6801C11.759 76.5706 11.4529 76.5201 11.146 76.5316C11.074 76.5278 11.0019 76.5278 10.93 76.5316C10.8597 76.552 10.7908 76.5761 10.7231 76.6035C10.1467 76.7391 9.6471 77.0965 9.33255 77.5981C9.29648 77.6565 9.23805 77.697 9.20662 77.7601L4.7067 86.7601C4.15109 87.8716 4.60165 89.223 5.71308 89.7789L5.71477 89.7797C6.03702 89.9354 6.3921 90.011 6.74984 90.0001C7.16809 90.0009 7.5783 89.8852 7.9344 89.6658C8.29051 89.4464 8.5784 89.1321 8.76577 88.7581L10.5117 85.2661C13.4895 95.7366 22.8714 103.098 33.7496 103.5C34.9923 103.5 35.9997 102.493 35.9997 101.25C35.9997 100.007 34.9923 99 33.7496 99ZM102.258 18.2295C101.146 17.6739 99.7948 18.1245 99.239 19.2359L99.2381 19.2376L97.4922 22.7296C94.5123 12.2593 85.1283 4.8993 74.2496 4.5C73.007 4.5 71.9996 5.50744 71.9996 6.75007C71.9996 7.9927 73.007 9.00014 74.2496 9.00014C83.5402 9.48825 91.3921 16.053 93.5186 25.1101L88.7575 22.7296C87.6454 22.1742 86.2935 22.6254 85.7379 23.7377C85.1825 24.8498 85.6337 26.2017 86.746 26.7573L95.7461 31.2572H95.8406C96.1225 31.4027 96.4325 31.4856 96.7495 31.5002C97.1593 31.5041 97.5619 31.3917 97.9105 31.1762L97.951 31.1401C98.2482 30.9434 98.4937 30.6779 98.6665 30.3662C98.6935 30.3213 98.7431 30.3031 98.7654 30.2582L103.265 21.2581C103.825 20.1486 103.379 18.7957 102.27 18.2358L102.258 18.2295Z" fill="#34BE82"/>
<g clip-path="url(#clip1_1276_7826)">
<path d="M77.6656 46.8H62.0984C59.4518 46.8 57.2031 48.958 57.2031 51.6038V88.0818C57.2031 90.7276 59.4043 92.8801 62.0508 92.8801L77.6436 92.8632C80.2898 92.8632 82.4547 90.7104 82.4547 88.0642L82.4774 51.6013C82.477 48.9459 80.3227 46.8 77.6656 46.8ZM67.6331 49.6801H72.1495C72.5463 49.6801 72.8695 50.0022 72.8695 50.4C72.8695 50.7979 72.5463 51.12 72.1495 51.12H67.6331C67.5385 51.12 67.4449 51.1014 67.3575 51.0652C67.2702 51.0291 67.1908 50.976 67.1239 50.9092C67.0571 50.8423 67.004 50.763 66.9679 50.6756C66.9317 50.5882 66.9131 50.4946 66.9132 50.4C66.9131 50.3055 66.9317 50.2119 66.9679 50.1245C67.004 50.0371 67.0571 49.9578 67.1239 49.8909C67.1908 49.824 67.2702 49.771 67.3575 49.7348C67.4449 49.6987 67.5385 49.6801 67.6331 49.6801ZM64.9192 49.9092C65.186 49.6428 65.6717 49.6391 65.9381 49.9092C66.0735 50.0451 66.1498 50.2288 66.1508 50.4205C66.1508 50.6079 66.0717 50.7946 65.9381 50.9282C65.8053 51.0618 65.6175 51.1405 65.4305 51.1405C65.2398 51.1405 65.0564 51.0618 64.9192 50.9282C64.7863 50.795 64.7106 50.6079 64.7106 50.4205C64.7102 50.2295 64.7863 50.0425 64.9192 49.9092ZM69.746 91.453C68.558 91.453 67.5917 90.486 67.5917 89.2984C67.5917 88.1103 68.558 87.1437 69.746 87.1437C70.9341 87.1437 71.9003 88.1103 71.9003 89.2984C71.9003 90.486 70.9337 91.453 69.746 91.453ZM80.2426 85.6793H59.723V53.6403H80.2426V85.6793Z" fill="white"/>
</g>
</g>
<defs>
<clipPath id="clip0_1276_7826">
<rect width="108" height="108" fill="white"/>
</clipPath>
<clipPath id="clip1_1276_7826">
<rect width="46.08" height="46.08" fill="white" transform="translate(46.8008 46.8)"/>
</clipPath>
</defs>
</svg>
