<svg width="72" height="72" viewBox="0 0 72 72" fill="none" xmlns="http://www.w3.org/2000/svg">
<path d="M72 36C72 55.8825 55.8825 72 36 72C16.1175 72 0 55.8825 0 36C0 16.1175 16.1175 0 36 0C55.8825 0 72 16.1175 72 36Z" fill="url(#paint0_linear_1141_1109)"/>
<path d="M46 37.25C41.175 37.25 37.25 41.175 37.25 46C37.25 50.825 41.175 54.75 46 54.75C50.825 54.75 54.75 50.825 54.75 46C54.75 41.175 50.825 37.25 46 37.25ZM44.75 44.75H47.25C48.975 44.75 50.375 46.15 50.375 47.875V48.5C50.375 50.225 48.975 51.625 47.25 51.625V52.25H44.75V51.625C43.025 51.625 41.625 50.225 41.625 48.5H44.125C44.125 48.8375 44.4125 49.125 44.75 49.125H47.25C47.5875 49.125 47.875 48.8375 47.875 48.5V47.875C47.875 47.5375 47.5875 47.25 47.25 47.25H44.75C43.025 47.25 41.625 45.85 41.625 44.125V43.5C41.625 41.775 43.025 40.375 44.75 40.375V39.75H47.25V40.375C48.975 40.375 50.375 41.775 50.375 43.5H47.875C47.875 43.1625 47.5875 42.875 47.25 42.875H44.75C44.4125 42.875 44.125 43.1625 44.125 43.5V44.125C44.125 44.4625 44.4125 44.75 44.75 44.75ZM17.25 29.75V48.5C17.25 50.5625 18.9375 52.25 21 52.25H36.65C35.4089 50.4021 34.7473 48.226 34.75 46C34.75 39.8 39.8 34.75 46 34.75C48.3125 34.75 50.4625 35.45 52.25 36.65V29.75H17.25ZM28.5 46H23.5V43.5H28.5V46ZM28.5 38.5H23.5V36H28.5V38.5ZM37.25 38.5H32.25V36H37.25V38.5ZM52.25 23.5V27.25H17.25V23.5C17.25 21.4375 18.9375 19.75 21 19.75H24.75V17.25H27.25V19.75H42.25V17.25H44.75V19.75H48.5C50.5625 19.75 52.25 21.4375 52.25 23.5Z" fill="white"/>
<defs>
<linearGradient id="paint0_linear_1141_1109" x1="0" y1="36" x2="72" y2="36" gradientUnits="userSpaceOnUse">
<stop stop-color="#00F38D"/>
<stop offset="1" stop-color="#009EFF"/>
</linearGradient>
</defs>
</svg>
