<svg width="20" height="20" viewBox="0 0 20 20" fill="none" xmlns="http://www.w3.org/2000/svg">
<g id="Frame">
<g id="Group">
<path id="Vector" d="M17.0083 10.7543C15.7314 11.7119 14.1727 12.3768 12.4762 12.7048C12.3049 13.9182 11.26 14.8549 10 14.8549C8.73996 14.8549 7.69512 13.9182 7.52379 12.7048C5.8273 12.3768 4.26855 11.7119 2.99168 10.7543C1.06246 9.30738 0 7.36785 0 5.29297V15.9375C0 17.5287 1.29457 18.8232 2.88574 18.8232H17.1143C18.7054 18.8232 20 17.5287 20 15.9375V5.29297C20 7.36785 18.9375 9.30738 17.0083 10.7543Z" fill="#0079FF"/>
<path id="Vector_2" d="M7.49863 11.5015V10.4371C7.49863 10.1136 7.76098 9.85121 8.08457 9.85121H11.9154C12.239 9.85121 12.5014 10.1136 12.5014 10.4371V11.5015C16.1548 10.7085 18.8281 8.22512 18.8281 5.29199V4.70605H14.1162V3.54168C14.1162 2.23711 13.0548 1.17578 11.7503 1.17578H8.24973C6.9452 1.17578 5.88383 2.23711 5.88383 3.54168V4.70605H1.17188V5.29199C1.17188 8.22512 3.84523 10.7085 7.49863 11.5015ZM7.05566 3.54168C7.05566 2.88328 7.59133 2.34766 8.24969 2.34766H11.7503C12.4086 2.34766 12.9443 2.88328 12.9443 3.54168V4.70605H7.05562V3.54168H7.05566Z" fill="#0079FF"/>
<path id="Vector_3" d="M11.3299 11.0234H8.6709V12.3529C8.6709 13.086 9.26734 13.6824 10.0004 13.6824C10.7334 13.6824 11.3299 13.086 11.3299 12.3529V11.0234Z" fill="#0079FF"/>
</g>
</g>
</svg>
