<svg width="32" height="32" viewBox="0 0 32 32" fill="none" xmlns="http://www.w3.org/2000/svg">
<g id="fi_726559">
<g id="Group">
<g id="Group_2">
<path id="Vector" d="M14.4262 11.2849V9.71338H4.99726C4.13138 9.71338 3.42578 10.419 3.42578 11.2849V14.4278H14.7577C14.5393 13.4677 14.4262 12.4336 14.4262 11.2849Z" fill="#0079FF"/>
</g>
</g>
<g id="Group_3">
<g id="Group_4">
<path id="Vector_2" d="M28.5051 17.5708C27.4333 19.2224 25.799 20.6273 23.4575 21.9725C23.0976 22.1784 22.6922 22.2853 22.2836 22.2853C21.875 22.2853 21.4696 22.1784 21.1144 21.9757C18.7729 20.6273 17.1385 19.2209 16.0652 17.5708H3.42578V25.4282C3.42578 26.2957 4.13138 26.9997 4.99726 26.9997H26.998C27.8655 26.9997 28.5695 26.2957 28.5695 25.4282V17.5708H28.5051ZM10.4975 22.2853H7.35449C6.92076 22.2853 6.56875 21.9332 6.56875 21.4995C6.56875 21.0658 6.92076 20.7138 7.35449 20.7138H10.4975C10.9312 20.7138 11.2832 21.0658 11.2832 21.4995C11.2832 21.9332 10.9312 22.2853 10.4975 22.2853Z" fill="#0079FF"/>
</g>
</g>
<g id="Group_5">
<g id="Group_6">
<path id="Vector_3" d="M28.0957 7.42087L22.5955 5.06365C22.3959 4.97878 22.1744 4.97878 21.9748 5.06365L16.4746 7.42087C16.187 7.54345 16 7.82788 16 8.14218V11.2851C16 15.6083 17.5982 18.1352 21.8946 20.6103C22.0156 20.6795 22.1508 20.714 22.2859 20.714C22.4211 20.714 22.5562 20.6795 22.6772 20.6103C26.9737 18.1415 28.5719 15.6146 28.5719 11.2851V8.14218C28.5719 7.82788 28.3849 7.54345 28.0957 7.42087ZM25.2576 10.9913L22.1146 14.92C21.9638 15.1054 21.7375 15.2139 21.5002 15.2139C21.4892 15.2139 21.4766 15.2139 21.4672 15.2139C21.2173 15.2029 20.9863 15.074 20.8465 14.865L19.275 12.5078C19.0345 12.1463 19.132 11.6592 19.4934 11.4187C19.8517 11.1799 20.3404 11.2741 20.5824 11.6372L21.5583 13.1002L24.0287 10.0107C24.3006 9.67281 24.7956 9.61938 25.1335 9.8881C25.4729 10.1568 25.5263 10.6518 25.2576 10.9913Z" fill="#0079FF"/>
</g>
</g>
</g>
</svg>
