<svg width="32" height="32" viewBox="0 0 32 32" fill="none" xmlns="http://www.w3.org/2000/svg">
<g id="fi_5788083">
<path id="Vector" d="M16 2C13.2311 2 10.5243 2.82109 8.22202 4.35943C5.91973 5.89776 4.12532 8.08427 3.06569 10.6424C2.00607 13.2006 1.72882 16.0155 2.26901 18.7313C2.80921 21.447 4.14258 23.9416 6.10051 25.8995C8.05844 27.8574 10.553 29.1908 13.2687 29.731C15.9845 30.2712 18.7994 29.9939 21.3576 28.9343C23.9157 27.8747 26.1022 26.0803 27.6406 23.778C29.1789 21.4757 30 18.7689 30 16C29.9959 12.2882 28.5196 8.72964 25.895 6.10501C23.2704 3.48039 19.7118 2.00408 16 2ZM8.98458 22.4046C8.71593 22.4046 8.45332 22.3249 8.22995 22.1757C8.00658 22.0264 7.83249 21.8143 7.72968 21.5661C7.62688 21.3179 7.59998 21.0448 7.65239 20.7813C7.7048 20.5178 7.83416 20.2758 8.02412 20.0858C8.21408 19.8959 8.45611 19.7665 8.71959 19.7141C8.98307 19.6617 9.25618 19.6886 9.50437 19.7914C9.75256 19.8942 9.9647 20.0683 10.1139 20.2917C10.2632 20.515 10.3429 20.7776 10.3429 21.0463C10.3426 21.4064 10.1994 21.7517 9.94469 22.0064C9.69003 22.2611 9.34472 22.4043 8.98458 22.4046ZM8.98458 17.3583C8.71593 17.3583 8.45332 17.2786 8.22995 17.1294C8.00658 16.9801 7.83249 16.768 7.72968 16.5198C7.62688 16.2716 7.59998 15.9985 7.65239 15.735C7.7048 15.4715 7.83416 15.2295 8.02412 15.0395C8.21408 14.8496 8.45611 14.7202 8.71959 14.6678C8.98307 14.6154 9.25618 14.6423 9.50437 14.7451C9.75256 14.8479 9.9647 15.022 10.1139 15.2454C10.2632 15.4687 10.3429 15.7314 10.3429 16C10.3426 16.3601 10.1994 16.7055 9.94469 16.9601C9.69003 17.2148 9.34472 17.358 8.98458 17.3583ZM8.98458 12.312C8.71593 12.312 8.45332 12.2323 8.22995 12.0831C8.00658 11.9338 7.83249 11.7217 7.72968 11.4735C7.62688 11.2253 7.59998 10.9522 7.65239 10.6887C7.7048 10.4252 7.83416 10.1832 8.02412 9.99326C8.21408 9.8033 8.45611 9.67394 8.71959 9.62153C8.98307 9.56912 9.25618 9.59601 9.50437 9.69882C9.75256 9.80163 9.9647 9.97572 10.1139 10.1991C10.2632 10.4225 10.3429 10.6851 10.3429 10.9537C10.3424 11.3138 10.1992 11.659 9.94453 11.9137C9.6899 12.1683 9.34468 12.3115 8.98458 12.312ZM23.0451 22.3749H12.988C12.6356 22.3749 12.2977 22.2349 12.0486 21.9857C11.7994 21.7366 11.6594 21.3986 11.6594 21.0463C11.6594 20.6939 11.7994 20.356 12.0486 20.1068C12.2977 19.8577 12.6356 19.7177 12.988 19.7177H23.0451C23.3975 19.7177 23.7354 19.8577 23.9846 20.1068C24.2337 20.356 24.3737 20.6939 24.3737 21.0463C24.3737 21.3986 24.2337 21.7366 23.9846 21.9857C23.7354 22.2349 23.3975 22.3749 23.0451 22.3749ZM23.0451 17.3286H12.988C12.8135 17.3286 12.6408 17.2942 12.4796 17.2274C12.3184 17.1607 12.1719 17.0628 12.0486 16.9394C11.9252 16.8161 11.8273 16.6696 11.7606 16.5084C11.6938 16.3472 11.6594 16.1745 11.6594 16C11.6594 15.8255 11.6938 15.6528 11.7606 15.4916C11.8273 15.3304 11.9252 15.1839 12.0486 15.0606C12.1719 14.9372 12.3184 14.8393 12.4796 14.7726C12.6408 14.7058 12.8135 14.6714 12.988 14.6714H23.0451C23.2196 14.6714 23.3924 14.7058 23.5536 14.7726C23.7148 14.8393 23.8612 14.9372 23.9846 15.0606C24.108 15.1839 24.2058 15.3304 24.2726 15.4916C24.3393 15.6528 24.3737 15.8255 24.3737 16C24.3737 16.1745 24.3393 16.3472 24.2726 16.5084C24.2058 16.6696 24.108 16.8161 23.9846 16.9394C23.8612 17.0628 23.7148 17.1607 23.5536 17.2274C23.3924 17.2942 23.2196 17.3286 23.0451 17.3286ZM23.0451 12.2823H12.988C12.6356 12.2823 12.2977 12.1423 12.0486 11.8932C11.7994 11.644 11.6594 11.3061 11.6594 10.9537C11.6594 10.6014 11.7994 10.2634 12.0486 10.0143C12.2977 9.76511 12.6356 9.62514 12.988 9.62514H23.0451C23.3975 9.62514 23.7354 9.76511 23.9846 10.0143C24.2337 10.2634 24.3737 10.6014 24.3737 10.9537C24.3737 11.3061 24.2337 11.644 23.9846 11.8932C23.7354 12.1423 23.3975 12.2823 23.0451 12.2823Z" fill="#0079FF"/>
</g>
</svg>
