<svg width="32" height="32" viewBox="0 0 32 32" fill="none" xmlns="http://www.w3.org/2000/svg">
<path d="M28.6674 14.6673V28.0007C28.6674 28.2673 28.5073 28.5207 28.2539 28.614C28.1739 28.654 28.0806 28.6673 28.0006 28.6673C27.8274 28.6673 27.6539 28.6008 27.5206 28.4674L25.1074 26.0007H13.3339C10.7607 26.0007 8.66733 23.9073 8.66733 21.334H18.6674C22.3474 21.334 25.3339 18.3473 25.3339 14.6673V10.2005C27.2539 10.7739 28.6674 12.5607 28.6674 14.6673ZM23.3339 14.6673V8.00066C23.3339 5.42733 21.2406 3.33398 18.6674 3.33398H8.00066C5.42733 3.33398 3.33398 5.42733 3.33398 8.00066V21.334C3.33398 21.6007 3.49398 21.854 3.74733 21.9473C3.82733 21.9873 3.92066 22.0007 4.00066 22.0007C4.17398 22.0007 4.34731 21.9341 4.48064 21.8008L6.894 19.334H18.6674C21.2406 19.334 23.3339 17.2407 23.3339 14.6673Z" fill="url(#paint0_linear_1216_1082)"/>
<path d="M11.318 8.98133H15.2433C15.4993 8.98133 15.734 8.74667 15.734 8.49067C15.734 8.23467 15.4993 8 15.2433 8H11.318C11.062 8 10.8273 8.23467 10.8273 8.49067C10.7846 8.74667 11.0193 8.98133 11.318 8.98133Z" fill="white"/>
<path d="M15.2441 13.0781H11.3188C11.0628 13.0781 10.8281 13.3128 10.8281 13.5688C10.8281 13.8248 11.0628 14.0595 11.3188 14.0595H15.2441C15.5001 14.0595 15.7348 13.8248 15.7348 13.5688C15.7561 13.3128 15.5215 13.0781 15.2441 13.0781Z" fill="white"/>
<path d="M17.2488 10.5176H9.29145C9.03545 10.5176 8.80078 10.7522 8.80078 11.0082C8.80078 11.2642 9.03545 11.4989 9.29145 11.4989H17.2061C17.4621 11.4989 17.6968 11.2642 17.6968 11.0082C17.7394 10.7522 17.5048 10.5176 17.2488 10.5176Z" fill="white"/>
<defs>
<linearGradient id="paint0_linear_1216_1082" x1="16.0006" y1="3.33401" x2="16.0006" y2="28.6669" gradientUnits="userSpaceOnUse">
<stop stop-color="#0079FF"/>
<stop offset="1" stop-color="#40128B"/>
</linearGradient>
</defs>
</svg>
