<svg width="32" height="32" viewBox="0 0 32 32" fill="none" xmlns="http://www.w3.org/2000/svg">
<path fill-rule="evenodd" clip-rule="evenodd" d="M23.994 18.4704V19.1227C23.994 19.4677 23.7126 19.7486 23.3679 19.7486C23.0231 19.7486 22.7421 19.4677 22.7421 19.1227V18.4704C22.7421 18.1251 23.0226 17.8443 23.3679 17.8443C23.7132 17.8443 23.994 18.1251 23.994 18.4704ZM18.1085 13.528V12.8757C18.1085 12.5307 17.8277 12.2499 17.4821 12.2499C17.1366 12.2499 16.8566 12.5307 16.8566 12.8757V13.528C16.8566 13.8733 17.1371 14.1538 17.4821 14.1538C17.8271 14.1538 18.1085 13.8733 18.1085 13.528ZM30.4299 20.8771C29.6025 21.9045 29.605 23.1652 30.4299 24.1894C31.0023 24.9001 31.1436 25.8181 30.8451 26.6312H10.208V24.9395C10.208 24.5081 9.85819 24.1583 9.42675 24.1583C8.99531 24.1583 8.6455 24.5081 8.6455 24.9395V26.6312H1V19.945C3.17919 19.945 4.94581 18.1784 4.94581 15.9992C4.94581 13.8199 3.17925 12.0534 1 12.0534V5.36719H8.64544V7.1905C8.64544 7.62225 8.99556 7.97175 9.42669 7.97175C9.85781 7.97175 10.2079 7.62225 10.2079 7.1905V5.36719H30.8361C31.1491 6.19219 31.0137 7.13287 30.4299 7.85775C29.6025 8.88512 29.605 10.1458 30.4299 11.1701C31.1901 12.1139 31.1901 13.4236 30.4299 14.3674C29.6027 15.3946 29.6048 16.6557 30.4299 17.6798C31.1901 18.6236 31.1901 19.9332 30.4299 20.8771V20.8771ZM10.208 20.0631C10.208 19.6316 9.85819 19.2818 9.42675 19.2818C8.99531 19.2818 8.6455 19.6316 8.6455 20.0631V21.8205C8.6455 22.2519 8.99563 22.6017 9.42675 22.6017C9.85787 22.6017 10.208 22.2519 10.208 21.8205V20.0631ZM10.208 15.1863C10.208 14.7549 9.85819 14.4051 9.42675 14.4051C8.99531 14.4051 8.6455 14.7549 8.6455 15.1863V16.9441C8.6455 17.3755 8.99563 17.7253 9.42675 17.7253C9.85787 17.7253 10.208 17.3755 10.208 16.9441V15.1863ZM10.208 10.3099C10.208 9.87844 9.85819 9.52862 9.42675 9.52862C8.99531 9.52862 8.6455 9.87844 8.6455 10.3099V12.0673C8.6455 12.4987 8.99563 12.8486 9.42675 12.8486C9.85787 12.8486 10.208 12.4987 10.208 12.0673V10.3099ZM17.4821 15.7163C18.6891 15.7163 19.6711 14.7347 19.6711 13.528V12.8757C19.6711 11.669 18.6891 10.6874 17.4821 10.6874C16.2751 10.6874 15.2941 11.669 15.2941 12.8757V13.528C15.2941 14.7347 16.2757 15.7163 17.4821 15.7163ZM18.6276 20.675L23.5758 12.1047C23.7915 11.7311 23.6632 11.2533 23.2896 11.0375C22.9159 10.8218 22.4384 10.9498 22.2227 11.3234L17.2745 19.8937C17.0588 20.2674 17.1871 20.7452 17.5601 20.9609C17.6834 21.0321 17.8177 21.0658 17.9503 21.0658C18.2202 21.0658 18.4827 20.9257 18.6276 20.6751V20.675ZM25.5565 18.4704C25.5565 17.2638 24.5746 16.2818 23.3679 16.2818C22.1612 16.2818 21.1796 17.2638 21.1796 18.4704V19.1227C21.1796 20.3294 22.1609 21.3111 23.3679 21.3111C24.5749 21.3111 25.5565 20.3294 25.5565 19.1227V18.4704Z" fill="url(#paint0_linear_1202_1931)"/>
<defs>
<linearGradient id="paint0_linear_1202_1931" x1="16" y1="26.6312" x2="16" y2="5.36719" gradientUnits="userSpaceOnUse">
<stop stop-color="#1751FF"/>
<stop offset="1" stop-color="#17A0FF"/>
</linearGradient>
</defs>
</svg>
