<svg width="72" height="72" viewBox="0 0 72 72" fill="none" xmlns="http://www.w3.org/2000/svg">
<path d="M36 72C55.8823 72 72 55.8823 72 36C72 16.1177 55.8823 0 36 0C16.1177 0 0 16.1177 0 36C0 55.8823 16.1177 72 36 72Z" fill="url(#paint0_linear_1141_1090)"/>
<path d="M36 72C55.8823 72 72 55.8823 72 36C72 16.1177 55.8823 0 36 0C16.1177 0 0 16.1177 0 36C0 55.8823 16.1177 72 36 72Z" fill="url(#paint1_linear_1141_1090)"/>
<path d="M25.375 43.5C25.7202 43.5 26 43.2202 26 42.875C26 42.5298 25.7202 42.25 25.375 42.25C25.0298 42.25 24.75 42.5298 24.75 42.875C24.75 43.2202 25.0298 43.5 25.375 43.5Z" fill="white"/>
<path d="M20.375 47.25H27.875C28.3723 47.25 28.8492 47.0525 29.2008 46.7008C29.5525 46.3492 29.75 45.8723 29.75 45.375V40.375C29.75 39.8777 29.5525 39.4008 29.2008 39.0492C28.8492 38.6975 28.3723 38.5 27.875 38.5H20.375C19.8777 38.5 19.4008 38.6975 19.0492 39.0492C18.6975 39.4008 18.5 39.8777 18.5 40.375V45.375C18.5 45.8723 18.6975 46.3492 19.0492 46.7008C19.4008 47.0525 19.8777 47.25 20.375 47.25ZM25.375 41C25.7458 41 26.1084 41.11 26.4167 41.316C26.725 41.522 26.9654 41.8149 27.1073 42.1575C27.2492 42.5001 27.2863 42.8771 27.214 43.2408C27.1416 43.6045 26.963 43.9386 26.7008 44.2008C26.4386 44.463 26.1045 44.6416 25.7408 44.714C25.3771 44.7863 25.0001 44.7492 24.6575 44.6073C24.3149 44.4654 24.022 44.225 23.816 43.9167C23.61 43.6084 23.5 43.2458 23.5 42.875C23.5 42.3777 23.6975 41.9008 24.0492 41.5492C24.4008 41.1975 24.8777 41 25.375 41Z" fill="white"/>
<path d="M50.375 32.2502H24.125C23.2965 32.2512 22.5022 32.5807 21.9164 33.1666C21.3306 33.7524 21.001 34.5467 21 35.3752V37.2502H27.875C28.7035 37.2512 29.4978 37.5807 30.0836 38.1666C30.6694 38.7524 30.999 39.5467 31 40.3752V45.3752C30.999 46.2037 30.6694 46.9979 30.0836 47.5838C29.4978 48.1696 28.7035 48.4992 27.875 48.5002H21V50.3752C21.001 51.2037 21.3306 51.9979 21.9164 52.5838C22.5022 53.1696 23.2965 53.4992 24.125 53.5002H50.375C51.2035 53.4992 51.9978 53.1696 52.5836 52.5838C53.1694 51.9979 53.499 51.2037 53.5 50.3752V35.3752C53.499 34.5467 53.1694 33.7524 52.5836 33.1666C51.9978 32.5807 51.2035 32.2512 50.375 32.2502ZM46.625 51.0002H42.875C42.7092 51.0002 42.5503 50.9343 42.4331 50.8171C42.3158 50.6999 42.25 50.5409 42.25 50.3752C42.25 50.2094 42.3158 50.0504 42.4331 49.9332C42.5503 49.816 42.7092 49.7502 42.875 49.7502H46.625C46.7908 49.7502 46.9497 49.816 47.0669 49.9332C47.1842 50.0504 47.25 50.2094 47.25 50.3752C47.25 50.5409 47.1842 50.6999 47.0669 50.8171C46.9497 50.9343 46.7908 51.0002 46.625 51.0002ZM50.375 51.0002H49.125C48.9592 51.0002 48.8003 50.9343 48.6831 50.8171C48.5658 50.6999 48.5 50.5409 48.5 50.3752C48.5 50.2094 48.5658 50.0504 48.6831 49.9332C48.8003 49.816 48.9592 49.7502 49.125 49.7502H50.375C50.5408 49.7502 50.6997 49.816 50.8169 49.9332C50.9342 50.0504 51 50.2094 51 50.3752C51 50.5409 50.9342 50.6999 50.8169 50.8171C50.6997 50.9343 50.5408 51.0002 50.375 51.0002ZM25.4456 31.0002H31.3412C32.8488 29.3215 34.2318 27.5351 35.4794 25.6552C36.4292 24.2133 37.297 22.719 38.0788 21.1795L31.6594 19.7664C31.4952 19.7283 31.3234 19.7405 31.1663 19.8014C31.1108 19.8251 31.0597 19.8578 31.015 19.8983C30.9561 19.9533 30.9106 20.0211 30.8819 20.0964C30.6437 21.0442 30.3564 21.979 30.0212 22.897C29.6763 23.8327 29.2847 24.7505 28.8481 25.647C27.9142 27.5511 26.7732 29.3463 25.4456 31.0002ZM49.2925 31.0002C51.5844 27.0627 53.2212 24.1695 53.4175 23.7058C53.5013 23.5363 53.5181 23.3414 53.4644 23.1602C53.4311 23.0699 53.3786 22.988 53.3105 22.9202C53.2424 22.8523 53.1603 22.8 53.07 22.767L41.3575 18.537C41.2234 18.4907 41.078 18.4878 40.9422 18.5287C40.8063 18.5697 40.6868 18.6524 40.6006 18.7652C39.473 21.4099 38.1078 23.947 36.5219 26.3452C35.4444 27.9675 34.2682 29.5221 33 31.0002H49.2925Z" fill="white"/>
<defs>
<linearGradient id="paint0_linear_1141_1090" x1="36" y1="72" x2="36" y2="0" gradientUnits="userSpaceOnUse">
<stop stop-color="#FFC3F9"/>
<stop offset="1" stop-color="#FFF0FF"/>
</linearGradient>
<linearGradient id="paint1_linear_1141_1090" x1="36" y1="72" x2="36" y2="0" gradientUnits="userSpaceOnUse">
<stop stop-color="#0079FF"/>
<stop offset="1" stop-color="#01A6FF"/>
</linearGradient>
</defs>
</svg>
