<svg width="72" height="72" viewBox="0 0 72 72" fill="none" xmlns="http://www.w3.org/2000/svg">
<g clip-path="url(#clip0_1141_1099)">
<path d="M36 72C55.8823 72 72 55.8823 72 36C72 16.1177 55.8823 0 36 0C16.1177 0 0 16.1177 0 36C0 55.8823 16.1177 72 36 72Z" fill="url(#paint0_linear_1141_1099)"/>
<path fill-rule="evenodd" clip-rule="evenodd" d="M49.9729 40.3466H42.7178C42.4054 40.348 42.1061 40.4727 41.8851 40.6936C41.6642 40.9146 41.5395 41.2138 41.5381 41.5263V44.2594C41.5395 44.5719 41.6642 44.8711 41.8851 45.0921C42.1061 45.313 42.4054 45.4377 42.7178 45.4391H49.9733C50.2857 45.4378 50.585 45.313 50.806 45.0921C51.0269 44.8712 51.1516 44.5719 51.153 44.2594V41.5264C51.1516 41.2139 51.0269 40.9146 50.8059 40.6937C50.585 40.4728 50.2857 40.348 49.9733 40.3467L49.9729 40.3466ZM44.6723 42.413C44.7835 42.524 44.8527 42.6702 44.8681 42.8265C44.8836 42.9829 44.8443 43.1397 44.7571 43.2704C44.6699 43.401 44.54 43.4974 44.3897 43.543C44.2394 43.5887 44.0779 43.5808 43.9327 43.5207C43.7876 43.4606 43.6677 43.352 43.5937 43.2135C43.5196 43.075 43.4958 42.915 43.5265 42.7609C43.5571 42.6068 43.6402 42.4682 43.7617 42.3685C43.8831 42.2688 44.0353 42.2143 44.1924 42.2143C44.2816 42.2142 44.3698 42.2317 44.4522 42.2658C44.5346 42.2999 44.6094 42.3499 44.6723 42.413ZM44.1924 41.005C44.6293 41.0049 45.0526 41.1564 45.3903 41.4335C45.728 41.7106 45.9591 42.0962 46.0444 42.5246C46.1296 42.9531 46.0637 43.3978 45.8578 43.7831C45.6519 44.1683 45.3188 44.4703 44.9152 44.6375C44.5116 44.8046 44.0626 44.8267 43.6445 44.6999C43.2265 44.5731 42.8654 44.3053 42.6227 43.9421C42.38 43.5789 42.2707 43.1428 42.3135 42.7081C42.3563 42.2733 42.5485 41.8669 42.8574 41.558C43.0325 41.3824 43.2406 41.2431 43.4697 41.1482C43.6988 41.0533 43.9444 41.0046 44.1924 41.005ZM28.7109 31.1661H36.8116C37.9316 30.3177 38.757 29.139 39.1711 27.7963C39.5853 26.4536 39.5674 25.0147 39.1198 23.6828C38.6723 22.3508 37.8178 21.193 36.677 20.3728C35.5361 19.5526 34.1664 19.1113 32.7613 19.1113C31.3562 19.1113 29.9866 19.5526 28.8457 20.3728C27.7048 21.193 26.8503 22.3508 26.4028 23.6828C25.9553 25.0147 25.9374 26.4536 26.3515 27.7963C26.7657 29.139 27.591 30.3177 28.7111 31.1661H28.7109ZM32.1562 21.3585C32.1562 21.1981 32.2199 21.0443 32.3333 20.9309C32.4467 20.8175 32.6005 20.7538 32.7609 20.7538C32.9212 20.7538 33.075 20.8175 33.1884 20.9309C33.3018 21.0443 33.3655 21.1981 33.3655 21.3585V22.146C33.8204 22.2774 34.2203 22.553 34.5049 22.9313C34.7895 23.3097 34.9435 23.7703 34.9437 24.2437C34.9446 24.3237 34.9296 24.4031 34.8996 24.4772C34.8697 24.5514 34.8253 24.6188 34.769 24.6757C34.7128 24.7326 34.6458 24.7778 34.572 24.8086C34.4982 24.8394 34.419 24.8553 34.339 24.8553C34.259 24.8553 34.1798 24.8394 34.106 24.8086C34.0322 24.7778 33.9653 24.7326 33.909 24.6757C33.8528 24.6188 33.8084 24.5514 33.7784 24.4772C33.7484 24.4031 33.7335 24.3237 33.7344 24.2437C33.7344 23.9856 33.6318 23.738 33.4493 23.5554C33.2667 23.3729 33.0192 23.2704 32.761 23.2704C32.5029 23.2704 32.2553 23.3729 32.0727 23.5554C31.8902 23.738 31.7877 23.9856 31.7877 24.2437C31.7877 24.8954 32.3925 25.1024 32.9887 25.3062C33.973 25.6432 34.9437 25.9754 34.9437 27.4C34.9435 27.8734 34.7895 28.334 34.5049 28.7123C34.2202 29.0907 33.8204 29.3663 33.3655 29.4977V30.2852C33.3655 30.4456 33.3018 30.5994 33.1884 30.7128C33.075 30.8262 32.9212 30.8899 32.7609 30.8899C32.6005 30.8899 32.4467 30.8262 32.3333 30.7128C32.2199 30.5994 32.1562 30.4456 32.1562 30.2852V29.4975C31.7013 29.3661 31.3015 29.0905 31.0169 28.7122C30.7322 28.3338 30.5782 27.8733 30.578 27.3998C30.5771 27.3198 30.5921 27.2405 30.6221 27.1663C30.6521 27.0921 30.6965 27.0247 30.7527 26.9678C30.8089 26.9109 30.8759 26.8658 30.9497 26.8349C31.0235 26.8041 31.1027 26.7882 31.1827 26.7882C31.2627 26.7882 31.3419 26.8041 31.4157 26.8349C31.4895 26.8658 31.5565 26.9109 31.6127 26.9678C31.6689 27.0247 31.7133 27.0921 31.7433 27.1663C31.7733 27.2405 31.7883 27.3198 31.7873 27.3998C31.7873 27.658 31.8899 27.9055 32.0724 28.0881C32.255 28.2706 32.5026 28.3732 32.7607 28.3732C33.0189 28.3732 33.2664 28.2706 33.449 28.0881C33.6315 27.9055 33.7341 27.658 33.7341 27.3998C33.7341 26.8373 33.1716 26.645 32.6012 26.4497C31.597 26.1059 30.5783 25.7572 30.5783 24.2437C30.5784 23.7703 30.7324 23.3097 31.0171 22.9313C31.3017 22.553 31.7015 22.2774 32.1564 22.146L32.1562 21.3585ZM25.0429 27.5707H19.2216C18.7448 27.5707 18.2875 27.7601 17.9504 28.0972C17.6132 28.4344 17.4238 28.8916 17.4238 29.3684C17.4238 29.8452 17.6132 30.3025 17.9504 30.6396C18.2875 30.9767 18.7448 31.1661 19.2216 31.1661H26.9279C25.9971 30.1523 25.3474 28.9129 25.0429 27.5707Z" fill="white"/>
<path fill-rule="evenodd" clip-rule="evenodd" d="M42.7178 39.1378H49.6703V35.3304C49.6676 34.5477 49.3554 33.7978 48.8019 33.2443C48.2485 32.6908 47.4986 32.3787 46.7159 32.3759H19.2216C18.5731 32.3763 17.9422 32.1658 17.4238 31.7762V50.4565C17.4266 51.2392 17.7387 51.9891 18.2922 52.5426C18.8457 53.0961 19.5956 53.4082 20.3783 53.4109H46.7155C47.4982 53.4082 48.2481 53.0961 48.8016 52.5426C49.355 51.9891 49.6672 51.2392 49.6699 50.4565V46.6488H42.7178C42.0846 46.6474 41.4778 46.3953 41.03 45.9475C40.5823 45.4998 40.3302 44.893 40.3287 44.2598V41.5269C40.3301 40.8937 40.5823 40.2868 41.03 39.8391C41.4777 39.3913 42.0846 39.1392 42.7178 39.1378ZM42.7715 26.4496C42.6891 26.7941 42.6308 27.1439 42.5971 27.4965C43.1421 26.6537 43.848 25.9268 44.6743 25.3573C46.2468 24.2657 48.2194 23.7298 50.2308 23.8104C50.3674 23.8078 50.5009 23.8516 50.6095 23.9346C50.718 24.0177 50.7952 24.1351 50.8284 24.2677L51.132 25.4779L54.5743 20.8207L49.156 18.5898C49.2412 18.8734 49.423 19.332 49.452 19.6147C49.4601 19.6935 49.4526 19.7731 49.4299 19.849C49.4072 19.9249 49.3697 19.9955 49.3197 20.0569C49.2697 20.1184 49.2081 20.1693 49.1384 20.2069C49.0687 20.2445 48.9922 20.268 48.9134 20.2761C47.4937 20.4217 46.188 21.133 45.133 22.1823C43.9695 23.3614 43.1525 24.8376 42.7715 26.4496ZM42.7711 30.1116C42.7485 30.2496 42.6788 30.3755 42.5738 30.4678C42.4688 30.5601 42.335 30.6131 42.1953 30.6178C42.0556 30.6224 41.9185 30.5785 41.8076 30.4934C41.6967 30.4083 41.6187 30.2874 41.587 30.1512C41.4339 29.5009 41.3576 28.8349 41.3597 28.1669C41.3602 27.9686 41.3673 27.7702 41.3812 27.5715H40.4793C40.1748 28.9137 39.5251 30.1531 38.5943 31.167H45.7002C45.7436 31.1664 45.785 31.1489 45.8156 31.1183C45.8463 31.0876 45.8637 31.0462 45.8643 31.0029V27.7352C45.8637 27.6919 45.8463 27.6505 45.8156 27.6199C45.785 27.5892 45.7436 27.5717 45.7002 27.5712H44.0316C43.4264 28.3129 42.9956 29.1811 42.7711 30.1116Z" fill="white"/>
</g>
<defs>
<linearGradient id="paint0_linear_1141_1099" x1="36" y1="72" x2="36" y2="0" gradientUnits="userSpaceOnUse">
<stop stop-color="#FFA50A"/>
<stop offset="1" stop-color="#FF4155"/>
</linearGradient>
<clipPath id="clip0_1141_1099">
<rect width="72" height="72" fill="white"/>
</clipPath>
</defs>
</svg>
