<svg width="24" height="24" viewBox="0 0 24 24" fill="none" xmlns="http://www.w3.org/2000/svg">
<path d="M22.8186 24H1.176C0.52866 24 0 23.469 0 22.8187V1.18672C0 0.536464 0.52866 0 1.176 0H22.824C23.4713 0 24 0.531045 24 1.18672V22.8187C24 23.469 23.4713 24 22.8186 24Z" fill="#DF146E"/>
<path d="M9.58984 11.9203L10.6202 16.4342L17.2014 13.1395L9.58984 11.9203Z" fill="white"/>
<path d="M11.527 4.42212L9.57422 11.5262L17.5095 12.7725L11.527 4.42212Z" fill="white"/>
<path d="M2.93359 3.38025L11.1494 4.36648L9.20736 11.4272L2.93359 3.38025Z" fill="white"/>
<path d="M2.67969 4.79443H3.59675L6.15912 8.08908L2.67969 4.79443Z" fill="white"/>
<path d="M17.9 12.7285L15.5156 9.41216L19.3727 8.71313L17.9 12.7285Z" fill="white"/>
<path d="M17.3204 14.0515L17.5632 13.3146L11.543 16.3816L17.3204 14.0515Z" fill="white"/>
<path d="M9.21044 11.8939L10.462 17.5729L6.73438 20.6182L9.21044 11.8939Z" fill="white"/>
<path d="M19.1211 10.3983L21.3112 10.3658L19.7307 8.74561L19.1211 10.3983Z" fill="white"/>
</svg>