<svg width="175" height="15" viewBox="0 0 175 15" fill="none" xmlns="http://www.w3.org/2000/svg">
<path fill-rule="evenodd" clip-rule="evenodd" d="M63.5745 12.5691C62.3374 13.6325 60.7325 14.2745 58.9788 14.2745C55.0663 14.2745 51.8945 11.0791 51.8945 7.13725C51.8945 3.19546 55.0663 0 58.9788 0C60.7325 0 62.3374 0.641984 63.5745 1.70541C64.8117 0.641984 66.4165 0 68.1702 0C72.0828 0 75.2545 3.19546 75.2545 7.13725C75.2545 11.0791 72.0828 14.2745 68.1702 14.2745C66.4165 14.2745 64.8117 13.6325 63.5745 12.5691Z" fill="#ED0006"/>
<path fill-rule="evenodd" clip-rule="evenodd" d="M63.5742 12.5691C65.0972 11.26 66.0628 9.31224 66.0628 7.13725C66.0628 4.96227 65.0972 3.01451 63.5742 1.70541C64.8114 0.641984 66.4162 0 68.1699 0C72.0825 0 75.2542 3.19546 75.2542 7.13725C75.2542 11.0791 72.0825 14.2745 68.1699 14.2745C66.4162 14.2745 64.8114 13.6325 63.5742 12.5691Z" fill="#F9A000"/>
<path fill-rule="evenodd" clip-rule="evenodd" d="M63.5745 12.5691C65.0975 11.26 66.0631 9.31228 66.0631 7.13729C66.0631 4.9623 65.0975 3.01454 63.5745 1.70544C62.0516 3.01454 61.0859 4.9623 61.0859 7.13729C61.0859 9.31228 62.0516 11.26 63.5745 12.5691Z" fill="#FF5E00"/>
<path fill-rule="evenodd" clip-rule="evenodd" d="M10.6412 14.1635H6.95763L4.19541 3.08974C4.0643 2.58035 3.78593 2.13002 3.37644 1.91777C2.35453 1.38438 1.22845 0.959889 0 0.745797V0.319457H5.93392C6.75289 0.319457 7.36711 0.959889 7.46948 1.70368L8.90268 9.69155L12.5844 0.319457H16.1656L10.6412 14.1635ZM18.2132 14.1635H14.7344L17.599 0.319458H21.0778L18.2132 14.1635ZM25.5798 4.15451C25.6822 3.40887 26.2964 2.98253 27.013 2.98253C28.1391 2.87549 29.3657 3.08958 30.3894 3.62112L31.0037 0.640432C29.98 0.214093 28.8539 0 27.832 0C24.4555 0 21.9986 1.91761 21.9986 4.579C21.9986 6.60365 23.7389 7.66673 24.9674 8.30716C26.2964 8.94575 26.8082 9.37209 26.7059 10.0107C26.7059 10.9686 25.6822 11.3949 24.6603 11.3949C23.4318 11.3949 22.2034 11.0756 21.0791 10.5422L20.4648 13.5248C21.6933 14.0563 23.0223 14.2704 24.2508 14.2704C28.0367 14.3756 30.3894 12.4598 30.3894 9.58434C30.3894 5.96322 25.5798 5.75097 25.5798 4.15451ZM42.5625 14.1635L39.8003 0.319458H36.8333C36.2191 0.319458 35.6049 0.745798 35.4001 1.38438L30.2852 14.1635H33.8663L34.5811 12.1407H38.9813L39.3908 14.1635H42.5625ZM37.3466 4.04749L38.3685 9.26507H35.5039L37.3466 4.04749Z" fill="#172B85"/>
<path d="M98.4807 14.2745H85.8504C85.4726 14.2745 85.1641 13.9587 85.1641 13.5719V0.705829C85.1641 0.319073 85.4726 0 85.8504 0H98.4839C98.8617 0 99.1702 0.315851 99.1702 0.705829V13.5719C99.1702 13.9587 98.8617 14.2745 98.4807 14.2745Z" fill="#DF146E"/>
<path d="M90.7617 7.08972L91.363 9.77445L95.2038 7.81489L90.7617 7.08972Z" fill="white"/>
<path d="M91.8935 2.63025L90.7539 6.85556L95.3848 7.59684L91.8935 2.63025Z" fill="white"/>
<path d="M86.875 2.0105L91.6696 2.59708L90.5363 6.7966L86.875 2.0105Z" fill="white"/>
<path d="M86.7305 2.85168H87.2657L88.761 4.81125L86.7305 2.85168Z" fill="white"/>
<path d="M95.6102 7.57059L94.2188 5.59814L96.4697 5.18237L95.6102 7.57059Z" fill="white"/>
<path d="M95.274 8.35751L95.4157 7.91919L91.9023 9.74339L95.274 8.35751Z" fill="white"/>
<path d="M90.5388 7.07422L91.2691 10.4519L89.0938 12.2632L90.5388 7.07422Z" fill="white"/>
<path d="M96.3242 6.18479L97.6024 6.16545L96.68 5.20178L96.3242 6.18479Z" fill="white"/>
<path d="M121.666 7.63161C121.666 7.82948 121.666 7.99908 121.638 8.16869C121.582 8.96017 121.387 9.69512 121.08 10.3735C120.968 10.6562 120.829 10.9106 120.661 11.165C119.49 13.0306 117.426 14.2744 115.083 14.2744C114.079 14.2744 113.13 14.0483 112.293 13.6525C110.062 12.6066 108.5 10.2887 108.5 7.63161C108.5 5.00276 110.006 2.74139 112.154 1.66724C111.987 1.89337 111.819 2.11951 111.68 2.37392C111.68 2.40218 111.652 2.40218 111.652 2.43045C111.568 2.51525 111.485 2.57179 111.401 2.65659C111.289 2.74139 111.206 2.85446 111.094 2.93926C111.066 2.96753 111.038 2.99579 111.038 2.99579C111.01 3.02406 110.983 3.05233 110.983 3.05233C110.955 3.0806 110.927 3.13713 110.871 3.1654C110.815 3.2502 110.731 3.335 110.676 3.4198C110.397 3.78727 110.174 4.18302 110.006 4.60702C109.978 4.63529 109.978 4.69182 109.95 4.72009C109.923 4.77663 109.923 4.83316 109.895 4.86143C109.895 4.88969 109.867 4.91796 109.867 4.94623C109.839 5.03103 109.811 5.08757 109.783 5.17237C109.755 5.2289 109.755 5.28544 109.727 5.3137C109.727 5.34197 109.699 5.37024 109.699 5.3985C109.699 5.45504 109.672 5.51157 109.672 5.56811C109.644 5.73771 109.616 5.90731 109.588 6.07692C109.588 6.13345 109.588 6.16172 109.56 6.21825C109.56 6.24652 109.56 6.27479 109.56 6.33132C109.56 6.38786 109.56 6.44439 109.56 6.47266C109.56 6.52919 109.56 6.58573 109.56 6.64226C109.56 6.72706 109.56 6.81186 109.56 6.89666C109.56 8.70576 110.369 10.3453 111.68 11.3911C112.684 12.2109 113.939 12.7197 115.306 12.7197C116.561 12.7197 117.705 12.324 118.653 11.6173C119.351 11.1085 119.908 10.4583 120.327 9.69512C120.383 9.58205 120.438 9.49725 120.494 9.38418C120.829 8.6775 121.024 7.91428 121.024 7.09454C121.024 7.038 121.024 6.98147 121.024 6.89666C121.024 6.69879 121.024 6.52919 120.996 6.33132L121.024 6.35959C121.108 6.44439 121.191 6.50092 121.275 6.58573C121.359 6.44439 121.443 6.33132 121.526 6.18999C121.582 6.44439 121.61 6.69879 121.638 6.98147C121.666 7.23587 121.666 7.43374 121.666 7.63161Z" fill="#ED1C24"/>
<path d="M115.865 2.28964L114.638 0C112.602 0.932817 111.207 2.99632 111.207 5.39903C111.207 6.61452 111.57 7.74521 112.183 8.67802C112.128 8.36709 112.128 8.05615 112.128 7.71694C112.155 5.2577 113.69 3.16592 115.865 2.28964Z" fill="#F7941D"/>
<path d="M116.839 3.42009C117.341 3.27875 117.899 3.22222 118.429 3.22222C118.764 3.22222 119.126 3.25049 119.433 3.30702L119.405 2.2894L119.35 0.254166C119.126 0.225899 118.875 0.197632 118.624 0.197632C117.509 0.197632 116.477 0.565105 115.64 1.15872L116.309 2.40247C115.11 2.82648 114.134 3.67449 113.52 4.77691C113.213 5.31399 112.99 5.93587 112.906 6.58601C113.074 6.24681 113.269 5.93587 113.492 5.6532C114.301 4.57904 115.472 3.7593 116.839 3.42009Z" fill="#ED1C24"/>
<path d="M119.769 2.26147L119.825 3.7031C119.35 3.56176 118.876 3.47696 118.346 3.47696C117.37 3.47696 116.449 3.75964 115.641 4.24018C114.636 4.86206 113.855 5.85141 113.465 7.01036C113.855 6.47328 114.33 5.99274 114.887 5.62527C115.696 5.08819 116.673 4.77725 117.705 4.77725C118.486 4.77725 119.211 4.94686 119.88 5.2578C120.382 5.48393 120.829 5.79487 121.219 6.19061L122 5.00339L123.004 3.4487C122.112 2.71375 120.996 2.26147 119.769 2.26147Z" fill="#F7941D"/>
<path d="M121.023 6.95376C121.023 7.0103 121.023 7.06683 121.023 7.15163C121.023 8.33886 120.549 9.32821 120.493 9.44128C120.437 9.55434 120.381 9.63915 120.325 9.75221C119.907 10.5154 119.349 11.1656 118.652 11.6744C117.703 12.3528 116.56 12.7768 115.305 12.7768C113.938 12.7768 112.655 12.2963 111.678 11.4482C110.395 10.3741 109.559 8.76286 109.559 6.95376C109.559 6.86896 109.559 6.78416 109.559 6.69936C109.559 6.64282 109.559 6.58629 109.559 6.52976C109.559 6.47322 109.559 6.41669 109.559 6.38842C109.559 6.36015 109.559 6.33189 109.559 6.27535C109.559 6.21882 109.559 6.19055 109.586 6.13402C109.614 5.96441 109.642 5.79481 109.67 5.62521C109.67 5.56867 109.698 5.51214 109.698 5.4556C109.698 5.42734 109.726 5.39907 109.726 5.3708C109.754 5.31427 109.754 5.25773 109.782 5.22947C109.81 5.14466 109.838 5.05986 109.865 5.00333C109.865 4.97506 109.893 4.94679 109.893 4.91853C109.921 4.86199 109.921 4.80546 109.949 4.77719C109.977 4.74892 109.977 4.69239 110.005 4.66412C110.172 4.24011 110.423 3.84437 110.674 3.4769C110.73 3.3921 110.814 3.3073 110.87 3.2225C110.897 3.19423 110.925 3.13769 110.981 3.10943C111.009 3.08116 111.009 3.05289 111.037 3.05289C111.065 3.02463 111.065 2.99636 111.093 2.99636C111.176 2.88329 111.288 2.79849 111.4 2.71369C111.483 2.62888 111.567 2.57235 111.651 2.48755C111.651 2.51582 111.623 2.51582 111.623 2.54408C111.623 2.57235 111.595 2.60062 111.595 2.60062C111.26 3.27903 111.037 4.09878 110.953 4.94679C110.925 5.17293 110.925 5.39907 110.925 5.65347C110.925 8.70633 112.683 11.1656 114.858 11.1656H114.886C114.942 11.1656 115.026 11.1656 115.081 11.1656C115.388 11.1656 115.695 11.109 116.002 11.0525C117.48 10.6568 118.568 9.27167 118.568 7.66044C118.568 7.63218 118.568 7.60391 118.568 7.57564C118.54 6.61456 118.15 5.73827 117.508 5.14466C117.954 5.14466 118.401 5.22947 118.819 5.34253C119.628 5.5404 120.353 5.93614 120.995 6.44495L121.023 6.47322C120.995 6.58629 121.023 6.78416 121.023 6.95376Z" fill="#F7941D"/>
<path d="M121.025 6.95294C121.025 7.00948 121.025 7.09428 121.025 7.15081C121.025 8.39457 120.467 9.46872 120.467 9.46872C120.411 9.58179 120.356 9.66659 120.3 9.77966C119.881 10.5429 119.296 11.193 118.598 11.7018C117.622 12.4368 116.45 12.8042 115.223 12.8042C113.884 12.8042 112.601 12.3237 111.569 11.4757C110.23 10.3733 109.449 8.70551 109.449 6.95294C109.449 5.20038 110.23 3.53261 111.569 2.43019L111.625 2.37366C111.625 2.40192 111.597 2.40192 111.597 2.43019C111.597 2.45846 111.569 2.45846 111.569 2.48673C110.258 3.58915 109.505 5.20038 109.505 6.95294C109.505 8.70551 110.258 10.3167 111.597 11.4474C112.601 12.2954 113.912 12.7477 115.223 12.7477C116.423 12.7477 117.594 12.3802 118.57 11.6453C119.268 11.1365 119.826 10.4863 120.244 9.72312C120.3 9.61006 120.356 9.52526 120.383 9.41219C120.383 9.41219 120.941 8.3663 120.941 7.12254C120.941 7.06601 120.941 6.98121 120.941 6.92467C120.941 6.7268 120.941 6.5572 120.913 6.35933V6.33106L120.941 6.35933L120.969 6.3876C121.025 6.61374 121.025 6.78334 121.025 6.95294Z" fill="#F7941D"/>
<path fill-rule="evenodd" clip-rule="evenodd" d="M144.339 3.21225L138.194 9.02304L138.625 12.2858L139.757 10.0433L143.26 14.2745L148.165 0L131.832 6.42321L136.252 8.6152L144.339 3.21225Z" fill="#8C3494"/>
<path d="M172.735 11.3809L172.732 11.3862C172.029 12.2784 171.145 13.0118 170.137 13.5381C169.048 14.0601 167.766 14.2476 166.559 14.2724C166.903 14.1239 167.19 13.8674 167.375 13.5418C167.559 13.2162 167.633 12.8393 167.583 12.4683C167.533 12.0974 167.364 11.7528 167.1 11.4868C166.836 11.2209 166.492 11.0481 166.121 10.9948C168.366 10.915 170.17 9.2946 170.258 7.27807C170.26 7.22723 170.261 7.17579 170.261 7.12377C170.261 7.01617 170.257 6.90976 170.247 6.80512C170.247 6.62422 170.247 6.41967 170.261 6.24763C170.291 5.82907 170.871 5.53821 170.871 5.53821H173.21C173.726 5.61743 173.884 6.17078 173.884 6.17078C174.174 9.08768 172.812 11.2603 172.735 11.3809Z" fill="#144A96"/>
<path d="M161.823 2.88384C162.091 1.8271 161.45 0.753203 160.391 0.485218C159.332 0.217233 158.255 0.856644 157.986 1.91338C157.718 2.97012 158.359 4.04403 159.418 4.31201C160.478 4.58 161.554 3.94058 161.823 2.88384Z" fill="#FED600"/>
<path d="M173.872 2.86117C174.127 1.80102 173.472 0.735582 172.409 0.481452C171.347 0.227322 170.279 0.880733 170.024 1.94089C169.769 3.00105 170.424 4.06649 171.487 4.32062C172.55 4.57475 173.618 3.92133 173.872 2.86117Z" fill="#144A96"/>
<path d="M167.598 12.6939C167.599 13.0294 167.501 13.3577 167.317 13.6382C167.132 13.9187 166.869 14.139 166.56 14.2718C166.063 14.2818 165.579 14.2635 165.123 14.2286C164.143 14.1553 163.17 13.9992 162.215 13.7622C160.566 13.0126 159.234 11.7817 158.448 10.2742L158.427 10.234C157.834 9.07408 157.936 6.17728 157.936 6.17728C157.949 5.70433 158.525 5.52698 158.525 5.52698H160.859C161.311 5.57723 161.537 6.11521 161.537 6.11521L161.636 6.83172C161.559 7.18643 161.636 7.61031 161.74 7.97625C161.81 8.25999 161.915 8.534 162.053 8.79209C162.053 8.79504 162.056 8.79741 162.057 8.80037L162.061 8.80805C162.723 10.0371 164.086 10.9038 165.685 10.9895C165.772 10.9942 165.859 10.9966 165.947 10.9966C166.006 10.9966 166.064 10.9954 166.121 10.9931C166.531 11.0511 166.907 11.2552 167.179 11.5678C167.45 11.8804 167.599 12.2803 167.598 12.6939Z" fill="#FED600"/>
</svg>