<svg width="72" height="72" viewBox="0 0 72 72" fill="none" xmlns="http://www.w3.org/2000/svg">
<rect width="72" height="72" rx="16" fill="url(#paint0_linear_1501_1528)" fill-opacity="0.12"/>
<path d="M53.5 25.9994H18.5C17.1225 25.9994 16 27.1219 16 28.4994V50.9994C16 52.3794 17.1225 53.4994 18.5 53.4994H53.5C54.88 53.4994 56 52.3794 56 50.9994V28.4994C56 27.1219 54.88 25.9994 53.5 25.9994Z" fill="#2196F3"/>
<path d="M16 30.9994H56V38.4994H16V30.9994Z" fill="#455A64"/>
<path d="M27.25 45.9994H22.25C21.56 45.9994 21 45.4394 21 44.7494C21 44.0594 21.56 43.4994 22.25 43.4994H27.25C27.94 43.4994 28.5 44.0594 28.5 44.7494C28.5 45.4394 27.94 45.9994 27.25 45.9994ZM56 38.3644V28.4994C56 27.1219 54.88 25.9994 53.5 25.9994H33.5V28.4994C33.5 36.3294 36.48 41.0969 44.14 45.5069C44.705 45.8294 45.35 45.9994 46 45.9994C46.65 45.9994 47.295 45.8294 47.8675 45.5019C51.6575 43.3244 54.2975 41.0519 56 38.3644Z" fill="#FAFAFA"/>
<path d="M55.2425 22.3519L46.4925 18.6019C46.3365 18.5351 46.1685 18.5006 45.9988 18.5006C45.829 18.5006 45.661 18.5351 45.505 18.6019L36.755 22.3519C36.2975 22.5469 36 22.9994 36 23.4994V28.4994C36 35.3769 38.5425 39.3969 45.3775 43.3344C45.57 43.4444 45.785 43.4994 46 43.4994C46.215 43.4994 46.43 43.4444 46.6225 43.3344C53.4575 39.4069 56 35.3869 56 28.4994V23.4994C56 22.9994 55.7025 22.5469 55.2425 22.3519Z" fill="#009688"/>
<path d="M44.75 34.7494H44.6975C44.5009 34.7408 44.3091 34.6861 44.1376 34.5897C43.966 34.4932 43.8196 34.3578 43.71 34.1944L41.21 30.4444C40.8275 29.8694 40.9825 29.0944 41.5575 28.7119C42.1275 28.3319 42.905 28.4819 43.29 29.0594L44.8425 31.3869L48.7725 26.4719C49.205 25.9344 49.9925 25.8494 50.53 26.2769C51.07 26.7094 51.155 27.4944 50.725 28.0344L45.725 34.2844C45.6071 34.4293 45.4585 34.5462 45.2899 34.6266C45.1212 34.707 44.9368 34.749 44.75 34.7494Z" fill="#FAFAFA"/>
<defs>
<linearGradient id="paint0_linear_1501_1528" x1="36" y1="0" x2="36" y2="72" gradientUnits="userSpaceOnUse">
<stop stop-color="#009688"/>
<stop offset="1" stop-color="#2196F3"/>
</linearGradient>
</defs>
</svg>
