<svg width="72" height="72" viewBox="0 0 72 72" fill="none" xmlns="http://www.w3.org/2000/svg">
<rect width="72" height="72" rx="16" fill="url(#paint0_linear_1501_1503)" fill-opacity="0.12"/>
<g clip-path="url(#clip0_1501_1503)">
<path d="M54.4208 38.1214L54.6163 37.9259C55.6799 36.8623 55.6799 35.1378 54.6163 34.0742L54.4208 33.8787C54.0399 33.4978 53.7805 33.0125 53.6754 32.4842C53.5703 31.9559 53.6242 31.4083 53.8304 30.9106L53.9362 30.6552C54.5119 29.2655 53.852 27.6723 52.4623 27.0967L52.2068 26.9909C51.7091 26.7847 51.2837 26.4356 50.9845 25.9878C50.6852 25.5399 50.5255 25.0133 50.5255 24.4746V24.1981C50.5255 22.6939 49.3061 21.4745 47.802 21.4745H47.5254C46.9867 21.4745 46.4602 21.3148 46.0123 21.0155C45.5644 20.7163 45.2153 20.2909 45.0091 19.7933L44.9033 19.5378C44.3277 18.1481 42.7345 17.4882 41.3448 18.0638L41.0894 18.1697C40.5917 18.3758 40.0441 18.4298 39.5158 18.3247C38.9875 18.2196 38.5022 17.9602 38.1213 17.5793L37.9258 17.3838C36.8622 16.3202 35.1377 16.3202 34.0741 17.3838L33.8786 17.5793C33.4977 17.9602 33.0124 18.2196 32.4841 18.3247C31.9558 18.4298 31.4082 18.3758 30.9105 18.1697L30.6551 18.0638C29.2654 17.4882 27.6723 18.1481 27.0966 19.5378L26.9908 19.7933C26.7846 20.2909 26.4355 20.7163 25.9877 21.0156C25.5398 21.3148 25.0132 21.4745 24.4745 21.4745H24.198C22.6938 21.4745 21.4745 22.6939 21.4745 24.1981V24.4746C21.4745 25.5762 20.8109 26.5693 19.7931 26.9909L19.5377 27.0967C18.148 27.6723 17.488 29.2656 18.0637 30.6552L18.1695 30.9106C18.3756 31.4083 18.4295 31.9559 18.3244 32.4842C18.2194 33.0125 17.96 33.4978 17.5791 33.8787L17.3835 34.0742C16.3199 35.1378 16.3199 36.8623 17.3835 37.9259L17.5791 38.1214C17.96 38.5023 18.2193 38.9876 18.3244 39.5159C18.4295 40.0442 18.3756 40.5919 18.1695 41.0895L18.0637 41.345C17.488 42.7347 18.148 44.3279 19.5377 44.9035L19.7931 45.0093C20.2908 45.2154 20.7161 45.5645 21.0154 46.0124C21.3147 46.4603 21.4744 46.9869 21.4744 47.5256V47.8021C21.4744 49.3063 22.6937 50.5256 24.1979 50.5256H24.4745C25.576 50.5256 26.5691 51.1892 26.9907 52.2069L27.0966 52.4623C27.6722 53.852 29.2654 54.512 30.655 53.9363L30.9105 53.8305C31.4081 53.6243 31.9557 53.5704 32.484 53.6755C33.0124 53.7806 33.4976 54.04 33.8785 54.4209L34.0741 54.6164C35.1377 55.68 36.8621 55.68 37.9257 54.6164L38.1213 54.4209C38.5021 54.04 38.9874 53.7806 39.5157 53.6755C40.044 53.5704 40.5916 53.6243 41.0893 53.8305L41.3448 53.9363C42.7345 54.512 44.3276 53.852 44.9032 52.4623L45.009 52.2069C45.2151 51.7092 45.5642 51.2839 46.0121 50.9846C46.46 50.6853 46.9866 50.5256 47.5252 50.5256H47.8018C49.3059 50.5256 50.5253 49.3063 50.5253 47.8021V47.5256C50.5253 46.424 51.1889 45.4309 52.2066 45.0093L52.462 44.9034C53.8517 44.3278 54.5116 42.7346 53.936 41.345L53.8302 41.0895C53.6242 40.5918 53.5703 40.0442 53.6754 39.5159C53.7805 38.9876 54.0399 38.5023 54.4208 38.1214Z" fill="#B8EB7C"/>
<path d="M54.6164 34.0741L54.4209 33.8786C54.04 33.4977 53.7806 33.0124 53.6755 32.4841C53.5704 31.9558 53.6243 31.4082 53.8305 30.9105L53.9362 30.655C54.5119 29.2654 53.852 27.6722 52.4623 27.0966L52.2068 26.9907C51.7091 26.7846 51.2838 26.4355 50.9845 25.9876C50.6852 25.5397 50.5255 25.0132 50.5255 24.4745V24.198C50.5255 22.6939 49.3061 21.4745 47.802 21.4745H47.5254C46.9867 21.4745 46.4602 21.3148 46.0123 21.0155C45.5644 20.7163 45.2153 20.2909 45.0092 19.7932L44.9034 19.5378C44.3475 18.1957 42.8426 17.5346 41.4884 18.0093C42.1951 18.2564 42.7975 18.7918 43.1066 19.5378L43.2123 19.7932C43.4185 20.2909 43.7675 20.7163 44.2154 21.0155C44.6633 21.3148 45.1899 21.4745 45.7285 21.4745H46.0051C47.5092 21.4745 48.7286 22.6939 48.7286 24.198V24.4745C48.7286 25.5761 49.3922 26.5692 50.4099 26.9907L50.6654 27.0966C52.0551 27.6722 52.715 29.2654 52.1394 30.655L52.0336 30.9105C51.8274 31.4082 51.7735 31.9558 51.8786 32.4841C51.9837 33.0124 52.2431 33.4977 52.624 33.8786L52.8195 34.0741C53.8831 35.1377 53.8831 36.8622 52.8195 37.9257L52.624 38.1213C52.2431 38.5022 51.9837 38.9875 51.8786 39.5158C51.7735 40.0441 51.8274 40.5917 52.0336 41.0893L52.1394 41.3448C52.715 42.7345 52.0551 44.3276 50.6654 44.9032L50.4099 45.0091C49.9123 45.2152 49.4869 45.5643 49.1877 46.0122C48.8884 46.4601 48.7287 46.9866 48.7287 47.5253V47.8018C48.7287 49.306 47.5093 50.5254 46.0052 50.5254H45.7286C45.1899 50.5253 44.6634 50.6851 44.2155 50.9843C43.7676 51.2836 43.4185 51.709 43.2124 52.2066L43.1066 52.4621C42.7976 53.2081 42.1952 53.7434 41.4885 53.9905C42.8427 54.4653 44.3476 53.8041 44.9035 52.4621L45.0093 52.2066C45.2154 51.709 45.5645 51.2836 46.0124 50.9843C46.4602 50.6851 46.9868 50.5253 47.5255 50.5254H47.802C49.3062 50.5254 50.5255 49.306 50.5255 47.8018V47.5253C50.5255 46.9866 50.6853 46.4601 50.9845 46.0122C51.2838 45.5643 51.7091 45.2152 52.2068 45.0091L52.4623 44.9032C53.852 44.3276 54.5119 42.7344 53.9362 41.3448L53.8305 41.0893C53.6243 40.5917 53.5704 40.0441 53.6755 39.5158C53.7806 38.9875 54.04 38.5022 54.4209 38.1213L54.6164 37.9257C55.68 36.8622 55.68 35.1378 54.6164 34.0741Z" fill="#98DB7C"/>
<path d="M35.1016 36.6236L35.7713 36.6172L37.3023 36.329L40.39 34.8067L42.6606 31.0835V27.1003L39.5643 22.1806L36.0638 21.1965H35.1016C31.236 21.6419 28.2344 24.9252 28.2344 28.9101C28.2344 32.895 31.236 36.1783 35.1016 36.6236Z" fill="#F9EFDA"/>
<path d="M36.8938 31.4345L38.5885 30.8589L39.5859 29.0097V26.0626H39.0342C38.2306 26.1765 37.4557 26.5408 36.8375 27.159C36.4788 27.5178 36.1942 27.9437 36 28.4125V31.2575C36.0276 31.2786 36.0575 31.2968 36.0912 31.3079C36.2409 31.356 36.3935 31.3951 36.548 31.4247L36.8938 31.4345Z" fill="#B8EB7C"/>
<path d="M34.3162 31.4784L35.2639 30.1364L34.4253 27.2917L32.8965 26.1611H31.3937C31.2876 26.1936 31.1915 26.2525 31.1144 26.3323C31.0374 26.4122 30.9819 26.5103 30.9533 26.6175C30.6099 27.9113 30.9447 29.3475 31.9594 30.3621C32.6186 31.0214 33.4558 31.3926 34.3162 31.4784Z" fill="#98DB7C"/>
<path d="M36 21.1444C35.6961 21.1444 35.3964 21.1625 35.1016 21.1964C38.9671 21.6418 41.9688 24.9251 41.9688 28.91C41.9688 32.895 38.9671 36.1782 35.1016 36.6236C35.3964 36.6576 35.6961 36.6757 36 36.6757C40.2888 36.6757 43.7656 33.1989 43.7656 28.91C43.7656 24.6212 40.2888 21.1444 36 21.1444Z" fill="#F4DDB1"/>
<path d="M41.0467 26.6176C41.0171 26.506 40.9586 26.4043 40.877 26.3227C40.7954 26.2411 40.6936 26.1826 40.5821 26.153C40.0774 26.0197 39.551 25.989 39.0342 26.0626C39.1404 26.1561 39.2157 26.2797 39.2498 26.4169C39.5932 27.7846 39.2584 29.303 38.2437 30.3756C37.7552 30.892 37.169 31.2413 36.548 31.4248C37.7734 31.6642 39.0913 31.3115 40.0406 30.3623C41.0553 29.3475 41.3901 27.9112 41.0467 26.6176Z" fill="#98DB7C"/>
<path d="M35.1625 27.159C34.1479 26.1444 32.7116 25.8096 31.4179 26.1529C31.4095 26.1551 31.4018 26.1586 31.3937 26.1611C32.1162 26.3166 32.8053 26.6916 33.3657 27.2886C34.4298 28.4223 34.7456 30.0499 34.3162 31.4784C34.8532 31.5324 35.3955 31.4743 35.9089 31.3079C35.9554 31.2926 35.9977 31.2666 36.0324 31.232C36.067 31.1973 36.093 31.155 36.1083 31.1085C36.5456 29.7636 36.231 28.2276 35.1625 27.159Z" fill="#77CC7D"/>
<path d="M23.9577 39.7916H25.4925V46.9727M46.2982 39.5865L43.396 46.5019" stroke="#20262E" stroke-width="1.17188" stroke-miterlimit="10" stroke-linecap="round" stroke-linejoin="round"/>
<path d="M42.8404 42.2446C43.5486 42.2446 44.1227 41.5774 44.1227 40.7544C44.1227 39.9314 43.5486 39.2643 42.8404 39.2643C42.1322 39.2643 41.558 39.9314 41.558 40.7544C41.558 41.5774 42.1322 42.2446 42.8404 42.2446Z" stroke="#20262E" stroke-width="1.17188" stroke-miterlimit="10" stroke-linecap="round" stroke-linejoin="round"/>
<path d="M46.76 46.9727C47.4682 46.9727 48.0423 46.3056 48.0423 45.4826C48.0423 44.6596 47.4682 43.9924 46.76 43.9924C46.0518 43.9924 45.4777 44.6596 45.4777 45.4826C45.4777 46.3056 46.0518 46.9727 46.76 46.9727Z" stroke="#20262E" stroke-width="1.17188" stroke-miterlimit="10" stroke-linecap="round" stroke-linejoin="round"/>
<path d="M29.5093 33.175C28.7034 31.9509 28.2344 30.4852 28.2344 28.91C28.2344 24.6212 31.7112 21.1444 36 21.1444C40.2888 21.1444 43.7656 24.6212 43.7656 28.91C43.7656 33.1989 40.2888 36.6757 36 36.6757C34.2754 36.6757 32.6821 36.1135 31.3934 35.1624M32.2342 44.8961C32.2342 46.043 31.3045 46.9728 30.1577 46.9728C29.0108 46.9728 28.0811 46.043 28.0811 44.8961V41.5751C28.0811 40.4282 29.0109 39.4986 30.1577 39.4986C31.3045 39.4986 32.2342 40.4283 32.2342 41.5751V44.8961ZM38.976 44.8961C38.976 46.043 38.0463 46.9728 36.8995 46.9728C35.7526 46.9728 34.8229 46.043 34.8229 44.8961V41.5751C34.8229 40.4282 35.7526 39.4986 36.8995 39.4986C38.0463 39.4986 38.976 40.4283 38.976 41.5751V44.8961Z" stroke="#20262E" stroke-width="1.17188" stroke-miterlimit="10" stroke-linecap="round" stroke-linejoin="round"/>
<path d="M36.1161 31.0836L38.2896 28.9101M31.4179 26.1529C31.3064 26.1825 31.2046 26.2411 31.123 26.3227C31.0414 26.4043 30.9829 26.506 30.9533 26.6175C30.6099 27.9113 30.9447 29.3475 31.9594 30.3622C33.0279 31.4307 34.564 31.7453 35.9088 31.3078C35.9554 31.2925 35.9977 31.2665 36.0323 31.2319C36.0669 31.1972 36.0929 31.1549 36.1082 31.1084C36.5457 29.7636 36.2311 28.2275 35.1626 27.159C34.1479 26.1444 32.7116 25.8096 31.4179 26.1529Z" stroke="#20262E" stroke-width="1.17188" stroke-miterlimit="10" stroke-linecap="round" stroke-linejoin="round"/>
<path d="M36 31.2574C36.0276 31.2786 36.0575 31.2968 36.0912 31.3078C37.436 31.7453 38.9721 31.4307 40.0406 30.3622C41.0552 29.3475 41.3901 27.9113 41.0467 26.6176C41.0171 26.506 40.9586 26.4043 40.877 26.3227C40.7954 26.2411 40.6937 26.1825 40.5821 26.1529C39.2884 25.8096 37.8521 26.1444 36.8375 27.159C36.4788 27.5178 36.1942 27.9438 36 28.4125" stroke="#20262E" stroke-width="1.17188" stroke-miterlimit="10" stroke-linecap="round" stroke-linejoin="round"/>
</g>
<defs>
<linearGradient id="paint0_linear_1501_1503" x1="36" y1="0" x2="36" y2="72" gradientUnits="userSpaceOnUse">
<stop stop-color="#B8EB7C"/>
<stop offset="1" stop-color="#98DB7C"/>
</linearGradient>
<clipPath id="clip0_1501_1503">
<rect width="40" height="40" fill="white" transform="translate(16 16)"/>
</clipPath>
</defs>
</svg>
