<svg width="72" height="72" viewBox="0 0 72 72" fill="none" xmlns="http://www.w3.org/2000/svg">
<rect width="72" height="72" rx="16" fill="url(#paint0_linear_1501_1507)" fill-opacity="0.12"/>
<g clip-path="url(#clip0_1501_1507)">
<path d="M55.6571 27.9365C55.6571 30.0495 54.9237 31.991 53.6971 33.5205C53.2999 34.0167 52.851 34.4692 52.3581 34.8704C50.8196 36.1231 48.8574 36.8735 46.719 36.8735C41.7831 36.8735 37.782 32.872 37.782 27.9365C37.782 27.6731 37.7929 27.4128 37.8158 27.1552C38.2114 22.5865 42.0465 19 46.719 19C51.655 19 55.6571 23.0018 55.6571 27.9365Z" fill="#6193FF"/>
<path d="M48.2248 33.5206C47.5106 33.5206 46.9506 32.9054 47.0181 32.1934L47.2363 30.6852C47.4206 28.7361 45.989 27.1553 44.0395 27.1553H37.8158C37.793 27.4151 37.7817 27.6757 37.782 27.9365C37.782 32.8721 41.7831 36.8736 46.719 36.8736C48.8577 36.8736 50.8196 36.1232 52.3581 34.8704C52.851 34.4692 53.2999 34.0168 53.6971 33.5206H48.2248Z" fill="#407BFF"/>
<path d="M47.3125 21.2861C47.3125 21.3641 47.2971 21.4412 47.2673 21.5132C47.2375 21.5852 47.1938 21.6506 47.1387 21.7056C47.0836 21.7607 47.0182 21.8044 46.9462 21.8342C46.8742 21.864 46.7971 21.8794 46.7191 21.8794C46.6412 21.8793 46.5641 21.864 46.4921 21.8342C46.4201 21.8043 46.3547 21.7606 46.2997 21.7055C46.2446 21.6504 46.2009 21.585 46.1711 21.513C46.1413 21.4411 46.1259 21.3639 46.1259 21.286C46.126 21.1286 46.1885 20.9777 46.2998 20.8665C46.4111 20.7552 46.562 20.6927 46.7193 20.6927C46.8767 20.6928 47.0276 20.7553 47.1389 20.8666C47.2501 20.9779 47.3126 21.1288 47.3126 21.2861H47.3125ZM40.4891 27.9368C40.49 28.0152 40.4753 28.0931 40.4459 28.1658C40.4165 28.2386 40.3729 28.3048 40.3178 28.3606C40.2626 28.4164 40.1969 28.4607 40.1245 28.4909C40.0521 28.5211 39.9744 28.5367 39.896 28.5367C39.8175 28.5367 39.7398 28.5211 39.6674 28.4909C39.595 28.4607 39.5293 28.4164 39.4742 28.3606C39.419 28.3048 39.3755 28.2386 39.3461 28.1658C39.3167 28.0931 39.302 28.0152 39.3029 27.9368C39.3029 27.7795 39.3654 27.6287 39.4766 27.5174C39.5878 27.4062 39.7386 27.3437 39.8959 27.3436C40.0532 27.3436 40.2041 27.4061 40.3154 27.5173C40.4266 27.6286 40.4891 27.7795 40.4891 27.9369L40.4891 27.9368ZM54.1473 27.9368C54.1485 28.0155 54.1341 28.0937 54.1049 28.1667C54.0757 28.2398 54.0322 28.3064 53.9769 28.3625C53.9217 28.4186 53.8559 28.4632 53.7833 28.4936C53.7107 28.524 53.6327 28.5396 53.554 28.5396C53.4753 28.5396 53.3974 28.524 53.3248 28.4935C53.2522 28.4631 53.1863 28.4185 53.1311 28.3624C53.0759 28.3063 53.0324 28.2398 53.0032 28.1667C52.974 28.0936 52.9596 28.0154 52.9609 27.9367C52.9634 27.781 53.027 27.6326 53.138 27.5234C53.249 27.4143 53.3985 27.3531 53.5541 27.3531C53.7098 27.3531 53.8593 27.4144 53.9702 27.5236C54.0812 27.6328 54.1448 27.7811 54.1473 27.9368Z" fill="white"/>
<path d="M47.3181 27.9367C47.3181 28.094 47.2556 28.2449 47.1443 28.3561C47.0331 28.4673 46.8822 28.5298 46.7249 28.5298C46.5676 28.5298 46.4168 28.4673 46.3055 28.3561C46.1943 28.2449 46.1318 28.094 46.1318 27.9367C46.1318 27.7794 46.1943 27.6285 46.3056 27.5172C46.4169 27.406 46.5678 27.3435 46.7251 27.3435C46.8824 27.3436 47.0332 27.4061 47.1444 27.5174C47.2556 27.6286 47.3181 27.7794 47.3181 27.9367Z" fill="black"/>
<path d="M28.9531 49.9771C28.7688 51.9321 27.0345 53.5168 25.0793 53.5168C23.1243 53.5168 21.6888 51.9321 21.8731 49.9771C22.0574 48.0221 23.7918 46.4374 25.747 46.4374C27.702 46.4374 29.1374 48.0221 28.9531 49.9771Z" fill="#41739F"/>
<path d="M26.7214 49.9771C26.6525 50.7077 26.0042 51.3 25.2738 51.3C24.5428 51.3 24.0063 50.7077 24.0753 49.9771C24.1442 49.2465 24.7924 48.6542 25.523 48.6542C26.2536 48.6542 26.7902 49.2465 26.7214 49.9771Z" fill="#C4DAEC"/>
<path d="M53.4984 49.9771C53.3141 51.9321 51.5802 53.5168 49.6248 53.5168C47.6699 53.5168 46.2344 51.9321 46.4187 49.9771C46.6031 48.0221 48.3373 46.4374 50.2923 46.4374C52.2476 46.4374 53.6827 48.0221 53.4984 49.9771Z" fill="#41739F"/>
<path d="M51.2667 49.9771C51.1981 50.7077 50.5499 51.3 49.819 51.3C49.0884 51.3 48.5519 50.7077 48.6209 49.9771C48.6899 49.2465 49.3381 48.6542 50.0686 48.6542C50.7992 48.6542 51.3357 49.2465 51.2667 49.9771Z" fill="#C4DAEC"/>
<path d="M43.602 46.5208H20.5556L21.8767 32.5083C22.03 30.8864 23.4691 29.571 25.0916 29.571H42.2619C43.8845 29.571 45.0756 30.8864 44.9227 32.5083L43.602 46.5208Z" fill="#FFD886"/>
<path d="M55.8938 43.7057L55.6283 46.5204H43.602L44.6365 35.5457H49.1091C49.3871 35.5457 49.641 35.6617 49.8089 35.8664L54.3035 41.3407L55.697 43.038C55.8471 43.22 55.917 43.4583 55.8938 43.7057Z" fill="#FF6969"/>
<path d="M54.3035 41.3406H49.1574C48.5806 41.3406 48.1567 40.8734 48.211 40.296L48.659 35.5457H49.1095C49.3874 35.5457 49.641 35.6617 49.8089 35.8664L54.3035 41.3406Z" fill="#B9F7FF"/>
<path d="M55.2742 49.4986H20.0089C19.7391 49.4986 19.5407 49.2798 19.5663 49.0097L19.7549 47.0093C19.7803 46.7395 20.0199 46.5208 20.2896 46.5208H55.5552C55.8253 46.5208 56.0233 46.7395 55.998 47.0093L55.8094 49.0097C55.7837 49.2798 55.5445 49.4986 55.2744 49.4986H55.2742Z" fill="#6193FF"/>
<path d="M55.6283 46.5208H54.8739C54.1503 46.5208 53.6193 45.9345 53.6877 45.2113C53.7557 44.488 54.3975 43.9017 55.1208 43.9017H55.8752L55.6283 46.5208Z" fill="#FFDB06"/>
<path d="M20.5557 30.7175H16.5932C16.5148 30.7184 16.4369 30.7037 16.3642 30.6743C16.2914 30.6449 16.2252 30.6013 16.1694 30.5462C16.1136 30.491 16.0693 30.4253 16.0391 30.3529C16.0089 30.2805 15.9933 30.2028 15.9933 30.1244C15.9933 30.0459 16.0089 29.9682 16.0391 29.8958C16.0693 29.8234 16.1136 29.7577 16.1694 29.7026C16.2252 29.6474 16.2914 29.6039 16.3642 29.5745C16.4369 29.5451 16.5148 29.5304 16.5932 29.5313H20.5557C20.713 29.5313 20.8639 29.5938 20.9751 29.705C21.0864 29.8162 21.1488 29.9671 21.1488 30.1244C21.1488 30.2817 21.0864 30.4326 20.9751 30.5438C20.8639 30.655 20.713 30.7175 20.5557 30.7175V30.7175ZM19.8031 33.143H17.8219C17.6646 33.143 17.5137 33.0805 17.4025 32.9693C17.2913 32.8581 17.2288 32.7072 17.2288 32.5499C17.2288 32.3926 17.2913 32.2417 17.4025 32.1305C17.5137 32.0192 17.6646 31.9568 17.8219 31.9568H19.8031C19.9604 31.9568 20.1113 32.0192 20.2225 32.1305C20.3338 32.2417 20.3963 32.3926 20.3963 32.5499C20.3963 32.7072 20.3338 32.8581 20.2225 32.9693C20.1113 33.0805 19.9604 33.143 19.8031 33.143ZM19.259 35.5686H18.7145C18.5572 35.5686 18.4063 35.506 18.295 35.3948C18.1838 35.2835 18.1213 35.1326 18.1213 34.9753C18.1213 34.818 18.1839 34.6672 18.2951 34.556C18.4064 34.4448 18.5573 34.3823 18.7145 34.3823H19.259C19.4163 34.3823 19.5671 34.4448 19.6784 34.556C19.7897 34.6672 19.8522 34.818 19.8523 34.9753C19.8523 35.1326 19.7898 35.2835 19.6785 35.3948C19.5673 35.506 19.4163 35.5686 19.259 35.5686Z" fill="#CEE5F4"/>
<path d="M41.0077 41.8965H32.9336C32.7763 41.8965 32.6254 41.834 32.5142 41.7227C32.403 41.6115 32.3405 41.4606 32.3405 41.3033C32.3405 41.146 32.403 40.9952 32.5142 40.8839C32.6254 40.7727 32.7763 40.7102 32.9336 40.7102H41.0077C41.1649 40.7102 41.3158 40.7727 41.427 40.8839C41.5382 40.9951 41.6006 41.1459 41.6006 41.3032C41.6007 41.3811 41.5854 41.4582 41.5556 41.5302C41.5258 41.6022 41.4821 41.6676 41.4271 41.7226C41.372 41.7777 41.3066 41.8214 41.2347 41.8513C41.1627 41.8811 41.0856 41.8964 41.0077 41.8965ZM40.602 44.3217H36.0883C35.7609 44.3217 35.495 44.0562 35.495 43.7287C35.495 43.4012 35.7609 43.1355 36.0883 43.1355H40.6024C40.7598 43.1356 40.9106 43.1981 41.0219 43.3093C41.1331 43.4206 41.1956 43.5714 41.1957 43.7287C41.1957 43.8066 41.1803 43.8838 41.1504 43.9557C41.1206 44.0277 41.0769 44.0931 41.0217 44.1481C40.9666 44.2032 40.9012 44.2469 40.8292 44.2766C40.7572 44.3064 40.68 44.3217 40.6021 44.3217H40.602Z" fill="#FFAB1E"/>
<path d="M34.2184 35.6599L32.4405 34.4303L30.2588 35.6599C30.1788 35.7047 30.0952 35.6513 30.1095 35.5646L31.0946 29.571H35.3838L34.3987 35.5646C34.3844 35.6514 34.2834 35.7046 34.2184 35.6599Z" fill="#E57917"/>
<path d="M51.1047 28.53H46.725C46.6471 28.53 46.57 28.5147 46.498 28.4849C46.426 28.4551 46.3606 28.4114 46.3055 28.3563C46.2504 28.3012 46.2067 28.2358 46.1769 28.1638C46.1471 28.0918 46.1317 28.0147 46.1317 27.9368V23.5562C46.1318 23.4783 46.1471 23.4012 46.1769 23.3292C46.2068 23.2573 46.2505 23.1919 46.3056 23.1368C46.3606 23.0818 46.426 23.0381 46.498 23.0083C46.57 22.9785 46.6471 22.9632 46.725 22.9633C46.8823 22.9633 47.0331 23.0257 47.1443 23.1369C47.2555 23.2481 47.318 23.399 47.318 23.5562V27.3437H51.1046C51.2619 27.3437 51.4128 27.4062 51.524 27.5174C51.6353 27.6286 51.6978 27.7794 51.6979 27.9367C51.6979 28.094 51.6354 28.2449 51.5241 28.3562C51.4129 28.4674 51.262 28.5299 51.1046 28.5299L51.1047 28.53Z" fill="white"/>
<path d="M31.2942 41.3032C31.2955 41.3819 31.2811 41.4601 31.2519 41.5332C31.2226 41.6062 31.1791 41.6728 31.1239 41.7289C31.0687 41.785 31.0029 41.8296 30.9303 41.86C30.8577 41.8904 30.7797 41.9061 30.701 41.906C30.6223 41.906 30.5443 41.8904 30.4717 41.8599C30.3991 41.8295 30.3333 41.7849 30.2781 41.7288C30.2229 41.6727 30.1794 41.6062 30.1502 41.5331C30.1209 41.46 30.1066 41.3818 30.1078 41.3031C30.1104 41.1474 30.174 40.999 30.285 40.8898C30.396 40.7807 30.5454 40.7195 30.7011 40.7195C30.8568 40.7195 31.0062 40.7807 31.1172 40.8899C31.2281 40.9991 31.2917 41.1475 31.2942 41.3032Z" fill="#FFAB1E"/>
</g>
<defs>
<linearGradient id="paint0_linear_1501_1507" x1="36" y1="0" x2="36" y2="72" gradientUnits="userSpaceOnUse">
<stop stop-color="#6193FF"/>
<stop offset="1" stop-color="#407BFF"/>
</linearGradient>
<clipPath id="clip0_1501_1507">
<rect width="40" height="40" fill="white" transform="translate(16 16)"/>
</clipPath>
</defs>
</svg>
