<svg width="102" height="32" viewBox="0 0 102 32" fill="none" xmlns="http://www.w3.org/2000/svg">
<path d="M20.0006 16H8.6673C8.3138 16.0004 7.97488 16.141 7.72492 16.3909C7.47496 16.6409 7.33436 16.9798 7.33398 17.3333V26.6667C7.334 26.8435 7.40424 27.013 7.52925 27.138C7.65427 27.2631 7.82381 27.3333 8.00061 27.3333H20.6673C20.8441 27.3333 21.0137 27.2631 21.1387 27.138C21.2637 27.013 21.334 26.8434 21.334 26.6666V17.3333C21.3336 16.9798 21.193 16.6409 20.943 16.3909C20.693 16.141 20.3541 16.0004 20.0006 16Z" fill="#FAC100"/>
<path d="M12.668 16V19.6661C12.668 19.7251 12.6836 19.783 12.7133 19.834C12.743 19.885 12.7857 19.9271 12.8371 19.9562C12.8884 19.9852 12.9465 20.0002 13.0055 19.9994C13.0645 19.9987 13.1222 19.9823 13.1728 19.9519L14.3346 19.2548L15.4964 19.9519C15.547 19.9823 15.6047 19.9987 15.6637 19.9995C15.7227 20.0002 15.7808 19.9853 15.8322 19.9562C15.8835 19.9272 15.9262 19.885 15.9559 19.834C15.9856 19.7831 16.0013 19.7251 16.0013 19.6661V16H12.668Z" fill="#F87600"/>
<path d="M19.4722 27.3331L21.3292 26.7144C21.3303 26.6983 21.334 26.6831 21.334 26.6667V22.8998C21.2987 22.9029 21.2639 22.9009 21.2285 22.906L16.3982 23.622C16.3939 23.2518 16.276 22.8918 16.0603 22.5908C15.8446 22.2898 15.5416 22.0624 15.1924 21.9393L11.0414 20.5793C10.2867 20.3338 9.47335 20.3359 8.72005 20.5855L7.33398 21.048V26.6668C7.33408 26.8435 7.40436 27.013 7.52936 27.1379C7.65437 27.2629 7.82387 27.3331 8.00061 27.3331H19.4722Z" fill="#FF9500"/>
<path d="M23.2161 25.4112C23.0674 25.0189 22.7894 24.689 22.4279 24.4759C22.0664 24.2629 21.6432 24.1795 21.2279 24.2394L16.3975 24.9554C16.3932 24.5851 16.2753 24.2251 16.0596 23.9241C15.8439 23.6231 15.541 23.3957 15.1917 23.2726L11.0407 21.9123C10.2861 21.6668 9.47268 21.669 8.71937 21.9185L4.45575 23.3414C4.32305 23.3857 4.20763 23.4705 4.12583 23.584C4.04404 23.6975 4.00002 23.8338 4 23.9737V28.9163C4.00003 29.0131 4.02116 29.1088 4.06191 29.1967C4.10266 29.2845 4.16206 29.3625 4.23597 29.4251C4.30989 29.4876 4.39655 29.5334 4.48993 29.5591C4.58331 29.5848 4.68116 29.5898 4.77669 29.5739L7.90725 29.0494C8.13692 29.011 8.37286 29.0465 8.58106 29.1508L10.6269 30.1737C11.1746 30.4494 11.7715 30.6137 12.3831 30.6572C12.9947 30.7007 13.6089 30.6224 14.1901 30.427L22.0776 27.7977C22.3117 27.7197 22.5277 27.5952 22.7127 27.4317C22.8977 27.2683 23.0478 27.0692 23.1541 26.8464C23.2604 26.6237 23.3207 26.3817 23.3313 26.1351C23.342 25.8885 23.3029 25.6423 23.2162 25.4112L23.2161 25.4112Z" fill="#FFD188"/>
<path d="M15.334 25.2401C14.4112 25.1744 9.33398 24.3333 9.33398 24.3333L15.0952 25.7952C15.3784 25.8467 15.6706 25.7885 15.9124 25.6325C16.1542 25.4764 16.3277 25.2342 16.3975 24.955C16.0873 25.1716 15.7109 25.2725 15.334 25.2401Z" fill="#F9A06F"/>
<path d="M23.2017 25.3811C23.1847 25.4249 23.1745 25.4704 23.154 25.5134C23.0485 25.7366 22.8986 25.9361 22.7135 26.0997C22.5285 26.2632 22.3121 26.3874 22.0775 26.4647L14.1901 29.0936C13.609 29.289 12.9948 29.3673 12.3832 29.3238C11.7716 29.2803 11.1747 29.116 10.627 28.8404L8.58125 27.8175C8.37305 27.7132 8.13711 27.6777 7.90744 27.7162L4.77688 28.2406C4.68133 28.2566 4.58346 28.2516 4.49006 28.2259C4.39666 28.2002 4.30997 28.1545 4.23603 28.0919C4.1621 28.0293 4.10268 27.9514 4.06192 27.8635C4.02115 27.7756 4.00003 27.6799 4 27.583V28.9164C4.00003 29.0132 4.02116 29.1089 4.06191 29.1967C4.10266 29.2846 4.16206 29.3625 4.23597 29.4251C4.30989 29.4877 4.39655 29.5334 4.48993 29.5591C4.58331 29.5848 4.68116 29.5899 4.77669 29.5739L7.90725 29.0495C8.13692 29.0111 8.37286 29.0466 8.58106 29.1509L10.6269 30.1738C11.1746 30.4495 11.7715 30.6138 12.3831 30.6572C12.9947 30.7007 13.6089 30.6225 14.1901 30.427L22.0776 27.7978C22.3117 27.7197 22.5277 27.5952 22.7127 27.4318C22.8977 27.2683 23.0478 27.0693 23.1541 26.8465C23.2604 26.6237 23.3207 26.3818 23.3313 26.1352C23.342 25.8886 23.3029 25.6424 23.2162 25.4112C23.2122 25.4007 23.2058 25.3915 23.2017 25.3811Z" fill="#F9A06F"/>
<path d="M4.00067 21.6665H2.6673C1.93093 21.6665 1.33398 22.2634 1.33398 22.9998V28.9999C1.33398 29.7362 1.93093 30.3332 2.6673 30.3332H4.00067C4.73704 30.3332 5.33398 29.7362 5.33398 28.9999V22.9998C5.33398 22.2634 4.73704 21.6665 4.00067 21.6665Z" fill="#00CF66"/>
<path d="M4.00067 28.3333H2.66736C2.31385 28.3329 1.97492 28.1924 1.72494 27.9424C1.47497 27.6924 1.33436 27.3535 1.33398 27V29C1.33436 29.3535 1.47496 29.6924 1.72492 29.9424C1.97488 30.1923 2.3138 30.3329 2.6673 30.3333H4.00067C4.35417 30.3329 4.69308 30.1923 4.94305 29.9424C5.19301 29.6924 5.3336 29.3535 5.33398 29V27C5.3336 27.3535 5.19301 27.6924 4.94305 27.9424C4.69308 28.1923 4.35417 28.3329 4.00067 28.3333Z" fill="#00B157"/>
<path d="M27.4788 3.36629L18.8981 1.4581C17.8422 1.20836 16.7322 1.335 15.7597 1.81616L13.1621 3.0071C12.5533 3.31258 12.0182 3.74682 11.594 4.27972L10.0272 6.25191C9.94934 6.35011 9.90068 6.46829 9.88687 6.59288C9.87306 6.71747 9.89465 6.84343 9.94916 6.95631C10.0037 7.06919 10.0889 7.16442 10.1951 7.23108C10.3012 7.29773 10.424 7.33311 10.5494 7.33316H27.3339C27.5107 7.33316 27.6803 7.26294 27.8053 7.13794C27.9303 7.01294 28.0006 6.84339 28.0006 6.6666V4.01697C28.0006 3.86534 27.9489 3.71823 27.854 3.59994C27.7592 3.48164 27.6268 3.39923 27.4788 3.36629Z" fill="#FFD188"/>
<path d="M21.3813 5.99997L19.5166 4.85504C18.9685 4.51858 18.3173 4.39151 17.683 4.49722L15.4143 4.87535C14.9257 4.95678 14.4694 5.17268 14.0966 5.49885L12 7.33329H21.3333L21.3813 5.99997Z" fill="#F9A06F"/>
<path d="M22.6674 6H8.6673C7.93093 6 7.33398 6.59694 7.33398 7.33331V13.3334C7.33398 14.0697 7.93093 14.6667 8.6673 14.6667H22.6674C23.4037 14.6667 24.0007 14.0697 24.0007 13.3334V7.33331C24.0007 6.59694 23.4037 6 22.6674 6Z" fill="#00CF66"/>
<path d="M7.86442 6.27563C7.70026 6.39889 7.56692 6.55854 7.47488 6.74203C7.38285 6.92552 7.33462 7.12785 7.33398 7.33313V13.3331C7.33436 13.6866 7.47496 14.0255 7.72492 14.2755C7.97488 14.5255 8.3138 14.6661 8.6673 14.6664H22.6673C22.958 14.6654 23.2402 14.5685 23.4702 14.3906L7.86442 6.27563Z" fill="#00B157"/>
<path d="M11.3333 12.9999H9.66669C9.48987 12.9999 9.3203 12.9297 9.19527 12.8046C9.07024 12.6796 9 12.51 9 12.3332V8.33322C9 8.15641 9.07024 7.98683 9.19527 7.8618C9.3203 7.73678 9.48987 7.66654 9.66669 7.66654H11.3334C11.4215 7.66568 11.5089 7.6823 11.5905 7.71542C11.6721 7.74854 11.7464 7.79751 11.809 7.8595C11.8716 7.92148 11.9212 7.99527 11.9551 8.07657C11.9891 8.15788 12.0065 8.2451 12.0065 8.33319C12.0065 8.42129 11.9891 8.50851 11.9551 8.58981C11.9212 8.67112 11.8716 8.7449 11.809 8.80689C11.7464 8.86888 11.6721 8.91785 11.5905 8.95097C11.5089 8.98409 11.4215 9.0007 11.3334 8.99985H10.3334V11.6665H11.3334C11.4215 11.6657 11.5089 11.6823 11.5905 11.7154C11.6721 11.7485 11.7464 11.7975 11.809 11.8595C11.8716 11.9215 11.9212 11.9953 11.9551 12.0766C11.9891 12.1579 12.0065 12.2451 12.0065 12.3332C12.0065 12.4213 11.9891 12.5085 11.9551 12.5898C11.9212 12.6711 11.8716 12.7449 11.809 12.8069C11.7464 12.8689 11.6721 12.9178 11.5905 12.951C11.5089 12.9841 11.4215 13.0007 11.3334 12.9998L11.3333 12.9999Z" fill="#00B157"/>
<path d="M11.3333 8.99988C11.4944 8.99957 11.6498 8.9408 11.7708 8.83449C11.8918 8.72817 11.97 8.58155 11.991 8.42188L10.5384 7.6665H9.66669C9.48987 7.6665 9.3203 7.73674 9.19527 7.86177C9.07024 7.9868 9 8.15637 9 8.33319V12.3332C9 12.51 9.07024 12.6796 9.19527 12.8046C9.3203 12.9296 9.48987 12.9999 9.66669 12.9999H11.3334C11.4215 13.0007 11.5089 12.9841 11.5905 12.951C11.6721 12.9179 11.7464 12.8689 11.809 12.8069C11.8716 12.7449 11.9212 12.6711 11.9551 12.5898C11.9891 12.5085 12.0065 12.4213 12.0065 12.3332C12.0065 12.2451 11.9891 12.1579 11.9551 12.0766C11.9212 11.9953 11.8716 11.9215 11.809 11.8595C11.7464 11.7975 11.6721 11.7486 11.5905 11.7154C11.5089 11.6823 11.4215 11.6657 11.3334 11.6666H10.3334V8.99988H11.3333Z" fill="#009148"/>
<path d="M20.0013 12.9999H21.668C21.8448 12.9999 22.0143 12.9296 22.1394 12.8046C22.2644 12.6796 22.3346 12.51 22.3346 12.3332V8.33319C22.3346 8.15637 22.2644 7.9868 22.1394 7.86177C22.0143 7.73674 21.8448 7.6665 21.668 7.6665H20.0013C19.8245 7.6665 19.6549 7.73674 19.5299 7.86177C19.4048 7.9868 19.3346 8.15637 19.3346 8.33319C19.3346 8.51001 19.4048 8.67958 19.5299 8.80461C19.6549 8.92964 19.8245 8.99988 20.0013 8.99988H21.0013V11.6666H20.0013C19.9132 11.6657 19.8258 11.6823 19.7442 11.7154C19.6625 11.7486 19.5883 11.7975 19.5257 11.8595C19.4631 11.9215 19.4134 11.9953 19.3795 12.0766C19.3456 12.1579 19.3281 12.2451 19.3281 12.3332C19.3281 12.4213 19.3456 12.5085 19.3795 12.5898C19.4134 12.6711 19.4631 12.7449 19.5257 12.8069C19.5883 12.8689 19.6625 12.9179 19.7442 12.951C19.8258 12.9841 19.9132 13.0007 20.0013 12.9999Z" fill="#00B157"/>
<path d="M19.3433 12.2446C19.3271 12.3391 19.3321 12.436 19.358 12.5283C19.3839 12.6206 19.43 12.706 19.4929 12.7783C19.5559 12.8506 19.6341 12.908 19.722 12.9464C19.8098 12.9847 19.9051 13.003 20.0009 13H20.7958L19.3433 12.2446Z" fill="#009148"/>
<path d="M15.6667 12.9999C17.1395 12.9999 18.3334 11.806 18.3334 10.3332C18.3334 8.86042 17.1395 7.6665 15.6667 7.6665C14.1939 7.6665 13 8.86042 13 10.3332C13 11.806 14.1939 12.9999 15.6667 12.9999Z" fill="#FAC100"/>
<path d="M13.3019 9.10352C13.1393 9.41416 13.0397 9.75383 13.0086 10.1031C12.9775 10.4523 13.0156 10.8042 13.1207 11.1387C13.2258 11.4732 13.3959 11.7837 13.6212 12.0523C13.8466 12.3209 14.1227 12.5425 14.4337 12.7042C14.7448 12.866 15.0847 12.9648 15.434 12.995C15.7834 13.0251 16.1352 12.9861 16.4694 12.8801C16.8036 12.774 17.1136 12.6031 17.3816 12.3771C17.6497 12.1511 17.8705 11.8744 18.0314 11.5629L13.3019 9.10352Z" fill="#FF9500"/>
<path d="M27.3338 4.6665H22.3338C22.197 4.66656 22.0634 4.70869 21.9514 4.78718C21.8393 4.86568 21.754 4.97674 21.7072 5.10532L21.227 6.42594C21.1076 6.75207 20.9056 7.04164 20.6408 7.26639C20.3761 7.49113 20.0575 7.64335 19.7163 7.70819L15.3226 8.53194C14.9761 8.59629 14.6661 8.78784 14.4536 9.06899C14.2411 9.35013 14.1414 9.70055 14.174 10.0515C14.2067 10.4024 14.3693 10.7284 14.63 10.9655C14.8907 11.2027 15.2306 11.3338 15.583 11.3332H22.48C23.1367 11.3341 23.7861 11.1955 24.3852 10.9264L27.6056 9.48925C27.7232 9.43678 27.8231 9.35136 27.8932 9.24333C27.9632 9.1353 28.0005 9.00928 28.0005 8.8805V5.33313C28.0005 5.15632 27.9302 4.98676 27.8052 4.86175C27.6802 4.73674 27.5106 4.6665 27.3338 4.6665Z" fill="#FFD188"/>
<path d="M27.6053 8.15624L24.3849 9.59343C23.7858 9.86241 23.1364 10.001 22.4796 9.99999H15.5825C15.3281 9.99968 15.0786 9.93038 14.8604 9.79947C14.6423 9.66857 14.4637 9.48096 14.3438 9.25661C14.2267 9.4709 14.1675 9.71203 14.1721 9.95618C14.1767 10.2003 14.245 10.439 14.37 10.6488C14.4951 10.8585 14.6728 11.0319 14.8854 11.152C15.0981 11.2721 15.3383 11.3346 15.5825 11.3334H22.4796C23.1364 11.3343 23.7858 11.1957 24.3849 10.9266L27.6053 9.48943C27.7229 9.43695 27.8227 9.35154 27.8928 9.2435C27.9629 9.13547 28.0002 9.00945 28.0001 8.88068V7.54736C28.0002 7.67616 27.9629 7.8022 27.8929 7.91026C27.8228 8.01832 27.7229 8.10376 27.6053 8.15624Z" fill="#F9A06F"/>
<path d="M29.3347 2H28.0013C27.2649 2 26.668 2.59694 26.668 3.33331V9.33337C26.668 10.0697 27.2649 10.6667 28.0013 10.6667H29.3347C30.071 10.6667 30.668 10.0697 30.668 9.33337V3.33331C30.668 2.59694 30.071 2 29.3347 2Z" fill="#00CF66"/>
<path d="M29.3346 8.66656H28.0013C27.6478 8.66618 27.3089 8.52559 27.0589 8.27563C26.8089 8.02566 26.6683 7.68675 26.668 7.33325V9.33325C26.6683 9.68675 26.8089 10.0257 27.0589 10.2756C27.3089 10.5256 27.6478 10.6662 28.0013 10.6666H29.3346C29.6881 10.6662 30.027 10.5256 30.277 10.2756C30.5269 10.0257 30.6675 9.68675 30.6679 9.33325V7.33325C30.6675 7.68675 30.5269 8.02566 30.277 8.27563C30.027 8.52559 29.6881 8.66618 29.3346 8.66656Z" fill="#00B157"/>
<path d="M41.97 6.84C41.6433 6.84 41.3533 6.9 41.1 7.02C40.8467 7.14 40.63 7.31333 40.45 7.54C40.2767 7.76667 40.1433 8.04 40.05 8.36C39.9633 8.68 39.92 9.04 39.92 9.44C39.92 9.98 39.9933 10.4433 40.14 10.83C40.2867 11.21 40.51 11.5033 40.81 11.71C41.1167 11.9167 41.5 12.02 41.96 12.02C42.2667 12.02 42.56 11.99 42.84 11.93C43.1267 11.8633 43.4267 11.7767 43.74 11.67V12.76C43.4467 12.88 43.15 12.9667 42.85 13.02C42.5567 13.0733 42.2167 13.1 41.83 13.1C41.0967 13.1 40.49 12.95 40.01 12.65C39.53 12.3433 39.1733 11.9167 38.94 11.37C38.7067 10.8167 38.59 10.17 38.59 9.43C38.59 8.89 38.6633 8.39667 38.81 7.95C38.9633 7.50333 39.18 7.11667 39.46 6.79C39.7467 6.46333 40.1 6.21 40.52 6.03C40.94 5.85 41.4233 5.76 41.97 5.76C42.33 5.76 42.6833 5.80333 43.03 5.89C43.3833 5.97 43.7133 6.08333 44.02 6.23L43.58 7.28C43.3267 7.16667 43.0633 7.06667 42.79 6.98C42.5233 6.88667 42.25 6.84 41.97 6.84ZM51.4623 9.42C51.4623 9.97333 51.3923 10.4767 51.2523 10.93C51.119 11.3767 50.9123 11.7633 50.6323 12.09C50.359 12.4167 50.009 12.6667 49.5823 12.84C49.1623 13.0133 48.669 13.1 48.1023 13.1C47.529 13.1 47.029 13.0133 46.6023 12.84C46.1823 12.66 45.8357 12.41 45.5623 12.09C45.289 11.7633 45.0823 11.3733 44.9423 10.92C44.809 10.4667 44.7423 9.96333 44.7423 9.41C44.7423 8.67 44.8623 8.02667 45.1023 7.48C45.349 6.93333 45.719 6.51 46.2123 6.21C46.7123 5.90333 47.3457 5.75 48.1123 5.75C48.8657 5.75 49.489 5.90333 49.9823 6.21C50.4757 6.51 50.8457 6.93667 51.0923 7.49C51.339 8.03667 51.4623 8.68 51.4623 9.42ZM46.0923 9.42C46.0923 9.96 46.1623 10.4233 46.3023 10.81C46.449 11.1967 46.669 11.4933 46.9623 11.7C47.2623 11.9067 47.6423 12.01 48.1023 12.01C48.5757 12.01 48.959 11.9067 49.2523 11.7C49.5457 11.4933 49.7623 11.1967 49.9023 10.81C50.0423 10.4233 50.1123 9.96 50.1123 9.42C50.1123 8.61333 49.9557 7.98 49.6423 7.52C49.329 7.06 48.819 6.83 48.1123 6.83C47.6457 6.83 47.2623 6.93333 46.9623 7.14C46.669 7.34667 46.449 7.64333 46.3023 8.03C46.1623 8.41667 46.0923 8.88 46.0923 9.42ZM58.8227 9.36C58.8227 10.16 58.6694 10.83 58.3627 11.37C58.0627 11.91 57.6261 12.3167 57.0527 12.59C56.4861 12.8633 55.7994 13 54.9927 13H52.9827V5.86H55.2027C55.9427 5.86 56.5827 5.99333 57.1227 6.26C57.6627 6.52667 58.0794 6.92 58.3727 7.44C58.6727 7.95333 58.8227 8.59333 58.8227 9.36ZM57.4827 9.4C57.4827 8.83333 57.3961 8.36667 57.2227 8C57.0494 7.63333 56.7927 7.36333 56.4527 7.19C56.1127 7.01 55.6961 6.92 55.2027 6.92H54.2627V11.93H55.0327C55.8594 11.93 56.4727 11.72 56.8727 11.3C57.2794 10.8733 57.4827 10.24 57.4827 9.4ZM62.4137 10.26C62.4137 9.71333 62.4637 9.18 62.5637 8.66C62.6703 8.14 62.8337 7.64333 63.0537 7.17C63.2737 6.69667 63.5503 6.26 63.8837 5.86H64.9537C64.6537 6.27333 64.397 6.72 64.1837 7.2C63.977 7.68 63.8203 8.17667 63.7137 8.69C63.6137 9.20333 63.5637 9.72333 63.5637 10.25C63.5637 10.7633 63.6137 11.2733 63.7137 11.78C63.8203 12.2867 63.977 12.7767 64.1837 13.25C64.3903 13.7233 64.6437 14.1667 64.9437 14.58H63.8837C63.5503 14.1867 63.2737 13.7567 63.0537 13.29C62.8337 12.83 62.6703 12.3433 62.5637 11.83C62.4637 11.3167 62.4137 10.7933 62.4137 10.26ZM69.2259 6.84C68.8992 6.84 68.6092 6.9 68.3559 7.02C68.1025 7.14 67.8859 7.31333 67.7059 7.54C67.5325 7.76667 67.3992 8.04 67.3059 8.36C67.2192 8.68 67.1759 9.04 67.1759 9.44C67.1759 9.98 67.2492 10.4433 67.3959 10.83C67.5425 11.21 67.7659 11.5033 68.0659 11.71C68.3725 11.9167 68.7559 12.02 69.2159 12.02C69.5225 12.02 69.8159 11.99 70.0959 11.93C70.3825 11.8633 70.6825 11.7767 70.9959 11.67V12.76C70.7025 12.88 70.4059 12.9667 70.1059 13.02C69.8125 13.0733 69.4725 13.1 69.0859 13.1C68.3525 13.1 67.7459 12.95 67.2659 12.65C66.7859 12.3433 66.4292 11.9167 66.1959 11.37C65.9625 10.8167 65.8459 10.17 65.8459 9.43C65.8459 8.89 65.9192 8.39667 66.0659 7.95C66.2192 7.50333 66.4359 7.11667 66.7159 6.79C67.0025 6.46333 67.3559 6.21 67.7759 6.03C68.1959 5.85 68.6792 5.76 69.2259 5.76C69.5859 5.76 69.9392 5.80333 70.2859 5.89C70.6392 5.97 70.9692 6.08333 71.2759 6.23L70.8359 7.28C70.5825 7.16667 70.3192 7.06667 70.0459 6.98C69.7792 6.88667 69.5059 6.84 69.2259 6.84ZM74.5735 7.48C75.2735 7.48 75.8035 7.63333 76.1635 7.94C76.5302 8.24 76.7135 8.71333 76.7135 9.36V13H75.8235L75.5735 12.25H75.5335C75.3802 12.4433 75.2202 12.6067 75.0535 12.74C74.8935 12.8667 74.7068 12.9567 74.4935 13.01C74.2868 13.07 74.0335 13.1 73.7335 13.1C73.4135 13.1 73.1235 13.04 72.8635 12.92C72.6102 12.8 72.4102 12.6167 72.2635 12.37C72.1168 12.1167 72.0435 11.8 72.0435 11.42C72.0435 10.86 72.2468 10.44 72.6535 10.16C73.0668 9.87333 73.6902 9.71667 74.5235 9.69L75.4635 9.66V9.39C75.4635 9.04333 75.3802 8.79667 75.2135 8.65C75.0468 8.50333 74.8135 8.43 74.5135 8.43C74.2402 8.43 73.9768 8.47 73.7235 8.55C73.4702 8.63 73.2235 8.72333 72.9835 8.83L72.5835 7.95C72.8502 7.81 73.1535 7.69667 73.4935 7.61C73.8402 7.52333 74.2002 7.48 74.5735 7.48ZM74.8035 10.46C74.2502 10.48 73.8668 10.5767 73.6535 10.75C73.4402 10.9167 73.3335 11.1433 73.3335 11.43C73.3335 11.6833 73.4102 11.8667 73.5635 11.98C73.7168 12.0933 73.9135 12.15 74.1535 12.15C74.5202 12.15 74.8302 12.0467 75.0835 11.84C75.3368 11.6267 75.4635 11.3133 75.4635 10.9V10.44L74.8035 10.46ZM81.9824 11.43C81.9824 11.79 81.8958 12.0967 81.7224 12.35C81.5491 12.5967 81.2924 12.7833 80.9524 12.91C80.6191 13.0367 80.2091 13.1 79.7224 13.1C79.3424 13.1 79.0158 13.0733 78.7424 13.02C78.4691 12.9667 78.2091 12.8833 77.9624 12.77V11.7C78.2291 11.8267 78.5258 11.9333 78.8524 12.02C79.1791 12.1067 79.4824 12.15 79.7624 12.15C80.1091 12.15 80.3591 12.0967 80.5124 11.99C80.6658 11.8833 80.7424 11.74 80.7424 11.56C80.7424 11.4533 80.7124 11.3567 80.6524 11.27C80.5924 11.1833 80.4758 11.0933 80.3024 11C80.1291 10.9 79.8658 10.7767 79.5124 10.63C79.1658 10.49 78.8758 10.35 78.6424 10.21C78.4158 10.07 78.2424 9.90333 78.1224 9.71C78.0091 9.51 77.9524 9.26 77.9524 8.96C77.9524 8.47333 78.1458 8.10667 78.5324 7.86C78.9191 7.60667 79.4291 7.48 80.0624 7.48C80.3958 7.48 80.7091 7.51333 81.0024 7.58C81.3024 7.64 81.6024 7.74 81.9024 7.88L81.5024 8.81C81.3358 8.73667 81.1691 8.67333 81.0024 8.62C80.8424 8.56 80.6791 8.51333 80.5124 8.48C80.3524 8.44667 80.1891 8.43 80.0224 8.43C79.7491 8.43 79.5424 8.47333 79.4024 8.56C79.2624 8.64 79.1924 8.75333 79.1924 8.9C79.1924 9.01333 79.2258 9.11333 79.2924 9.2C79.3658 9.28 79.4891 9.36333 79.6624 9.45C79.8424 9.53 80.0958 9.63667 80.4224 9.77C80.7491 9.89667 81.0258 10.03 81.2524 10.17C81.4858 10.3033 81.6658 10.47 81.7924 10.67C81.9191 10.87 81.9824 11.1233 81.9824 11.43ZM84.4548 7.21C84.4548 7.42333 84.4448 7.63333 84.4248 7.84C84.4114 8.04 84.3981 8.19 84.3848 8.29H84.4648C84.5781 8.10333 84.7181 7.95333 84.8848 7.84C85.0514 7.72 85.2348 7.63 85.4348 7.57C85.6414 7.51 85.8548 7.48 86.0748 7.48C86.4814 7.48 86.8314 7.55 87.1248 7.69C87.4181 7.83 87.6414 8.04667 87.7948 8.34C87.9548 8.62667 88.0348 9.00333 88.0348 9.47V13H86.7748V9.72C86.7748 9.30667 86.6948 9 86.5348 8.8C86.3748 8.6 86.1214 8.5 85.7748 8.5C85.4414 8.5 85.1781 8.57333 84.9848 8.72C84.7914 8.86 84.6548 9.07 84.5748 9.35C84.4948 9.62333 84.4548 9.96 84.4548 10.36V13H83.1948V5.4H84.4548V7.21ZM43.65 24.28C43.65 24.7333 43.59 25.1333 43.47 25.48C43.35 25.8267 43.1767 26.1233 42.95 26.37C42.73 26.61 42.4567 26.7933 42.13 26.92C41.81 27.04 41.4533 27.1 41.06 27.1C40.6867 27.1 40.3433 27.04 40.03 26.92C39.7167 26.7933 39.4433 26.61 39.21 26.37C38.9833 26.1233 38.8067 25.8267 38.68 25.48C38.5533 25.1333 38.49 24.7333 38.49 24.28C38.49 23.68 38.5933 23.1733 38.8 22.76C39.0067 22.34 39.3033 22.0233 39.69 21.81C40.0833 21.59 40.5467 21.48 41.08 21.48C41.5867 21.48 42.03 21.59 42.41 21.81C42.7967 22.0233 43.1 22.34 43.32 22.76C43.54 23.1733 43.65 23.68 43.65 24.28ZM39.78 24.28C39.78 24.66 39.8233 24.9867 39.91 25.26C40.0033 25.5267 40.1433 25.73 40.33 25.87C40.5233 26.01 40.77 26.08 41.07 26.08C41.3767 26.08 41.6233 26.01 41.81 25.87C42.0033 25.73 42.1433 25.5267 42.23 25.26C42.3167 24.9867 42.36 24.66 42.36 24.28C42.36 23.8933 42.3133 23.57 42.22 23.31C42.1333 23.0433 41.9933 22.8433 41.8 22.71C41.6133 22.57 41.37 22.5 41.07 22.5C40.6167 22.5 40.2867 22.6533 40.08 22.96C39.88 23.2667 39.78 23.7067 39.78 24.28ZM47.8526 21.48C48.4592 21.48 48.9326 21.6367 49.2726 21.95C49.6192 22.2633 49.7926 22.77 49.7926 23.47V27H48.5326V23.72C48.5326 23.3133 48.4526 23.01 48.2926 22.81C48.1326 22.6033 47.8792 22.5 47.5326 22.5C47.0259 22.5 46.6792 22.66 46.4926 22.98C46.3059 23.2933 46.2126 23.75 46.2126 24.35V27H44.9526V21.58H45.9226L46.1026 22.29H46.1726C46.2926 22.1033 46.4392 21.95 46.6126 21.83C46.7859 21.71 46.9792 21.6233 47.1926 21.57C47.4059 21.51 47.6259 21.48 47.8526 21.48ZM55.7563 27.1C55.1296 27.1 54.6196 26.8667 54.2263 26.4C53.8396 25.9267 53.6463 25.2267 53.6463 24.3C53.6463 23.3733 53.8429 22.6733 54.2363 22.2C54.6296 21.72 55.1463 21.48 55.7863 21.48C56.0529 21.48 56.2863 21.5167 56.4863 21.59C56.6929 21.6567 56.8696 21.75 57.0163 21.87C57.1629 21.99 57.2863 22.1233 57.3863 22.27H57.4463C57.4263 22.1767 57.4063 22.0333 57.3863 21.84C57.3663 21.6467 57.3563 21.4667 57.3563 21.3V19.4H58.6163V27H57.6363L57.4063 26.29H57.3563C57.2563 26.4367 57.1329 26.5733 56.9863 26.7C56.8396 26.82 56.6663 26.9167 56.4663 26.99C56.2663 27.0633 56.0296 27.1 55.7563 27.1ZM56.1363 26.08C56.6029 26.08 56.9329 25.9467 57.1263 25.68C57.3196 25.4133 57.4163 25.01 57.4163 24.47V24.31C57.4163 23.7233 57.3229 23.2767 57.1363 22.97C56.9563 22.6633 56.6163 22.51 56.1163 22.51C55.7363 22.51 55.4429 22.67 55.2363 22.99C55.0296 23.3033 54.9263 23.7467 54.9263 24.32C54.9263 24.8933 55.0296 25.33 55.2363 25.63C55.4429 25.93 55.7429 26.08 56.1363 26.08ZM62.406 21.48C62.8927 21.48 63.3093 21.58 63.656 21.78C64.0093 21.9733 64.2827 22.2533 64.476 22.62C64.6693 22.98 64.766 23.42 64.766 23.94V24.58H61.186C61.1993 25.0733 61.336 25.4567 61.596 25.73C61.856 25.9967 62.216 26.13 62.676 26.13C63.0293 26.13 63.3427 26.0967 63.616 26.03C63.896 25.9567 64.1827 25.8533 64.476 25.72V26.73C64.2093 26.8567 63.9327 26.95 63.646 27.01C63.3593 27.07 63.016 27.1 62.616 27.1C62.0893 27.1 61.6193 27 61.206 26.8C60.7993 26.5933 60.4793 26.2833 60.246 25.87C60.0193 25.4567 59.906 24.9433 59.906 24.33C59.906 23.71 60.0093 23.19 60.216 22.77C60.4293 22.3433 60.7227 22.0233 61.096 21.81C61.4693 21.59 61.906 21.48 62.406 21.48ZM62.406 22.41C62.0727 22.41 61.7993 22.52 61.586 22.74C61.3793 22.9533 61.256 23.2733 61.216 23.7H63.546C63.546 23.4467 63.5027 23.2233 63.416 23.03C63.336 22.8367 63.2127 22.6867 63.046 22.58C62.8793 22.4667 62.666 22.41 62.406 22.41ZM67.2966 27H66.0366V19.4H67.2966V27ZM70.1677 21.58V27H68.9077V21.58H70.1677ZM69.5377 19.49C69.7243 19.49 69.8877 19.54 70.0277 19.64C70.1677 19.7333 70.2377 19.9033 70.2377 20.15C70.2377 20.39 70.1677 20.5633 70.0277 20.67C69.8877 20.77 69.7243 20.82 69.5377 20.82C69.3443 20.82 69.1777 20.77 69.0377 20.67C68.9043 20.5633 68.8377 20.39 68.8377 20.15C68.8377 19.9033 68.9043 19.7333 69.0377 19.64C69.1777 19.54 69.3443 19.49 69.5377 19.49ZM73.0288 27L70.9688 21.58H72.2988L73.3788 24.71C73.4254 24.8367 73.4688 24.9767 73.5088 25.13C73.5488 25.2767 73.5821 25.4233 73.6087 25.57C73.6421 25.71 73.6621 25.8333 73.6688 25.94H73.7088C73.7221 25.8267 73.7454 25.7 73.7788 25.56C73.8121 25.4133 73.8488 25.2667 73.8888 25.12C73.9354 24.9733 73.9788 24.8367 74.0188 24.71L75.0988 21.58H76.4288L74.3688 27H73.0288ZM79.4177 21.48C79.9044 21.48 80.3211 21.58 80.6677 21.78C81.0211 21.9733 81.2944 22.2533 81.4877 22.62C81.6811 22.98 81.7777 23.42 81.7777 23.94V24.58H78.1977C78.2111 25.0733 78.3477 25.4567 78.6077 25.73C78.8677 25.9967 79.2277 26.13 79.6877 26.13C80.0411 26.13 80.3544 26.0967 80.6277 26.03C80.9077 25.9567 81.1944 25.8533 81.4877 25.72V26.73C81.2211 26.8567 80.9444 26.95 80.6577 27.01C80.3711 27.07 80.0277 27.1 79.6277 27.1C79.1011 27.1 78.6311 27 78.2177 26.8C77.8111 26.5933 77.4911 26.2833 77.2577 25.87C77.0311 25.4567 76.9177 24.9433 76.9177 24.33C76.9177 23.71 77.0211 23.19 77.2277 22.77C77.4411 22.3433 77.7344 22.0233 78.1077 21.81C78.4811 21.59 78.9177 21.48 79.4177 21.48ZM79.4177 22.41C79.0844 22.41 78.8111 22.52 78.5977 22.74C78.3911 22.9533 78.2677 23.2733 78.2277 23.7H80.5577C80.5577 23.4467 80.5144 23.2233 80.4277 23.03C80.3477 22.8367 80.2244 22.6867 80.0577 22.58C79.8911 22.4667 79.6777 22.41 79.4177 22.41ZM85.8883 21.48C85.9683 21.48 86.0616 21.4833 86.1683 21.49C86.2749 21.4967 86.3649 21.51 86.4383 21.53L86.3283 22.7C86.2683 22.6867 86.1883 22.6767 86.0883 22.67C85.9949 22.6567 85.9116 22.65 85.8383 22.65C85.6383 22.65 85.4449 22.6833 85.2583 22.75C85.0783 22.81 84.9149 22.9033 84.7683 23.03C84.6283 23.15 84.5149 23.3067 84.4283 23.5C84.3483 23.6933 84.3083 23.9233 84.3083 24.19V27H83.0483V21.58H84.0183L84.1983 22.52H84.2583C84.3649 22.3267 84.4983 22.1533 84.6583 22C84.8183 21.84 85.0016 21.7133 85.2083 21.62C85.4216 21.5267 85.6483 21.48 85.8883 21.48ZM86.6328 21.58H88.0028L89.0828 24.64C89.1295 24.7733 89.1695 24.9033 89.2028 25.03C89.2428 25.15 89.2761 25.2733 89.3028 25.4C89.3295 25.5267 89.3495 25.6533 89.3628 25.78H89.4028C89.4295 25.6133 89.4695 25.43 89.5228 25.23C89.5828 25.03 89.6428 24.8333 89.7028 24.64L90.7428 21.58H92.1028L89.7928 27.72C89.6595 28.0733 89.4895 28.3767 89.2828 28.63C89.0828 28.8833 88.8428 29.0733 88.5628 29.2C88.2895 29.3333 87.9795 29.4 87.6328 29.4C87.4728 29.4 87.3295 29.39 87.2028 29.37C87.0828 29.3567 86.9761 29.34 86.8828 29.32V28.32C86.9561 28.3333 87.0428 28.3467 87.1428 28.36C87.2495 28.3733 87.3595 28.38 87.4728 28.38C87.6795 28.38 87.8561 28.3367 88.0028 28.25C88.1561 28.17 88.2828 28.0567 88.3828 27.91C88.4895 27.7633 88.5761 27.6 88.6428 27.42L88.8028 26.98L86.6328 21.58ZM94.9416 24.26C94.9416 24.7933 94.8882 25.3167 94.7816 25.83C94.6816 26.3433 94.5216 26.83 94.3016 27.29C94.0882 27.7567 93.8116 28.1867 93.4716 28.58H92.4116C92.7116 28.1667 92.9649 27.7233 93.1716 27.25C93.3782 26.7767 93.5349 26.2867 93.6416 25.78C93.7482 25.2733 93.8016 24.7633 93.8016 24.25C93.8016 23.7233 93.7482 23.2033 93.6416 22.69C93.5349 22.1767 93.3782 21.68 93.1716 21.2C92.9716 20.72 92.7149 20.2733 92.4016 19.86H93.4716C93.8116 20.26 94.0882 20.6967 94.3016 21.17C94.5216 21.6433 94.6816 22.14 94.7816 22.66C94.8882 23.18 94.9416 23.7133 94.9416 24.26Z" fill="#202020"/>
</svg>
