<svg width="48" height="48" viewBox="0 0 48 48" fill="none" xmlns="http://www.w3.org/2000/svg">
<g clip-path="url(#clip0_331_3545)">
<path d="M43.3083 37.3225C44.2565 36.0188 44.7704 34.4497 44.7771 32.8377C44.7874 32.6257 44.7129 32.4184 44.5703 32.2613C44.4276 32.1042 44.2283 32.0102 44.0163 32.0001C43.5767 31.9837 43.2045 32.3217 43.1787 32.7609C43.1848 34.0385 42.7912 35.286 42.0531 36.3289C40.4923 38.3001 37.5307 38.4001 36.9523 38.4001C36.5105 38.4001 36.1523 38.7583 36.1523 39.2001C36.1523 39.6419 36.5105 40.0001 36.9523 40.0001C37.6595 40.0001 41.2891 39.8713 43.3083 37.3225Z" fill="#57CC99"/>
<path d="M35 22.6168V24.6729H29.0949V28.9346C29.0949 29.2835 29.1429 29.5452 29.239 29.7196C29.335 29.8816 29.551 29.9626 29.8871 29.9626C30.1631 29.9626 30.4332 29.919 30.6972 29.8318C30.9613 29.7321 31.2013 29.6075 31.4173 29.4579C31.6334 29.2959 31.8074 29.109 31.9394 28.8972C32.0715 28.6854 32.1375 28.4673 32.1375 28.243C32.1375 28.1308 32.0895 28.0249 31.9935 27.9252C31.8974 27.8255 31.7114 27.7757 31.4354 27.7757C31.2193 27.7757 31.0273 27.7944 30.8592 27.8318L30.5712 25.9252C30.7872 25.8629 31.0273 25.8193 31.2913 25.7944C31.5674 25.7695 31.8494 25.757 32.1375 25.757C32.8456 25.757 33.4157 25.9252 33.8478 26.2617C34.2799 26.5981 34.4959 27.1215 34.4959 27.8318C34.4959 28.5047 34.3459 29.1028 34.0458 29.6262C33.7458 30.1495 33.3497 30.5857 32.8576 30.9346C32.3655 31.2835 31.8254 31.5514 31.2373 31.7383C30.6612 31.9128 30.0971 32 29.545 32C29.0409 32 28.6148 31.9377 28.2668 31.8131C27.9307 31.6885 27.6607 31.5265 27.4566 31.3271C27.3246 31.19 27.1986 31.0343 27.0786 30.8598C26.9705 30.6854 26.8805 30.4424 26.8085 30.1308C26.7485 29.8193 26.7185 29.4019 26.7185 28.8785V24.6729H25.2062V22.6168H35ZM26.5385 18C26.9345 18 27.2826 18.0498 27.5827 18.1495C27.8827 18.2492 28.1348 18.405 28.3388 18.6168C28.5788 18.8536 28.7649 19.1838 28.8969 19.6075C29.0289 20.0312 29.0949 20.6293 29.0949 21.4019V22.6916H26.7185V21.4953C26.7185 21.1838 26.6945 20.9221 26.6465 20.7103C26.5985 20.4984 26.5025 20.3427 26.3584 20.243C26.2144 20.1308 25.9984 20.0748 25.7103 20.0748C25.5543 20.0748 25.3863 20.0935 25.2062 20.1308C25.0382 20.1682 24.8642 20.2243 24.6841 20.2991L24 18.5047C24.4681 18.3302 24.8882 18.2056 25.2602 18.1308C25.6323 18.0436 26.0584 18 26.5385 18Z" fill="#57CC99"/>
<path d="M47.3312 27.0169C45.36 18.6401 40.9776 13.7865 37.8128 11.2513C41.7816 11.5505 43.0592 13.2017 43.0968 13.2513C43.3474 13.6091 43.8387 13.6997 44.2005 13.4548C44.5622 13.2099 44.6607 12.7201 44.4216 12.3545C44.364 12.2681 43.2528 10.6809 40.0216 9.95451C40.8478 9.2753 41.3366 8.26942 41.36 7.20011C41.253 5.42726 40.0189 3.92393 38.3008 3.47371C38.3712 2.89583 38.407 2.31426 38.408 1.73211C38.4071 1.19579 38.1376 0.695571 37.6902 0.399858C37.2428 0.104145 36.6769 0.0522744 36.1832 0.261708C35.7793 0.444569 35.4042 0.685223 35.0696 0.976108C34.677 1.37956 34.1365 1.605 33.5736 1.60011C33.0116 1.60406 32.4722 1.37873 32.08 0.976108C30.6701 -0.326021 28.4963 -0.326021 27.0864 0.976108C26.6937 1.38044 26.1524 1.606 25.5888 1.60011C25.0268 1.60478 24.4875 1.37931 24.096 0.976108C23.7623 0.685847 23.3883 0.445483 22.9856 0.262508C22.4922 0.0544781 21.9274 0.107057 21.4809 0.402595C21.0344 0.698132 20.7653 1.19744 20.764 1.73291C20.764 3.72331 21.1576 7.27371 23.6496 9.65771C22.3399 10.4541 21.1168 11.3847 20 12.4345V6.40011C20 4.57611 17.42 3.20011 14 3.20011C10.58 3.20011 8 4.57611 8 6.40011V14.4601C5.1944 14.7401 3.2 16.0001 3.2 17.6001V37.9481C1.2672 38.4673 0 39.5201 0 40.8001V44.8001C0 46.6241 2.58 48.0001 6 48.0001C9.0584 48.0001 11.44 46.8985 11.9096 45.3601C13.2905 46.0913 14.8382 46.4497 16.4 46.4001C19.82 46.4001 22.4 45.0241 22.4 43.2001V32.8001C22.4 30.9761 19.82 29.6001 16.4 29.6001C15.9992 29.5998 15.5987 29.6199 15.2 29.6601V17.6001C15.2 15.8481 12.8184 14.5137 9.6 14.4105V8.61531C10.961 9.30706 12.474 9.6457 14 9.60011C15.526 9.6457 17.039 9.30706 18.4 8.61531V14.0713C17.8728 14.6609 17.3432 15.3033 16.8208 16.0153C16.5816 16.3715 16.666 16.8531 17.0121 17.1066C17.3583 17.3602 17.8429 17.2956 18.1104 16.9601C18.6242 16.2645 19.1749 15.5969 19.76 14.9601C19.7664 14.9529 19.772 14.9457 19.7784 14.9393C21.3056 13.2421 23.0989 11.8049 25.088 10.6841C25.4802 10.8733 25.895 11.0112 26.3224 11.0945L24.26 13.0193C23.937 13.3211 23.9198 13.8275 24.2216 14.1505C24.5234 14.4735 25.0298 14.4907 25.3528 14.1889L28.5528 11.2041H28.808V13.6041C28.808 14.0459 29.1662 14.4041 29.608 14.4041C30.0498 14.4041 30.408 14.0459 30.408 13.6041V11.2001H30.6632L33.8632 14.1849C34.0721 14.3801 34.3693 14.449 34.6429 14.3657C34.9164 14.2824 35.1247 14.0594 35.1893 13.7809C35.2538 13.5024 35.1649 13.2105 34.956 13.0153L32.88 11.0825C33.3048 10.9984 33.717 10.86 34.1064 10.6705C36.2208 11.8145 43.1712 16.3345 45.7744 27.3833C46.9064 32.1929 46.4984 35.8721 44.5624 38.3161C42.0856 41.4401 37.788 41.6001 36.952 41.6001H25.6C25.1582 41.6001 24.8 41.9583 24.8 42.4001C24.8 42.8419 25.1582 43.2001 25.6 43.2001H36.952C38.312 43.2001 42.956 42.9193 45.816 39.3097C48.0704 36.4625 48.5808 32.3265 47.3312 27.0169ZM6 39.2001C8.6456 39.2001 10.4 40.1601 10.4 40.8001C10.4 41.4401 8.6456 42.4001 6 42.4001C3.3544 42.4001 1.6 41.4401 1.6 40.8001C1.6 40.1601 3.3544 39.2001 6 39.2001ZM6 46.4001C3.3544 46.4001 1.6 45.4401 1.6 44.8001V43.0153C2.96098 43.7071 4.47399 44.0457 6 44.0001C7.52601 44.0457 9.03902 43.7071 10.4 43.0153V44.8001C10.4 45.4401 8.6456 46.4001 6 46.4001ZM16.4 44.8001C13.7544 44.8001 12 43.8401 12 43.2001V35.0153C13.361 35.7071 14.874 36.0457 16.4 36.0001C17.926 36.0457 19.439 35.7071 20.8 35.0153V43.2001C20.8 43.8401 19.0456 44.8001 16.4 44.8001ZM20.8 32.8001C20.8 33.4401 19.0456 34.4001 16.4 34.4001C13.7544 34.4001 12 33.4401 12 32.8001C12 32.1601 13.7544 31.2001 16.4 31.2001C19.0456 31.2001 20.8 32.1601 20.8 32.8001ZM10.4 32.8001V38.5849C9.03902 37.8932 7.52601 37.5545 6 37.6001C5.59924 37.5998 5.19873 37.6199 4.8 37.6601V19.8153C6.16098 20.5071 7.67399 20.8457 9.2 20.8001C10.726 20.8457 12.239 20.5071 13.6 19.8153V29.9481C11.6672 30.4673 10.4 31.5201 10.4 32.8001ZM13.6 17.6001C13.6 18.2401 11.8456 19.2001 9.2 19.2001C6.5544 19.2001 4.8 18.2401 4.8 17.6001C4.8 16.9601 6.5544 16.0001 9.2 16.0001C11.8456 16.0001 13.6 16.9601 13.6 17.6001ZM14 8.00011C11.3544 8.00011 9.6 7.04011 9.6 6.40011C9.6 5.76011 11.3544 4.80011 14 4.80011C16.6456 4.80011 18.4 5.76011 18.4 6.40011C18.4 7.04011 16.6456 8.00011 14 8.00011ZM39.76 7.20011C39.76 8.51131 38.34 9.58731 36.56 9.60011C36.2623 9.59822 35.9656 9.56416 35.6752 9.49851C36.8363 8.25975 37.6434 6.73185 38.012 5.07451C38.975 5.35824 39.6676 6.20048 39.76 7.20011ZM23.0944 2.22411C23.77 2.85718 24.663 3.20657 25.5888 3.20011C26.5152 3.20706 27.4088 2.85763 28.0848 2.22411C28.4802 1.82486 29.0189 1.60024 29.5808 1.60024C30.1427 1.60024 30.6814 1.82486 31.0768 2.22411C31.7528 2.8581 32.6469 3.2076 33.5736 3.20011C34.5003 3.20727 35.3942 2.85782 36.0704 2.22411C36.2921 2.02817 36.5388 1.86246 36.804 1.73131C36.804 3.21691 36.528 6.88971 33.9504 8.90331C33.3705 9.33883 32.6675 9.5794 31.9424 9.59051C32.6349 8.401 33.1831 7.1331 33.5752 5.81371C33.6518 5.53819 33.5756 5.24273 33.3753 5.03863C33.175 4.83453 32.881 4.7528 32.6041 4.82423C32.3272 4.89566 32.1094 5.10939 32.0328 5.38491C31.5897 6.88872 30.9086 8.31182 30.0152 9.60011H29.1928C28.3012 8.31069 27.6199 6.88792 27.1744 5.38491C27.0558 4.95921 26.6145 4.71028 26.1888 4.82891C25.7631 4.94754 25.5142 5.38881 25.6328 5.81451C26.0253 7.13504 26.574 8.40401 27.2672 9.59451C26.5275 9.59071 25.8088 9.34861 25.2176 8.90411C22.64 6.89131 22.364 3.21851 22.364 1.73771C22.6291 1.86472 22.875 2.02847 23.0944 2.22411Z" fill="#57CC99"/>
<path d="M43.3083 37.3224C44.2565 36.0187 44.7704 34.4497 44.7771 32.8376C44.7874 32.6257 44.7129 32.4183 44.5703 32.2612C44.4276 32.1041 44.2283 32.0102 44.0163 32C43.577 31.9845 43.2054 32.322 43.1787 32.7608C43.1848 34.0384 42.7912 35.286 42.0531 36.3288C40.4923 38.3 37.5307 38.4 36.9523 38.4C36.5105 38.4 36.1523 38.7582 36.1523 39.2C36.1523 39.6419 36.5105 40 36.9523 40C37.6595 40 41.2891 39.8712 43.3083 37.3224Z" fill="#57CC99"/>
</g>
<defs>
<clipPath id="clip0_331_3545">
<rect width="48" height="48" fill="white"/>
</clipPath>
</defs>
</svg>
