<svg width="48" height="49" viewBox="0 0 48 49" fill="none" xmlns="http://www.w3.org/2000/svg">
<g clip-path="url(#clip0_331_3522)">
<path d="M30 20.6168V22.6729H24.0949V26.9346C24.0949 27.2835 24.1429 27.5452 24.239 27.7196C24.335 27.8816 24.551 27.9626 24.8871 27.9626C25.1631 27.9626 25.4332 27.919 25.6972 27.8318C25.9613 27.7321 26.2013 27.6075 26.4173 27.4579C26.6334 27.2959 26.8074 27.109 26.9394 26.8972C27.0715 26.6854 27.1375 26.4673 27.1375 26.243C27.1375 26.1308 27.0895 26.0249 26.9935 25.9252C26.8974 25.8255 26.7114 25.7757 26.4354 25.7757C26.2193 25.7757 26.0273 25.7944 25.8592 25.8318L25.5712 23.9252C25.7872 23.8629 26.0273 23.8193 26.2913 23.7944C26.5674 23.7695 26.8494 23.757 27.1375 23.757C27.8456 23.757 28.4157 23.9252 28.8478 24.2617C29.2799 24.5981 29.4959 25.1215 29.4959 25.8318C29.4959 26.5047 29.3459 27.1028 29.0458 27.6262C28.7458 28.1495 28.3497 28.5857 27.8576 28.9346C27.3655 29.2835 26.8254 29.5514 26.2373 29.7383C25.6612 29.9128 25.0971 30 24.545 30C24.0409 30 23.6148 29.9377 23.2668 29.8131C22.9307 29.6885 22.6607 29.5265 22.4566 29.3271C22.3246 29.19 22.1986 29.0343 22.0786 28.8598C21.9705 28.6854 21.8805 28.4424 21.8085 28.1308C21.7485 27.8193 21.7185 27.4019 21.7185 26.8785V22.6729H20.2062V20.6168H30ZM21.5385 16C21.9345 16 22.2826 16.0498 22.5827 16.1495C22.8827 16.2492 23.1348 16.405 23.3388 16.6168C23.5788 16.8536 23.7649 17.1838 23.8969 17.6075C24.0289 18.0312 24.0949 18.6293 24.0949 19.4019V20.6916H21.7185V19.4953C21.7185 19.1838 21.6945 18.9221 21.6465 18.7103C21.5985 18.4984 21.5025 18.3427 21.3584 18.243C21.2144 18.1308 20.9984 18.0748 20.7103 18.0748C20.5543 18.0748 20.3863 18.0935 20.2062 18.1308C20.0382 18.1682 19.8642 18.2243 19.6841 18.2991L19 16.5047C19.4681 16.3302 19.8882 16.2056 20.2602 16.1308C20.6323 16.0436 21.0584 16 21.5385 16Z" fill="#57CC99"/>
<path d="M13.2344 21.9301C13.2344 28.2451 18.3535 33.3642 24.6684 33.3642C30.9833 33.3642 36.1024 28.2451 36.1024 21.9301C36.1024 15.6152 30.9833 10.4961 24.6684 10.4961C18.3566 10.503 13.2417 15.6183 13.2344 21.9301ZM24.6684 12.0731C30.1125 12.0731 34.5254 16.4861 34.5254 21.9301C34.5254 27.3742 30.1125 31.7872 24.6684 31.7872C19.2244 31.7872 14.8114 27.3742 14.8114 21.9301C14.8175 16.4888 19.2271 12.0793 24.6684 12.0731Z" fill="#57CC99"/>
<path d="M39.9894 35.3081L33.8127 38.2265C32.9599 36.6402 31.324 35.6307 29.5237 35.5799L23.8217 35.4232C22.9188 35.3974 22.0329 35.1687 21.2302 34.7541L20.6499 34.4534C17.6792 32.9049 14.1383 32.9087 11.1706 34.4634L11.2068 33.149C11.2187 32.7135 10.8757 32.3508 10.4402 32.3389L4.18767 32.1668C3.75223 32.1549 3.38993 32.4979 3.378 32.9334L3.0003 46.6544C2.98837 47.0898 3.33141 47.4525 3.76686 47.4644L10.0194 47.6365H10.041C10.4683 47.6365 10.8179 47.2966 10.8295 46.8696L10.8476 46.2131L12.4719 45.3434C13.1095 45.0004 13.8549 44.9187 14.5514 45.1159L24.2513 47.8383C24.2683 47.8433 24.2852 47.8471 24.3025 47.851C25.0036 47.9977 25.7182 48.0712 26.4343 48.0708C27.9513 48.0716 29.4505 47.7447 30.8292 47.1117C30.8631 47.0963 30.8958 47.0783 30.927 47.0578L44.9911 37.9608C45.3414 37.7341 45.4546 37.274 45.2494 36.9105C44.2053 35.0578 41.8894 34.3521 39.9894 35.3081ZM4.59848 45.9097L4.93267 33.765L9.60862 33.8936L9.27443 46.0387L4.59848 45.9097ZM30.1189 45.7034C28.406 46.4765 26.4929 46.6898 24.6517 46.3136L14.978 43.5981C13.8892 43.2905 12.7237 43.418 11.7277 43.9535L10.8976 44.3982L11.1198 36.3234C13.7502 34.5739 17.1236 34.3941 19.925 35.8537L20.5052 36.1544C21.5193 36.678 22.6378 36.9667 23.7785 36.9998L29.4809 37.1565C31.0826 37.2027 32.4428 38.3431 32.7678 39.9124L24.274 39.678C23.8386 39.666 23.4763 40.0095 23.464 40.4445C23.452 40.88 23.7955 41.2427 24.2305 41.2546L33.604 41.5125H33.6259C34.0529 41.5122 34.4021 41.1722 34.4137 40.7456C34.4233 40.4029 34.3979 40.0599 34.3374 39.7226L40.6728 36.7292C40.6789 36.7265 40.6851 36.7234 40.6913 36.7203C41.5899 36.2656 42.6764 36.4177 43.4156 37.1019L30.1189 45.7034Z" fill="#57CC99"/>
<path d="M25.4559 8.27926V0.788501C25.4559 0.353054 25.1029 0 24.6674 0C24.232 0 23.8789 0.353054 23.8789 0.788501V8.27926C23.8789 8.71471 24.232 9.06776 24.6674 9.06776C25.1029 9.06776 25.4559 8.71471 25.4559 8.27926Z" fill="#57CC99"/>
<path d="M31.37 8.27938V4.73113C31.37 4.29568 31.0169 3.94263 30.5815 3.94263C30.146 3.94263 29.793 4.29568 29.793 4.73113V8.27938C29.793 8.71483 30.146 9.06788 30.5815 9.06788C31.0169 9.06788 31.37 8.71483 31.37 8.27938Z" fill="#57CC99"/>
<path d="M19.5438 8.27938V4.73113C19.5438 4.29568 19.1907 3.94263 18.7553 3.94263C18.3199 3.94263 17.9668 4.29568 17.9668 4.73113V8.27938C17.9668 8.71483 18.3199 9.06788 18.7553 9.06788C19.1907 9.06788 19.5438 8.71483 19.5438 8.27938Z" fill="#57CC99"/>
</g>
<defs>
<clipPath id="clip0_331_3522">
<rect width="48" height="48.0709" fill="white"/>
</clipPath>
</defs>
</svg>
