<svg width="48" height="48" viewBox="0 0 48 48" fill="none" xmlns="http://www.w3.org/2000/svg">
<g clip-path="url(#clip0_328_3474)">
<path d="M34.9818 45.0182C34.5455 45.0182 34.2545 45.3091 34.2545 45.7454V46.5454H1.45455V9.09088H8.8C8.43636 10.2545 8.50909 11.0545 8.50909 11.8545C8.50909 12.2909 8.8 12.5818 9.23636 12.5818H26.5455C26.9818 12.5818 27.2727 12.2909 27.2727 11.8545C27.2727 11.0545 27.3455 10.2545 26.9818 9.09088H34.3273V14.1091C34.3273 14.5454 34.6182 14.8363 35.0545 14.8363C35.4909 14.8363 35.7818 14.5454 35.7818 14.1091V8.36361C35.7818 7.92725 35.4909 7.63634 35.0545 7.63634H26.3273C25.6 6.32725 24.4364 5.30906 22.9818 4.58179C22.8364 2.03634 20.5818 -0.0727539 17.8909 -0.0727539C15.2 -0.0727539 12.9455 1.96361 12.8 4.58179C11.3455 5.23634 10.2545 6.32725 9.45455 7.63634H0.727273C0.290909 7.63634 0 7.92725 0 8.36361V47.2727C0 47.7091 0.290909 48 0.727273 48H34.9818C35.4182 48 35.7091 47.7091 35.7091 47.2727V45.7454C35.7091 45.3818 35.3455 45.0182 34.9818 45.0182ZM13.7455 5.74543C14.0364 5.59997 14.2545 5.30906 14.1818 4.8727C14.1818 2.98179 15.7818 1.45452 17.8182 1.45452C19.8545 1.45452 21.4545 2.98179 21.4545 4.8727C21.3818 5.30906 21.6 5.59997 21.8909 5.74543C24.2182 6.61816 25.6727 8.72725 25.7455 11.1272H9.96364C9.96364 8.79997 11.4909 6.69088 13.7455 5.74543Z" fill="#57CC99"/>
<path d="M17.8188 8.50915C19.3461 8.50915 20.6551 7.27279 20.6551 5.67279C20.6551 4.07279 19.4188 2.83643 17.8188 2.83643C16.2915 2.83643 14.9824 4.07279 14.9824 5.67279C14.9824 7.27279 16.2915 8.50915 17.8188 8.50915ZM17.8188 4.29097C18.5461 4.29097 19.2006 4.87279 19.2006 5.67279C19.2006 6.47279 18.6188 7.05461 17.8188 7.05461C17.0915 7.05461 16.437 6.47279 16.437 5.67279C16.437 4.87279 17.0915 4.29097 17.8188 4.29097Z" fill="#57CC99"/>
<path d="M10.691 16.9455C10.691 16.5092 10.4001 16.2183 9.96374 16.2183H5.01829C4.58192 16.2183 4.29102 16.5092 4.29102 16.9455V22.2546C4.29102 22.691 4.58192 22.9819 5.01829 22.9819H9.96374C10.4001 22.9819 10.691 22.691 10.691 22.2546V16.9455ZM9.23647 21.4546H5.74556V17.6001H9.23647V21.4546Z" fill="#57CC99"/>
<path d="M10.691 26.6909C10.691 26.2545 10.4001 25.9636 9.96374 25.9636H5.01829C4.58192 25.9636 4.29102 26.2545 4.29102 26.6909V32C4.29102 32.4363 4.58192 32.7273 5.01829 32.7273H9.96374C10.4001 32.7273 10.691 32.4363 10.691 32V26.6909ZM9.23647 31.2727H5.74556V27.4182H9.23647V31.2727Z" fill="#57CC99"/>
<path d="M9.96374 35.7817H5.01829C4.58192 35.7817 4.29102 36.0726 4.29102 36.509V41.8181C4.29102 42.2545 4.58192 42.5454 5.01829 42.5454H9.96374C10.4001 42.5454 10.691 42.2545 10.691 41.8181V36.509C10.691 36.0726 10.3274 35.7817 9.96374 35.7817ZM9.23647 41.0908H5.74556V37.2363H9.23647V41.0908Z" fill="#57CC99"/>
<path d="M47.5627 23.2727L34.3264 16.0727C34.1082 15.9273 33.8173 15.9273 33.6718 16.0727C32.7991 16.5091 22.2536 22.1818 20.5082 23.1273C20.29 23.2727 20.1445 23.5636 20.1445 23.7818V35.4182C20.1445 35.6364 20.29 35.9273 20.5082 36L33.6718 44.2909C33.89 44.4364 34.1809 44.4364 34.3991 44.2909L47.6354 37.2364C47.8536 37.0909 47.9991 36.8727 47.9991 36.5818V23.9273C47.9991 23.7091 47.8536 23.4182 47.5627 23.2727ZM34.0354 17.5273L45.8173 23.9273L42.7627 25.6L30.9809 19.1273L34.0354 17.5273ZM39.8536 27.5636L27.6354 20.9454L29.3809 20L41.9627 26.9091V30.4727L40.2173 31.4182V28.2182C40.2173 27.9273 40.0718 27.6364 39.8536 27.5636ZM26.1082 21.7454L37.9627 28.2182L34.0354 30.4L22.3263 23.7818L26.1082 21.7454ZM21.5263 34.9091V24.9454L33.2354 31.5636V42.3273L21.5263 34.9091ZM34.7627 42.4V31.6364L38.7627 29.4545V32.6545C38.7627 32.9454 38.9082 33.1636 39.1263 33.3091C39.3445 33.4545 39.6354 33.4545 39.8536 33.3091L43.0536 31.5636C43.2718 31.4182 43.4173 31.2 43.4173 30.9091V26.9091L46.5445 25.2364V36.2182L34.7627 42.4Z" fill="#57CC99"/>
<path d="M23.8545 19.5637C23.8545 19.1273 23.5636 18.8364 23.1273 18.8364H12.7273C12.2909 18.8364 12 19.1273 12 19.5637C12 20.0001 12.2909 20.291 12.7273 20.291H23.1273C23.4909 20.291 23.8545 20.0001 23.8545 19.5637Z" fill="#57CC99"/>
<path d="M18.6914 28.6545H12.655C12.2186 28.6545 11.9277 28.9455 11.9277 29.3818C11.9277 29.8182 12.2186 30.1091 12.655 30.1091H18.6914C19.1277 30.1091 19.4186 29.8182 19.4186 29.3818C19.4186 28.9455 19.055 28.6545 18.6914 28.6545Z" fill="#57CC99"/>
<path d="M11.4902 39.1272C11.4902 39.5635 11.7811 39.8544 12.2175 39.8544H21.7448C22.1811 39.8544 22.4721 39.5635 22.4721 39.1272C22.4721 38.6908 22.1811 38.3999 21.7448 38.3999H12.2175C11.8539 38.3999 11.4902 38.7635 11.4902 39.1272Z" fill="#57CC99"/>
</g>
<defs>
<clipPath id="clip0_328_3474">
<rect width="48" height="48" fill="white"/>
</clipPath>
</defs>
</svg>
