<svg width="143" height="48" viewBox="0 0 143 48" fill="none" xmlns="http://www.w3.org/2000/svg">
<g clip-path="url(#clip0_1135_1389)">
<path d="M131.612 0.000156H11.3941C10.9558 0.000156 10.5229 0.000156 10.0858 0.002556C9.71999 0.004956 9.35705 0.011928 8.98769 0.017796C8.18525 0.0272782 7.3847 0.0981675 6.593 0.229848C5.80241 0.364395 5.03658 0.618055 4.32143 0.982248C3.60714 1.34952 2.95448 1.82676 2.38712 2.39664C1.81678 2.96492 1.34136 3.62178 0.979133 4.34195C0.615909 5.06069 0.364049 5.83088 0.232251 6.62593C0.0991991 7.41998 0.0276028 8.22318 0.0181044 9.02833C0.00701472 9.39625 0.00584361 9.7654 0 10.1334V37.8705C0.00584361 38.2431 0.00701472 38.604 0.0181044 38.9768C0.0276058 39.7819 0.099202 40.585 0.232251 41.379C0.363685 42.1745 0.61556 42.9452 0.979133 43.6642C1.34119 44.382 1.81668 45.0362 2.38712 45.6014C2.95233 46.1738 3.60541 46.6513 4.32143 47.0158C5.03658 47.381 5.80232 47.6361 6.593 47.7728C7.38484 47.9034 8.1853 47.9743 8.98769 47.9849C9.35705 47.9931 9.71999 47.9978 10.0858 47.9978C10.5229 48.0002 10.9559 48.0002 11.3941 48.0002H131.612C132.042 48.0002 132.478 48.0002 132.908 47.9978C133.272 47.9978 133.645 47.9931 134.009 47.9849C134.81 47.9749 135.609 47.9039 136.399 47.7728C137.193 47.6352 137.961 47.3801 138.68 47.0158C139.395 46.6511 140.048 46.1736 140.612 45.6014C141.181 45.034 141.658 44.3803 142.024 43.6642C142.385 42.9447 142.635 42.1741 142.764 41.379C142.897 40.5849 142.972 39.7819 142.986 38.9768C142.991 38.604 142.991 38.2431 142.991 37.8705C143 37.4345 143 37.001 143 36.5579V11.4435C143 11.0041 143 10.5681 142.991 10.1334C142.991 9.7654 142.991 9.39625 142.986 9.02828C142.972 8.22306 142.897 7.42004 142.764 6.62588C142.634 5.83129 142.385 5.06116 142.024 4.3419C141.287 2.89839 140.117 1.72339 138.68 0.98214C137.961 0.618837 137.193 0.365244 136.399 0.22974C135.609 0.0974793 134.81 0.0265653 134.009 0.017628C133.645 0.011772 133.272 0.00474 132.908 0.0024C132.478 0 132.042 0 131.612 0V0.000156Z" fill="#ECF1F4"/>
<path d="M10.0914 46.9498C9.72729 46.9498 9.37199 46.9451 9.01075 46.937C8.26241 46.9272 7.51582 46.8618 6.7771 46.7412C6.08829 46.6221 5.42101 46.4005 4.79728 46.0838C4.17927 45.7696 3.61559 45.3577 3.12785 44.8638C2.63304 44.3758 2.22109 43.8097 1.90832 43.188C1.59211 42.5624 1.37327 41.8917 1.25943 41.1994C1.1365 40.4555 1.06998 39.7034 1.06046 38.9494C1.05289 38.6963 1.04297 37.8537 1.04297 37.8537V10.133C1.04297 10.133 1.05353 9.30332 1.06052 9.05956C1.06964 8.30678 1.13576 7.55579 1.25833 6.81308C1.37238 6.11891 1.59139 5.4463 1.90778 4.81856C2.21939 4.19734 2.62905 3.63084 3.12088 3.14102C3.61215 2.64655 4.17763 2.23253 4.79669 1.91406C5.41899 1.59832 6.08501 1.37828 6.77243 1.26133C7.51357 1.13961 8.26275 1.0738 9.01369 1.06446L10.092 1.0498H132.902L133.993 1.06504C134.737 1.07392 135.479 1.13914 136.214 1.26015C136.908 1.37857 137.581 1.60014 138.21 1.91757C139.451 2.55939 140.46 3.5748 141.096 4.82149C141.408 5.4449 141.623 6.11201 141.736 6.80019C141.86 7.54899 141.929 8.30589 141.944 9.06485C141.947 9.40469 141.947 9.76972 141.947 10.133C141.956 10.583 141.956 11.0113 141.956 11.4432V36.5576C141.956 36.9935 141.956 37.4189 141.947 37.8478C141.947 38.238 141.947 38.5955 141.942 38.9634C141.928 39.7089 141.86 40.4522 141.738 41.1876C141.627 41.8849 141.409 42.5608 141.093 43.1916C140.778 43.8065 140.368 44.3677 139.879 44.8545C139.391 45.351 138.826 45.7653 138.207 46.0815C137.579 46.4007 136.907 46.6231 136.214 46.7412C135.475 46.8624 134.728 46.9278 133.98 46.937C133.63 46.9451 133.263 46.9498 132.907 46.9498L131.612 46.9522L10.0914 46.9498Z" fill="#FDFDFD"/>
<path d="M29.599 24.3621C29.6118 23.3605 29.8768 22.3785 30.3691 21.5073C30.8615 20.6362 31.5653 19.9043 32.4151 19.3797C31.8753 18.6055 31.1631 17.9683 30.3352 17.5189C29.5072 17.0694 28.5863 16.82 27.6456 16.7904C25.6389 16.5789 23.6935 17.9962 22.6709 17.9962C21.6285 17.9962 20.0541 16.8114 18.3587 16.8465C17.2621 16.882 16.1933 17.2023 15.2566 17.7759C14.3198 18.3496 13.547 19.1572 13.0135 20.1199C10.7024 24.138 12.4263 30.0433 14.6402 33.2912C15.7478 34.8816 17.0423 36.6582 18.7362 36.5952C20.3938 36.5261 21.0128 35.5338 23.0136 35.5338C24.9959 35.5338 25.5767 36.5952 27.3049 36.5551C29.0836 36.5261 30.2042 34.9576 31.273 33.3521C32.0688 32.2189 32.6812 30.9664 33.0875 29.6411C32.0542 29.2023 31.1723 28.4676 30.552 27.5289C29.9316 26.5901 29.6002 25.4888 29.599 24.3621Z" fill="#222C34"/>
<path d="M26.3348 14.6542C27.3045 13.4851 27.7823 11.9825 27.6666 10.4655C26.185 10.6217 24.8164 11.3328 23.8335 12.457C23.353 13.0062 22.9849 13.6451 22.7504 14.3372C22.5159 15.0294 22.4195 15.7611 22.4668 16.4907C23.2078 16.4983 23.941 16.337 24.611 16.0189C25.281 15.7008 25.8704 15.2342 26.3348 14.6542Z" fill="#222C34"/>
<path d="M50.5513 32.5683H44.8949L43.5365 36.5961H41.1406L46.4983 21.6945H48.9876L54.3453 36.5961H51.9086L50.5513 32.5683ZM45.4807 30.7097H49.9644L47.7541 24.173H47.6922L45.4807 30.7097Z" fill="#222C34"/>
<path d="M65.918 31.1646C65.918 34.5408 64.1185 36.7099 61.4029 36.7099C60.715 36.746 60.0308 36.5869 59.4288 36.2507C58.8268 35.9146 58.3312 35.415 57.9988 34.8091H57.9474V40.1903H55.7266V25.7318H57.8762V27.5388H57.9171C58.2648 26.9358 58.7687 26.4388 59.3754 26.1006C59.982 25.7624 60.6686 25.5956 61.3621 25.6181C64.108 25.6181 65.918 27.7978 65.918 31.1646ZM63.6354 31.1646C63.6354 28.965 62.5034 27.5189 60.7762 27.5189C59.0794 27.5189 57.9381 28.9954 57.9381 31.1646C57.9381 33.3537 59.0794 34.8197 60.7762 34.8197C62.5034 34.8197 63.6354 33.3841 63.6354 31.1646Z" fill="#222C34"/>
<path d="M77.8223 31.1646C77.8223 34.5408 76.0228 36.7099 73.3072 36.7099C72.6193 36.746 71.9351 36.5869 71.3331 36.2507C70.7311 35.9146 70.2355 35.4149 69.9031 34.8091H69.8517V40.1903H67.6309V25.7318H69.7805V27.5388H69.8213C70.169 26.9358 70.673 26.4388 71.2796 26.1006C71.8862 25.7624 72.5728 25.5956 73.2663 25.6181C76.0123 25.6181 77.8223 27.7978 77.8223 31.1646ZM75.5397 31.1646C75.5397 28.965 74.4077 27.5189 72.6805 27.5189C70.9837 27.5189 69.8424 28.9954 69.8424 31.1646C69.8424 33.3536 70.9837 34.8197 72.6805 34.8197C74.4077 34.8197 75.5397 33.3841 75.5397 31.1646H75.5397Z" fill="#222C34"/>
<path d="M85.6933 32.4446C85.8578 33.9224 87.2874 34.8926 89.241 34.8926C91.1129 34.8926 92.4596 33.9223 92.4596 32.5899C92.4596 31.4333 91.6473 30.7407 89.7241 30.2661L87.8009 29.8008C85.0759 29.1399 83.8109 27.8602 83.8109 25.7836C83.8109 23.2125 86.0422 21.4465 89.2106 21.4465C92.3463 21.4465 94.496 23.2125 94.5683 25.7836H92.3265C92.1923 24.2965 90.9681 23.3989 89.1791 23.3989C87.3901 23.3989 86.1659 24.3071 86.1659 25.629C86.1659 26.6825 86.9478 27.3024 88.8605 27.777L90.4955 28.1801C93.5402 28.9031 94.8052 30.1313 94.8052 32.311C94.8052 35.0988 92.5937 36.8449 89.0764 36.8449C85.7854 36.8449 83.5635 35.1399 83.4199 32.4445L85.6933 32.4446Z" fill="#222C34"/>
<path d="M99.5974 23.161V25.7321H101.655V27.4981H99.5974V33.4876C99.5974 34.418 100.009 34.8516 100.914 34.8516C101.158 34.8474 101.402 34.8301 101.644 34.8V36.5555C101.238 36.6318 100.824 36.6664 100.411 36.6586C98.2203 36.6586 97.3661 35.8325 97.3661 33.7254V27.4981H95.793V25.7321H97.3661V23.161H99.5974Z" fill="#222C34"/>
<path d="M102.848 31.1649C102.848 27.7466 104.853 25.5985 107.979 25.5985C111.116 25.5985 113.111 27.7465 113.111 31.1649C113.111 34.5927 111.126 36.7313 107.979 36.7313C104.833 36.7313 102.848 34.5926 102.848 31.1649ZM110.849 31.1649C110.849 28.82 109.778 27.436 107.979 27.436C106.179 27.436 105.11 28.8305 105.11 31.1649C105.11 33.5192 106.179 34.8927 107.979 34.8927C109.778 34.8927 110.849 33.5192 110.849 31.1649H110.849Z" fill="#222C34"/>
<path d="M114.943 25.7317H117.061V27.5809H117.113C117.256 27.0033 117.593 26.4929 118.067 26.1355C118.541 25.778 119.123 25.5953 119.715 25.618C119.971 25.6171 120.226 25.645 120.476 25.7012V27.7871C120.153 27.688 119.816 27.6425 119.478 27.6524C119.156 27.6392 118.834 27.6963 118.536 27.8198C118.237 27.9433 117.969 28.1301 117.749 28.3676C117.529 28.6051 117.363 28.8875 117.262 29.1955C117.161 29.5035 117.128 29.8298 117.164 30.152V36.5961H114.943L114.943 25.7317Z" fill="#222C34"/>
<path d="M130.715 33.4055C130.416 35.3778 128.503 36.7313 126.056 36.7313C122.909 36.7313 120.955 34.6137 120.955 31.2165C120.955 27.8087 122.919 25.5985 125.963 25.5985C128.956 25.5985 130.838 27.6633 130.838 30.9575V31.7216H123.197V31.8563C123.162 32.2562 123.211 32.659 123.343 33.038C123.475 33.417 123.685 33.7635 123.961 34.0546C124.236 34.3456 124.57 34.5745 124.94 34.7261C125.31 34.8777 125.708 34.9484 126.107 34.9337C126.632 34.983 127.159 34.861 127.609 34.5857C128.059 34.3103 128.409 33.8964 128.606 33.4055L130.715 33.4055ZM123.207 30.163H128.616C128.636 29.8034 128.582 29.4437 128.457 29.1062C128.332 28.7688 128.139 28.4609 127.89 28.202C127.64 27.9431 127.341 27.7387 127.009 27.6016C126.677 27.4646 126.321 27.3978 125.963 27.4055C125.601 27.4034 125.243 27.4731 124.908 27.6108C124.573 27.7485 124.269 27.9514 124.013 28.2078C123.757 28.4641 123.554 28.7689 123.415 29.1045C123.277 29.4401 123.206 29.7998 123.207 30.163V30.163Z" fill="#222C34"/>
<path d="M45.2025 10.4772C45.6681 10.4437 46.1353 10.5143 46.5704 10.684C47.0056 10.8538 47.3977 11.1183 47.7187 11.4587C48.0397 11.799 48.2814 12.2067 48.4265 12.6522C48.5716 13.0977 48.6164 13.57 48.5577 14.035C48.5577 16.3225 47.3265 17.6374 45.2025 17.6374H42.627V10.4772H45.2025ZM43.7344 16.6248H45.0788C45.4115 16.6448 45.7445 16.59 46.0534 16.4645C46.3624 16.339 46.6396 16.1458 46.8648 15.8991C47.0901 15.6525 47.2577 15.3585 47.3555 15.0385C47.4534 14.7186 47.4789 14.3807 47.4303 14.0496C47.4754 13.7198 47.4472 13.3841 47.3479 13.0665C47.2486 12.7489 47.0805 12.4573 46.8558 12.2126C46.6311 11.9679 46.3552 11.7761 46.048 11.651C45.7408 11.5259 45.4098 11.4706 45.0788 11.4891H43.7344V16.6248Z" fill="#222C34"/>
<path d="M49.8089 14.9344C49.775 14.5793 49.8155 14.221 49.9276 13.8825C50.0398 13.544 50.2211 13.2328 50.4601 12.9689C50.699 12.7049 50.9902 12.494 51.3151 12.3496C51.64 12.2053 51.9913 12.1307 52.3465 12.1307C52.7018 12.1307 53.0531 12.2053 53.378 12.3496C53.7028 12.494 53.9941 12.7049 54.233 12.9689C54.4719 13.2328 54.6533 13.544 54.7654 13.8825C54.8776 14.221 54.918 14.5793 54.8842 14.9344C54.9186 15.2899 54.8787 15.6486 54.7668 15.9877C54.655 16.3267 54.4737 16.6385 54.2348 16.903C53.9958 17.1675 53.7043 17.3788 53.3791 17.5235C53.0539 17.6681 52.7022 17.7428 52.3465 17.7428C51.9909 17.7428 51.6391 17.6681 51.3139 17.5235C50.9888 17.3788 50.6973 17.1675 50.4583 16.903C50.2193 16.6385 50.0381 16.3267 49.9262 15.9877C49.8144 15.6486 49.7744 15.2899 49.8089 14.9344ZM53.7919 14.9344C53.7919 13.7631 53.2679 13.0781 52.3483 13.0781C51.4252 13.0781 50.9059 13.7631 50.9059 14.9344C50.9059 16.1151 51.4252 16.7948 52.3483 16.7948C53.2679 16.7947 53.7919 16.1104 53.7919 14.9344H53.7919Z" fill="#222C34"/>
<path d="M61.6301 17.6379H60.5285L59.4163 13.6582H59.3323L58.2248 17.6379H57.1337L55.6504 12.2344H56.7275L57.6915 16.3576H57.7708L58.8772 12.2344H59.896L61.0023 16.3576H61.0863L62.0456 12.2344H63.1075L61.6301 17.6379Z" fill="#222C34"/>
<path d="M64.3555 12.2343H65.3778V13.0927H65.4571C65.5917 12.7843 65.8188 12.5259 66.1066 12.3533C66.3945 12.1808 66.7288 12.1027 67.0629 12.13C67.3247 12.1102 67.5877 12.1498 67.8321 12.2459C68.0766 12.3421 68.2965 12.4922 68.4753 12.6852C68.6542 12.8782 68.7876 13.1092 68.8655 13.3609C68.9434 13.6127 68.9639 13.8789 68.9255 14.1397V17.6377H67.8635V14.4075C67.8635 13.5391 67.4877 13.1073 66.7023 13.1073C66.5246 13.099 66.3471 13.1294 66.1821 13.1964C66.0171 13.2634 65.8685 13.3654 65.7465 13.4955C65.6245 13.6255 65.5319 13.7805 65.4751 13.9499C65.4183 14.1193 65.3986 14.2989 65.4174 14.4766V17.6378H64.3555L64.3555 12.2343Z" fill="#222C34"/>
<path d="M70.6152 10.125H71.6772V17.6379H70.6152V10.125Z" fill="#222C34"/>
<path d="M73.1546 14.9333C73.1207 14.5781 73.1612 14.2198 73.2734 13.8813C73.3856 13.5429 73.5669 13.2316 73.8059 12.9676C74.0449 12.7037 74.3361 12.4927 74.661 12.3484C74.9859 12.2041 75.3372 12.1295 75.6925 12.1295C76.0478 12.1295 76.3991 12.2041 76.724 12.3484C77.0489 12.4927 77.3401 12.7037 77.5791 12.9676C77.8181 13.2316 77.9994 13.5429 78.1116 13.8813C78.2238 14.2198 78.2642 14.5781 78.2304 14.9333C78.2649 15.2888 78.2249 15.6475 78.113 15.9866C78.0011 16.3256 77.8198 16.6374 77.5808 16.9019C77.3418 17.1663 77.0503 17.3777 76.7251 17.5223C76.3999 17.667 76.0482 17.7417 75.6925 17.7417C75.3368 17.7417 74.9851 17.667 74.6599 17.5223C74.3347 17.3777 74.0432 17.1663 73.8042 16.9019C73.5652 16.6374 73.3839 16.3256 73.272 15.9866C73.1601 15.6475 73.1201 15.2888 73.1546 14.9333ZM77.1375 14.9333C77.1375 13.762 76.6135 13.077 75.694 13.077C74.7709 13.077 74.2516 13.762 74.2516 14.9333C74.2516 16.114 74.7709 16.7936 75.694 16.7936C76.6136 16.7936 77.1375 16.1092 77.1375 14.9333H77.1375Z" fill="#222C34"/>
<path d="M79.3516 16.1092C79.3516 15.1365 80.0728 14.5758 81.353 14.4961L82.8106 14.4117V13.9453C82.8106 13.3746 82.4348 13.0524 81.7089 13.0524C81.1161 13.0524 80.7053 13.2709 80.5874 13.653H79.5593C79.6678 12.7248 80.5372 12.1295 81.7579 12.1295C83.107 12.1295 83.8679 12.8039 83.8679 13.9453V17.6373H82.8456V16.878H82.7615C82.591 17.1503 82.3515 17.3724 82.0676 17.5215C81.7836 17.6705 81.4653 17.7412 81.1452 17.7264C80.9193 17.7499 80.691 17.7257 80.475 17.6553C80.259 17.5849 80.0601 17.4698 79.8911 17.3174C79.7221 17.165 79.5868 16.9788 79.4939 16.7707C79.4009 16.5626 79.3525 16.3373 79.3516 16.1092ZM82.8106 15.6475V15.1957L81.4965 15.2801C80.7555 15.3299 80.4194 15.583 80.4194 16.0594C80.4194 16.5457 80.8395 16.8287 81.4172 16.8287C81.5865 16.8459 81.7574 16.8288 81.92 16.7783C82.0825 16.7277 82.2333 16.6449 82.3632 16.5347C82.4932 16.4245 82.5998 16.2892 82.6767 16.1367C82.7535 15.9843 82.7991 15.8179 82.8106 15.6475Z" fill="#222C34"/>
<path d="M85.2598 14.9338C85.2598 13.2264 86.1339 12.1447 87.4934 12.1447C87.8297 12.1292 88.1635 12.2101 88.4557 12.3779C88.7479 12.5458 88.9865 12.7937 89.1436 13.0927H89.2229V10.125H90.2849V17.6379H89.2673V16.7842H89.1832C89.014 17.0812 88.7671 17.326 88.4693 17.4922C88.1714 17.6584 87.8339 17.7395 87.4934 17.7269C86.1245 17.727 85.2598 16.6453 85.2598 14.9338ZM86.3568 14.9338C86.3568 16.0799 86.8948 16.7696 87.7945 16.7696C88.6896 16.7696 89.2428 16.07 89.2428 14.9385C89.2428 13.8123 88.6838 13.1028 87.7945 13.1028C86.9006 13.1028 86.3568 13.7971 86.3568 14.9338H86.3568Z" fill="#222C34"/>
<path d="M94.6819 14.9344C94.6481 14.5793 94.6885 14.221 94.8007 13.8825C94.9128 13.544 95.0942 13.2328 95.3331 12.9689C95.572 12.7049 95.8633 12.494 96.1881 12.3496C96.513 12.2053 96.8643 12.1307 97.2196 12.1307C97.5748 12.1307 97.9261 12.2053 98.251 12.3496C98.5759 12.494 98.8671 12.7049 99.106 12.9689C99.345 13.2328 99.5263 13.544 99.6385 13.8825C99.7506 14.221 99.7911 14.5793 99.7572 14.9344C99.7917 15.2899 99.7517 15.6486 99.6399 15.9877C99.528 16.3267 99.3468 16.6385 99.1078 16.903C98.8688 17.1675 98.5773 17.3788 98.2522 17.5235C97.927 17.6681 97.5752 17.7428 97.2196 17.7428C96.8639 17.7428 96.5122 17.6681 96.187 17.5235C95.8618 17.3788 95.5703 17.1675 95.3313 16.903C95.0924 16.6385 94.9111 16.3267 94.7993 15.9877C94.6874 15.6486 94.6475 15.2899 94.6819 14.9344ZM98.6649 14.9344C98.6649 13.7631 98.1409 13.0781 97.2213 13.0781C96.2982 13.0781 95.7789 13.7631 95.7789 14.9344C95.7789 16.1151 96.2983 16.7948 97.2213 16.7948C98.1409 16.7947 98.6649 16.1104 98.6649 14.9344Z" fill="#222C34"/>
<path d="M101.18 12.2343H102.202V13.0927H102.281C102.416 12.7843 102.643 12.5259 102.931 12.3533C103.219 12.1808 103.553 12.1027 103.887 12.13C104.149 12.1102 104.412 12.1498 104.656 12.2459C104.901 12.3421 105.121 12.4922 105.3 12.6852C105.478 12.8782 105.612 13.1092 105.69 13.3609C105.768 13.6127 105.788 13.8789 105.75 14.1397V17.6377H104.688V14.4075C104.688 13.5391 104.312 13.1073 103.527 13.1073C103.349 13.099 103.171 13.1294 103.006 13.1964C102.841 13.2634 102.693 13.3654 102.571 13.4955C102.449 13.6255 102.356 13.7805 102.299 13.9499C102.242 14.1193 102.223 14.2989 102.242 14.4766V17.6378H101.18V12.2343Z" fill="#222C34"/>
<path d="M111.751 10.8885V12.2585H112.917V13.1567H111.751V15.9352C111.751 16.5012 111.984 16.7491 112.512 16.7491C112.648 16.7487 112.783 16.7404 112.917 16.7245V17.6128C112.727 17.647 112.533 17.6652 112.34 17.6673C111.159 17.6673 110.688 17.2501 110.688 16.2083V13.1567H109.834V12.2584H110.688V10.8885H111.751Z" fill="#222C34"/>
<path d="M114.367 10.125H115.42V13.1027H115.504C115.645 12.7916 115.878 12.5316 116.172 12.3584C116.466 12.1852 116.805 12.1071 117.145 12.1348C117.405 12.1205 117.665 12.1642 117.907 12.2627C118.149 12.3611 118.366 12.5119 118.543 12.7043C118.72 12.8967 118.853 13.126 118.931 13.3757C119.01 13.6255 119.033 13.8896 118.998 14.1492V17.6379H117.935V14.4123C117.935 13.5492 117.534 13.1121 116.784 13.1121C116.602 13.0971 116.418 13.1223 116.246 13.1859C116.074 13.2496 115.918 13.3502 115.789 13.4807C115.66 13.6112 115.561 13.7684 115.499 13.9413C115.437 14.1143 115.413 14.2988 115.429 14.482V17.6379H114.367L114.367 10.125Z" fill="#222C34"/>
<path d="M125.19 16.1784C125.046 16.6723 124.733 17.0995 124.307 17.3852C123.881 17.671 123.368 17.7972 122.858 17.7417C122.504 17.7511 122.151 17.6829 121.826 17.5419C121.5 17.4009 121.209 17.1903 120.972 16.925C120.736 16.6596 120.56 16.3457 120.456 16.0052C120.353 15.6646 120.324 15.3054 120.373 14.9527C120.325 14.5988 120.354 14.2389 120.458 13.8973C120.561 13.5557 120.736 13.2403 120.972 12.9727C121.207 12.705 121.497 12.4912 121.821 12.3457C122.146 12.2003 122.498 12.1266 122.854 12.1296C124.351 12.1296 125.254 13.1568 125.254 14.8536V15.2257H121.454V15.2855C121.438 15.4838 121.463 15.6834 121.527 15.8715C121.592 16.0596 121.695 16.232 121.83 16.3778C121.965 16.5235 122.129 16.6393 122.311 16.7178C122.493 16.7963 122.689 16.8357 122.887 16.8335C123.141 16.8641 123.399 16.8182 123.627 16.7015C123.855 16.5849 124.043 16.4028 124.168 16.1784L125.19 16.1784ZM121.454 14.437H124.172C124.186 14.2557 124.161 14.0735 124.1 13.9023C124.039 13.731 123.943 13.5744 123.819 13.4426C123.694 13.3108 123.543 13.2066 123.376 13.1368C123.209 13.067 123.029 13.0331 122.848 13.0372C122.664 13.0349 122.482 13.0695 122.312 13.1391C122.142 13.2086 121.987 13.3116 121.857 13.4421C121.727 13.5725 121.625 13.7278 121.556 13.8987C121.486 14.0695 121.452 14.2526 121.454 14.437H121.454Z" fill="#222C34"/>
</g>
<defs>
<clipPath id="clip0_1135_1389">
<rect width="143" height="48" fill="white"/>
</clipPath>
</defs>
</svg>
