<svg width="163" height="48" viewBox="0 0 163 48" fill="none" xmlns="http://www.w3.org/2000/svg">
<g clip-path="url(#clip0_1135_1366)">
<path d="M156.963 48H6.03704C2.71667 48 0 45.3 0 42V6C0 2.7 2.71667 0 6.03704 0H156.963C160.283 0 163 2.7 163 6V42C163 45.3 160.283 48 156.963 48Z" fill="#F6F6F7"/>
<path d="M57.2547 12.2878C57.2547 13.2958 56.9529 14.0998 56.3492 14.6878C55.673 15.3958 54.7796 15.7558 53.6929 15.7558C52.6425 15.7558 51.761 15.3958 51.0245 14.6758C50.288 13.9558 49.9258 13.0558 49.9258 11.9998C49.9258 10.9318 50.288 10.0438 51.0245 9.32377C51.761 8.60377 52.6425 8.24377 53.6929 8.24377C54.2121 8.24377 54.7071 8.33977 55.178 8.54377C55.6489 8.74777 56.0232 9.01177 56.313 9.34777L55.673 9.98377C55.1901 9.41977 54.5381 9.13177 53.6929 9.13177C52.9322 9.13177 52.2682 9.39577 51.7127 9.93577C51.1573 10.4638 50.8796 11.1598 50.8796 12.0118C50.8796 12.8638 51.1573 13.5598 51.7127 14.0878C52.2682 14.6158 52.9322 14.8918 53.6929 14.8918C54.5019 14.8918 55.178 14.6278 55.7213 14.0878C56.0715 13.7398 56.2767 13.2478 56.325 12.6238H53.6929V11.7478H57.2064C57.2306 11.9398 57.2547 12.1198 57.2547 12.2878Z" fill="#252A34" stroke="#252A34" stroke-width="0.2" stroke-miterlimit="10"/>
<path d="M62.8216 9.28717H59.5254V11.5672H62.4956V12.4312H59.5254V14.7112H62.8216V15.5992H58.5957V8.39917H62.8216V9.28717Z" fill="#252A34" stroke="#252A34" stroke-width="0.2" stroke-miterlimit="10"/>
<path d="M66.7453 15.5992H65.8155V9.28717H63.7871V8.39917H68.7616V9.28717H66.7332V15.5992H66.7453Z" fill="#252A34" stroke="#252A34" stroke-width="0.2" stroke-miterlimit="10"/>
<path d="M72.3711 15.5992V8.39917H73.3008V15.5992H72.3711Z" fill="#252A34" stroke="#252A34" stroke-width="0.2" stroke-miterlimit="10"/>
<path d="M77.4288 15.5992H76.4991V9.28717H74.4707V8.39917H79.4452V9.28717H77.4168V15.5992H77.4288Z" fill="#252A34" stroke="#252A34" stroke-width="0.2" stroke-miterlimit="10"/>
<path d="M88.8771 14.6638C88.1647 15.3958 87.2833 15.7558 86.2208 15.7558C85.1583 15.7558 84.2768 15.3958 83.5645 14.6638C82.8521 13.9318 82.502 13.0438 82.502 11.9998C82.502 10.9558 82.8521 10.0558 83.5645 9.33577C84.2768 8.60377 85.1583 8.24377 86.2208 8.24377C87.2712 8.24377 88.1526 8.60377 88.8771 9.33577C89.5894 10.0678 89.9517 10.9558 89.9517 11.9998C89.9396 13.0558 89.5894 13.9438 88.8771 14.6638ZM84.2527 14.0638C84.7839 14.6038 85.448 14.8678 86.2208 14.8678C86.9935 14.8678 87.6576 14.6038 88.1888 14.0638C88.7201 13.5238 88.9978 12.8398 88.9978 11.9998C88.9978 11.1598 88.7322 10.4758 88.1888 9.93577C87.6576 9.39577 86.9935 9.11977 86.2208 9.11977C85.448 9.11977 84.7839 9.38378 84.2527 9.92378C83.7214 10.4758 83.4437 11.1598 83.4437 11.9998C83.4437 12.8398 83.7214 13.5238 84.2527 14.0638Z" fill="#252A34" stroke="#252A34" stroke-width="0.2" stroke-miterlimit="10"/>
<path d="M91.2559 15.5992V8.39917H92.3908L95.9165 14.0032H95.9527L95.9165 12.6112V8.39917H96.8461V15.5992H95.8802L92.1976 9.73117H92.1614L92.1976 11.1232V15.5992H91.2559Z" fill="#252A34" stroke="#252A34" stroke-width="0.2" stroke-miterlimit="10"/>
<path d="M82.2246 26.0405C79.3872 26.0405 77.069 28.1885 77.069 31.1405C77.069 34.0805 79.3872 36.2405 82.2246 36.2405C85.062 36.2405 87.3803 34.0805 87.3803 31.1405C87.3803 28.1885 85.062 26.0405 82.2246 26.0405ZM82.2246 34.2365C80.6671 34.2365 79.3269 32.9645 79.3269 31.1405C79.3269 29.3045 80.6671 28.0445 82.2246 28.0445C83.7822 28.0445 85.1224 29.3045 85.1224 31.1405C85.1224 32.9645 83.7701 34.2365 82.2246 34.2365ZM70.9716 26.0405C68.1342 26.0405 65.816 28.1885 65.816 31.1405C65.816 34.0805 68.1342 36.2405 70.9716 36.2405C73.809 36.2405 76.1272 34.0805 76.1272 31.1405C76.1272 28.1885 73.809 26.0405 70.9716 26.0405ZM70.9716 34.2365C69.4141 34.2365 68.0738 32.9645 68.0738 31.1405C68.0738 29.3045 69.4141 28.0445 70.9716 28.0445C72.5292 28.0445 73.8694 29.3045 73.8694 31.1405C73.8694 32.9645 72.5292 34.2365 70.9716 34.2365ZM57.5935 27.6125V29.7725H62.8095C62.6526 30.9845 62.2421 31.8845 61.6263 32.4965C60.8656 33.2525 59.6823 34.0805 57.6056 34.0805C54.3939 34.0805 51.8825 31.5125 51.8825 28.3205C51.8825 25.1285 54.3939 22.5605 57.6056 22.5605C59.3322 22.5605 60.6 23.2325 61.5297 24.1085L63.0631 22.5845C61.7591 21.3485 60.0325 20.4005 57.5935 20.4005C53.1986 20.4005 49.5039 23.9525 49.5039 28.3325C49.5039 32.7005 53.1986 36.2645 57.5935 36.2645C59.9721 36.2645 61.7591 35.4965 63.1597 34.0445C64.5965 32.6165 65.0432 30.6005 65.0432 28.9805C65.0432 28.4765 65.007 28.0085 64.9225 27.6245H57.5935V27.6125ZM112.301 29.2925C111.879 28.1525 110.575 26.0405 107.906 26.0405C105.262 26.0405 103.064 28.1045 103.064 31.1405C103.064 33.9965 105.238 36.2405 108.16 36.2405C110.514 36.2405 111.879 34.8125 112.434 33.9845L110.683 32.8205C110.104 33.6725 109.307 34.2365 108.16 34.2365C107.013 34.2365 106.192 33.7085 105.672 32.6885L112.543 29.8685L112.301 29.2925ZM105.298 30.9965C105.238 29.0285 106.832 28.0205 107.979 28.0205C108.872 28.0205 109.633 28.4645 109.886 29.1005L105.298 30.9965ZM99.72 35.9405H101.978V20.9405H99.72V35.9405ZM96.0253 27.1805H95.9408C95.4337 26.5805 94.4678 26.0405 93.2362 26.0405C90.6644 26.0405 88.31 28.2845 88.31 31.1645C88.31 34.0205 90.6644 36.2525 93.2362 36.2525C94.4557 36.2525 95.4337 35.7125 95.9408 35.0885H96.0132V35.8205C96.0132 37.7765 94.9628 38.8205 93.2724 38.8205C91.896 38.8205 91.0387 37.8365 90.6886 37.0085L88.7205 37.8245C89.288 39.1805 90.7852 40.8365 93.2724 40.8365C95.9166 40.8365 98.1503 39.2885 98.1503 35.5205V26.3525H96.0132V27.1805H96.0253ZM93.4294 34.2365C91.8718 34.2365 90.5678 32.9405 90.5678 31.1645C90.5678 29.3645 91.8718 28.0565 93.4294 28.0565C94.9628 28.0565 96.1702 29.3765 96.1702 31.1645C96.1823 32.9405 94.9749 34.2365 93.4294 34.2365ZM122.878 20.9405H117.481V35.9405H119.739V30.2525H122.89C125.389 30.2525 127.84 28.4525 127.84 25.5965C127.84 22.7405 125.365 20.9405 122.878 20.9405ZM122.926 28.1645H119.727V23.0165H122.926C124.617 23.0165 125.571 24.4085 125.571 25.5845C125.571 26.7605 124.617 28.1645 122.926 28.1645ZM136.86 26.0165C135.23 26.0165 133.539 26.7365 132.839 28.3085L134.843 29.1365C135.266 28.3085 136.063 28.0325 136.896 28.0325C138.067 28.0325 139.25 28.7285 139.263 29.9645V30.1205C138.852 29.8925 137.983 29.5445 136.908 29.5445C134.747 29.5445 132.561 30.7205 132.561 32.9165C132.561 34.9205 134.324 36.2165 136.304 36.2165C137.814 36.2165 138.659 35.5445 139.178 34.7525H139.25V35.9165H141.424V30.1685C141.436 27.5045 139.432 26.0165 136.86 26.0165ZM136.582 34.2365C135.846 34.2365 134.819 33.8645 134.819 32.9645C134.819 31.8125 136.099 31.3685 137.21 31.3685C138.2 31.3685 138.671 31.5845 139.263 31.8725C139.094 33.2525 137.886 34.2365 136.582 34.2365ZM149.356 26.3405L146.773 32.8445H146.7L144.02 26.3405H141.593L145.614 35.4365L143.319 40.4885H145.674L151.868 26.3405H149.356ZM129.072 35.9405H131.33V20.9405H129.072V35.9405Z" fill="#252A34"/>
<path d="M12.6062 9.04823C12.256 9.42023 12.0508 9.99623 12.0508 10.7282V37.2722C12.0508 38.0162 12.256 38.5922 12.6062 38.9522L12.6907 39.0362L27.6505 24.1802V24.0002V23.8202L12.6907 8.96423L12.6062 9.04823Z" fill="url(#paint0_linear_1135_1366)"/>
<path d="M32.637 29.1367L27.6504 24.1807V24.0007V23.8207L32.637 18.8647L32.7457 18.9247L38.6499 22.2607C40.3402 23.2087 40.3402 24.7687 38.6499 25.7287L32.7457 29.0647L32.637 29.1367Z" fill="url(#paint1_linear_1135_1366)"/>
<path d="M32.747 29.076L27.6517 24L12.6074 38.952C13.1628 39.54 14.0805 39.612 15.1188 39.024L32.747 29.076Z" fill="url(#paint2_linear_1135_1366)"/>
<path d="M32.7454 18.9361L15.1052 8.97611C14.0668 8.38811 13.1492 8.46011 12.5938 9.04811L27.6501 24.0001L32.7454 18.9361Z" fill="url(#paint3_linear_1135_1366)"/>
<path opacity="0.2" d="M32.6364 28.9564L15.1048 38.8564C14.1268 39.4084 13.2454 39.3724 12.69 38.8684L12.6055 38.9524L12.69 39.0364C13.2575 39.5404 14.1268 39.5764 15.1048 39.0244L32.745 29.0644L32.6364 28.9564Z" fill="black"/>
<path opacity="0.12" d="M12.6062 38.784C12.256 38.412 12.0508 37.836 12.0508 37.104V37.284C12.0508 38.028 12.256 38.604 12.6062 38.964L12.6907 38.88L12.6062 38.784Z" fill="black"/>
<path opacity="0.12" d="M38.6519 25.56L32.627 28.956L32.7356 29.064L38.6398 25.728C39.485 25.248 39.9076 24.624 39.9076 24C39.8472 24.564 39.4247 25.128 38.6519 25.56Z" fill="black"/>
<path opacity="0.25" d="M15.1059 9.14417L38.6503 22.4402C39.411 22.8722 39.8457 23.4242 39.9181 24.0002C39.9181 23.3762 39.4955 22.7402 38.6503 22.2722L15.1059 8.97617C13.4155 8.02817 12.0391 8.82017 12.0391 10.7402V10.9202C12.0391 8.98817 13.4276 8.19617 15.1059 9.14417Z" fill="white"/>
</g>
<defs>
<linearGradient id="paint0_linear_1135_1366" x1="26.3219" y1="10.452" x2="6.18336" y2="30.7148" gradientUnits="userSpaceOnUse">
<stop stop-color="#00A0FF"/>
<stop offset="0.00657445" stop-color="#00A1FF"/>
<stop offset="0.2601" stop-color="#00BEFF"/>
<stop offset="0.5122" stop-color="#00D2FF"/>
<stop offset="0.7604" stop-color="#00DFFF"/>
<stop offset="1" stop-color="#00E3FF"/>
</linearGradient>
<linearGradient id="paint1_linear_1135_1366" x1="40.8525" y1="24.0025" x2="11.637" y2="24.0025" gradientUnits="userSpaceOnUse">
<stop stop-color="#FFE000"/>
<stop offset="0.4087" stop-color="#FFBD00"/>
<stop offset="0.7754" stop-color="#FFA500"/>
<stop offset="1" stop-color="#FF9C00"/>
</linearGradient>
<linearGradient id="paint2_linear_1135_1366" x1="29.9783" y1="26.7554" x2="2.66883" y2="54.2335" gradientUnits="userSpaceOnUse">
<stop stop-color="#FF3A44"/>
<stop offset="1" stop-color="#C31162"/>
</linearGradient>
<linearGradient id="paint3_linear_1135_1366" x1="8.81118" y1="0.211668" x2="21.0061" y2="12.4817" gradientUnits="userSpaceOnUse">
<stop stop-color="#32A071"/>
<stop offset="0.0685" stop-color="#2DA771"/>
<stop offset="0.4762" stop-color="#15CF74"/>
<stop offset="0.8009" stop-color="#06E775"/>
<stop offset="1" stop-color="#00F076"/>
</linearGradient>
<clipPath id="clip0_1135_1366">
<rect width="163" height="48" fill="white"/>
</clipPath>
</defs>
</svg>
