<svg width="24" height="24" viewBox="0 0 24 24" fill="none" xmlns="http://www.w3.org/2000/svg">
<g clip-path="url(#clip0_262_4346)">
<path d="M16.499 0C15.2195 0.0884995 13.724 0.907495 12.8525 1.97399C12.0575 2.94148 11.4035 4.37847 11.6585 5.77497C13.0565 5.81847 14.501 4.97997 15.338 3.89548C16.121 2.88598 16.7135 1.45799 16.499 0Z" fill="#222831"/>
<path d="M21.5554 8.05192C20.3269 6.51143 18.6004 5.61743 16.97 5.61743C14.8175 5.61743 13.907 6.64793 12.4115 6.64793C10.8695 6.64793 9.698 5.62043 7.83651 5.62043C6.00802 5.62043 4.06103 6.73792 2.82654 8.64891C1.09105 11.3399 1.38805 16.3994 4.20053 20.7088C5.20702 22.2508 6.55102 23.9848 8.30901 23.9998C9.8735 24.0148 10.3145 22.9963 12.434 22.9858C14.5535 22.9738 14.9555 24.0133 16.517 23.9968C18.2764 23.9833 19.6939 22.0618 20.7004 20.5198C21.4219 19.4144 21.6904 18.8579 22.2499 17.6099C18.1804 16.0604 17.528 10.2734 21.5554 8.05192Z" fill="#222831"/>
</g>
<defs>
<clipPath id="clip0_262_4346">
<rect width="24" height="24" fill="white"/>
</clipPath>
</defs>
</svg>
