<svg width="26" height="26" viewBox="0 0 26 26" fill="none" xmlns="http://www.w3.org/2000/svg">
<path d="M19.9625 1H21.6114V4.38526C22.7388 4.40211 23.8492 4.40211 24.9766 4.38526C24.9934 4.95789 25.027 5.54737 24.9597 6.13684C23.8492 6.08632 22.7219 6.10316 21.6114 6.12C21.6114 7.24842 21.6283 8.39368 21.6114 9.53895C21.0562 9.52211 20.5009 9.52211 19.9457 9.52211V6.12C18.7847 6.08632 17.6238 6.10316 16.4628 6.10316V4.38526C17.6238 4.40211 18.7847 4.40211 19.9457 4.38526C19.9457 3.25684 19.9457 2.12842 19.9625 1ZM1 4.38526C5.17276 4.38526 9.34553 4.41895 13.5351 4.38526C13.5688 4.94105 13.5351 5.51368 13.5688 6.08632C9.95125 6.12 6.33373 6.10316 2.71622 6.10316V23.2653C8.45377 23.2653 14.2081 23.2821 19.9457 23.2484V12.4189H21.6114C21.6114 16.6126 21.6451 20.8063 21.6114 25C14.7297 24.9663 7.86487 24.9832 1 24.9832V4.38526Z" fill="#EB0028" stroke="#EB0028" stroke-width="0.125333"/>
<path d="M7.86487 9.57275C9.396 9.53907 10.9103 9.57275 12.4414 9.55591C12.4414 12.4022 12.4583 15.2485 12.4414 18.0949C13.3669 18.1959 14.3091 18.1285 15.2345 18.1454V19.8296C12.778 19.8128 10.3214 19.8296 7.86487 19.8127C7.88169 19.2738 7.88169 18.718 7.86487 18.1622C8.80711 18.1285 9.76617 18.1622 10.7252 18.1454C10.7421 15.838 10.7252 13.5475 10.7252 11.2401C9.76617 11.2401 8.82393 11.257 7.86487 11.2233C7.88169 10.6843 7.88169 10.1285 7.86487 9.57275Z" fill="#EB0028" stroke="#EB0028" stroke-width="0.125333"/>
</svg>
