<svg width="24" height="24" viewBox="0 0 24 24" fill="none" xmlns="http://www.w3.org/2000/svg">
<g clip-path="url(#clip0_262_4369)">
<path d="M21.4067 24H2.59333C1.16109 24 0 22.8389 0 21.4067V2.59333C0 1.16109 1.16109 0 2.59333 0H21.4066C22.8389 0 24 1.16109 24 2.59333V21.4067C24 22.8389 22.8389 24 21.4067 24Z" fill="#222831"/>
<path d="M3.5206 11.3098C3.50792 11.257 3.51087 11.2011 3.51794 11.1721C3.53587 11.0885 3.59257 10.9954 3.75794 10.9954C3.91132 10.9954 4.00159 11.0907 4.00159 11.2335V11.3958H4.65562V11.2116C4.65562 10.6412 4.14135 10.5503 3.77062 10.5503C3.30486 10.5503 2.9243 10.7049 2.85468 11.1331C2.83562 11.2506 2.83235 11.354 2.85992 11.4865C2.97346 12.0226 3.90537 12.1776 4.04092 12.5168C4.06629 12.5799 4.05862 12.6609 4.04602 12.7104C4.02453 12.7986 3.96535 12.8875 3.78996 12.8875C3.62614 12.8875 3.52819 12.7921 3.52819 12.6488L3.52725 12.3965H2.82364V12.597C2.82364 13.1832 3.28407 13.3596 3.77685 13.3596C4.25058 13.3596 4.63965 13.1981 4.70314 12.7593C4.7347 12.5331 4.71101 12.3859 4.70038 12.3301C4.5897 11.7797 3.59524 11.6167 3.5206 11.3098ZM12.048 11.3162C12.0364 11.2644 12.0397 11.2094 12.0458 11.1806C12.0645 11.0967 12.1209 11.0052 12.2834 11.0052C12.4348 11.0052 12.5236 11.0995 12.5236 11.2413V11.4016H13.1701V11.2188C13.1701 10.6539 12.6636 10.5651 12.2968 10.5651C11.835 10.5651 11.4578 10.7174 11.3889 11.1425C11.3707 11.2582 11.3662 11.3608 11.3951 11.4919C11.5074 12.0219 12.4302 12.1757 12.5641 12.5109C12.5878 12.5744 12.581 12.6554 12.5689 12.7031C12.5489 12.7903 12.4902 12.8781 12.3163 12.8781C12.153 12.8781 12.0549 12.7843 12.0549 12.6429L12.0547 12.3912H11.3589V12.5913C11.3589 13.1709 11.8128 13.3457 12.3018 13.3457C12.7701 13.3457 13.157 13.1857 13.219 12.7519C13.2486 12.5278 13.2262 12.3818 13.2144 12.3268C13.106 11.7832 12.1225 11.6197 12.048 11.3162ZM18.002 12.7449L17.3845 10.6338H16.4114V13.2285H17.0551L17.0178 11.0499L17.6809 13.2285H18.6141V10.6338H17.9662L18.002 12.7449ZM5.63084 10.6338L5.14513 13.2559H5.85342L6.21946 10.8286L6.5767 13.2559H7.28008L6.79643 10.6338H5.63084ZM9.59132 10.6338L9.26053 12.6834L8.92993 10.6338H7.86023L7.80348 13.2559H8.45883L8.47657 10.8286L8.92745 13.2559H9.59235L10.0436 10.8286L10.0614 13.2559H10.7184L10.6598 10.6338H9.59132ZM15.6844 10.6338H15.0212V12.5736C15.0223 12.6073 15.0212 12.6454 15.0154 12.6732C15.0016 12.7383 14.9464 12.8636 14.7634 12.8636C14.5828 12.8636 14.5262 12.7383 14.5134 12.6732C14.5067 12.6454 14.5059 12.6074 14.5067 12.5736V10.6338H13.8438V12.5134C13.843 12.5618 13.8468 12.6608 13.8497 12.6867C13.8954 13.1765 14.2814 13.3355 14.7634 13.3355C15.2464 13.3355 15.6322 13.1765 15.6787 12.6867C15.6824 12.6608 15.6872 12.5618 15.6844 12.5134V10.6338H15.6844ZM20.2376 11.7841V12.1665H20.5063V12.546C20.5071 12.5799 20.5053 12.6164 20.4994 12.6457C20.4888 12.7164 20.4215 12.8369 20.2308 12.8369C20.0412 12.8369 19.9752 12.7164 19.9637 12.6457C19.9589 12.6164 19.9568 12.5799 19.9568 12.546V11.3475C19.9568 11.3052 19.9597 11.2588 19.9687 11.2237C19.9817 11.1598 20.0383 11.0339 20.2294 11.0339C20.43 11.0339 20.48 11.1666 20.4915 11.2237C20.4991 11.2614 20.4994 11.3248 20.4994 11.3248V11.4703H21.1598V11.3843C21.1598 11.3843 21.1628 11.2945 21.1548 11.2107C21.1052 10.7189 20.6999 10.5633 20.2352 10.5633C19.7697 10.5633 19.3727 10.7203 19.3148 11.2107C19.3096 11.2556 19.3016 11.3363 19.3016 11.3843V12.4866C19.3016 12.5347 19.3031 12.5718 19.312 12.6595C19.3552 13.1379 19.7697 13.3074 20.2334 13.3074C20.6999 13.3074 21.1116 13.1379 21.1554 12.6595C21.1632 12.5718 21.1641 12.5346 21.1651 12.4866V11.7841H20.2376Z" fill="white"/>
</g>
<defs>
<clipPath id="clip0_262_4369">
<rect width="24" height="24" fill="white"/>
</clipPath>
</defs>
</svg>
