<svg width="24" height="24" viewBox="0 0 24 24" fill="none" xmlns="http://www.w3.org/2000/svg">
<g clip-path="url(#clip0_262_4436)">
<path d="M21.4985 2.50763C19.2342 0.252094 15.9785 0 12 0C8.01647 0 4.75584 0.255 2.49253 2.51663C0.229547 4.77731 0 8.03269 0 12.0117C0 15.9913 0.229547 19.2477 2.49347 21.5092C4.75664 23.7711 8.01689 24 12 24C15.9832 24 19.2428 23.7711 21.506 21.5092C23.7698 19.2472 24 15.9913 24 12.0117C24 8.02758 23.7673 4.76869 21.4985 2.50763Z" fill="#FF6900"/>
<path d="M18.9635 7.43457C19.0459 7.43457 19.1146 7.50099 19.1146 7.58274V16.4602C19.1146 16.5406 19.0459 16.6074 18.9635 16.6074H17.0184C16.9349 16.6074 16.8671 16.5406 16.8671 16.4602V7.58274C16.8671 7.50104 16.9348 7.43457 17.0184 7.43457H18.9635ZM10.5223 7.43457C11.9897 7.43457 13.5239 7.50184 14.2806 8.25905C15.0245 9.00423 15.1051 10.4879 15.1082 11.9287V16.4602C15.1082 16.5406 15.0404 16.6073 14.9573 16.6073H13.0125C12.9292 16.6073 12.8611 16.5406 12.8611 16.4602V11.8508C12.8591 11.0461 12.8128 10.219 12.3978 9.8027C12.0406 9.44452 11.3741 9.36249 10.681 9.34548H7.15554C7.07286 9.34548 7.00517 9.41199 7.00517 9.49248V16.4602C7.00517 16.5406 6.93664 16.6074 6.85343 16.6074H4.90737C4.82421 16.6074 4.75732 16.5406 4.75732 16.4602V7.58274C4.75732 7.50104 4.82417 7.43457 4.90737 7.43457H10.5223ZM10.9577 10.9702C11.0404 10.9702 11.1077 11.0364 11.1077 11.1175V16.4602C11.1077 16.5406 11.0404 16.6074 10.9577 16.6074H8.91467C8.83067 16.6074 8.76336 16.5406 8.76336 16.4602V11.1175C8.76336 11.0364 8.83067 10.9702 8.91467 10.9702H10.9577Z" fill="white"/>
</g>
<defs>
<clipPath id="clip0_262_4436">
<rect width="24" height="24" fill="white"/>
</clipPath>
</defs>
</svg>
