<svg width="52" height="52" viewBox="0 0 52 52" fill="none" xmlns="http://www.w3.org/2000/svg">
<rect x="0.544922" y="0.54541" width="50.9091" height="50.9091" rx="16" fill="#F5F9FE"/>
<path d="M12.6357 10.7273H22.6331C24.6179 10.7273 26.0894 10.8092 27.0615 10.9744C27.9959 11.1284 28.8868 11.4834 29.6736 12.0154C30.4609 12.5636 31.1173 13.2823 31.595 14.1191C31.9655 14.7541 32.2064 15.4577 32.3035 16.1882C31.0115 16.0587 29.7133 16.0018 28.4151 16.0179H18.419V35.9821L23.2985 41.2727H26.9309C30.1485 41.2497 32.1763 41.1929 33.0145 41.1025C34.358 40.9505 35.4868 40.551 36.4011 39.904C37.3332 39.2349 38.0806 38.3362 38.5721 37.2932C39.0902 36.2514 39.361 35.1019 39.363 33.936C39.363 32.4729 38.9558 31.2015 38.1412 30.1217C37.3267 29.0418 36.159 28.2757 34.6381 27.8233C35.6828 27.3533 36.5699 26.5869 37.1918 25.6172C37.8136 24.6476 38.1435 23.5165 38.1412 22.3611C38.1544 21.3272 37.8889 20.3092 37.3732 19.4162C36.8963 18.5788 36.2403 17.8596 35.453 17.3112C34.6658 16.7789 33.7746 16.4239 32.8396 16.2702C32.6736 16.242 32.4949 16.2164 32.2997 16.1934C32.3396 16.4857 32.3595 16.7805 32.3593 17.0756C32.3608 18.2296 32.0309 19.3593 31.4096 20.3278C30.7882 21.2962 29.9021 22.0616 28.8587 22.5314C30.3796 22.9847 31.5405 23.7491 32.3618 24.8361C33.1831 25.9232 33.5836 27.187 33.5836 28.6505C33.5792 29.8151 33.3067 30.9627 32.7877 32.0026C32.2965 33.0455 31.5496 33.9442 30.6178 34.6133C29.7045 35.2587 28.5756 35.6582 27.2313 35.8118C26.3931 35.8972 24.3653 35.9539 21.1477 35.9821H18.419L12.6357 30.6914V10.7273Z" fill="#0074E4"/>
</svg>
