<svg width="350" height="88" viewBox="0 0 350 88" fill="none" xmlns="http://www.w3.org/2000/svg">
    <path fill-rule="evenodd" clip-rule="evenodd"
        d="M62.6592 26.1757H70.8374C72.9073 26.1757 74.5849 27.8404 74.5849 29.8943V77.8267C74.5849 83.3716 70.0549 87.8667 64.467 87.8667H22.533C16.9451 87.8667 12.4151 83.3716 12.4151 77.8267V29.8943C12.4151 27.8404 14.0927 26.1757 16.1626 26.1757H24.3408V19.0116C24.3408 8.52865 32.9357 0 43.5 0C54.0644 0 62.6592 8.52865 62.6592 19.0116V26.1757ZM43.5 6.08368C36.3162 6.08368 30.4717 11.8832 30.4717 19.0116V26.1757H56.5283V19.0116C56.5283 11.8832 50.6838 6.08368 43.5 6.08368ZM69.0307 77.1428L73.7495 81.8257L73.7483 81.8268C72.7076 84.2017 70.7695 86.0991 68.358 87.0973L65.5933 84.3539C65.5911 84.3517 65.5888 84.35 65.5864 84.3482C65.5841 84.3464 65.5817 84.3446 65.5795 84.3424L58.2059 77.025L55.1675 82.2452C54.9302 82.6531 54.4788 82.8902 54.0053 82.8563C53.5318 82.8223 53.1196 82.5228 52.9436 82.0853L43.5872 58.8036C43.4034 58.3469 43.5116 57.8261 43.862 57.4784C44.2124 57.1307 44.7378 57.0234 45.1975 57.2057L68.6571 66.4917C69.098 66.6664 69.3999 67.0754 69.4341 67.5452C69.4683 68.0151 69.2294 68.463 68.8183 68.6985L63.5576 71.714L69.0169 77.1318C69.0197 77.1342 69.0226 77.1362 69.0255 77.1384C69.0273 77.1397 69.029 77.1411 69.0307 77.1428Z"
        fill="url(#paint0_linear_1_12)" />
    <path
        d="M101.517 70.7708V29.1189H109.785V70.7708H101.517ZM88 35.5362V28.2108H123.302V35.5362H88Z"
        fill="#363636" />
    <path
        d="M134.815 71.3762C131.757 71.3762 129.042 70.7304 126.668 69.4389C124.295 68.107 122.404 66.2908 120.996 63.9903C119.628 61.6897 118.944 59.0663 118.944 56.12C118.944 53.2141 119.608 50.631 120.936 48.3708C122.303 46.0703 124.154 44.2541 126.487 42.9222C128.821 41.5499 131.415 40.8638 134.272 40.8638C137.088 40.8638 139.562 41.5095 141.694 42.8011C143.867 44.0522 145.556 45.7877 146.763 48.0076C148.01 50.187 148.634 52.6692 148.634 55.4541C148.634 55.9787 148.594 56.5236 148.513 57.0886C148.473 57.6133 148.372 58.2187 148.211 58.9049L123.711 58.9654V53.0324L144.53 52.9719L141.332 55.4541C141.252 53.7186 140.93 52.2656 140.367 51.0951C139.844 49.9247 139.059 49.0368 138.013 48.4313C137.007 47.7856 135.76 47.4627 134.272 47.4627C132.703 47.4627 131.335 47.8259 130.168 48.5524C129.002 49.2386 128.097 50.2274 127.453 51.5189C126.849 52.7701 126.548 54.2634 126.548 55.9989C126.548 57.7748 126.869 59.3286 127.513 60.6605C128.197 61.9521 129.163 62.9611 130.41 63.6876C131.657 64.3737 133.105 64.7168 134.755 64.7168C136.243 64.7168 137.591 64.4746 138.798 63.9903C140.005 63.4656 141.051 62.6987 141.936 61.6897L146.582 66.3513C145.174 68.0061 143.444 69.2573 141.392 70.1049C139.381 70.9524 137.188 71.3762 134.815 71.3762Z"
        fill="#363636" />
    <path
        d="M167.281 71.3762C164.304 71.3762 161.629 70.7103 159.256 69.3784C156.882 68.0465 155.011 66.2303 153.643 63.9297C152.276 61.6292 151.592 59.0461 151.592 56.1805C151.592 53.2746 152.276 50.6713 153.643 48.3708C155.011 46.0703 156.882 44.2541 159.256 42.9222C161.669 41.5499 164.345 40.8638 167.281 40.8638C169.574 40.8638 171.687 41.2876 173.618 42.1351C175.549 42.9827 177.218 44.1935 178.626 45.7676L173.557 50.9135C172.793 50.0659 171.868 49.4202 170.781 48.9762C169.735 48.5323 168.569 48.3103 167.281 48.3103C165.833 48.3103 164.526 48.6533 163.359 49.3395C162.233 49.9852 161.327 50.8933 160.643 52.0638C160 53.1939 159.678 54.5459 159.678 56.12C159.678 57.6537 160 59.0259 160.643 60.2368C161.327 61.4072 162.233 62.3355 163.359 63.0216C164.526 63.6674 165.833 63.9903 167.281 63.9903C168.609 63.9903 169.796 63.7683 170.842 63.3243C171.928 62.84 172.853 62.1539 173.618 61.2659L178.747 66.4119C177.258 68.0263 175.549 69.2573 173.618 70.1049C171.687 70.9524 169.574 71.3762 167.281 71.3762Z"
        fill="#363636" />
    <path
        d="M202.836 70.7708V54.0011C202.836 52.2656 202.293 50.853 201.207 49.7632C200.12 48.6735 198.712 48.1286 196.982 48.1286C195.856 48.1286 194.85 48.3708 193.965 48.8551C193.08 49.3395 192.376 50.0256 191.853 50.9135C191.37 51.8014 191.129 52.8306 191.129 54.0011L188.051 52.427C188.051 50.1265 188.534 48.1286 189.5 46.4335C190.465 44.698 191.793 43.3459 193.482 42.3773C195.212 41.4086 197.184 40.9243 199.396 40.9243C201.609 40.9243 203.56 41.4086 205.25 42.3773C206.98 43.3459 208.327 44.6778 209.293 46.373C210.258 48.0681 210.741 50.0256 210.741 52.2454V70.7708H202.836ZM183.224 70.7708V27H191.129V70.7708H183.224Z"
        fill="#363636" />
    <path
        d="M230.264 71.3762C226.844 71.3762 223.908 70.791 221.454 69.6205C219.04 68.4501 216.847 66.6944 214.876 64.3535L220.307 58.9049C221.554 60.5596 223.002 61.8512 224.652 62.7795C226.301 63.6674 228.313 64.1113 230.686 64.1113C232.819 64.1113 234.508 63.6876 235.755 62.84C237.043 61.9924 237.686 60.822 237.686 59.3286C237.686 58.0371 237.324 56.9877 236.6 56.1805C235.876 55.3733 234.911 54.6872 233.704 54.1222C232.537 53.5571 231.229 53.0526 229.781 52.6086C228.373 52.1243 226.945 51.5795 225.497 50.9741C224.089 50.3686 222.781 49.622 221.574 48.7341C220.408 47.8058 219.462 46.6353 218.738 45.2227C218.014 43.7697 217.652 41.9535 217.652 39.7741C217.652 37.191 218.275 34.9914 219.523 33.1751C220.77 31.3589 222.479 29.9665 224.652 28.9978C226.824 28.0292 229.278 27.5449 232.014 27.5449C234.911 27.5449 237.525 28.0897 239.859 29.1795C242.192 30.2692 244.103 31.6818 245.592 33.4173L240.161 38.8659C238.913 37.4937 237.626 36.4847 236.298 35.8389C235.011 35.1932 233.543 34.8703 231.893 34.8703C230.002 34.8703 228.514 35.2335 227.428 35.96C226.342 36.6865 225.798 37.7359 225.798 39.1081C225.798 40.2786 226.161 41.227 226.885 41.9535C227.609 42.68 228.554 43.3056 229.721 43.8303C230.928 44.355 232.235 44.8595 233.643 45.3438C235.092 45.8281 236.52 46.373 237.928 46.9784C239.376 47.5838 240.684 48.3708 241.85 49.3395C243.057 50.3081 244.023 51.5593 244.747 53.093C245.471 54.5863 245.833 56.4429 245.833 58.6627C245.833 62.618 244.445 65.7258 241.669 67.9859C238.893 70.2461 235.092 71.3762 230.264 71.3762Z"
        fill="#363636" />
    <path
        d="M271.077 70.7708V54.0011C271.077 52.2656 270.534 50.853 269.448 49.7632C268.362 48.6735 266.954 48.1286 265.224 48.1286C264.098 48.1286 263.092 48.3708 262.207 48.8551C261.322 49.3395 260.618 50.0256 260.095 50.9135C259.612 51.8014 259.37 52.8306 259.37 54.0011L256.293 52.427C256.293 50.1265 256.776 48.1286 257.741 46.4335C258.707 44.698 260.034 43.3459 261.724 42.3773C263.454 41.4086 265.425 40.9243 267.638 40.9243C269.85 40.9243 271.802 41.4086 273.491 42.3773C275.221 43.3459 276.569 44.6778 277.534 46.373C278.5 48.0681 278.983 50.0256 278.983 52.2454V70.7708H271.077ZM251.465 70.7708V27H259.37V70.7708H251.465Z"
        fill="#363636" />
    <path
        d="M299.049 71.3762C296.112 71.3762 293.457 70.7103 291.083 69.3784C288.75 68.0061 286.879 66.1697 285.471 63.8692C284.103 61.5283 283.419 58.925 283.419 56.0595C283.419 53.1939 284.103 50.631 285.471 48.3708C286.839 46.0703 288.71 44.2541 291.083 42.9222C293.457 41.5499 296.092 40.8638 298.988 40.8638C301.965 40.8638 304.62 41.5499 306.954 42.9222C309.327 44.2541 311.198 46.0703 312.566 48.3708C313.934 50.631 314.618 53.1939 314.618 56.0595C314.618 58.925 313.934 61.5283 312.566 63.8692C311.198 66.1697 309.327 68.0061 306.954 69.3784C304.62 70.7103 301.985 71.3762 299.049 71.3762ZM298.988 63.9903C300.477 63.9903 301.784 63.6674 302.911 63.0216C304.077 62.3355 304.962 61.4072 305.566 60.2368C306.21 59.0259 306.531 57.6537 306.531 56.12C306.531 54.5863 306.21 53.2342 305.566 52.0638C304.922 50.8933 304.037 49.9852 302.911 49.3395C301.784 48.6533 300.477 48.3103 298.988 48.3103C297.54 48.3103 296.253 48.6533 295.126 49.3395C294 49.9852 293.115 50.8933 292.471 52.0638C291.827 53.2342 291.506 54.5863 291.506 56.12C291.506 57.6537 291.827 59.0259 292.471 60.2368C293.115 61.4072 294 62.3355 295.126 63.0216C296.253 63.6674 297.54 63.9903 298.988 63.9903Z"
        fill="#363636" />
    <path
        d="M335.879 71.3762C333.787 71.3762 331.897 70.9524 330.207 70.1049C328.517 69.2169 327.17 68.0263 326.164 66.533C325.158 65.0396 324.615 63.3243 324.534 61.387V51.0346C324.615 49.0973 325.158 47.382 326.164 45.8887C327.21 44.355 328.557 43.1441 330.207 42.2562C331.897 41.3683 333.787 40.9243 335.879 40.9243C338.575 40.9243 340.988 41.5903 343.121 42.9222C345.253 44.2541 346.922 46.0703 348.129 48.3708C349.376 50.6713 350 53.2746 350 56.1805C350 59.0461 349.376 61.6292 348.129 63.9297C346.922 66.2303 345.253 68.0465 343.121 69.3784C340.988 70.7103 338.575 71.3762 335.879 71.3762ZM334.491 64.0508C335.94 64.0508 337.227 63.7279 338.353 63.0822C339.48 62.396 340.345 61.4677 340.948 60.2973C341.592 59.0865 341.914 57.694 341.914 56.12C341.914 54.5863 341.592 53.2342 340.948 52.0638C340.345 50.853 339.48 49.9247 338.353 49.2789C337.227 48.5928 335.94 48.2497 334.491 48.2497C333.083 48.2497 331.816 48.5928 330.69 49.2789C329.563 49.9247 328.678 50.853 328.034 52.0638C327.431 53.2342 327.129 54.5863 327.129 56.12C327.129 57.694 327.431 59.0865 328.034 60.2973C328.678 61.4677 329.543 62.396 330.629 63.0822C331.756 63.7279 333.043 64.0508 334.491 64.0508ZM319.707 83V41.5297H327.612V49.2184L326.284 56.3016L327.552 63.3849V83H319.707Z"
        fill="#363636" />
    <defs>
        <linearGradient id="paint0_linear_1_12" x1="74.5849" y1="0" x2="12.4151" y2="0"
            gradientUnits="userSpaceOnUse">
            <stop stop-color="#6A11CB" />
            <stop offset="1" stop-color="#2575FC" />
        </linearGradient>
    </defs>
</svg>