<svg width="120" height="120" viewBox="0 0 120 120" fill="none" xmlns="http://www.w3.org/2000/svg">
<path d="M100.294 33.6376C100.255 33.3945 100.192 33.1559 100.106 32.9251C100.106 32.9251 100.106 32.9251 100.106 32.8126C100.055 32.7517 99.9984 32.6953 99.9375 32.6438C99.8668 32.5357 99.7851 32.4352 99.6938 32.3438L99.3938 32.1563L99.075 32.0063C98.9558 31.9553 98.8292 31.9237 98.7 31.9126H98.475H98.3625H97.9875C97.8724 31.9416 97.7596 31.9792 97.65 32.0251H97.5375L52.0688 58.2751L51.9 58.4438L51.6 58.6876C51.5267 58.7804 51.4638 58.881 51.4125 58.9876C51.3514 59.0883 51.3011 59.1951 51.2625 59.3063C51.2115 59.4256 51.1799 59.5522 51.1688 59.6813C51.1688 59.6813 51.1688 59.8313 51.1688 59.9063V112.5C51.1688 112.5 51.1688 112.5 51.1688 112.613C51.2077 112.856 51.2705 113.094 51.3563 113.325C51.3563 113.325 51.3563 113.325 51.3563 113.438C51.4458 113.571 51.5461 113.696 51.6563 113.813C51.8077 113.963 51.9857 114.084 52.1813 114.169H52.3313C52.5338 114.252 52.75 114.296 52.9688 114.3C53.1873 114.294 53.403 114.249 53.6063 114.169H53.775H53.9063L72.4875 103.444C72.59 103.366 72.6843 103.278 72.7688 103.181C72.8645 103.117 72.9526 103.041 73.0313 102.956C73.0987 102.843 73.1552 102.724 73.2 102.6C73.2611 102.506 73.3114 102.405 73.35 102.3C73.3593 102.182 73.3593 102.062 73.35 101.944C73.3588 101.825 73.3588 101.706 73.35 101.588C73.3238 101.466 73.2861 101.346 73.2375 101.231C73.2085 101.116 73.1709 101.003 73.125 100.894C71.2795 97.8286 70.2824 94.3278 70.2358 90.7502C70.1892 87.1726 71.0949 83.647 72.8599 80.5347C74.625 77.4225 77.1859 74.8357 80.2802 73.0394C83.3745 71.2431 86.8909 70.302 90.4688 70.3126C92.9629 70.3036 95.4368 70.7615 97.7625 71.6626C97.8743 71.6805 97.9882 71.6805 98.1 71.6626C98.2118 71.6802 98.3257 71.6802 98.4375 71.6626C98.5994 71.682 98.7631 71.682 98.925 71.6626C99.006 71.6539 99.0877 71.6539 99.1688 71.6626L99.45 71.4563C99.5584 71.4007 99.6592 71.3314 99.75 71.2501C99.7999 71.1921 99.8439 71.1293 99.8813 71.0626C99.9966 70.9378 100.086 70.7912 100.144 70.6313C100.151 70.5252 100.151 70.4187 100.144 70.3126C100.153 70.194 100.153 70.0749 100.144 69.9563V33.7501C100.144 33.7501 100.294 33.7501 100.294 33.6376Z" fill="#FFD164"/>
<path d="M53.9063 58.3688L8.43751 32.1188H8.32501C8.21006 32.0702 8.09078 32.0326 7.96876 32.0063H7.61251H7.50001H7.27501C7.14013 32.0197 7.00768 32.0512 6.88126 32.1001L6.58126 32.2501L6.28126 32.4376C6.1899 32.5289 6.10821 32.6295 6.03751 32.7376L5.86876 32.9063C5.86876 32.9063 5.86876 32.9063 5.86876 33.0188C5.8229 33.1284 5.7853 33.2412 5.75626 33.3563C5.74745 33.4812 5.74745 33.6065 5.75626 33.7313L5.62501 33.7501V86.2501C5.6237 86.5805 5.70972 86.9054 5.87435 87.1918C6.03898 87.4783 6.27638 87.7162 6.56251 87.8813L52.0313 114.131H52.1625H52.3313C52.5345 114.212 52.7502 114.256 52.9688 114.263C53.1876 114.259 53.4038 114.214 53.6063 114.131H53.7563C53.9518 114.046 54.1298 113.925 54.2813 113.775C54.3914 113.659 54.4917 113.533 54.5813 113.4C54.5813 113.4 54.5813 113.4 54.5813 113.288C54.6271 113.178 54.6647 113.065 54.6938 112.95C54.7026 112.825 54.7026 112.7 54.6938 112.575C54.6938 112.575 54.6938 112.575 54.6938 112.463V60.0001C54.711 59.6838 54.6478 59.3683 54.5101 59.0831C54.3724 58.7978 54.1646 58.5521 53.9063 58.3688Z" fill="#FFC350"/>
<path d="M100.275 33.7502C100.284 33.8688 100.284 33.9879 100.275 34.1065C100.246 34.2278 100.208 34.3468 100.163 34.4627C100.163 34.4627 100.163 34.6127 100.163 34.6877V34.8002L100.05 34.9502C99.9162 35.1113 99.7581 35.2505 99.5813 35.3627L75.5625 49.1252L71.8125 51.3002L53.9063 61.6315C53.6212 61.796 53.2979 61.8827 52.9688 61.8827C52.6396 61.8827 52.3163 61.796 52.0313 61.6315L6.56251 35.3815C6.45405 35.3042 6.35355 35.2162 6.26251 35.119L6.01876 34.8565V34.7627C6.01876 34.7627 6.01876 34.6127 6.01876 34.5377C5.87177 34.4092 5.73969 34.2645 5.62501 34.1065C5.60001 33.8696 5.60001 33.6308 5.62501 33.394C5.65394 33.2727 5.69154 33.1536 5.73751 33.0377C5.73751 33.0377 5.73751 32.8877 5.73751 32.8127V32.719L5.98126 32.4565C6.0723 32.3592 6.1728 32.2713 6.28126 32.194L28.5938 19.3127L32.175 17.2502L51.75 6.00023C52.035 5.83566 52.3584 5.74902 52.6875 5.74902C53.0166 5.74902 53.34 5.83566 53.625 6.00023L99.375 32.119L99.6375 32.3627L99.9 32.644V32.7377C99.9 32.7377 99.9 32.8877 99.9 32.9627C99.946 33.0786 99.9836 33.1977 100.013 33.319C100.116 33.4525 100.204 33.5972 100.275 33.7502Z" fill="#FFE17D"/>
<path d="M75.5625 48.0378V65.8878C75.5625 66.3851 75.365 66.862 75.0133 67.2136C74.6617 67.5653 74.1848 67.7628 73.6875 67.7628C73.1902 67.7628 72.7133 67.5653 72.3617 67.2136C72.01 66.862 71.8125 66.3851 71.8125 65.8878V49.0128L28.875 19.2378L32.4562 17.1753L74.7187 46.4815C74.9767 46.6514 75.1887 46.8823 75.3358 47.1538C75.483 47.4253 75.5609 47.729 75.5625 48.0378Z" fill="#34BE82"/>
<path d="M90.4688 66.5625C85.7406 66.5625 81.1185 67.9646 77.1872 70.5914C73.2558 73.2183 70.1917 76.9519 68.3823 81.3202C66.5729 85.6885 66.0994 90.4953 67.0219 95.1326C67.9443 99.77 70.2211 104.03 73.5645 107.373C76.9078 110.716 81.1675 112.993 85.8049 113.916C90.4422 114.838 95.249 114.365 99.6173 112.555C103.986 110.746 107.719 107.682 110.346 103.75C112.973 99.819 114.375 95.197 114.375 90.4688C114.37 84.1299 111.85 78.0522 107.368 73.57C102.885 69.0877 96.8076 66.5675 90.4688 66.5625Z" fill="#34BE82"/>
<path d="M87.75 100.95C87.4792 100.95 87.2116 100.892 86.9656 100.778C86.7196 100.665 86.5011 100.5 86.325 100.294L78.75 91.3314C78.4293 90.951 78.2728 90.4587 78.315 89.9629C78.3572 89.4671 78.5946 89.0084 78.975 88.6877C79.3554 88.3669 79.8477 88.2104 80.3435 88.2526C80.8393 88.2948 81.298 88.5322 81.6188 88.9127L87.7125 96.0752L99.375 80.7377C99.5193 80.5296 99.7043 80.3529 99.9187 80.2183C100.133 80.0836 100.373 79.9938 100.623 79.9542C100.873 79.9146 101.128 79.9261 101.374 79.988C101.619 80.0498 101.85 80.1607 102.051 80.3141C102.253 80.4674 102.421 80.66 102.546 80.8801C102.671 81.1003 102.75 81.3435 102.779 81.5951C102.807 81.8467 102.785 82.1014 102.712 82.344C102.639 82.5866 102.518 82.8119 102.356 83.0064L89.25 100.2C89.0812 100.426 88.8637 100.61 88.6137 100.74C88.3638 100.87 88.0878 100.942 87.8063 100.95H87.75Z" fill="#FDFDFD"/>
</svg>
