<svg width="180" height="108" viewBox="0 0 180 108" fill="none" xmlns="http://www.w3.org/2000/svg">
<g clip-path="url(#clip0_1057_811)">
<path d="M179.996 80.1154C180.038 95.2778 177.169 106.601 177.169 106.601H3.7704C1.27372 97.1953 0.26217 89.4521 0.357717 83.0868C0.914382 45.4223 40.2153 55.9907 40.2153 55.9907C40.2153 55.9907 31.4541 -7.8918 115.743 4.24064C170.172 12.0759 179.922 52.4755 179.998 80.1154H179.996Z" fill="#F3F7FF"/>
<path d="M44.0206 106.601H3.7704C1.27372 97.1953 0.26217 89.4521 0.357717 83.0868C1.88647 82.5766 3.48376 82.334 5.07483 82.5369C7.87061 82.8944 10.5812 84.9291 11.0403 87.729C11.7776 86.1774 13.9254 85.6839 15.4666 86.4284C17.0078 87.1707 17.9446 88.8394 18.252 90.529C18.5594 92.2206 18.3351 93.9583 18.1107 95.6626C19.0932 94.2239 21.4736 94.5752 22.6139 95.8905C23.7522 97.2079 23.991 99.0606 24.1801 100.796C24.7201 98.1049 26.8159 95.7859 29.4289 94.9934C32.9538 93.9249 36.8546 95.6228 39.3803 98.3203C41.5551 100.644 42.8989 103.596 44.0227 106.599L44.0206 106.601Z" fill="#DCEBFF"/>
<path d="M179.997 80.1154C180.038 95.2778 177.17 106.601 177.17 106.601H144.551C144.727 105.606 144.833 104.589 145.176 103.642C145.739 102.078 147.461 100.656 148.946 101.384C148.753 99.5164 148.56 97.6135 148.94 95.7755C149.322 93.9374 150.377 92.1433 152.07 91.3528C153.156 90.8468 154.405 90.7966 155.593 90.9493C158.037 91.2629 160.555 92.6305 161.344 94.9788C160.748 93.1595 162.019 90.9597 163.884 90.5833C165.303 90.2968 166.809 91.1165 167.513 92.3649C167.06 90.8405 166.714 89.2848 166.851 87.7102C167.025 85.6902 168.203 83.6179 170.13 83.0324C172.357 82.357 174.658 83.8249 176.297 85.4874C176.682 83.9107 177.109 82.2504 178.241 81.094C178.709 80.6151 179.342 80.268 179.999 80.1133L179.997 80.1154Z" fill="#DCEBFF"/>
<path d="M97.3018 24.1852C97.3018 24.1852 98.0018 24.3295 98.0018 24.9422C98.0018 25.5548 97.5781 25.4001 97.5781 25.4001C97.5781 25.4001 98.2801 25.329 98.438 25.8539C98.5938 26.3787 97.8128 26.4143 97.8128 26.4143C97.8128 26.4143 98.6291 26.5188 98.6125 26.9747C98.5958 27.4305 98.0703 27.4954 98.0703 27.4954C98.0703 27.4954 97.7442 28.2314 97.387 28.1018C97.0297 27.9721 96.2633 28.1645 95.7585 26.6067C95.2538 25.0488 97.1169 23.3676 97.1626 23.5704C97.2083 23.7733 97.3018 24.1873 97.3018 24.1873V24.1852Z" fill="#F7CEBD"/>
<path d="M142.466 0.000137953C139.002 0.000137953 136.192 2.82728 136.192 6.31728C136.192 7.41301 136.47 8.44391 136.956 9.34098C136.289 10.6709 135.271 12.7473 135.471 12.6323C135.471 12.6323 137.552 12.0698 139.018 11.5931C140.007 12.2497 141.191 12.6323 142.464 12.6323C145.929 12.6323 148.739 9.8052 148.739 6.31519C148.739 2.82518 145.931 -0.00195312 142.464 -0.00195312L142.466 0.000137953Z" fill="#C4DEFF"/>
<path d="M139.356 6.66006C139.356 7.04482 139.046 7.3543 138.666 7.3543C138.286 7.3543 137.977 7.04273 137.977 6.66006C137.977 6.27739 138.286 5.96582 138.666 5.96582C139.046 5.96582 139.356 6.27739 139.356 6.66006Z" fill="white"/>
<path d="M142.953 6.66006C142.953 7.04482 142.644 7.3543 142.264 7.3543C141.884 7.3543 141.574 7.04273 141.574 6.66006C141.574 6.27739 141.884 5.96582 142.264 5.96582C142.644 5.96582 142.953 6.27739 142.953 6.66006Z" fill="white"/>
<path d="M146.551 6.66006C146.551 7.04482 146.242 7.3543 145.861 7.3543C145.481 7.3543 145.172 7.04273 145.172 6.66006C145.172 6.27739 145.481 5.96582 145.861 5.96582C146.242 5.96582 146.551 6.27739 146.551 6.66006Z" fill="white"/>
<path d="M121.989 101.7C122.527 101.488 123.449 101.208 124.612 101.248C125.545 101.279 126.295 101.507 126.785 101.7V105.832H116.609C116.609 105.832 116.823 103.119 121.142 103.119L121.989 101.7Z" fill="#C94747"/>
<path d="M124.843 104.936C125.392 104.936 125.838 104.488 125.838 103.935C125.838 103.382 125.392 102.933 124.843 102.933C124.293 102.933 123.848 103.382 123.848 103.935C123.848 104.488 124.293 104.936 124.843 104.936Z" fill="#004586"/>
<path d="M126.785 105.832H116.609V106.599H126.785V105.832Z" fill="#0B3B79"/>
<path d="M119.614 47.1664C118.738 57.7096 118.318 66.4461 118.096 72.6629C117.737 82.7733 117.398 100.566 122.001 101.727C123.663 102.145 127.136 101.499 127.136 101.499C127.136 101.499 127.196 77.303 128.949 71.8076C136.059 49.5251 131.921 46.6206 131.921 46.6206L119.612 47.1664H119.614Z" fill="#0B3B79"/>
<path d="M132.966 101.104C133.477 100.832 134.36 100.445 135.521 100.349C136.452 100.272 137.22 100.41 137.731 100.541C137.891 101.909 138.049 103.277 138.209 104.646L128.102 105.838C128.102 105.838 128 103.12 132.289 102.614L132.966 101.104Z" fill="#E64F5A"/>
<path d="M137.041 102.873C137.105 103.421 136.715 103.919 136.168 103.983C135.624 104.048 135.13 103.655 135.066 103.105C135.001 102.557 135.392 102.06 135.938 101.995C136.482 101.93 136.976 102.323 137.041 102.873Z" fill="#004586"/>
<path d="M138.204 104.649L128.098 105.84L128.186 106.603L138.293 105.411L138.204 104.649Z" fill="#004586"/>
<path d="M122.777 47.0515C123.71 58.36 125.129 66.8017 125.627 73.0038C126.439 83.087 128.157 100.798 132.866 101.413C134.565 101.635 137.94 100.585 137.94 100.585C137.94 100.585 135.203 76.5461 136.31 70.8814C140.796 47.9172 136.351 45.5166 136.351 45.5166L122.779 47.0494L122.777 47.0515Z" fill="#004586"/>
<path d="M112.51 33.6478C112.51 33.6478 99.5677 25.3734 98.8677 26.076C98.1677 26.7786 97.3867 28.1002 97.3867 28.1002C97.3867 28.1002 107.313 39.7203 111.337 39.5447C115.36 39.369 115.746 37.1671 115.746 37.1671L112.51 33.6457V33.6478Z" fill="#F7CEBD"/>
<path d="M122.094 23.2173C121.026 24.3757 119.244 26.1783 116.766 28.0623C113.32 30.6803 111.54 31.1655 111.351 32.7003C111.079 34.9001 114.614 39.7703 117.474 38.2145C118.448 37.6855 127.581 30.9982 127.587 29.7791C127.596 28.56 122.094 23.2173 122.094 23.2173Z" fill="#0B3B79"/>
<path d="M128.771 22.2388H126.615C126.615 22.2388 119.921 21.6344 119.181 28.3677C118.346 35.9667 119.678 47.4216 119.678 47.4216C121.13 48.0949 123.766 48.9606 126.709 49.1384C130.851 49.3893 135.343 47.1414 136.959 46.397C137.967 37.6354 138.881 28.2422 137.319 25.5259C135.1 21.6679 128.769 22.2388 128.769 22.2388H128.771Z" fill="#E35C5B"/>
<mask id="mask0_1057_811" style="mask-type:luminance" maskUnits="userSpaceOnUse" x="118" y="22" width="21" height="28">
<path d="M128.771 22.2388H126.615C126.615 22.2388 119.921 21.6344 119.181 28.3677C118.346 35.9667 119.678 47.4216 119.678 47.4216C121.13 48.0949 123.766 48.9606 126.709 49.1384C130.851 49.3893 135.343 47.1414 136.959 46.397C137.967 37.6354 138.881 28.2422 137.319 25.5259C135.1 21.6679 128.769 22.2388 128.769 22.2388H128.771Z" fill="white"/>
</mask>
<g mask="url(#mask0_1057_811)">
<path d="M126.707 49.1406C126.707 49.1406 133.64 47.108 133.64 43.3023C133.64 39.4965 129.501 35.2767 131.119 29.1541C132.737 23.0314 138.135 25.6787 138.135 25.6787C138.135 25.6787 142.024 40.4061 140.628 44.5423C139.23 48.6784 133.971 49.6717 133.971 49.6717C133.971 49.6717 129.519 50.5061 126.709 49.1385" fill="#D84545"/>
</g>
<path d="M125.144 14.3366C125.144 14.3366 122.479 20.5282 125.958 21.465C125.958 21.465 125.044 23.9723 125.756 24.8693C126.764 26.1407 129.773 25.6702 130.515 23.3867C130.617 23.071 130.637 23.1254 130.637 22.7929L130.662 19.4723C130.662 19.4723 132.806 19.535 132.297 17.6739C131.788 15.8129 130.881 17.5129 130.881 17.5129L130.65 14.7799L125.144 14.3345V14.3366Z" fill="#F7CEBD"/>
<mask id="mask1_1057_811" style="mask-type:luminance" maskUnits="userSpaceOnUse" x="124" y="14" width="9" height="12">
<path d="M125.144 14.3366C125.144 14.3366 122.479 20.5282 125.958 21.465C125.958 21.465 125.044 23.9723 125.756 24.8693C126.764 26.1407 129.773 25.6702 130.515 23.3867C130.617 23.071 130.637 23.1254 130.637 22.7929L130.662 19.4723C130.662 19.4723 132.806 19.535 132.297 17.6739C131.788 15.8129 130.881 17.5129 130.881 17.5129L130.65 14.7799L125.144 14.3345V14.3366Z" fill="white"/>
</mask>
<g mask="url(#mask1_1057_811)">
<path d="M124.823 15.1939C124.823 15.1939 124.626 16.0324 125.675 16.0638C127.424 16.116 129.455 15.5535 129.455 15.5535C129.455 15.5535 130.203 17.3728 130.882 17.5108C130.882 17.5108 130.294 14.9241 129.989 14.7715C129.686 14.6188 124.823 15.1918 124.823 15.1918" fill="#E9A5A4"/>
<path d="M124.859 19.0415L126.291 19.1042C126.291 19.1042 125.657 19.5371 125.37 19.4346C125.084 19.3322 124.859 19.0436 124.859 19.0436V19.0415Z" fill="white"/>
</g>
<path d="M131.091 11.9152C130.705 11.612 130.211 11.3632 129.583 11.1896C129.542 11.1791 129.502 11.1666 129.463 11.1603C125.778 10.2235 125.078 13.3225 125.078 13.3225C129.762 12.5321 132.061 16.9233 132.061 16.9233C132.061 16.9233 133.26 13.609 131.093 11.9131L131.091 11.9152Z" fill="#E35C5B"/>
<path d="M129.122 13.3181C128.09 12.7577 126.37 12.5946 125.348 12.6469C124.133 12.7076 122.473 13.3286 122.884 13.7196C123.532 14.3344 129.273 13.3621 132.061 16.9273C132.061 16.9273 132.746 15.2859 129.122 13.3202V13.3181Z" fill="#D84545"/>
<path d="M125.96 21.4653C125.96 21.4653 127.125 21.6954 127.977 21.6054C127.977 21.6054 126.712 22.262 125.809 21.9358L125.958 21.4653H125.96Z" fill="#E9A5A4"/>
<path d="M124.665 13.7907C124.665 13.7907 124.094 14.9157 124.825 15.1938C125.557 15.4719 129.781 15.1938 129.781 15.1938L130.884 17.5128C130.884 17.5128 131.524 16.6618 132.023 17.0214C132.023 17.0214 132.191 16.4987 132.212 16.4067C132.232 16.3146 130.282 13.8137 127.804 13.4101C125.326 13.0066 124.665 13.7928 124.665 13.7928V13.7907Z" fill="#233865"/>
<path d="M99.599 15.2465C99.599 15.2465 99.5554 15.2444 99.4786 15.2402C98.9115 15.2067 96.527 15.0729 96.2591 15.0959C95.9537 15.1231 95.2267 15.4639 95.3701 15.4598C95.5134 15.4577 98.4463 15.5037 98.8035 15.4598" fill="#5D93E2"/>
<path d="M98.8014 15.4619C98.8014 15.4619 95.3077 15.1587 95.368 15.4619C95.4282 15.7651 98.145 28.1798 98.2988 28.3325C98.4525 28.4851 102.131 29.2881 102.131 29.2881L98.8014 15.4619Z" fill="#79A6F7"/>
<path d="M99.5983 15.2466C99.5983 15.2466 103.038 28.78 102.797 29.0289C102.375 29.468 102.13 29.2882 102.13 29.2882C102.13 29.2882 98.5598 15.6773 98.8007 15.462C98.9503 15.3281 99.5983 15.2487 99.5983 15.2487V15.2466Z" fill="#5D93E2"/>
<path d="M130.429 59.6899L150.605 58.7036L149.829 42.6108L129.653 43.5971L130.429 59.6899Z" fill="#EDA956"/>
<path d="M124.262 59.9893L130.426 59.688L129.65 43.5952L123.486 43.8965L124.262 59.9893Z" fill="#E99241"/>
<path d="M138.265 46.8722L141.074 46.7349L140.896 43.0443L138.087 43.1816L138.265 46.8722Z" fill="white"/>
<path d="M125.647 47.4905L127.34 47.4077L127.162 43.7171L125.469 43.7999L125.647 47.4905Z" fill="white"/>
<path d="M140.715 56.5431L140.704 56.5473C141.319 52.0975 142.183 43.5847 142.084 43.11C141.953 42.4722 140.983 37.4976 140.983 37.4976C140.983 37.4976 134.596 37.6732 134.633 38.2148C134.67 38.7564 136.06 43.0494 136.224 43.5596C136.357 43.9799 136.519 54.2638 136.646 58.0194C136.089 58.2975 134.334 59.2071 134.683 59.4748C135.098 59.7905 135.2 59.7654 135.553 59.7675C135.763 59.7675 136.405 59.5856 136.893 59.4351C136.909 59.4372 136.928 59.4392 136.947 59.4434C136.561 59.6003 136.149 59.8156 136.407 59.9411C136.847 60.1565 137.572 60.7462 138.403 60.8235C139.234 60.9009 140.634 59.3577 140.671 59.1841C140.711 59.0106 140.713 56.5452 140.713 56.5452L140.715 56.5431Z" fill="#F7CEBD"/>
<mask id="mask2_1057_811" style="mask-type:luminance" maskUnits="userSpaceOnUse" x="134" y="37" width="9" height="24">
<path d="M140.715 56.5431L140.704 56.5473C141.319 52.0975 142.183 43.5847 142.084 43.11C141.953 42.4722 140.983 37.4976 140.983 37.4976C140.983 37.4976 134.596 37.6732 134.633 38.2148C134.67 38.7564 136.06 43.0494 136.224 43.5596C136.357 43.9799 136.519 54.2638 136.646 58.0194C136.089 58.2975 134.334 59.2071 134.683 59.4748C135.098 59.7905 135.2 59.7654 135.553 59.7675C135.763 59.7675 136.405 59.5856 136.893 59.4351C136.909 59.4372 136.928 59.4392 136.947 59.4434C136.561 59.6003 136.149 59.8156 136.407 59.9411C136.847 60.1565 137.572 60.7462 138.403 60.8235C139.234 60.9009 140.634 59.3577 140.671 59.1841C140.711 59.0106 140.713 56.5452 140.713 56.5452L140.715 56.5431Z" fill="white"/>
</mask>
<g mask="url(#mask2_1057_811)">
<path d="M135.133 44.2557C135.133 44.2557 138.396 44.1219 140.28 42.7731C142.164 41.4244 142.508 40.1865 142.508 40.1865C142.508 40.1865 141.543 36.1569 141.403 36.0691C141.264 35.9813 133.967 37.0227 133.992 38.6077C134.019 40.1927 135.133 44.2557 135.133 44.2557Z" fill="#E9A5A4"/>
</g>
<path d="M137.323 25.5258C137.323 25.5258 141.209 31.2156 141.837 38.7268C141.837 38.7268 141.421 39.398 140.385 39.9354C137.672 41.3448 134.342 39.971 133.281 37.0895L131.439 32.0855C130.556 29.687 131.563 26.9519 133.844 25.829C134.785 25.3648 135.938 25.1661 137.321 25.5279L137.323 25.5258Z" fill="#004586"/>
<path d="M80.5845 8.24072H35.6505C30.9873 8.24072 27.207 12.0464 27.207 16.741V98.0985C27.207 102.793 30.9873 106.599 35.6505 106.599H80.5845C85.2477 106.599 89.028 102.793 89.028 98.0985V16.741C89.028 12.0464 85.2477 8.24072 80.5845 8.24072Z" fill="#3A4756"/>
<path d="M85.0867 12.8179H31.1484V102.023H85.0867V12.8179Z" fill="#DCEBFF"/>
<path d="M70.1879 28.6392H53.7227V40.4935H70.1879V28.6392Z" fill="#C4DEFF"/>
<path d="M50.021 43.4692H31.1484V58.8094H50.021V43.4692Z" fill="#C4DEFF"/>
<path d="M85.0849 61.6655H53.7227V77.0057H85.0849V61.6655Z" fill="#C4DEFF"/>
<path d="M85.0886 28.639V26.1569H73.3135V12.8179H70.1936V26.1589H53.7284V12.8179H50.0249V40.4933H40.221L40.2106 12.8179H37.7451L37.7555 40.4933H31.1523V43.4689H37.7555V44.3095C37.7555 49.1148 41.6397 53.0251 46.4128 53.0251H50.0249V58.809H31.1523V61.6654H50.0249V77.0056H31.1523V79.862H50.0249V88.2242H31.1523V90.7063H50.0249V102.027H53.7284V90.7063H85.0906V88.2242H53.7284V79.862H85.0906V77.0056H76.5911V61.6654H85.0906V58.809H53.7284V53.0251H85.0906V50.543H53.7284V43.4689H85.0906V40.4933H73.3155V28.639H85.0906H85.0886ZM74.3125 61.6634V77.0035H65.4724V61.6634H74.3125ZM63.1938 61.6634V77.0035H53.7263V61.6634H63.1938ZM50.0229 50.5409H46.4108C42.996 50.5409 40.2189 47.7451 40.2189 44.3074V43.4668H50.0229V50.5409ZM70.1916 40.4912H53.7263V28.6369H70.1916V40.4912Z" fill="white"/>
<path d="M61.5793 36.8594C61.2034 37.286 60.5429 37.2902 60.1607 36.8678C57.3649 33.7772 47.3574 22.0065 48.3502 12.9271C49.503 2.38593 60.601 2.72469 60.601 2.72469C60.601 2.72469 72.7812 2.04509 73.3586 12.9271C73.853 22.2742 64.2879 33.7939 61.5793 36.8594Z" fill="#E35C5B"/>
<mask id="mask3_1057_811" style="mask-type:luminance" maskUnits="userSpaceOnUse" x="48" y="2" width="26" height="36">
<path d="M61.5793 36.8594C61.2034 37.286 60.5429 37.2902 60.1607 36.8678C57.3649 33.7772 47.3574 22.0065 48.3502 12.9271C49.503 2.38593 60.601 2.72469 60.601 2.72469C60.601 2.72469 72.7812 2.04509 73.3586 12.9271C73.853 22.2742 64.2879 33.7939 61.5793 36.8594Z" fill="white"/>
</mask>
<g mask="url(#mask3_1057_811)">
<path d="M50.9141 23.6792C50.9141 23.6792 58.7759 34.7891 60.4397 34.6971C62.1034 34.6051 70.4202 25.6239 73.3655 14.1857C73.3655 14.1857 73.5981 16.9125 73.3759 18.5393C73.1536 20.1662 62.9343 38.8416 61.1376 38.7099C59.3409 38.5781 51.7636 26.8597 50.9141 23.6792Z" fill="#D84545"/>
</g>
<path d="M67.7381 13.6172C67.7921 17.0403 64.9402 20.0326 61.5525 20.1769C58.0484 20.3254 54.9161 17.3602 54.7707 13.8472C54.6316 10.4618 57.3588 7.41088 60.6884 7.08467C64.153 6.74382 67.223 9.45177 67.6799 12.8623C67.7132 13.1174 67.7319 13.3684 67.736 13.6193L67.7381 13.6172Z" fill="white"/>
<path d="M60.8283 40.105C61.0838 40.105 61.2894 39.8959 61.2894 39.6408V38.6078C61.2894 38.3506 61.0817 38.1436 60.8283 38.1436C60.5749 38.1436 60.3672 38.3527 60.3672 38.6078V39.6408C60.3672 39.898 60.5749 40.105 60.8283 40.105Z" fill="#E35C5B"/>
<path d="M66.1456 59.7173H64.1017C63.8463 59.7173 63.6406 59.9264 63.6406 60.1815C63.6406 60.4366 63.8483 60.6457 64.1017 60.6457H66.1456C66.4011 60.6457 66.6067 60.4366 66.6067 60.1815C66.6067 59.9264 66.399 59.7173 66.1456 59.7173Z" fill="#E35C5B"/>
<path d="M56.8841 42.0121C56.8841 41.7549 56.6764 41.5479 56.423 41.5479H54.3791C54.1236 41.5479 53.918 41.757 53.918 42.0121C53.918 42.2672 54.1257 42.4763 54.3791 42.4763H56.423C56.6784 42.4763 56.8841 42.2672 56.8841 42.0121Z" fill="#E35C5B"/>
<path d="M60.7208 41.2507C60.5401 41.0688 60.2472 41.0688 60.0665 41.2507C59.8754 41.4431 59.6199 41.5476 59.3499 41.5476H58.465C58.2095 41.5476 58.0039 41.7567 58.0039 42.0119C58.0039 42.267 58.2116 42.4761 58.465 42.4761H59.3499C59.8671 42.4761 60.3531 42.2732 60.7187 41.9073C60.8994 41.7254 60.9015 41.4305 60.7187 41.2486L60.7208 41.2507Z" fill="#E35C5B"/>
<path d="M57.9698 59.7173H55.926C55.6705 59.7173 55.4648 59.9264 55.4648 60.1815C55.4648 60.4366 55.6726 60.6457 55.926 60.6457H57.9698C58.2253 60.6457 58.431 60.4366 58.431 60.1815C58.431 59.9264 58.2232 59.7173 57.9698 59.7173Z" fill="#E35C5B"/>
<path d="M62.0597 59.7173H60.0158C59.7603 59.7173 59.5547 59.9264 59.5547 60.1815C59.5547 60.4366 59.7624 60.6457 60.0158 60.6457H62.0597C62.3152 60.6457 62.5208 60.4366 62.5208 60.1815C62.5208 59.9264 62.3131 59.7173 62.0597 59.7173Z" fill="#E35C5B"/>
<path d="M53.9388 59.7046C53.4008 59.6398 52.9314 59.3115 52.6821 58.8263C52.5658 58.5984 52.2875 58.5085 52.059 58.6256C51.8326 58.7427 51.7433 59.025 51.8596 59.2529C52.2501 60.0141 52.9854 60.5285 53.8287 60.6288C53.8474 60.6309 53.8661 60.633 53.8848 60.633C54.1154 60.633 54.3148 60.4595 54.3438 60.2232C54.3729 59.9681 54.1922 59.7359 53.9388 59.7067V59.7046Z" fill="#E35C5B"/>
<path d="M52.5043 57.0218V54.9642C52.5043 54.707 52.2966 54.5 52.0431 54.5C51.7897 54.5 51.582 54.7091 51.582 54.9642V57.0218C51.582 57.279 51.7897 57.4861 52.0431 57.4861C52.2966 57.4861 52.5043 57.277 52.5043 57.0218Z" fill="#E35C5B"/>
<path d="M52.0431 49.2575C52.2986 49.2575 52.5043 49.0484 52.5043 48.7933V46.7357C52.5043 46.4785 52.2966 46.2715 52.0431 46.2715C51.7897 46.2715 51.582 46.4806 51.582 46.7357V48.7933C51.582 49.0505 51.7897 49.2575 52.0431 49.2575Z" fill="#E35C5B"/>
<path d="M52.0413 45.1425C52.2968 45.1425 52.5024 44.9334 52.5024 44.6783V44.12C52.5024 43.7269 52.6437 43.3463 52.8971 43.0473C53.0633 42.8528 53.0425 42.558 52.8493 42.3907C52.6561 42.2234 52.3633 42.2443 52.1971 42.4388C51.7983 42.9051 51.5781 43.501 51.5781 44.1179V44.6762C51.5781 44.9334 51.7858 45.1404 52.0392 45.1404L52.0413 45.1425Z" fill="#E35C5B"/>
<path d="M52.0431 53.3708C52.2986 53.3708 52.5043 53.1617 52.5043 52.9066V50.849C52.5043 50.5918 52.2966 50.3848 52.0431 50.3848C51.7897 50.3848 51.582 50.5939 51.582 50.849V52.9066C51.582 53.1638 51.7897 53.3708 52.0431 53.3708Z" fill="#E35C5B"/>
<path d="M94.7511 59.7173H92.7072C92.4517 59.7173 92.2461 59.9264 92.2461 60.1815C92.2461 60.4366 92.4538 60.6457 92.7072 60.6457H94.7511C95.0066 60.6457 95.2122 60.4366 95.2122 60.1815C95.2122 59.9264 95.0045 59.7173 94.7511 59.7173Z" fill="#E35C5B"/>
<path d="M98.837 59.7173H96.7931C96.5377 59.7173 96.332 59.9264 96.332 60.1815C96.332 60.4366 96.5397 60.6457 96.7931 60.6457H98.837C99.0925 60.6457 99.2981 60.4366 99.2981 60.1815C99.2981 59.9264 99.0904 59.7173 98.837 59.7173Z" fill="#E35C5B"/>
<path d="M90.6651 59.7173H88.6213C88.3658 59.7173 88.1602 59.9264 88.1602 60.1815C88.1602 60.4366 88.3679 60.6457 88.6213 60.6457H90.6651C90.9206 60.6457 91.1263 60.4366 91.1263 60.1815C91.1263 59.9264 90.9186 59.7173 90.6651 59.7173Z" fill="#E35C5B"/>
<path d="M102.927 59.7173H100.883C100.628 59.7173 100.422 59.9264 100.422 60.1815C100.422 60.4366 100.63 60.6457 100.883 60.6457H102.927C103.182 60.6457 103.388 60.4366 103.388 60.1815C103.388 59.9264 103.18 59.7173 102.927 59.7173Z" fill="#E35C5B"/>
<path d="M107.013 59.7173H104.969C104.713 59.7173 104.508 59.9264 104.508 60.1815C104.508 60.4366 104.716 60.6457 104.969 60.6457H107.013C107.268 60.6457 107.474 60.4366 107.474 60.1815C107.474 59.9264 107.266 59.7173 107.013 59.7173Z" fill="#E35C5B"/>
<path d="M86.5792 59.7173H84.5353C84.2799 59.7173 84.0742 59.9264 84.0742 60.1815C84.0742 60.4366 84.2819 60.6457 84.5353 60.6457H86.5792C86.8347 60.6457 87.0403 60.4366 87.0403 60.1815C87.0403 59.9264 86.8326 59.7173 86.5792 59.7173Z" fill="#E35C5B"/>
<path d="M78.4073 59.7173H76.3635C76.108 59.7173 75.9023 59.9264 75.9023 60.1815C75.9023 60.4366 76.1101 60.6457 76.3635 60.6457H78.4073C78.6628 60.6457 78.8685 60.4366 78.8685 60.1815C78.8685 59.9264 78.6607 59.7173 78.4073 59.7173Z" fill="#E35C5B"/>
<path d="M70.2316 59.7173H68.1877C67.9322 59.7173 67.7266 59.9264 67.7266 60.1815C67.7266 60.4366 67.9343 60.6457 68.1877 60.6457H70.2316C70.487 60.6457 70.6927 60.4366 70.6927 60.1815C70.6927 59.9264 70.485 59.7173 70.2316 59.7173Z" fill="#E35C5B"/>
<path d="M74.3175 59.7173H72.2736C72.0181 59.7173 71.8125 59.9264 71.8125 60.1815C71.8125 60.4366 72.0202 60.6457 72.2736 60.6457H74.3175C74.573 60.6457 74.7786 60.4366 74.7786 60.1815C74.7786 59.9264 74.5709 59.7173 74.3175 59.7173Z" fill="#E35C5B"/>
<path d="M82.4933 59.7173H80.4494C80.1939 59.7173 79.9883 59.9264 79.9883 60.1815C79.9883 60.4366 80.196 60.6457 80.4494 60.6457H82.4933C82.7488 60.6457 82.9544 60.4366 82.9544 60.1815C82.9544 59.9264 82.7467 59.7173 82.4933 59.7173Z" fill="#E35C5B"/>
<path d="M113.971 57.421C112.611 57.421 111.489 58.4603 111.35 59.7923C111.277 59.7442 111.192 59.717 111.099 59.717H109.055C108.799 59.717 108.594 59.9261 108.594 60.1813C108.594 60.4364 108.801 60.6455 109.055 60.6455H111.099C111.205 60.6455 111.3 60.6078 111.377 60.5493C111.599 61.7893 112.675 62.7303 113.971 62.7303C115.427 62.7303 116.609 61.5426 116.609 60.0746C116.609 58.6067 115.43 57.4189 113.971 57.4189V57.421Z" fill="#E35C5B"/>
<path d="M179.333 106.526H0V108H179.333V106.526Z" fill="#D0E5FF"/>
</g>
<defs>
<clipPath id="clip0_1057_811">
<rect width="180" height="108" fill="white"/>
</clipPath>
</defs>
</svg>
