<svg width="60" height="60" viewBox="0 0 60 60" fill="none" xmlns="http://www.w3.org/2000/svg">
<circle cx="30" cy="30" r="30" fill="url(#paint0_linear_982_608)"/>
<path d="M41.8062 32.1725C41.8062 36.9889 39.6969 46.7271 28.5453 46.7271C25.1633 46.7271 22.4211 43.985 22.4211 40.6029V28.6217H18.1953V24.2834H22.4211V20.2545C22.4211 20.2545 22.5758 18.6795 20.5719 18.6795H18.5609V13.2725H20.5719C25.4164 13.2725 28.5453 13.9545 28.5453 20.2475V24.2834H32.7711V28.6217H28.5453V41.2287C32.4758 41.2287 34.2758 38.5076 35.0914 36.0537C33.7484 35.2803 32.8484 33.8318 32.8484 32.1725C32.8484 29.6975 34.8523 27.6936 37.3273 27.6936C40.0906 27.6936 41.8062 29.8873 41.8062 32.1725Z" fill="white"/>
<defs>
<linearGradient id="paint0_linear_982_608" x1="30" y1="0" x2="30" y2="60" gradientUnits="userSpaceOnUse">
<stop stop-color="#1751FF"/>
<stop offset="1" stop-color="#FF385C"/>
</linearGradient>
</defs>
</svg>
