<svg xmlns="http://www.w3.org/2000/svg" version="1.1" xmlns:xlink="http://www.w3.org/1999/xlink" width="72" height="72" x="0" y="0" viewBox="0 0 512 512" style="enable-background:new 0 0 512 512" xml:space="preserve" class=""><defs><linearGradient id="a" x1="294" x2="294" y1="512" y2="136" gradientUnits="userSpaceOnUse"><stop offset="0" stop-color="#a93aff"></stop><stop offset="1" stop-color="#ff81ff"></stop></linearGradient><linearGradient id="b" x1="210.5" x2="210.5" y1="361" y2="0" gradientUnits="userSpaceOnUse"><stop offset="0" stop-color="#ffbef9"></stop><stop offset="1" stop-color="#fff1ff"></stop></linearGradient></defs><g><linearGradient id="a" x1="294" x2="294" y1="512" y2="136" gradientUnits="userSpaceOnUse"><stop offset="0" stop-color="#a93aff"></stop><stop offset="1" stop-color="#ff81ff"></stop></linearGradient><linearGradient id="b" x1="210.5" x2="210.5" y1="361" y2="0" gradientUnits="userSpaceOnUse"><stop offset="0" stop-color="#ffbef9"></stop><stop offset="1" stop-color="#fff1ff"></stop></linearGradient><path fill="url(&quot;#a&quot;)" d="M106 136c-16.816 0-30 13.184-30 30s13.184 30 30 30 30-13.184 30-30-13.184-30-30-30zm90 30c0-16.816-13.184-30-30-30s-30 13.184-30 30 13.184 30 30 30 30-13.184 30-30zm30 30c16.816 0 30-13.184 30-30s-13.184-30-30-30-30 13.184-30 30 13.184 30 30 30zm277.709 287.582-.029-.015c-18.779-11.543-25.02-36.874-13.77-55.683C504.559 402.396 512 374.843 512 346c0-90.981-75.033-165-166-165-13.33 0-25.957 1.465-37.529 4.336-5.449 1.362-9.697 5.684-10.986 11.162-11.543 49.775-51.182 89.414-100.986 101.001a15.026 15.026 0 0 0-11.162 10.972C182.465 320.014 181 332.641 181 346c0 90.981 74.033 166 165 166h151c6.943 0 13.008-4.79 14.59-11.558 1.611-6.767-1.67-13.754-7.881-16.86z" opacity="1" data-original="url(#a)" class=""></path><path fill="url(&quot;#b&quot;)" d="M166 0C75.099 0 0 75.099 0 166c0 28.799 7.5 56.999 21.899 81.299C32.999 266.8 26.7 291.7 7.5 303.1c-6 3.3-8.699 10.199-6.899 16.8 1.8 6.599 7.5 11.1 14.399 11.1h151c13.2 0 26.1-1.5 37.2-4.2 60.901-14.1 109.5-62.701 123.6-123.3 2.701-11.4 4.2-24 4.2-37.5C331 75.099 256.901 0 166 0zm-60 181c-8.401 0-15-6.601-15-15 0-8.401 6.599-15 15-15s15 6.599 15 15c0 8.399-6.599 15-15 15zm60 0c-8.401 0-15-6.601-15-15 0-8.401 6.599-15 15-15s15 6.599 15 15c0 8.399-6.599 15-15 15zm60 0c-8.401 0-15-6.601-15-15 0-8.401 6.599-15 15-15s15 6.599 15 15c0 8.399-6.599 15-15 15zm60 150c-8.284 0-15 6.716-15 15s6.716 15 15 15 15-6.716 15-15-6.716-15-15-15zm60 0c-8.284 0-15 6.716-15 15s6.716 15 15 15 15-6.716 15-15-6.716-15-15-15zm60 0c-8.284 0-15 6.716-15 15s6.716 15 15 15 15-6.716 15-15-6.716-15-15-15z" opacity="1" data-original="url(#b)"></path></g></svg>