<svg width="55" height="48" viewBox="0 0 55 48" fill="none" xmlns="http://www.w3.org/2000/svg">
<g clip-path="url(#clip0_1097_635)">
<path opacity="0.24" d="M54.9796 0.000334049C53.1028 0.0346083 51.3712 0.0963019 49.685 0.19227L49.7485 1.32789C51.4189 1.23192 53.1346 1.17023 55 1.13596L54.9796 -0.0019509L54.9796 0.000334049ZM44.3995 0.621841C42.5816 0.818346 40.8115 1.06512 39.1366 1.3576L39.3295 2.47951C40.9794 2.1916 42.7246 1.9494 44.5197 1.75518L44.3995 0.624126L44.3995 0.621841ZM33.9351 2.47037C32.174 2.92279 30.4583 3.45061 28.8401 4.03556L29.2237 5.1072C30.81 4.53368 32.4894 4.01728 34.2165 3.57171L33.9373 2.46808L33.9351 2.47037ZM23.9245 6.12172C23.1143 6.52159 22.311 6.94659 21.5416 7.38758C20.7791 7.82401 20.0188 8.29471 19.2812 8.78826L19.9076 9.73651C20.6225 9.25667 21.3601 8.79968 22.0999 8.37697C22.8511 7.9474 23.6318 7.53382 24.4215 7.14538L23.9245 6.124L23.9245 6.12172ZM15.0465 12.0854C13.7075 13.2919 12.4548 14.5943 11.3223 15.9607L12.1892 16.6896C13.2854 15.3666 14.5018 14.1031 15.7999 12.9354L15.0465 12.0877L15.0465 12.0854ZM8.2177 20.3593C7.28269 21.9359 6.49519 23.5719 5.87336 25.2239L6.93092 25.6261C7.52779 24.038 8.28578 22.4637 9.18675 20.9419L8.21543 20.3593L8.2177 20.3593ZM4.47311 30.4519C4.18262 32.2479 4.08504 34.0644 4.18262 35.8421L5.31281 35.7781C5.21976 34.0804 5.31281 32.3484 5.58968 30.6347L4.47311 30.4519Z" fill="#0079FF"/>
<path d="M5.77574 47.9995L-3.83533e-08 38.2153L4.80442 39.1476L9.73365 37.3379L5.77574 47.9995Z" fill="#0079FF"/>
</g>
<defs>
<clipPath id="clip0_1097_635">
<rect width="48" height="55" fill="white" transform="matrix(-4.37114e-08 1 1 4.37114e-08 0 0)"/>
</clipPath>
</defs>
</svg>
