<svg width="57" height="48" viewBox="0 0 57 48" fill="none" xmlns="http://www.w3.org/2000/svg">
<g clip-path="url(#clip0_1097_629)">
<path opacity="0.32" d="M1.01923 0.000328806C2.90824 0.0345914 4.65106 0.096264 6.34819 0.192199L6.28423 1.32743C4.60308 1.2315 2.87625 1.16982 0.998669 1.13556L1.01923 -0.00195536L1.01923 0.000328806ZM11.668 0.621623C13.4976 0.818061 15.2793 1.06475 16.965 1.35713L16.7708 2.47865C15.1103 2.19085 13.3537 1.94872 11.547 1.75457L11.668 0.623907L11.668 0.621623ZM22.2003 2.46951C23.9728 2.92178 25.6997 3.44942 27.3283 4.03417L26.9422 5.10544C25.3456 4.53212 23.6553 4.0159 21.9171 3.57048L22.198 2.46723L22.2003 2.46951ZM32.2758 6.11961C33.0912 6.51934 33.8998 6.9442 34.6742 7.38504C35.4416 7.82132 36.2068 8.29186 36.9492 8.78524L36.3188 9.73317C35.5992 9.25349 34.8569 8.79666 34.1122 8.37409C33.3562 7.94466 32.5704 7.53123 31.7755 7.14292L32.2758 6.1219L32.2758 6.11961ZM41.2114 12.0813C42.5591 13.2873 43.82 14.5893 44.9598 15.9552L44.0872 16.6839C42.984 15.3614 41.7596 14.0982 40.4531 12.931L41.2114 12.0836L41.2114 12.0813ZM48.0845 20.3523C49.0256 21.9283 49.8182 23.5638 50.444 25.2153L49.3796 25.6173C48.7789 24.0298 48.016 22.456 47.1092 20.9347L48.0868 20.3523L48.0845 20.3523ZM51.8534 30.4414C52.1457 32.2368 52.244 34.0527 52.1457 35.8298L51.0082 35.7658C51.1019 34.0687 51.0082 32.3373 50.7296 30.6242L51.8534 30.4414Z" fill="#0079FF"/>
<path d="M50.5423 47.9841L56.3555 38.2033L51.5199 39.1352L46.5587 37.3262L50.5423 47.9841Z" fill="#0079FF"/>
</g>
<defs>
<clipPath id="clip0_1097_629">
<rect width="47.9835" height="55.3568" fill="white" transform="translate(56.3555) rotate(90)"/>
</clipPath>
</defs>
</svg>
