<svg width="72" height="72" viewBox="0 0 72 72" fill="none" xmlns="http://www.w3.org/2000/svg">
<g id="Frame" clip-path="url(#clip0_1086_1602)">
<g id="Group">
<path id="Vector" d="M36 72C55.8823 72 72 55.8823 72 36C72 16.1177 55.8823 0 36 0C16.1177 0 0 16.1177 0 36C0 55.8823 16.1177 72 36 72Z" fill="url(#paint0_linear_1086_1602)"/>
<path id="Vector_2" d="M42.2454 38.4979V32.3782C39.3985 32.9588 37.2492 35.4813 37.2492 38.4979C37.2492 41.9414 40.0499 44.7433 43.4946 44.7433C46.51 44.7433 49.035 42.594 49.6156 39.7471H43.4946C43.3306 39.7471 43.1681 39.7148 43.0165 39.6521C42.8649 39.5893 42.7272 39.4973 42.6112 39.3813C42.4952 39.2653 42.4032 39.1276 42.3404 38.976C42.2777 38.8244 42.2454 38.662 42.2454 38.4979ZM44.7436 24.8213V22.2598H45.9927C46.1567 22.2599 46.3192 22.2276 46.4708 22.1649C46.6223 22.1022 46.7601 22.0102 46.8761 21.8942C46.9921 21.7782 47.0841 21.6404 47.1468 21.4888C47.2096 21.3373 47.2418 21.1748 47.2417 21.0108C47.2418 20.8467 47.2096 20.6842 47.1468 20.5327C47.0841 20.3811 46.9921 20.2433 46.8761 20.1273C46.7601 20.0113 46.6223 19.9193 46.4708 19.8566C46.3192 19.7939 46.1567 19.7616 45.9927 19.7617H40.9963C40.8322 19.7616 40.6698 19.7939 40.5182 19.8566C40.3666 19.9193 40.2289 20.0113 40.1129 20.1273C39.9969 20.2433 39.9049 20.3811 39.8421 20.5327C39.7794 20.6842 39.7471 20.8467 39.7472 21.0108C39.7471 21.1748 39.7794 21.3373 39.8421 21.4888C39.9049 21.6404 39.9969 21.7782 40.1129 21.8942C40.2289 22.0102 40.3666 22.1022 40.5182 22.1649C40.6698 22.2276 40.8322 22.2599 40.9963 22.2598H42.2453V24.8213C35.254 25.4553 29.7546 31.3435 29.7546 38.4979C29.7546 46.0741 35.9194 52.2378 43.4945 52.2378C51.0694 52.2378 57.2344 46.0741 57.2344 38.4979C57.2344 31.3433 51.735 25.4553 44.7436 24.8213ZM43.4945 47.2414C38.6737 47.2414 34.7508 43.3185 34.7508 38.4979C34.7508 33.6773 38.6737 29.7542 43.4945 29.7542C43.6585 29.7542 43.821 29.7864 43.9726 29.8491C44.1241 29.9119 44.2619 30.0039 44.3779 30.1199C44.4939 30.2359 44.5859 30.3736 44.6486 30.5252C44.7113 30.6768 44.7436 30.8392 44.7435 31.0033V37.2487H50.9889C51.153 37.2486 51.3154 37.2809 51.467 37.3436C51.6186 37.4063 51.7563 37.4983 51.8723 37.6143C51.9883 37.7303 52.0803 37.8681 52.1431 38.0197C52.2058 38.1712 52.2381 38.3337 52.238 38.4977C52.2381 43.3185 48.3151 47.2414 43.4945 47.2414ZM27.6955 44.7432H18.5129C18.3488 44.7431 18.1863 44.7753 18.0348 44.8381C17.8832 44.9008 17.7455 44.9928 17.6295 45.1088C17.5135 45.2248 17.4215 45.3625 17.3587 45.5141C17.296 45.6657 17.2637 45.8282 17.2638 45.9922C17.2637 46.1563 17.296 46.3187 17.3587 46.4703C17.4215 46.6219 17.5135 46.7596 17.6295 46.8756C17.7455 46.9916 17.8832 47.0836 18.0348 47.1464C18.1863 47.2091 18.3488 47.2413 18.5129 47.2412H27.6955C27.8596 47.2413 28.022 47.2091 28.1736 47.1464C28.3252 47.0836 28.4629 46.9916 28.5789 46.8756C28.6949 46.7596 28.7869 46.6219 28.8497 46.4703C28.9124 46.3187 28.9447 46.1563 28.9446 45.9922C28.9447 45.8282 28.9124 45.6657 28.8497 45.5141C28.787 45.3625 28.695 45.2248 28.579 45.1088C28.463 44.9928 28.3252 44.9008 28.1736 44.838C28.0221 44.7753 27.8596 44.7431 27.6955 44.7432ZM27.2564 38.4979C27.2565 38.3338 27.2242 38.1714 27.1615 38.0198C27.0987 37.8682 27.0067 37.7305 26.8907 37.6145C26.7747 37.4985 26.637 37.4065 26.4854 37.3437C26.3338 37.281 26.1714 37.2488 26.0073 37.2489H16.0147C15.8506 37.2488 15.6881 37.281 15.5366 37.3437C15.385 37.4065 15.2473 37.4985 15.1313 37.6145C15.0153 37.7305 14.9233 37.8682 14.8605 38.0198C14.7978 38.1714 14.7655 38.3338 14.7656 38.4979C14.7655 38.6619 14.7978 38.8244 14.8605 38.976C14.9233 39.1276 15.0153 39.2653 15.1313 39.3813C15.2473 39.4973 15.385 39.5893 15.5366 39.652C15.6881 39.7148 15.8506 39.747 16.0147 39.7469H26.0073C26.1714 39.747 26.3338 39.7148 26.4854 39.652C26.637 39.5893 26.7747 39.4973 26.8907 39.3813C27.0067 39.2653 27.0987 39.1276 27.1615 38.976C27.2242 38.8244 27.2565 38.6619 27.2564 38.4979ZM27.6955 29.7542H18.5129C18.3488 29.7542 18.1863 29.7864 18.0348 29.8491C17.8832 29.9119 17.7455 30.0039 17.6295 30.1199C17.5135 30.2359 17.4215 30.3736 17.3587 30.5252C17.296 30.6768 17.2637 30.8392 17.2638 31.0033C17.2637 31.1673 17.296 31.3298 17.3587 31.4814C17.4215 31.633 17.5135 31.7707 17.6295 31.8867C17.7455 32.0027 17.8832 32.0947 18.0348 32.1574C18.1863 32.2202 18.3488 32.2524 18.5129 32.2523H27.6955C27.8596 32.2524 28.022 32.2202 28.1736 32.1574C28.3252 32.0947 28.4629 32.0027 28.5789 31.8867C28.6949 31.7707 28.7869 31.633 28.8497 31.4814C28.9124 31.3298 28.9447 31.1673 28.9446 31.0033C28.9447 30.8392 28.9124 30.6768 28.8497 30.5252C28.787 30.3736 28.695 30.2358 28.579 30.1198C28.463 30.0038 28.3252 29.9118 28.1736 29.8491C28.0221 29.7864 27.8596 29.7541 27.6955 29.7542Z" fill="#FDFDFD"/>
</g>
</g>
<defs>
<linearGradient id="paint0_linear_1086_1602" x1="36" y1="72" x2="36" y2="0" gradientUnits="userSpaceOnUse">
<stop stop-color="#FFA50A"/>
<stop offset="1" stop-color="#FF4155"/>
</linearGradient>
<clipPath id="clip0_1086_1602">
<rect width="72" height="72" fill="white"/>
</clipPath>
</defs>
</svg>
