<svg width="72" height="72" viewBox="0 0 72 72" fill="none" xmlns="http://www.w3.org/2000/svg">
<g clip-path="url(#clip0_1086_1631)">
<path d="M72 36C72 55.8825 55.8825 72 36 72C16.1175 72 0 55.8825 0 36C0 16.1175 16.1175 0 36 0C55.8825 0 72 16.1175 72 36Z" fill="url(#paint0_linear_1086_1631)"/>
<path d="M46.0724 30.0265L42.5902 19.9824L40.2281 20.8013L43.4264 30.0265H28.5738L31.7721 20.8013L29.41 19.9824L25.9278 30.0265H17.2505V32.5265H18.8849L21.9102 47.8591C22.1313 49.0355 22.7591 50.0967 23.6838 50.8569C24.6084 51.6171 25.771 52.0278 26.968 52.0173H45.0322C46.229 52.0279 47.3914 51.6173 48.316 50.8573C49.2406 50.0973 49.8685 49.0364 50.0897 47.8602L53.1153 32.5268H54.7501V30.0268L46.0724 30.0265ZM30.4524 45.5716H27.9524V36.4719H30.4524V45.5716ZM37.2158 46.3599H34.7158V35.6835H37.2158V46.3599ZM43.9767 45.5716H41.4767V36.4719H43.9767V45.5716Z" fill="white"/>
</g>
<defs>
<linearGradient id="paint0_linear_1086_1631" x1="0" y1="36" x2="72" y2="36" gradientUnits="userSpaceOnUse">
<stop stop-color="#00F38D"/>
<stop offset="1" stop-color="#009EFF"/>
</linearGradient>
<clipPath id="clip0_1086_1631">
<rect width="72" height="72" fill="white"/>
</clipPath>
</defs>
</svg>
