<svg width="41" height="40" viewBox="0 0 41 40" fill="none" xmlns="http://www.w3.org/2000/svg">
<path fill-rule="evenodd" clip-rule="evenodd" d="M23.0111 16.7339C23.0111 18.6538 23.0597 20.255 22.0892 21.9599C21.3061 23.3463 20.0585 24.1986 18.6791 24.1986C16.787 24.1986 15.6779 22.7571 15.6779 20.6292C15.6779 16.4288 19.4416 15.6664 23.0111 15.6664V16.7339ZM27.9807 28.7456C27.6551 29.0367 27.1838 29.0576 26.8164 28.8635C25.1806 27.5049 24.8826 26.8742 23.9885 25.5781C21.2852 28.3367 19.3654 29.1616 15.865 29.1616C11.7132 29.1616 8.49023 26.6038 8.49023 21.4819C8.49023 17.4825 10.6527 14.7585 13.744 13.4276C16.4196 12.2493 20.1555 12.0414 23.0113 11.7156V11.078C23.0113 9.90657 23.1012 8.52031 22.4081 7.5084C21.8121 6.60046 20.6614 6.22611 19.6426 6.22611C17.7641 6.22611 16.0938 7.18946 15.6849 9.18573C15.6016 9.62935 15.2758 10.066 14.8254 10.0868L10.0497 9.57394C9.64784 9.48381 9.19722 9.15803 9.31505 8.54117C10.4102 2.74676 15.6502 1 20.3359 1C22.7341 1 25.8669 1.63772 27.7592 3.45375C30.1572 5.69253 29.9286 8.6797 29.9286 11.9306V19.6103C29.9286 21.9185 30.8852 22.9302 31.7862 24.1779C32.0983 24.6216 32.1674 25.1553 31.7655 25.4879C30.7604 26.3266 28.9721 27.8861 27.9879 28.7595L27.9807 28.7456Z" fill="black"/>
<path fill-rule="evenodd" clip-rule="evenodd" d="M36.1598 33.06C31.7793 36.2888 25.4299 38.0115 19.9632 38.0115C12.298 38.0115 5.39741 35.1764 0.176762 30.4612C-0.233316 30.0903 0.134172 29.585 0.62634 29.8738C6.26038 33.1519 13.2267 35.1239 20.4226 35.1239C25.2757 35.1239 30.6144 34.1199 35.5233 32.0362C36.2648 31.7212 36.885 32.5218 36.1598 33.06Z" fill="#FF9900"/>
<path fill-rule="evenodd" clip-rule="evenodd" d="M37.9783 30.9759C37.4205 30.2605 34.2769 30.6379 32.8659 30.8052C32.4361 30.8578 32.3705 30.4837 32.7577 30.2146C35.2613 28.4526 39.3696 28.9612 39.8486 29.5518C40.3277 30.1457 39.7239 34.2638 37.3712 36.2293C37.0103 36.5312 36.6657 36.3704 36.8265 35.97C37.3548 34.651 38.5394 31.6945 37.9783 30.9759Z" fill="#FF9900"/>
</svg>
