<svg width="40" height="40" viewBox="0 0 40 40" fill="none" xmlns="http://www.w3.org/2000/svg">
<g clip-path="url(#clip0_862_6798)">
<path d="M35.6139 36.2526C29.4932 41.2491 10.3816 41.2491 4.38583 36.2526C-1.73487 31.2561 -1.11032 9.89616 4.38583 4.27511C9.88199 -1.34594 30.1178 -1.34594 35.6139 4.27511C41.1101 9.89616 41.7346 31.2562 35.6139 36.2526Z" fill="#0074E4"/>
<path d="M20.1251 27.5088C14.629 31.8807 8.50826 34.1291 2.76232 34.254C-1.48474 27.0091 -0.610313 9.39652 4.38619 4.27513C8.88302 -0.346602 22.9981 -1.22103 31.1174 1.65194C33.116 9.89618 28.9939 20.3887 20.1251 27.5088Z" fill="#4D9EEC"/>
<path d="M26.3705 30.6316L24.3719 26.0098H15.5032L13.5046 30.6316H8.50806L17.6266 9.39648H22.2484L31.3669 30.6316H26.3705ZM20 15.7671L17.3768 21.8878H22.7481L20 15.7671Z" fill="white"/>
</g>
<defs>
<clipPath id="clip0_862_6798">
<rect width="40" height="40" fill="white"/>
</clipPath>
</defs>
</svg>
