<svg width="113" height="38" viewBox="0 0 113 38" fill="none" xmlns="http://www.w3.org/2000/svg">
<g clip-path="url(#clip0_326_2729)">
<path d="M104.001 0.0001235H9.0037C8.65742 0.0001235 8.31529 0.0001235 7.96993 0.0020235C7.68083 0.0039235 7.39403 0.009443 7.10216 0.0140885C6.46807 0.0215952 5.83547 0.0777159 5.20985 0.181963C4.58512 0.28848 3.97996 0.489293 3.41483 0.777613C2.8504 1.06837 2.33466 1.44618 1.88633 1.89734C1.43564 2.34723 1.05995 2.86724 0.773721 3.43738C0.486698 4.00638 0.287675 4.61612 0.183527 5.24553C0.0783881 5.87415 0.021812 6.51002 0.0143063 7.14743C0.0055431 7.4387 0.00461768 7.73094 0 8.02225V29.9808C0.00461768 30.2758 0.0055431 30.5615 0.0143063 30.8566C0.0218143 31.494 0.0783904 32.1298 0.183527 32.7584C0.287388 33.3882 0.486422 33.9983 0.773721 34.5675C1.05982 35.1358 1.43556 35.6537 1.88633 36.1011C2.33296 36.5542 2.84903 36.9323 3.41483 37.2208C3.97995 37.5099 4.58505 37.7119 5.20985 37.8201C5.83557 37.9235 6.46811 37.9797 7.10216 37.9881C7.39403 37.9945 7.68083 37.9982 7.96993 37.9982C8.31528 38.0001 8.65744 38.0001 9.0037 38.0001H104.001C104.341 38.0001 104.686 38.0001 105.025 37.9982C105.313 37.9982 105.608 37.9945 105.896 37.9881C106.528 37.9801 107.16 37.924 107.784 37.8201C108.411 37.7112 109.018 37.5092 109.586 37.2208C110.151 36.9321 110.667 36.5541 111.113 36.1011C111.563 35.6519 111.939 35.1344 112.229 34.5675C112.514 33.9979 112.711 33.3878 112.814 32.7584C112.919 32.1297 112.978 31.494 112.989 30.8566C112.993 30.5615 112.993 30.2758 112.993 29.9808C113 29.6357 113 29.2924 113 28.9417V9.05945C113 8.71155 113 8.36643 112.993 8.02225C112.993 7.73094 112.993 7.4387 112.989 7.14739C112.978 6.50992 112.919 5.8742 112.814 5.24549C112.711 4.61644 112.514 4.00675 112.229 3.43734C111.646 2.29456 110.722 1.36435 109.586 0.777527C109.018 0.489912 108.411 0.289152 107.784 0.181877C107.16 0.0771711 106.528 0.0210309 105.896 0.0139555C105.608 0.0093195 105.313 0.0037525 105.025 0.0019C104.686 0 104.341 0 104.001 0V0.0001235Z" fill="#ECF1F4"/>
<path d="M7.97437 37.1686C7.68665 37.1686 7.40589 37.1649 7.12044 37.1584C6.52909 37.1506 5.93913 37.0989 5.35539 37.0034C4.81108 36.9091 4.28379 36.7337 3.79091 36.4829C3.30255 36.2343 2.85713 35.9082 2.47171 35.5172C2.08071 35.1308 1.75518 34.6826 1.50803 34.1905C1.25816 33.6952 1.08523 33.1642 0.995271 32.6162C0.898125 32.0273 0.845564 31.4318 0.838043 30.8349C0.832057 30.6346 0.824219 29.9675 0.824219 29.9675V8.02193C0.824219 8.02193 0.832566 7.36509 0.838091 7.17211C0.845292 6.57616 0.897547 5.98163 0.994402 5.39365C1.08453 4.84409 1.25759 4.31162 1.5076 3.81465C1.75384 3.32285 2.07756 2.87437 2.4662 2.4866C2.85441 2.09515 3.30126 1.76738 3.79045 1.51525C4.28219 1.26529 4.80849 1.0911 5.3517 0.998511C5.93735 0.902149 6.52936 0.850051 7.12276 0.842654L7.97483 0.831055H105.02L105.882 0.84312C106.47 0.850149 107.057 0.901782 107.637 0.99758C108.186 1.09133 108.718 1.26674 109.215 1.51804C110.195 2.02614 110.993 2.83001 111.496 3.81697C111.742 4.3105 111.912 4.83864 112.001 5.38345C112.099 5.97625 112.154 6.57546 112.165 7.1763C112.168 7.44534 112.168 7.73432 112.168 8.02193C112.175 8.37818 112.175 8.71726 112.175 9.05913V28.9414C112.175 29.2865 112.175 29.6233 112.168 29.9628C112.168 30.2717 112.168 30.5548 112.164 30.846C112.153 31.4361 112.099 32.0247 112.003 32.6068C111.915 33.1589 111.743 33.6939 111.493 34.1933C111.244 34.6801 110.92 35.1244 110.534 35.5098C110.148 35.9029 109.702 36.2309 109.212 36.4811C108.716 36.7338 108.186 36.9099 107.637 37.0034C107.054 37.0994 106.464 37.1512 105.872 37.1584C105.596 37.1649 105.306 37.1686 105.025 37.1686L104.001 37.1705L7.97437 37.1686Z" fill="#FDFDFD"/>
<path d="M23.3893 19.2867C23.3994 18.4938 23.6088 17.7163 23.9979 17.0266C24.3869 16.337 24.9431 15.7575 25.6146 15.3422C25.188 14.7293 24.6253 14.2249 23.971 13.8691C23.3168 13.5133 22.5891 13.3158 21.8457 13.2924C20.26 13.125 18.7227 14.247 17.9146 14.247C17.0909 14.247 15.8468 13.3091 14.5071 13.3368C13.6405 13.3649 12.796 13.6185 12.0558 14.0726C11.3155 14.5268 10.7049 15.1661 10.2833 15.9283C8.45697 19.1093 9.81922 23.7843 11.5687 26.3555C12.4439 27.6146 13.4669 29.021 14.8054 28.9712C16.1152 28.9165 16.6044 28.1309 18.1855 28.1309C19.7519 28.1309 20.2108 28.9712 21.5765 28.9395C22.982 28.9165 23.8675 27.6748 24.7121 26.4038C25.341 25.5066 25.8249 24.5151 26.1459 23.4659C25.3294 23.1184 24.6326 22.5369 24.1423 21.7937C23.6521 21.0505 23.3902 20.1786 23.3893 19.2867Z" fill="#222C34"/>
<path d="M20.8099 11.6012C21.5762 10.6757 21.9538 9.48618 21.8623 8.28516C20.6916 8.40887 19.6101 8.9718 18.8334 9.86179C18.4537 10.2966 18.1628 10.8024 17.9775 11.3503C17.7922 11.8982 17.716 12.4775 17.7534 13.0551C18.339 13.0612 18.9183 12.9335 19.4478 12.6816C19.9772 12.4298 20.4429 12.0604 20.8099 11.6012Z" fill="#222C34"/>
<path d="M39.9462 25.7833H35.4764L34.403 28.9719H32.5098L36.7435 17.1748H38.7105L42.9442 28.9719H41.0187L39.9462 25.7833ZM35.9393 24.3119H39.4824L37.7358 19.137H37.6869L35.9393 24.3119Z" fill="#222C34"/>
<path d="M52.0886 24.6719C52.0886 27.3447 50.6666 29.0619 48.5207 29.0619C47.9771 29.0905 47.4364 28.9645 46.9607 28.6984C46.485 28.4323 46.0933 28.0367 45.8307 27.5571H45.7901V31.8173H44.0352V20.3709H45.7338V21.8014H45.7661C46.0409 21.3241 46.4391 20.9306 46.9185 20.6629C47.3978 20.3951 47.9404 20.2631 48.4884 20.2809C50.6582 20.2809 52.0886 22.0065 52.0886 24.6719ZM50.2848 24.6719C50.2848 22.9305 49.3903 21.7857 48.0254 21.7857C46.6846 21.7857 45.7827 22.9546 45.7827 24.6719C45.7827 26.4049 46.6846 27.5655 48.0254 27.5655C49.3903 27.5655 50.2848 26.429 50.2848 24.6719Z" fill="#222C34"/>
<path d="M61.4968 24.6718C61.4968 27.3447 60.0748 29.0619 57.9289 29.0619C57.3853 29.0905 56.8446 28.9645 56.3689 28.6984C55.8932 28.4323 55.5015 28.0367 55.2389 27.5571H55.1983V31.8172H53.4434V20.3709H55.142V21.8014H55.1743C55.449 21.3241 55.8473 20.9306 56.3266 20.6629C56.806 20.3951 57.3486 20.2631 57.8966 20.2809C60.0665 20.2809 61.4968 22.0065 61.4968 24.6718ZM59.693 24.6718C59.693 22.9305 58.7985 21.7857 57.4336 21.7857C56.0928 21.7857 55.1909 22.9546 55.1909 24.6718C55.1909 26.4049 56.0928 27.5655 57.4336 27.5655C58.7985 27.5655 59.693 26.429 59.693 24.6718H59.693Z" fill="#222C34"/>
<path d="M67.7164 25.6854C67.8464 26.8552 68.9761 27.6234 70.5198 27.6234C71.9989 27.6234 73.0631 26.8552 73.0631 25.8004C73.0631 24.8847 72.4213 24.3364 70.9016 23.9607L69.3818 23.5923C67.2285 23.0691 66.2289 22.056 66.2289 20.4121C66.2289 18.3766 67.9921 16.9785 70.4958 16.9785C72.9737 16.9785 74.6723 18.3766 74.7295 20.4121H72.958C72.8519 19.2348 71.8846 18.5241 70.4709 18.5241C69.0572 18.5241 68.0898 19.2431 68.0898 20.2896C68.0898 21.1236 68.7077 21.6144 70.2191 21.9901L71.5111 22.3093C73.917 22.8817 74.9167 23.854 74.9167 25.5795C74.9167 27.7866 73.1692 29.1689 70.3897 29.1689C67.7892 29.1689 66.0334 27.8191 65.9199 25.6853L67.7164 25.6854Z" fill="#222C34"/>
<path d="M78.7036 18.3359V20.3714H80.3294V21.7695H78.7036V26.5111C78.7036 27.2478 79.0291 27.591 79.7438 27.591C79.9368 27.5876 80.1295 27.574 80.3211 27.5502V28.9399C79.9997 29.0003 79.6731 29.0277 79.3463 29.0216C77.6154 29.0216 76.9404 28.3675 76.9404 26.6994V21.7695H75.6973V20.3714H76.9403V18.3359H78.7036Z" fill="#222C34"/>
<path d="M81.2715 24.6724C81.2715 21.9662 82.8558 20.2656 85.3263 20.2656C87.8051 20.2656 89.382 21.9661 89.382 24.6724C89.382 27.386 87.8134 29.0791 85.3263 29.0791C82.8401 29.0791 81.2715 27.386 81.2715 24.6724ZM87.5939 24.6724C87.5939 22.816 86.7483 21.7203 85.3263 21.7203C83.9043 21.7203 83.0596 22.8243 83.0596 24.6724C83.0596 26.5362 83.9043 27.6235 85.3263 27.6235C86.7483 27.6235 87.5939 26.5362 87.5939 24.6724H87.5939Z" fill="#222C34"/>
<path d="M90.8301 20.3708H92.5038V21.8347H92.5444C92.6577 21.3775 92.9239 20.9735 93.2984 20.6905C93.6729 20.4075 94.1329 20.2628 94.6009 20.2808C94.8031 20.2801 95.0048 20.3022 95.2022 20.3467V21.998C94.9469 21.9195 94.6805 21.8835 94.4137 21.8913C94.1587 21.8809 93.9046 21.9262 93.6686 22.0239C93.4327 22.1216 93.2206 22.2696 93.0469 22.4576C92.8731 22.6456 92.7419 22.8692 92.6622 23.113C92.5825 23.3569 92.5561 23.6152 92.585 23.8702V28.9718H90.8301L90.8301 20.3708Z" fill="#222C34"/>
<path d="M103.292 26.4462C103.056 28.0076 101.545 29.0791 99.6109 29.0791C97.1238 29.0791 95.5801 27.4027 95.5801 24.7132C95.5801 22.0153 97.1321 20.2656 99.5371 20.2656C101.903 20.2656 103.39 21.9003 103.39 24.5082V25.113H97.3516V25.2197C97.3237 25.5363 97.3631 25.8551 97.4671 26.1552C97.5712 26.4552 97.7375 26.7296 97.955 26.96C98.1726 27.1904 98.4363 27.3717 98.7288 27.4916C99.0213 27.6116 99.3358 27.6676 99.6515 27.6559C100.066 27.695 100.482 27.5984 100.838 27.3804C101.194 27.1625 101.47 26.8348 101.626 26.4462L103.292 26.4462ZM97.3599 23.8791H101.634C101.65 23.5945 101.607 23.3097 101.508 23.0426C101.409 22.7754 101.257 22.5317 101.06 22.3267C100.863 22.1217 100.626 21.9599 100.364 21.8514C100.102 21.7429 99.8204 21.6901 99.5371 21.6962C99.2514 21.6945 98.9681 21.7497 98.7036 21.8587C98.4392 21.9677 98.1988 22.1283 97.9964 22.3313C97.794 22.5342 97.6335 22.7755 97.5243 23.0412C97.415 23.3069 97.3591 23.5917 97.3599 23.8792V23.8791Z" fill="#222C34"/>
<path d="M35.7188 8.29452C36.0868 8.26796 36.4559 8.32387 36.7998 8.45824C37.1436 8.5926 37.4535 8.80205 37.7071 9.0715C37.9608 9.34094 38.1518 9.66365 38.2664 10.0164C38.3811 10.3691 38.4165 10.743 38.3701 11.1111C38.3701 12.9221 37.3972 13.963 35.7188 13.963H33.6836V8.29452H35.7188ZM34.5587 13.1614H35.6211C35.884 13.1772 36.1471 13.1338 36.3912 13.0344C36.6354 12.935 36.8544 12.7821 37.0324 12.5869C37.2104 12.3916 37.3429 12.1588 37.4202 11.9055C37.4975 11.6522 37.5177 11.3848 37.4793 11.1227C37.5149 10.8616 37.4926 10.5958 37.4141 10.3444C37.3357 10.0929 37.2029 9.86208 37.0253 9.66835C36.8477 9.47461 36.6297 9.32279 36.3869 9.22377C36.1442 9.12474 35.8826 9.08096 35.6211 9.09557H34.5587V13.1614Z" fill="#222C34"/>
<path d="M39.3591 11.8231C39.3324 11.542 39.3643 11.2583 39.4529 10.9903C39.5416 10.7224 39.6849 10.476 39.8737 10.267C40.0625 10.058 40.2926 9.89106 40.5493 9.7768C40.806 9.66254 41.0837 9.60352 41.3644 9.60352C41.6451 9.60352 41.9227 9.66254 42.1794 9.7768C42.4361 9.89106 42.6663 10.058 42.8551 10.267C43.0439 10.476 43.1872 10.7224 43.2758 10.9903C43.3644 11.2583 43.3964 11.542 43.3696 11.8231C43.3969 12.1045 43.3653 12.3885 43.2769 12.6569C43.1885 12.9253 43.0453 13.1721 42.8565 13.3815C42.6676 13.5909 42.4373 13.7583 42.1803 13.8728C41.9234 13.9873 41.6454 14.0464 41.3644 14.0464C41.0833 14.0464 40.8054 13.9873 40.5484 13.8728C40.2914 13.7583 40.0611 13.5909 39.8723 13.3815C39.6834 13.1721 39.5402 12.9253 39.4518 12.6569C39.3634 12.3885 39.3319 12.1045 39.3591 11.8231ZM42.5065 11.8231C42.5065 10.8958 42.0924 10.3535 41.3658 10.3535C40.6363 10.3535 40.226 10.8958 40.226 11.8231C40.226 12.7578 40.6363 13.2959 41.3658 13.2959C42.0924 13.2959 42.5065 12.7541 42.5065 11.8231H42.5065Z" fill="#222C34"/>
<path d="M48.6998 13.9633H47.8293L46.9505 10.8127H46.8841L46.0089 13.9633H45.1467L43.9746 9.68555H44.8258L45.5875 12.9497H45.6502L46.5244 9.68555H47.3295L48.2037 12.9497H48.2701L49.0281 9.68555H49.8673L48.6998 13.9633Z" fill="#222C34"/>
<path d="M50.8535 9.68542H51.6613V10.365H51.7241C51.8304 10.1209 52.0099 9.9163 52.2373 9.77969C52.4648 9.64307 52.7289 9.58125 52.993 9.60284C53.1999 9.58719 53.4076 9.61858 53.6008 9.69467C53.794 9.77076 53.9677 9.88961 54.1091 10.0424C54.2504 10.1952 54.3558 10.3781 54.4174 10.5774C54.4789 10.7767 54.4951 10.9874 54.4648 11.1939V13.9632H53.6256V11.4059C53.6256 10.7185 53.3286 10.3766 52.708 10.3766C52.5675 10.37 52.4273 10.3941 52.2969 10.4471C52.1666 10.5001 52.0492 10.5809 51.9527 10.6839C51.8563 10.7868 51.7831 10.9096 51.7382 11.0436C51.6933 11.1777 51.6778 11.32 51.6927 11.4606V13.9632H50.8535L50.8535 9.68542Z" fill="#222C34"/>
<path d="M55.8008 8.01562H56.64V13.9633H55.8008V8.01562Z" fill="#222C34"/>
<path d="M57.8063 11.8222C57.7796 11.541 57.8116 11.2574 57.9002 10.9894C57.9889 10.7214 58.1322 10.475 58.321 10.2661C58.5099 10.0571 58.74 9.89009 58.9968 9.77583C59.2535 9.66156 59.5311 9.60254 59.8118 9.60254C60.0926 9.60254 60.3702 9.66156 60.6269 9.77583C60.8837 9.89009 61.1138 10.0571 61.3027 10.2661C61.4915 10.475 61.6348 10.7214 61.7234 10.9894C61.8121 11.2574 61.8441 11.541 61.8173 11.8222C61.8446 12.1036 61.8129 12.3876 61.7245 12.656C61.6361 12.9244 61.4929 13.1713 61.304 13.3806C61.1151 13.59 60.8848 13.7573 60.6278 13.8719C60.3708 13.9864 60.0929 14.0455 59.8118 14.0455C59.5308 14.0455 59.2528 13.9864 58.9959 13.8719C58.7389 13.7573 58.5086 13.59 58.3197 13.3806C58.1308 13.1713 57.9876 12.9244 57.8992 12.656C57.8107 12.3876 57.7791 12.1036 57.8063 11.8222ZM60.9537 11.8222C60.9537 10.8949 60.5397 10.3527 59.813 10.3527C59.0836 10.3527 58.6732 10.8949 58.6732 11.8222C58.6732 12.7569 59.0836 13.295 59.813 13.295C60.5397 13.295 60.9537 12.7532 60.9537 11.8222H60.9537Z" fill="#222C34"/>
<path d="M62.7031 12.7531C62.7031 11.9831 63.273 11.5392 64.2847 11.4761L65.4365 11.4093V11.0401C65.4365 10.5883 65.1395 10.3331 64.5659 10.3331C64.0975 10.3331 63.7729 10.5062 63.6797 10.8086H62.8673C62.953 10.0738 63.6401 9.60254 64.6047 9.60254C65.6707 9.60254 66.2719 10.1364 66.2719 11.0401V13.9629H65.4641V13.3617H65.3977C65.263 13.5774 65.0737 13.7532 64.8493 13.8712C64.6249 13.9892 64.3734 14.0451 64.1205 14.0334C63.942 14.052 63.7616 14.0329 63.5909 13.9771C63.4202 13.9214 63.263 13.8302 63.1295 13.7096C62.9959 13.589 62.889 13.4416 62.8156 13.2768C62.7421 13.1121 62.7038 12.9337 62.7031 12.7531ZM65.4365 12.3876V12.03L64.3981 12.0967C63.8125 12.1362 63.5469 12.3366 63.5469 12.7137C63.5469 13.0987 63.8789 13.3227 64.3354 13.3227C64.4692 13.3364 64.6043 13.3228 64.7327 13.2828C64.8611 13.2428 64.9803 13.1772 65.083 13.09C65.1857 13.0027 65.27 12.8956 65.3307 12.7749C65.3914 12.6543 65.4274 12.5225 65.4365 12.3876Z" fill="#222C34"/>
<path d="M67.373 11.8226C67.373 10.4709 68.0638 9.61459 69.1381 9.61459C69.4038 9.60227 69.6676 9.6663 69.8985 9.7992C70.1294 9.9321 70.3179 10.1284 70.4421 10.3651H70.5048V8.01562H71.3439V13.9633H70.5398V13.2875H70.4734C70.3397 13.5226 70.1446 13.7164 69.9092 13.848C69.6738 13.9795 69.4072 14.0438 69.1381 14.0338C68.0564 14.0339 67.373 13.1776 67.373 11.8226ZM68.2399 11.8226C68.2399 12.7299 68.6651 13.2759 69.3761 13.2759C70.0833 13.2759 70.5205 12.722 70.5205 11.8263C70.5205 10.9348 70.0788 10.373 69.3761 10.373C68.6696 10.373 68.2399 10.9227 68.2399 11.8226H68.2399Z" fill="#222C34"/>
<path d="M74.8181 11.8231C74.7913 11.542 74.8233 11.2583 74.9119 10.9903C75.0005 10.7224 75.1438 10.476 75.3327 10.267C75.5215 10.058 75.7516 9.89106 76.0083 9.7768C76.265 9.66254 76.5426 9.60352 76.8234 9.60352C77.1041 9.60352 77.3817 9.66254 77.6384 9.7768C77.8951 9.89106 78.1252 10.058 78.3141 10.267C78.5029 10.476 78.6462 10.7224 78.7348 10.9903C78.8234 11.2583 78.8554 11.542 78.8286 11.8231C78.8559 12.1045 78.8243 12.3885 78.7359 12.6569C78.6475 12.9253 78.5043 13.1721 78.3154 13.3815C78.1266 13.5909 77.8963 13.7583 77.6393 13.8728C77.3823 13.9873 77.1044 14.0464 76.8234 14.0464C76.5423 14.0464 76.2644 13.9873 76.0074 13.8728C75.7504 13.7583 75.5201 13.5909 75.3313 13.3815C75.1424 13.1721 74.9992 12.9253 74.9108 12.6569C74.8224 12.3885 74.7908 12.1045 74.8181 11.8231ZM77.9655 11.8231C77.9655 10.8958 77.5514 10.3535 76.8247 10.3535C76.0953 10.3535 75.685 10.8958 75.685 11.8231C75.685 12.7578 76.0953 13.2959 76.8247 13.2959C77.5514 13.2959 77.9655 12.7541 77.9655 11.8231Z" fill="#222C34"/>
<path d="M79.9531 9.68542H80.761V10.365H80.8237C80.9301 10.1209 81.1095 9.9163 81.3369 9.77969C81.5644 9.64307 81.8285 9.58125 82.0926 9.60284C82.2995 9.58719 82.5072 9.61858 82.7004 9.69467C82.8936 9.77076 83.0674 9.88961 83.2087 10.0424C83.35 10.1952 83.4554 10.3781 83.517 10.5774C83.5786 10.7767 83.5947 10.9874 83.5644 11.1939V13.9632H82.7252V11.4059C82.7252 10.7185 82.4283 10.3766 81.8076 10.3766C81.6672 10.37 81.5269 10.3941 81.3966 10.4471C81.2662 10.5001 81.1488 10.5809 81.0523 10.6839C80.9559 10.7868 80.8827 10.9096 80.8378 11.0436C80.793 11.1777 80.7774 11.32 80.7923 11.4606V13.9632H79.9531V9.68542Z" fill="#222C34"/>
<path d="M88.3062 8.62012V9.70464H89.2274V10.4157H88.3062V12.6154C88.3062 13.0635 88.4897 13.2597 88.9074 13.2597C89.0144 13.2594 89.1212 13.2529 89.2274 13.2402V13.9435C89.0767 13.9706 88.924 13.985 88.7709 13.9866C87.8377 13.9866 87.466 13.6563 87.466 12.8316V10.4157H86.791V9.7046H87.466V8.62012H88.3062Z" fill="#222C34"/>
<path d="M90.373 8.01562H91.2049V10.373H91.2712C91.3828 10.1266 91.5671 9.92089 91.7992 9.78376C92.0312 9.64663 92.2996 9.5848 92.5678 9.60669C92.7736 9.59543 92.9794 9.63 93.1704 9.70794C93.3614 9.78588 93.533 9.90527 93.6728 10.0576C93.8127 10.2099 93.9174 10.3914 93.9795 10.5891C94.0417 10.7869 94.0596 10.9959 94.0322 11.2015V13.9633H93.1922V11.4097C93.1922 10.7265 92.8758 10.3804 92.2829 10.3804C92.1387 10.3685 91.9936 10.3885 91.8578 10.4389C91.7221 10.4893 91.5989 10.5689 91.4969 10.6722C91.3949 10.7755 91.3166 10.9 91.2674 11.0369C91.2183 11.1738 91.1994 11.3199 91.2123 11.4649V13.9633H90.3731L90.373 8.01562Z" fill="#222C34"/>
<path d="M98.9264 12.8079C98.8124 13.1989 98.5654 13.5371 98.2286 13.7633C97.8917 13.9896 97.4866 14.0895 97.0839 14.0455C96.8038 14.053 96.5254 13.999 96.2681 13.8873C96.0107 13.7757 95.7806 13.609 95.5938 13.3989C95.4069 13.1889 95.2677 12.9404 95.1858 12.6708C95.1039 12.4011 95.0814 12.1168 95.1197 11.8375C95.0824 11.5574 95.1053 11.2724 95.187 11.002C95.2687 10.7316 95.4072 10.4819 95.5931 10.27C95.779 10.0581 96.008 9.88884 96.2645 9.77369C96.5211 9.65854 96.7993 9.6002 97.0802 9.60261C98.2634 9.60261 98.9772 10.4158 98.9772 11.7591V12.0537H95.9745V12.101C95.9614 12.258 95.981 12.416 96.0321 12.5649C96.0832 12.7138 96.1647 12.8504 96.2713 12.9657C96.378 13.0811 96.5074 13.1728 96.6513 13.2349C96.7952 13.2971 96.9504 13.3283 97.107 13.3265C97.3077 13.3508 97.5111 13.3144 97.6912 13.222C97.8714 13.1297 98.0201 12.9855 98.1186 12.8079L98.9264 12.8079ZM95.9745 11.4293H98.1223C98.1329 11.2857 98.1135 11.1415 98.0653 11.006C98.0172 10.8704 97.9414 10.7464 97.8429 10.6421C97.7443 10.5377 97.6251 10.4552 97.493 10.4C97.3608 10.3447 97.2187 10.3178 97.0756 10.3211C96.9305 10.3193 96.7864 10.3467 96.652 10.4018C96.5175 10.4568 96.3954 10.5384 96.2928 10.6417C96.1902 10.7449 96.1092 10.8678 96.0545 11.0031C95.9999 11.1384 95.9727 11.2833 95.9745 11.4293H95.9745Z" fill="#222C34"/>
</g>
<defs>
<clipPath id="clip0_326_2729">
<rect width="113" height="38" fill="white"/>
</clipPath>
</defs>
</svg>
