<svg width="40" height="40" viewBox="0 0 40 40" fill="none" xmlns="http://www.w3.org/2000/svg">
<g clip-path="url(#clip0_878_8084)">
<path d="M30.9103 21.2716C30.9503 18.1549 32.5836 15.2766 35.2386 13.6449C33.5569 11.2416 30.8386 9.77322 27.9069 9.68155C24.8219 9.35822 21.8319 11.5266 20.2603 11.5266C18.6586 11.5266 16.2386 9.71322 13.6319 9.76656C10.2036 9.87822 7.08361 11.7799 5.41528 14.7782C1.86361 20.9282 4.51194 29.9682 7.91528 34.9399C9.61861 37.3749 11.6069 40.0932 14.2119 39.9982C16.7603 39.8932 17.7119 38.3732 20.7869 38.3732C23.8336 38.3732 24.7269 39.9982 27.3836 39.9366C30.1169 39.8916 31.8403 37.4916 33.4836 35.0332C34.7069 33.2982 35.6486 31.3816 36.2719 29.3532C33.0253 27.9799 30.9136 24.7982 30.9103 21.2716Z" fill="#222831"/>
<path d="M25.8924 6.41167C27.3824 4.62167 28.1174 2.32167 27.939 0C25.6624 0.24 23.5574 1.32833 22.0474 3.04833C20.5557 4.74667 19.799 6.96667 19.9457 9.22333C22.254 9.24667 24.4457 8.21 25.8924 6.41167Z" fill="#222831"/>
</g>
<defs>
<clipPath id="clip0_878_8084">
<rect width="40" height="40" fill="white"/>
</clipPath>
</defs>
</svg>
