<svg width="18" height="19" viewBox="0 0 18 19" fill="none" xmlns="http://www.w3.org/2000/svg">
<g clip-path="url(#clip0_1598_1235)">
<path d="M0.00500488 5.30604C0.0290049 5.28204 0.0410049 5.25804 0.0410049 5.23404C0.125005 4.92204 0.281005 4.67904 0.509005 4.50504C0.737005 4.33104 1.007 4.24404 1.319 4.24404H7.637C7.697 4.25604 7.748 4.25004 7.79 4.22604C7.832 4.20204 7.877 4.16604 7.925 4.11804L9.653 1.92204C9.749 1.81404 9.854 1.74804 9.968 1.72404C10.082 1.70004 10.187 1.72404 10.283 1.79604C10.463 1.92804 10.517 2.10804 10.445 2.33604L9.851 4.06404C9.827 4.13604 9.821 4.18704 9.833 4.21704C9.845 4.24704 9.893 4.26204 9.977 4.26204C11.009 4.25004 12.545 4.24404 14.585 4.24404C15.005 4.24404 15.338 4.36704 15.584 4.61304C15.83 4.85904 15.953 5.19204 15.953 5.61204V5.99004C15.965 6.31404 15.965 6.56004 15.953 6.72804C15.953 6.80004 15.965 6.84504 15.989 6.86304C16.013 6.88104 16.061 6.89004 16.133 6.89004C16.385 6.89004 16.571 6.89604 16.691 6.90804C16.907 6.92004 17.09 7.00704 17.24 7.16904C17.39 7.33104 17.465 7.51404 17.465 7.71804V11.264C17.465 11.48 17.387 11.666 17.231 11.822C17.075 11.978 16.889 12.068 16.673 12.092C16.541 12.104 16.349 12.11 16.097 12.11C16.037 12.11 15.998 12.119 15.98 12.137C15.962 12.155 15.953 12.188 15.953 12.236C15.965 12.62 15.968 13.01 15.962 13.406C15.956 13.802 15.83 14.123 15.584 14.369C15.338 14.615 15.017 14.738 14.621 14.738H8.321C8.213 14.738 8.117 14.786 8.033 14.882C7.649 15.374 7.073 16.1 6.305 17.06C6.149 17.24 5.975 17.306 5.783 17.258C5.651 17.21 5.561 17.132 5.513 17.024C5.465 16.916 5.465 16.79 5.513 16.646L6.107 14.9C6.131 14.84 6.134 14.798 6.116 14.774C6.098 14.75 6.053 14.738 5.981 14.738C4.973 14.75 3.449 14.756 1.409 14.756C1.037 14.756 0.740005 14.675 0.518005 14.513C0.296005 14.351 0.131005 14.09 0.0230049 13.73L0.00500488 13.694V5.30604ZM8.897 13.856C8.921 13.856 8.945 13.856 8.969 13.856H14.639C14.939 13.856 15.089 13.7 15.089 13.388V5.63004C15.089 5.45004 15.05 5.32404 14.972 5.25204C14.894 5.18004 14.765 5.14404 14.585 5.14404H9.671C9.551 5.14404 9.473 5.19804 9.437 5.30604C9.113 6.29004 8.807 7.17804 8.519 7.97004C8.495 8.04204 8.492 8.09004 8.51 8.11404C8.528 8.13804 8.573 8.15004 8.645 8.15004H12.389C12.509 8.15004 12.611 8.16504 12.695 8.19504C12.779 8.22504 12.845 8.28804 12.893 8.38404C12.941 8.48004 12.953 8.58204 12.929 8.69004C12.905 8.76204 12.857 8.85204 12.785 8.96004C11.945 10.004 10.685 11.582 9.005 13.694L8.987 13.712C8.939 13.76 8.909 13.808 8.897 13.856ZM7.097 5.14404C7.061 5.14404 7.025 5.13804 6.989 5.12604H1.337C1.181 5.12604 1.07 5.16504 1.004 5.24304C0.938005 5.32104 0.905005 5.44404 0.905005 5.61204V13.388C0.905005 13.556 0.941005 13.676 1.013 13.748C1.085 13.82 1.205 13.856 1.373 13.856H6.305C6.365 13.856 6.413 13.847 6.449 13.829C6.485 13.811 6.515 13.772 6.539 13.712C6.695 13.232 6.935 12.518 7.259 11.57L7.439 11.03C7.463 10.982 7.475 10.952 7.475 10.94C7.499 10.88 7.481 10.85 7.421 10.85H3.569C3.281 10.85 3.107 10.736 3.047 10.508C3.011 10.352 3.059 10.202 3.191 10.058C3.575 9.56604 4.157 8.83404 4.937 7.86204L7.097 5.14404ZM8.753 4.55004C8.753 4.53804 8.747 4.53204 8.735 4.53204L4.397 9.96804H8.015C8.243 9.96804 8.399 10.028 8.483 10.148C8.567 10.268 8.579 10.436 8.519 10.652L7.259 14.288C7.235 14.348 7.229 14.402 7.241 14.45L11.561 9.01404H7.925C7.709 9.01404 7.556 8.95404 7.466 8.83404C7.376 8.71404 7.367 8.55204 7.439 8.34804L7.925 6.92604C8.117 6.39804 8.393 5.60604 8.753 4.55004ZM15.953 9.50004C15.953 9.92004 15.953 10.346 15.953 10.778V10.886C15.941 11.042 15.953 11.141 15.989 11.183C16.025 11.225 16.109 11.24 16.241 11.228C16.313 11.228 16.367 11.228 16.403 11.228C16.463 11.24 16.505 11.231 16.529 11.201C16.553 11.171 16.565 11.126 16.565 11.066V8.24004V8.11404C16.589 7.95804 16.58 7.85904 16.538 7.81704C16.496 7.77504 16.409 7.76004 16.277 7.77204C16.205 7.77204 16.151 7.77204 16.115 7.77204C15.995 7.76004 15.935 7.81404 15.935 7.93404C15.959 8.19804 15.965 8.58804 15.953 9.10404V9.50004Z" fill="#2C3333"/>
</g>
<defs>
<clipPath id="clip0_1598_1235">
<rect width="17.98" height="18" fill="white" transform="matrix(1 0 0 -1 0 18.5)"/>
</clipPath>
</defs>
</svg>
