<svg width="18" height="19" viewBox="0 0 18 19" fill="none" xmlns="http://www.w3.org/2000/svg">
<g clip-path="url(#clip0_1321_1547)">
<path d="M0.00500488 8.72605C0.00500488 6.36205 0.00500488 3.99805 0.00500488 1.63405C0.00500488 1.28605 0.0980049 1.02205 0.284005 0.842045C0.470005 0.662046 0.737005 0.572046 1.085 0.572046H8.357C8.693 0.572046 8.951 0.662046 9.131 0.842045C9.311 1.02205 9.401 1.28005 9.401 1.61604V6.31405C9.401 6.39805 9.413 6.45505 9.437 6.48505C9.461 6.51505 9.515 6.53005 9.599 6.53005C10.655 6.51805 11.711 6.51805 12.767 6.53005C13.079 6.53005 13.325 6.62005 13.505 6.80005C13.685 6.98005 13.775 7.22605 13.775 7.53804V12.722C13.775 13.022 13.685 13.262 13.505 13.442C13.325 13.622 13.079 13.718 12.767 13.73H12.029C11.969 13.73 11.93 13.739 11.912 13.757C11.894 13.775 11.891 13.808 11.903 13.856C11.939 14.3 11.753 14.66 11.345 14.936C11.273 14.984 11.177 15.05 11.057 15.134L10.859 15.278C10.715 15.374 10.643 15.524 10.643 15.728C10.655 16.004 10.661 16.421 10.661 16.979C10.661 17.537 10.661 17.954 10.661 18.23C10.661 18.314 10.646 18.368 10.616 18.392C10.586 18.416 10.535 18.428 10.463 18.428H10.409C10.265 18.416 10.172 18.404 10.13 18.392C10.088 18.38 10.061 18.35 10.049 18.302C10.037 18.254 10.031 18.152 10.031 17.996V15.674C10.031 15.302 10.175 15.014 10.463 14.81L10.697 14.63C10.877 14.498 11.009 14.402 11.093 14.342C11.225 14.246 11.291 14.12 11.291 13.964V10.04C11.291 9.92004 11.264 9.82705 11.21 9.76105C11.156 9.69505 11.081 9.66205 10.985 9.66205C10.889 9.66205 10.811 9.69505 10.751 9.76105C10.691 9.82705 10.661 9.92004 10.661 10.04V11.084C10.661 11.132 10.652 11.168 10.634 11.192C10.616 11.216 10.577 11.228 10.517 11.228H10.463C10.307 11.228 10.202 11.222 10.148 11.21C10.094 11.198 10.061 11.162 10.049 11.102C10.037 11.042 10.031 10.928 10.031 10.76V9.12205C10.031 8.85805 9.929 8.72605 9.725 8.72605C9.629 8.71405 9.551 8.74405 9.491 8.81605C9.431 8.88805 9.401 8.99005 9.401 9.12205V11.066C9.401 11.126 9.392 11.168 9.374 11.192C9.356 11.216 9.311 11.228 9.239 11.228C9.071 11.228 8.957 11.222 8.897 11.21C8.837 11.198 8.801 11.162 8.789 11.102C8.777 11.042 8.771 10.928 8.771 10.76V8.45605C8.771 8.28804 8.714 8.17705 8.6 8.12304C8.486 8.06905 8.369 8.08405 8.249 8.16805C8.177 8.22805 8.141 8.33605 8.141 8.49205V11.03C8.141 11.102 8.129 11.153 8.105 11.183C8.081 11.213 8.033 11.228 7.961 11.228H7.907C7.763 11.216 7.667 11.204 7.619 11.192C7.571 11.18 7.541 11.15 7.529 11.102C7.517 11.054 7.511 10.952 7.511 10.796V9.10404C7.511 8.98405 7.484 8.89105 7.43 8.82505C7.376 8.75905 7.301 8.72605 7.205 8.72605C7.109 8.72605 7.031 8.75905 6.971 8.82505C6.911 8.89105 6.881 8.98405 6.881 9.10404V11.966C6.881 12.038 6.869 12.089 6.845 12.119C6.821 12.149 6.773 12.164 6.701 12.164C6.533 12.164 6.422 12.158 6.368 12.146C6.314 12.134 6.281 12.101 6.269 12.047C6.257 11.993 6.251 11.882 6.251 11.714V10.976C6.251 10.856 6.224 10.763 6.17 10.697C6.116 10.631 6.041 10.598 5.945 10.598C5.849 10.598 5.774 10.631 5.72 10.697C5.666 10.763 5.639 10.856 5.639 10.976V13.91C5.639 14.054 5.711 14.174 5.855 14.27L6.701 14.774C7.037 14.99 7.205 15.296 7.205 15.692V18.266C7.205 18.338 7.196 18.386 7.178 18.41C7.16 18.434 7.115 18.446 7.043 18.446C6.875 18.446 6.761 18.44 6.701 18.428C6.641 18.416 6.605 18.383 6.593 18.329C6.581 18.275 6.575 18.164 6.575 17.996V17.06C6.587 16.988 6.578 16.94 6.548 16.916C6.518 16.892 6.467 16.88 6.395 16.88H1.103C0.371005 16.88 0.00500488 16.514 0.00500488 15.782V8.72605ZM5.099 14.36C5.039 14.144 5.015 13.97 5.027 13.838C5.027 13.79 5.018 13.76 5 13.748C4.982 13.736 4.949 13.73 4.901 13.73H4.163C3.851 13.73 3.605 13.637 3.425 13.451C3.245 13.265 3.155 13.016 3.155 12.704V7.55605C3.155 7.23205 3.245 6.98005 3.425 6.80005C3.605 6.62005 3.851 6.53005 4.163 6.53005H7.331C7.403 6.53005 7.454 6.51805 7.484 6.49405C7.514 6.47005 7.529 6.42205 7.529 6.35005C7.517 5.31805 7.517 4.29205 7.529 3.27205C7.529 3.20005 7.514 3.15205 7.484 3.12805C7.454 3.10405 7.403 3.09205 7.331 3.09205H2.111C2.027 3.09205 1.97 3.10405 1.94 3.12805C1.91 3.15205 1.895 3.21205 1.895 3.30805V14.234C1.883 14.318 1.928 14.357 2.03 14.351C2.132 14.345 2.291 14.348 2.507 14.36H5.099ZM0.635005 8.70805C0.635005 11.06 0.635005 13.412 0.635005 15.764C0.635005 15.944 0.665005 16.064 0.725005 16.124C0.785005 16.184 0.905005 16.214 1.085 16.214H6.287C6.431 16.214 6.518 16.202 6.548 16.178C6.578 16.154 6.587 16.07 6.575 15.926L6.593 15.764C6.605 15.68 6.608 15.614 6.602 15.566C6.596 15.518 6.569 15.476 6.521 15.44C6.377 15.296 6.251 15.188 6.143 15.116C5.987 15.02 5.831 14.972 5.675 14.972H1.679C1.523 14.972 1.415 14.942 1.355 14.882C1.295 14.822 1.265 14.708 1.265 14.54V2.87605C1.265 2.70805 1.295 2.59405 1.355 2.53405C1.415 2.47405 1.523 2.44405 1.679 2.44405H7.727C7.883 2.44405 7.991 2.47405 8.051 2.53405C8.111 2.59405 8.141 2.70805 8.141 2.87605V6.09805C8.141 6.25405 8.147 6.35605 8.159 6.40405C8.171 6.45205 8.204 6.48205 8.258 6.49405C8.312 6.50605 8.417 6.51805 8.573 6.53005C8.657 6.53005 8.711 6.51505 8.735 6.48505C8.759 6.45505 8.771 6.39805 8.771 6.31405V1.65205C8.771 1.47205 8.741 1.35205 8.681 1.29205C8.621 1.23205 8.501 1.20205 8.321 1.20205H1.085C0.905005 1.20205 0.785005 1.23205 0.725005 1.29205C0.665005 1.35205 0.635005 1.47205 0.635005 1.65205V8.70805ZM8.465 7.16005C7.037 7.16005 5.603 7.16005 4.163 7.16005C4.031 7.16005 3.932 7.18705 3.866 7.24104C3.8 7.29505 3.767 7.38205 3.767 7.50205V12.74C3.767 12.98 3.887 13.1 4.127 13.1H4.847C4.919 13.112 4.967 13.103 4.991 13.073C5.015 13.043 5.027 12.992 5.027 12.92C5.015 12.248 5.015 11.582 5.027 10.922C5.027 10.622 5.135 10.379 5.351 10.193C5.567 10.007 5.825 9.94405 6.125 10.004C6.185 10.016 6.224 10.013 6.242 9.99505C6.26 9.97705 6.269 9.93805 6.269 9.87805C6.245 9.60205 6.245 9.32605 6.269 9.05005C6.281 8.73805 6.398 8.49205 6.62 8.31205C6.842 8.13205 7.103 8.07205 7.403 8.13205C7.463 8.14405 7.508 8.14105 7.538 8.12304C7.568 8.10505 7.589 8.07205 7.601 8.02404C7.781 7.67605 8.066 7.50205 8.456 7.50205C8.846 7.50205 9.125 7.67605 9.293 8.02404C9.317 8.07205 9.341 8.10505 9.365 8.12304C9.389 8.14105 9.431 8.14405 9.491 8.13205C9.755 8.07205 9.992 8.10805 10.202 8.24005C10.412 8.37205 10.547 8.56404 10.607 8.81605C10.619 8.92405 10.646 8.99304 10.688 9.02305C10.73 9.05305 10.805 9.06205 10.913 9.05005C11.189 9.02605 11.42 9.11005 11.606 9.30204C11.792 9.49405 11.885 9.74005 11.885 10.04V12.938C11.885 12.998 11.897 13.043 11.921 13.073C11.945 13.103 11.987 13.112 12.047 13.1H12.713C12.881 13.1 12.995 13.07 13.055 13.01C13.115 12.95 13.145 12.836 13.145 12.668V7.59205C13.145 7.42405 13.112 7.31005 13.046 7.25005C12.98 7.19005 12.863 7.16005 12.695 7.16005H8.465ZM5.639 2.13805C5.279 2.13805 4.913 2.13805 4.541 2.13805C4.481 2.13805 4.442 2.12605 4.424 2.10205C4.406 2.07804 4.397 2.03605 4.397 1.97605C4.385 1.80805 4.385 1.69705 4.397 1.64305C4.409 1.58905 4.445 1.55605 4.505 1.54405C4.565 1.53205 4.685 1.52604 4.865 1.52604H6.719C6.791 1.52604 6.839 1.53505 6.863 1.55305C6.887 1.57104 6.899 1.61604 6.899 1.68805C6.899 1.85604 6.893 1.97005 6.881 2.03005C6.869 2.09005 6.833 2.12605 6.773 2.13805C6.713 2.15005 6.596 2.15305 6.422 2.14705C6.248 2.14105 5.987 2.13805 5.639 2.13805ZM3.137 1.85005C3.137 1.99405 3.125 2.07804 3.101 2.10205C3.077 2.12605 2.987 2.13805 2.831 2.13805C2.675 2.13805 2.582 2.12304 2.552 2.09305C2.522 2.06305 2.507 1.97005 2.507 1.81404C2.507 1.65804 2.519 1.56805 2.543 1.54405C2.567 1.52005 2.66 1.51105 2.822 1.51705C2.984 1.52305 3.077 1.53805 3.101 1.56205C3.125 1.58605 3.137 1.68204 3.137 1.85005Z" fill="#2C3333"/>
</g>
<defs>
<clipPath id="clip0_1321_1547">
<rect width="17.98" height="18" fill="white" transform="matrix(1 0 0 -1 0 18.5)"/>
</clipPath>
</defs>
</svg>
