<svg width="24" height="24" viewBox="0 0 24 24" fill="none" xmlns="http://www.w3.org/2000/svg">
<path d="M13.5668 4.81873C12.8066 4.81873 12.1894 5.41835 12.1493 6.16873H7.272C5.72625 6.16873 4.27575 6.77473 3.18712 7.87573C2.09925 8.9756 1.5 10.44 1.5 12C1.5 15.2156 4.08938 17.8312 7.272 17.8312H12.1493C12.1894 18.5816 12.8066 19.1812 13.5668 19.1812H13.5701C14.3558 19.1812 14.9951 18.5419 14.9951 17.7562V6.24373C14.9951 5.4581 14.3557 4.81873 13.5664 4.81873H13.5668ZM12.1417 17.0812H7.27163C4.50263 17.0812 2.25 14.8024 2.25 12C2.25 10.6387 2.772 9.36148 3.72 8.40298C4.18328 7.93133 4.73615 7.55704 5.34613 7.30209C5.9561 7.04714 6.61089 6.91667 7.272 6.91835H12.1414L12.1417 17.0812ZM14.2451 17.7562C14.2451 18.1282 13.9421 18.4312 13.5701 18.4312H13.5664C13.1944 18.4312 12.8914 18.1282 12.8914 17.7562V6.24373C12.8914 6.06421 12.9627 5.89204 13.0896 5.7651C13.2166 5.63816 13.3887 5.56685 13.5682 5.56685C13.7478 5.56685 13.9199 5.63816 14.0469 5.7651C14.1738 5.89204 14.2451 6.06421 14.2451 6.24373V17.7562Z" fill="#2C3333"/>
<path d="M5.47687 10.3125C4.54649 10.3125 3.78937 11.0696 3.78937 12C3.78937 12.9304 4.54649 13.6875 5.47687 13.6875C6.40724 13.6875 7.16437 12.9304 7.16437 12C7.16437 11.0696 6.40724 10.3125 5.47687 10.3125ZM5.47687 12.9375C4.96012 12.9375 4.53937 12.5171 4.53937 12C4.53937 11.4829 4.96012 11.0625 5.47687 11.0625C5.99362 11.0625 6.41437 11.4829 6.41437 12C6.41437 12.5171 5.99362 12.9375 5.47687 12.9375ZM16.4389 12.375H22.125C22.2244 12.375 22.3198 12.3355 22.3902 12.2652C22.4605 12.1949 22.5 12.0995 22.5 12C22.5 11.9006 22.4605 11.8052 22.3902 11.7349C22.3198 11.6645 22.2244 11.625 22.125 11.625H16.4389C16.3394 11.625 16.244 11.6645 16.1737 11.7349C16.1034 11.8052 16.0639 11.9006 16.0639 12C16.0639 12.0995 16.1034 12.1949 16.1737 12.2652C16.244 12.3355 16.3394 12.375 16.4389 12.375ZM16.5457 9.2869C16.5851 9.2869 16.6252 9.28052 16.665 9.2674L22.1377 7.43365C22.2308 7.40107 22.3073 7.33314 22.3506 7.24458C22.394 7.15601 22.4007 7.05394 22.3694 6.96045C22.338 6.86697 22.2711 6.78959 22.1831 6.74509C22.0951 6.70058 21.9931 6.69252 21.8992 6.72265L16.4265 8.5564C16.3422 8.58471 16.2706 8.64209 16.2247 8.71828C16.1788 8.79447 16.1614 8.88451 16.1757 8.97231C16.1901 9.06012 16.2352 9.13997 16.3029 9.19759C16.3707 9.25522 16.4568 9.28687 16.5457 9.2869ZM22.1377 16.5664L16.665 14.7326C16.5717 14.705 16.4714 14.7146 16.385 14.7594C16.2987 14.8043 16.2332 14.8809 16.2023 14.9732C16.1714 15.0654 16.1774 15.1661 16.2193 15.2539C16.2611 15.3417 16.3354 15.4099 16.4265 15.444L21.8992 17.2778C21.9931 17.3079 22.0951 17.2998 22.1831 17.2553C22.2711 17.2108 22.338 17.1335 22.3694 17.04C22.4007 16.9465 22.394 16.8444 22.3506 16.7558C22.3073 16.6673 22.2308 16.5994 22.1377 16.5668V16.5664Z" fill="#2C3333"/>
</svg>
