<svg width="12" height="7" viewBox="0 0 12 7" fill="none" xmlns="http://www.w3.org/2000/svg">
<path d="M1.34487 6.98847H10.6549C10.8197 6.98843 10.9807 6.93954 11.1178 6.84797C11.2548 6.7564 11.3615 6.62627 11.4246 6.47402C11.4877 6.32177 11.5042 6.15424 11.472 5.99261C11.4399 5.83098 11.3605 5.68251 11.244 5.56597L6.58904 0.910981C6.43277 0.754755 6.22084 0.666992 5.99987 0.666992C5.7789 0.666992 5.56698 0.754755 5.41071 0.910981L0.755708 5.56597C0.6392 5.68251 0.559861 5.83098 0.527722 5.99261C0.495582 6.15424 0.512085 6.32177 0.575143 6.47402C0.638201 6.62627 0.744984 6.7564 0.881993 6.84797C1.019 6.93954 1.18008 6.98843 1.34487 6.98847Z" fill="#FDFDFD"/>
</svg>
