<svg width="24" height="24" viewBox="0 0 24 24" fill="none" xmlns="http://www.w3.org/2000/svg">
<g clip-path="url(#clip0_262_4662)">
<path d="M23.2972 9.034C22.7272 8.377 21.9012 8 21.0302 8H20.9442C20.4452 3.506 16.6252 0 12.0002 0C7.37522 0 3.55522 3.506 3.05622 8H3.00022C2.13022 8 1.30522 8.377 0.734218 9.034C0.163218 9.691 -0.0927821 10.562 0.0302179 11.425L1.09122 18.849C1.51122 21.786 4.06522 24 7.03122 24H17.0002C19.9662 24 22.5202 21.785 22.9402 18.849L24.0012 11.425C24.1242 10.563 23.8672 9.692 23.2972 9.034ZM12.0002 2C15.5202 2 18.4412 4.613 18.9282 8H5.07222C5.55922 4.613 8.48022 2 12.0002 2ZM8.00022 19C8.00022 19.553 7.55322 20 7.00022 20C6.44722 20 6.00022 19.553 6.00022 19V13C6.00022 12.447 6.44722 12 7.00022 12C7.55322 12 8.00022 12.447 8.00022 13V19ZM13.0002 19C13.0002 19.553 12.5532 20 12.0002 20C11.4472 20 11.0002 19.553 11.0002 19V13C11.0002 12.447 11.4472 12 12.0002 12C12.5532 12 13.0002 12.447 13.0002 13V19ZM18.0002 19C18.0002 19.553 17.5532 20 17.0002 20C16.4472 20 16.0002 19.553 16.0002 19V13C16.0002 12.447 16.4472 12 17.0002 12C17.5532 12 18.0002 12.447 18.0002 13V19Z" fill="#0074E4"/>
</g>
<defs>
<clipPath id="clip0_262_4662">
<rect width="24" height="24" fill="white"/>
</clipPath>
</defs>
</svg>
