<svg width="152" height="152" viewBox="0 0 152 152" fill="none" xmlns="http://www.w3.org/2000/svg">
<path fill-rule="evenodd" clip-rule="evenodd" d="M73.6815 10.3387C92.8446 10.7109 110.392 18.4959 123.717 32.1853C139.169 48.0591 154.175 67.4766 150.501 89.2568C146.647 112.104 127.725 130.208 105.837 138.182C86.0969 145.373 65.8948 136.05 46.9558 126.979C28.03 117.914 6.88256 108.385 1.49827 88.2053C-4.03764 67.4578 6.49598 45.9803 21.1311 30.1928C34.4892 15.783 53.9687 9.9558 73.6815 10.3387Z" fill="#F0F7FD"/>
<path d="M142.144 28.5713V76.0713L138.439 81.2725L131.005 85.2863L40.6123 99.085L40.3986 97.9213L28.2386 29.165L28.1436 28.5713H142.144Z" fill="#CCE3FA"/>
<path d="M51.0383 96.2826L40.3983 97.9213L28.2383 29.165H39.1633L51.0383 96.2826Z" fill="#F5F9FE"/>
<path d="M130.411 29.165V72.9363C130.408 75.3546 129.653 77.7121 128.249 79.6813C127.215 81.1055 125.876 82.2818 124.331 83.125L119.272 85.8563L51.0381 96.2825L39.1631 29.165H130.411Z" fill="#E0EEFC"/>
<path d="M104.262 28.5C104.3 32.3033 103.206 36.032 101.121 39.2127C99.035 42.3934 96.0512 44.8825 92.5482 46.3642C89.0452 47.8458 85.1808 48.253 81.4459 47.5342C77.711 46.8153 74.2739 45.0028 71.5711 42.3267C68.8683 39.6507 67.0217 36.2318 66.2657 32.5042C65.5097 28.7766 65.8785 24.9085 67.3252 21.3909C68.7719 17.8733 71.2312 14.8649 74.391 12.7478C77.5508 10.6306 81.2684 9.5002 85.0719 9.50002C90.1305 9.49356 94.9866 11.4872 98.5813 15.0464C102.176 18.6056 104.218 23.4416 104.262 28.5Z" fill="#ADD3F6"/>
<path d="M97.3749 35.435C97.3748 37.8254 96.9235 40.1944 96.0449 42.4175C95.7096 43.3529 95.2965 44.2585 94.8099 45.125C91.1585 47.255 86.906 48.1199 82.7127 47.5851C78.5194 47.0504 74.62 45.146 71.6201 42.1677C68.6202 39.1895 66.6876 35.304 66.1225 31.1147C65.5574 26.9253 66.3913 22.6667 68.4949 19C69.3708 18.4538 70.2927 17.985 71.2499 17.5987C73.5148 16.6901 75.9346 16.2304 78.3749 16.245C83.4314 16.295 88.2638 18.3389 91.8216 21.9323C95.3795 25.5257 97.3751 30.3782 97.3749 35.435Z" fill="#CCE3FA"/>
<path d="M97.3745 35.435C97.3743 37.8254 96.9231 40.1944 96.0445 42.4175C93.7812 43.3314 91.3603 43.7913 88.9195 43.7712C83.83 43.7712 78.9489 41.7494 75.3501 38.1506C71.7513 34.5518 69.7295 29.6707 69.7295 24.5812C69.79 22.1785 70.3058 19.8091 71.2495 17.5987C73.5144 16.6901 75.9342 16.2304 78.3745 16.245C83.431 16.295 88.2634 18.3389 91.8212 21.9323C95.379 25.5257 97.3747 30.3782 97.3745 35.435Z" fill="#D6E9FB"/>
<path d="M54.3628 142.643C59.1373 142.643 63.0078 138.772 63.0078 133.998C63.0078 129.223 59.1373 125.353 54.3628 125.353C49.5883 125.353 45.7178 129.223 45.7178 133.998C45.7178 138.772 49.5883 142.643 54.3628 142.643Z" fill="black"/>
<path d="M121.457 142.643C126.231 142.643 130.102 138.772 130.102 133.998C130.102 129.223 126.231 125.353 121.457 125.353C116.682 125.353 112.812 129.223 112.812 133.998C112.812 138.772 116.682 142.643 121.457 142.643Z" fill="black"/>
<path d="M54.3393 142.619C59.1138 142.619 62.9843 138.748 62.9843 133.974C62.9843 129.199 59.1138 125.329 54.3393 125.329C49.5648 125.329 45.6943 129.199 45.6943 133.974C45.6943 138.748 49.5648 142.619 54.3393 142.619Z" fill="black"/>
<path d="M121.433 142.619C126.208 142.619 130.078 138.748 130.078 133.974C130.078 129.199 126.208 125.329 121.433 125.329C116.659 125.329 112.788 129.199 112.788 133.974C112.788 138.748 116.659 142.619 121.433 142.619Z" fill="black"/>
<path d="M63.317 133.974C63.3176 135.903 62.6691 137.777 61.4758 139.293C60.2826 140.81 58.6139 141.881 56.7382 142.334C56.0433 142.477 55.3332 142.533 54.6245 142.5C52.9136 142.5 51.2413 141.992 49.8191 141.041C48.3969 140.09 47.2889 138.739 46.6353 137.158C45.9817 135.577 45.8119 133.837 46.1474 132.16C46.4829 130.482 47.3086 128.942 48.52 127.734C49.7314 126.526 51.274 125.704 52.9525 125.373C54.631 125.042 56.37 125.217 57.9492 125.875C59.5285 126.533 60.877 127.645 61.8241 129.069C62.7711 130.494 63.2742 132.168 63.2695 133.879L63.317 133.974Z" fill="#ADD3F6"/>
<path d="M130.411 133.974C130.411 135.684 129.904 137.355 128.954 138.777C128.004 140.198 126.654 141.306 125.074 141.961C123.495 142.615 121.757 142.786 120.08 142.453C118.403 142.119 116.862 141.296 115.653 140.087C114.444 138.878 113.621 137.337 113.287 135.66C112.954 133.983 113.125 132.245 113.779 130.665C114.433 129.086 115.542 127.736 116.963 126.786C118.385 125.836 120.056 125.329 121.766 125.329C122.903 125.322 124.03 125.542 125.082 125.974C126.134 126.406 127.089 127.043 127.893 127.847C128.697 128.651 129.334 129.606 129.766 130.658C130.198 131.71 130.417 132.837 130.411 133.974Z" fill="#CCE3FA"/>
<path d="M57.8552 138.13C57.8605 139.605 57.4754 141.056 56.7389 142.334C56.044 142.477 55.3339 142.533 54.6252 142.5C53.1159 142.51 51.6306 142.122 50.3187 141.376C49.0067 140.63 47.9143 139.552 47.1513 138.249C46.3883 136.947 45.9815 135.467 45.9719 133.958C45.9622 132.448 46.3501 130.963 47.0964 129.651C48.3694 129.328 49.6994 129.301 50.9844 129.572C52.2694 129.843 53.4753 130.405 54.5094 131.215C55.5436 132.024 56.3786 133.06 56.9503 134.242C57.522 135.424 57.8153 136.722 57.8077 138.035L57.8552 138.13Z" fill="#CCE3FA"/>
<path d="M124.949 138.13C124.962 139.603 124.585 141.054 123.856 142.334C122.584 142.656 121.255 142.683 119.971 142.413C118.686 142.143 117.481 141.584 116.445 140.778C115.41 139.971 114.572 138.939 113.996 137.76C113.42 136.581 113.121 135.286 113.121 133.974C113.122 132.492 113.506 131.035 114.237 129.746C115.51 129.423 116.84 129.396 118.125 129.667C119.41 129.938 120.616 130.5 121.65 131.31C122.685 132.119 123.52 133.155 124.091 134.337C124.663 135.519 124.956 136.817 124.949 138.13Z" fill="#ADD3F6"/>
<path d="M142.5 116.375H41.515C30.21 116.375 30.21 111.174 30.21 109.25C30.2631 108.392 30.5033 107.557 30.9136 106.802C31.3238 106.047 31.8943 105.391 32.585 104.88C34.6575 103.328 37.1286 102.397 39.71 102.196L40.6362 102.03H40.85L129.746 87.875C133.788 87.2493 137.472 85.1934 140.126 82.0813C142.781 78.9693 144.23 75.0078 144.21 70.9175V28.5C144.21 27.8701 143.96 27.266 143.514 26.8206C143.069 26.3752 142.465 26.125 141.835 26.125H106.59C105.939 20.915 103.407 16.1222 99.4713 12.6474C95.5352 9.1725 90.4655 7.25486 85.215 7.25486C79.9645 7.25486 74.8948 9.1725 70.9586 12.6474C67.0225 16.1222 64.491 20.915 63.84 26.125H29.6875L27.9775 16.625C27.5242 13.9718 26.1487 11.5639 24.0935 9.82589C22.0382 8.08785 19.4353 7.13133 16.7437 7.125H8.83496C8.20507 7.125 7.60098 7.37522 7.15558 7.82062C6.71018 8.26602 6.45996 8.87011 6.45996 9.5C6.45996 10.1299 6.71018 10.734 7.15558 11.1794C7.60098 11.6248 8.20507 11.875 8.83496 11.875H16.7437C18.3022 11.8768 19.8109 12.4241 21.0082 13.4218C22.2055 14.4196 23.0159 15.8049 23.2987 17.3375L37.5487 97.6838C34.6095 98.1608 31.8347 99.3605 29.4737 101.175C28.2468 102.138 27.2499 103.363 26.5556 104.76C25.8613 106.156 25.487 107.69 25.46 109.25C25.46 113.691 27.55 121.125 41.515 121.125H142.5C143.13 121.125 143.734 120.875 144.179 120.429C144.625 119.984 144.875 119.38 144.875 118.75C144.875 118.12 144.625 117.516 144.179 117.071C143.734 116.625 143.13 116.375 142.5 116.375ZM85.1675 11.875C88.5012 11.8752 91.7596 12.8664 94.5288 14.7226C97.298 16.5788 99.4529 19.2162 100.72 22.2998C101.987 25.3835 102.308 28.7741 101.644 32.041C100.98 35.3078 99.3593 38.3035 96.9886 40.6474C94.618 42.9912 91.6041 44.5775 88.3299 45.2047C85.0557 45.8319 81.6689 45.4717 78.5999 44.1698C75.5309 42.868 72.9181 40.6832 71.0935 37.8931C69.2689 35.103 68.3148 31.8335 68.3525 28.5C68.4086 24.0753 70.2042 19.8506 73.3509 16.7395C76.4976 13.6284 80.7425 11.8809 85.1675 11.875ZM63.7925 31.065C64.4435 36.275 66.975 41.0678 70.9111 44.5426C74.8473 48.0175 79.917 49.9351 85.1675 49.9351C90.418 49.9351 95.4877 48.0175 99.4238 44.5426C103.36 41.0678 105.891 36.275 106.542 31.065H139.46V70.9887C139.476 73.9487 138.427 76.8157 136.504 79.0658C134.581 81.316 131.913 82.7989 128.986 83.2438L42.3462 97.0187L30.5425 30.875L63.7925 31.065Z" fill="#0074E4"/>
<path d="M54.435 122.954C52.2545 122.954 50.1229 123.601 48.3102 124.813C46.4974 126.025 45.085 127.747 44.2516 129.762C43.4182 131.777 43.2014 133.994 43.6285 136.133C44.0557 138.271 45.1076 140.234 46.6511 141.775C48.1947 143.315 50.1605 144.362 52.2997 144.785C54.4389 145.208 56.6554 144.986 58.6687 144.148C60.6819 143.31 62.4013 141.894 63.6094 140.079C64.8174 138.264 65.4597 136.131 65.455 133.95C65.4487 131.032 64.2849 128.235 62.219 126.173C60.153 124.112 57.3536 122.954 54.435 122.954ZM54.435 140.22C53.1949 140.22 51.9827 139.852 50.9516 139.163C49.9205 138.474 49.1169 137.495 48.6423 136.35C48.1677 135.204 48.0436 133.943 48.2855 132.727C48.5274 131.511 49.1246 130.393 50.0015 129.517C50.8783 128.64 51.9955 128.043 53.2118 127.801C54.4281 127.559 55.6888 127.683 56.8344 128.157C57.9801 128.632 58.9594 129.436 59.6483 130.467C60.3373 131.498 60.705 132.71 60.705 133.95C60.6801 135.597 60.0085 137.167 58.8353 138.322C57.6622 139.478 56.0816 140.125 54.435 140.125V140.22Z" fill="#0074E4"/>
<path d="M121.529 122.954C119.348 122.954 117.217 123.601 115.404 124.813C113.591 126.025 112.179 127.747 111.345 129.762C110.512 131.777 110.295 133.994 110.722 136.133C111.149 138.271 112.201 140.234 113.745 141.775C115.288 143.315 117.254 144.362 119.393 144.785C121.533 145.208 123.749 144.986 125.762 144.148C127.776 143.31 129.495 141.894 130.703 140.079C131.911 138.264 132.553 136.131 132.549 133.95C132.542 131.032 131.379 128.235 129.313 126.173C127.247 124.112 124.447 122.954 121.529 122.954ZM121.529 140.22C120.289 140.22 119.076 139.852 118.045 139.163C117.014 138.474 116.211 137.495 115.736 136.35C115.261 135.204 115.137 133.943 115.379 132.727C115.621 131.511 116.218 130.393 117.095 129.517C117.972 128.64 119.089 128.043 120.306 127.801C121.522 127.559 122.782 127.683 123.928 128.157C125.074 128.632 126.053 129.436 126.742 130.467C127.431 131.498 127.799 132.71 127.799 133.95C127.774 135.597 127.102 137.167 125.929 138.322C124.756 139.478 123.175 140.125 121.529 140.125V140.22Z" fill="#0074E4"/>
<path d="M75.8574 37.7387C76.3024 38.1811 76.9043 38.4294 77.5318 38.4294C78.1592 38.4294 78.7611 38.1811 79.2061 37.7387L85.0011 31.9437L90.7961 37.7387C91.0161 37.9631 91.2784 38.1417 91.5679 38.264C91.8573 38.3863 92.1682 38.4499 92.4824 38.4512C92.9541 38.454 93.416 38.3162 93.8091 38.0554C94.2022 37.7946 94.5087 37.4227 94.6896 36.987C94.8705 36.5513 94.9176 36.0716 94.8248 35.6091C94.732 35.1466 94.5036 34.7222 94.1686 34.39L88.3736 28.5L94.1686 22.8C94.3885 22.5785 94.5626 22.316 94.681 22.0272C94.7994 21.7385 94.8598 21.4293 94.8587 21.1172C94.8576 20.8051 94.795 20.4964 94.6746 20.2085C94.5542 19.9206 94.3782 19.6592 94.1568 19.4394C93.9353 19.2195 93.6727 19.0454 93.384 18.927C93.0953 18.8086 92.7861 18.7482 92.474 18.7493C92.1619 18.7504 91.8531 18.8129 91.5652 18.9334C91.2774 19.0538 91.016 19.2298 90.7961 19.4512L85.0011 25.2462L79.2061 19.4512C78.7611 19.0089 78.1592 18.7606 77.5318 18.7606C76.9043 18.7606 76.3024 19.0089 75.8574 19.4512C75.415 19.8962 75.1668 20.4982 75.1668 21.1256C75.1668 21.753 75.415 22.355 75.8574 22.8L81.6524 28.5L75.8574 34.295C75.6238 34.5169 75.4379 34.7839 75.3108 35.0799C75.1837 35.3759 75.1182 35.6947 75.1182 36.0169C75.1182 36.339 75.1837 36.6578 75.3108 36.9538C75.4379 37.2498 75.6238 37.5169 75.8574 37.7387Z" fill="#0074E4"/>
</svg>
