<svg width="24" height="24" viewBox="0 0 24 24" fill="none" xmlns="http://www.w3.org/2000/svg">
<path d="M13.5189 7.24077C12.8574 6.53655 11.7455 6.49675 11.0336 7.16558C10.3264 7.83147 10.2926 8.94292 10.9588 9.65026L13.65 12.5097C14.305 13.2053 15.4181 13.2595 16.1348 12.5844C16.8419 11.9185 16.8757 10.807 16.2095 10.0997L13.5189 7.24077ZM15.3313 11.7312C15.0987 11.9504 14.7279 11.9451 14.5032 11.7064L11.812 8.84698C11.5887 8.60987 11.6027 8.23933 11.8364 8.01921C12.0721 7.79776 12.4432 7.80729 12.6651 8.04351L15.3563 10.9029C15.5784 11.1387 15.5672 11.5091 15.3313 11.7312Z" fill="#2C3333"/>
<path d="M18.872 9.50855L14.1845 4.52809C14.1297 4.46988 14.0636 4.4235 13.9902 4.3918C13.9168 4.3601 13.8377 4.34375 13.7578 4.34375H12V2.58594C12 2.26234 11.7377 2 11.4141 2H7.89844C7.57484 2 7.3125 2.26234 7.3125 2.58594V4.70691L5.11676 7.17711C5.02143 7.28438 4.96876 7.4229 4.96875 7.56641V17.8986C4.96879 18.3483 5.13859 18.7591 5.41742 19.0703C5.13859 19.3815 4.96875 19.7924 4.96875 20.2422C4.96875 21.2114 5.7573 22 6.72656 22H17.2734C18.2427 22 19.0312 21.2114 19.0312 20.2422C19.0312 19.7923 18.8612 19.3816 18.5822 19.0703C18.8612 18.7591 19.0312 18.3483 19.0312 17.8984V9.91016C19.0312 9.7609 18.9743 9.61727 18.872 9.50855ZM8.48438 3.17188H10.8281V4.34375H8.48438V3.17188ZM17.2734 20.8281H6.72656C6.40348 20.8281 6.14062 20.5653 6.14062 20.2422C6.14062 19.9191 6.40348 19.6562 6.72656 19.6562C7.05016 19.6562 7.3125 19.3939 7.3125 19.0703C7.3125 18.7467 7.05016 18.4844 6.72656 18.4844C6.40348 18.4844 6.14062 18.2215 6.14062 17.8984C6.14062 17.5754 6.40348 17.3125 6.72656 17.3125C7.05016 17.3125 7.3125 17.0502 7.3125 16.7266C7.3125 16.403 7.05016 16.1406 6.72656 16.1406C6.52113 16.1406 6.32402 16.1764 6.14062 16.2414V7.78918L8.16156 5.51562H13.5046L17.8594 10.1425V16.2414C17.6712 16.1746 17.4731 16.1405 17.2734 16.1406C16.9498 16.1406 16.6875 16.403 16.6875 16.7266C16.6875 17.0502 16.9498 17.3125 17.2734 17.3125C17.5965 17.3125 17.8594 17.5754 17.8594 17.8984C17.8594 18.2215 17.5965 18.4844 17.2734 18.4844C17.1925 18.4844 17.1155 18.5008 17.0454 18.5304C16.8351 18.6194 16.6875 18.8276 16.6875 19.0703C16.6875 19.313 16.8351 19.5212 17.0454 19.6102C17.1175 19.6407 17.1951 19.6563 17.2734 19.6562C17.5965 19.6562 17.8594 19.9191 17.8594 20.2422C17.8594 20.5653 17.5965 20.8281 17.2734 20.8281Z" fill="#2C3333"/>
<path d="M12.4821 14.0498C12.4282 13.9718 12.3562 13.908 12.2722 13.8639C12.1882 13.8199 12.0948 13.7969 12 13.7969C11.9052 13.7969 11.8118 13.8199 11.7278 13.8639C11.6438 13.908 11.5718 13.9718 11.5179 14.0498C11.5054 14.0679 11.2083 14.4989 10.9072 15.018C10.3111 16.0455 10.2422 16.4852 10.2422 16.7266C10.2422 17.6958 11.0307 18.4844 12 18.4844C12.9693 18.4844 13.7578 17.6958 13.7578 16.7266C13.7578 16.4852 13.6889 16.0455 13.0928 15.018C12.7917 14.4989 12.4946 14.0679 12.4821 14.0498ZM12 17.3125C11.6769 17.3125 11.4141 17.0496 11.4141 16.7272C11.4188 16.5481 11.6626 16.0375 12.0001 15.4688C12.3374 16.0368 12.5809 16.5472 12.5859 16.727C12.5857 17.0499 12.3229 17.3125 12 17.3125Z" fill="#2C3333"/>
</svg>
