<svg width="24" height="24" viewBox="0 0 24 24" fill="none" xmlns="http://www.w3.org/2000/svg">
<g clip-path="url(#clip0_262_4673)">
<path d="M20.5927 3.59184C18.4166 1.41511 15.2934 0 12.0041 0C9.17515 0 6.40521 1.03959 4.26565 2.88183L3.2178 1.13503C3.06401 0.879609 2.76598 0.751875 2.47624 0.807516C2.18374 0.866578 1.96127 1.10278 1.91866 1.39734L0.924398 8.35786C0.85657 8.82811 1.26518 9.21839 1.71954 9.1537L8.6794 8.15944C8.97466 8.11687 9.21087 7.89441 9.26993 7.60256C9.32899 7.31072 9.19713 7.01344 8.94171 6.8603L7.28276 5.86467C9.55048 4.0875 11.9303 4.24298 12.0714 4.21875C14.6985 4.21875 16.444 5.41078 17.4451 6.41259C18.9131 7.88063 19.7866 9.95156 19.7811 11.9511C19.7811 12.3495 20.1029 12.6562 20.4842 12.6562H23.2967C23.684 12.6562 23.9985 12.3431 23.9998 11.9559C24.0122 8.72452 22.8339 5.83238 20.5927 3.59184Z" fill="url(#paint0_linear_262_4673)"/>
<path d="M22.2818 14.8525L15.3219 15.8468C15.0266 15.8894 14.7904 16.1118 14.7314 16.4037C14.6723 16.6955 14.8042 16.9928 15.0596 17.1459L16.713 18.1388C15.3644 19.1949 13.641 19.7861 11.9518 19.7813C9.30413 19.8163 7.56005 18.592 6.55477 17.5875C5.08678 16.1194 4.21336 14.0484 4.21885 12.0489C4.21885 11.6505 3.89705 11.3438 3.51572 11.3438H0.703221C0.31594 11.3438 0.00145586 11.6569 9.64807e-05 12.0441C-0.0122785 15.2755 1.16602 18.1676 3.40725 20.4082C5.56988 22.5714 8.49652 23.9167 11.9958 24C14.8248 24 17.5934 22.9604 19.733 21.1195L20.7835 22.8712C20.9373 23.1266 21.234 23.2557 21.5251 23.1987C21.8176 23.1396 22.0401 22.9034 22.0827 22.6088L23.0769 15.6483C23.1448 15.1777 22.7316 14.7827 22.2818 14.8525Z" fill="url(#paint1_linear_262_4673)"/>
</g>
<defs>
<linearGradient id="paint0_linear_262_4673" x1="12.4585" y1="12.6562" x2="12.4585" y2="0" gradientUnits="userSpaceOnUse">
<stop stop-color="#FD5900"/>
<stop offset="1" stop-color="#FFDE00"/>
</linearGradient>
<linearGradient id="paint1_linear_262_4673" x1="11.5421" y1="24" x2="11.5421" y2="11.3438" gradientUnits="userSpaceOnUse">
<stop stop-color="#FFE59A"/>
<stop offset="1" stop-color="#FFFFD5"/>
</linearGradient>
<clipPath id="clip0_262_4673">
<rect width="24" height="24" fill="white"/>
</clipPath>
</defs>
</svg>
