<svg width="40" height="40" viewBox="0 0 40 40" fill="none" xmlns="http://www.w3.org/2000/svg">
<g id="fi_10473357" clip-path="url(#clip0_1583_1570)">
<g id="Group">
<g id="Group_2">
<path id="Vector" d="M35.3085 19.5898C35.2973 19.6141 35.2859 19.6383 35.2745 19.6626C34.8294 20.6098 33.4053 20.2337 33.493 19.1908C33.6534 17.2846 33.4176 15.3143 32.7308 13.3957C30.5014 7.16803 23.0163 0.0770149 16.3881 6.17922e-05C15.6803 -0.00814133 15.2739 0.802171 15.6916 1.37358C16.2486 2.1353 16.7009 2.99397 17.0211 3.93584C18.0722 7.02764 17.4251 10.3194 15.5744 12.765C14.8028 13.7845 13.1645 13.281 13.1376 12.0027C13.1373 11.9935 13.1372 11.9842 13.137 11.9749C13.1262 11.2972 13.2373 10.6466 13.4506 10.044C13.5447 9.77834 13.2984 9.51686 13.0285 9.59819C9.27093 10.7308 6.41366 16.2601 6.41366 20.2041C6.41366 20.4922 6.42968 20.7765 6.45944 21.0566C6.46312 21.5805 6.55163 22.1133 6.73671 22.6372C6.74335 22.6561 6.75007 22.6748 6.75679 22.6937C6.81444 22.8547 6.87569 23.0134 6.93866 23.1709C6.04874 22.083 5.29171 20.8821 4.69296 19.5927C4.41476 18.9937 3.53421 19.1126 3.42608 19.7642C3.23343 20.9247 3.13257 22.0565 3.13257 23.1326C3.13257 32.4482 10.6844 40 20 40C29.3156 40 36.8674 32.4482 36.8674 23.1326C36.8674 22.0565 36.7666 20.9245 36.5738 19.7639C36.4659 19.1138 35.5859 18.992 35.3085 19.5898Z" fill="url(#paint0_linear_1583_1570)"/>
<path id="Vector_2" d="M6.41375 20.2042C6.41375 20.4922 6.42977 20.7765 6.45954 21.0567C6.46321 21.5805 6.55172 22.1132 6.7368 22.6373C6.74344 22.6561 6.75016 22.6749 6.75688 22.6936C6.81454 22.8546 6.87579 23.0134 6.93875 23.1709C6.04883 22.083 5.2918 20.8821 4.69305 19.5927C4.41485 18.9936 3.5343 19.1125 3.42618 19.7642C3.23352 20.9246 3.13266 22.0565 3.13266 23.1325C3.13258 32.4482 10.6844 40 20 40C29.3156 40 36.8674 32.4482 36.8674 23.1326C36.8674 22.0565 36.7666 20.9246 36.5738 19.7639C36.4659 19.1139 35.5859 18.9921 35.3084 19.5899C35.2972 19.6142 35.2859 19.6384 35.2745 19.6626C34.8293 20.6099 33.4052 20.2338 33.493 19.1908C33.5301 18.7496 33.5449 18.3048 33.5389 17.8582H6.70211C6.51414 18.6696 6.41375 19.4647 6.41375 20.2042Z" fill="url(#paint1_linear_1583_1570)"/>
<path id="Vector_3" d="M6.41375 20.2042C6.41375 20.4922 6.42977 20.7765 6.45954 21.0567C6.46321 21.5805 6.55172 22.1132 6.7368 22.6373C6.74344 22.6561 6.75016 22.6749 6.75688 22.6936C6.81454 22.8546 6.87579 23.0134 6.93875 23.1709C6.04883 22.083 5.2918 20.8821 4.69305 19.5927C4.41485 18.9936 3.5343 19.1125 3.42618 19.7642C3.23352 20.9246 3.13266 22.0565 3.13266 23.1325C3.13258 32.4482 10.6844 40 20 40C29.3156 40 36.8674 32.4482 36.8674 23.1326C36.8674 22.0565 36.7666 20.9246 36.5738 19.7639C36.4659 19.1139 35.5859 18.9921 35.3084 19.5899C35.2972 19.6142 35.2859 19.6384 35.2745 19.6626C34.8293 20.6099 33.4052 20.2338 33.493 19.1908C33.5301 18.7496 33.5449 18.3048 33.5389 17.8582H6.70211C6.51414 18.6696 6.41375 19.4647 6.41375 20.2042Z" fill="url(#paint2_linear_1583_1570)"/>
<path id="Vector_4" d="M36.8674 23.1326C36.8674 22.0565 36.7666 20.9245 36.5738 19.7639C36.4659 19.1138 35.5859 18.992 35.3085 19.5898C35.2972 19.6141 35.2859 19.6383 35.2745 19.6626C34.8293 20.6098 33.4053 20.2337 33.493 19.1908C33.6533 17.2846 33.4175 15.3143 32.7307 13.3957C30.5014 7.16803 23.0164 0.0770149 16.3881 6.17922e-05C15.6803 -0.00814133 15.2739 0.802171 15.6917 1.37366C16.2486 2.13537 16.7009 2.99405 17.0211 3.93592C18.0722 7.02772 17.4252 10.3194 15.5744 12.7651C15.1902 13.2727 14.5911 13.4026 14.0831 13.2473V38.9319C15.9243 39.6218 17.9179 40 20 40C29.3156 40 36.8674 32.4482 36.8674 23.1326Z" fill="url(#paint3_linear_1583_1570)"/>
</g>
<path id="Vector_5" d="M35.582 29.5999L24.6168 18.6348L13.425 34.7249L18.646 39.9459C19.0927 39.9813 19.5441 40 20 40C27.0243 40 33.0448 35.7059 35.582 29.5999Z" fill="url(#paint4_linear_1583_1570)"/>
<g id="Group_3">
<path id="Vector_6" d="M28.5453 26.0087C28.539 26.0223 28.5327 26.0358 28.5263 26.0493C28.2779 26.5781 27.4829 26.3681 27.5319 25.7859C27.6213 24.7219 27.4897 23.6221 27.1063 22.5511C25.8619 19.0748 21.6836 15.1165 17.9837 15.0735C17.5886 15.0689 17.3618 15.5213 17.595 15.8402C17.9058 16.2655 18.1583 16.7448 18.3371 17.2706C18.9238 18.9964 18.5626 20.8339 17.5295 22.1991C17.0988 22.7682 16.1844 22.4871 16.1693 21.7735C16.1692 21.7684 16.169 21.7632 16.169 21.758C16.1629 21.3797 16.225 21.0165 16.344 20.6802C16.3965 20.5319 16.259 20.3859 16.1084 20.4313C14.0109 21.0635 12.416 24.15 12.416 26.3516C12.416 26.5123 12.425 26.671 12.4415 26.8274C12.4436 27.1198 12.493 27.4172 12.5963 27.7097C12.6001 27.7202 12.6037 27.7307 12.6075 27.7412C12.6397 27.8311 12.6739 27.9196 12.709 28.0076C12.2122 27.4003 11.7897 26.7299 11.4554 26.0102C11.3001 25.6758 10.8086 25.7423 10.7482 26.1059C10.6406 26.7538 10.5844 27.3856 10.5844 27.9862C10.5844 33.1863 14.7998 37.4017 19.9999 37.4017C25.2 37.4017 29.4154 33.1863 29.4154 27.9862C29.4154 27.3855 29.3591 26.7536 29.2515 26.1058C29.1914 25.743 28.7001 25.675 28.5453 26.0087Z" fill="url(#paint5_linear_1583_1570)"/>
<path id="Vector_7" d="M29.4155 27.9863C29.4155 27.3856 29.3592 26.7537 29.2516 26.1059C29.1914 25.743 28.7001 25.675 28.5453 26.0087C28.539 26.0223 28.5327 26.0358 28.5263 26.0493C28.2779 26.5781 27.4829 26.3681 27.5318 25.7859C27.6213 24.7219 27.4897 23.6221 27.1063 22.5511C25.8618 19.0748 21.6836 15.1165 17.9837 15.0735C17.5886 15.0689 17.3618 15.5213 17.595 15.8402C17.9058 16.2655 18.1583 16.7448 18.3371 17.2706C18.9238 18.9964 18.5626 20.8339 17.5295 22.1991C17.3151 22.4824 16.9807 22.5549 16.6971 22.4683V36.8056C17.7249 37.1906 18.8377 37.4018 20 37.4018C25.2001 37.4018 29.4155 33.1863 29.4155 27.9863Z" fill="url(#paint6_linear_1583_1570)"/>
<path id="Vector_8" d="M12.416 26.3516C12.416 26.5124 12.425 26.6711 12.4415 26.8275C12.4436 27.1199 12.493 27.4172 12.5963 27.7097C12.6001 27.7202 12.6037 27.7307 12.6075 27.7412C12.6397 27.8311 12.6739 27.9197 12.709 28.0076C12.2122 27.4004 11.7897 26.73 11.4554 26.0103C11.3001 25.6758 10.8086 25.7423 10.7482 26.106C10.6406 26.7538 10.5844 27.3856 10.5844 27.9862C10.5844 33.1863 14.7998 37.4018 19.9999 37.4018C25.2 37.4018 29.4154 33.1863 29.4154 27.9862C29.4154 27.3855 29.3591 26.7536 29.2515 26.1058C29.1913 25.7429 28.7001 25.675 28.5452 26.0086C28.5389 26.0222 28.5326 26.0357 28.5262 26.0493C28.2778 26.578 27.4829 26.3681 27.5318 25.7859C27.5525 25.5396 27.5608 25.2914 27.5574 25.042H12.577C12.4721 25.495 12.416 25.9389 12.416 26.3516Z" fill="url(#paint7_linear_1583_1570)"/>
<path id="Vector_9" d="M12.416 26.3516C12.416 26.5124 12.425 26.6711 12.4415 26.8275C12.4436 27.1199 12.493 27.4172 12.5963 27.7097C12.6001 27.7202 12.6037 27.7307 12.6075 27.7412C12.6397 27.8311 12.6739 27.9197 12.709 28.0076C12.2122 27.4004 11.7897 26.73 11.4554 26.0103C11.3001 25.6758 10.8086 25.7423 10.7482 26.106C10.6406 26.7538 10.5844 27.3856 10.5844 27.9862C10.5844 33.1863 14.7998 37.4018 19.9999 37.4018C25.2 37.4018 29.4154 33.1863 29.4154 27.9862C29.4154 27.3855 29.3591 26.7536 29.2515 26.1058C29.1913 25.7429 28.7001 25.675 28.5452 26.0086C28.5389 26.0222 28.5326 26.0357 28.5262 26.0493C28.2778 26.578 27.4829 26.3681 27.5318 25.7859C27.5525 25.5396 27.5608 25.2914 27.5574 25.042H12.577C12.4721 25.495 12.416 25.9389 12.416 26.3516Z" fill="url(#paint8_linear_1583_1570)"/>
</g>
<g id="Group_4">
<path id="Vector_10" d="M4.93578 14.0097C6.16992 14.2628 7.15335 12.9936 6.6607 11.8341C6.2925 10.9675 6.35031 9.93892 6.9057 9.09267C6.90664 9.09126 6.90757 9.08986 6.90843 9.08845C7.04882 8.87532 6.93671 8.58845 6.68773 8.53235C5.53726 8.27321 4.29601 8.73228 3.6107 9.77642C2.72757 11.122 3.10249 12.9288 4.44812 13.812C4.59882 13.9108 4.76328 13.9743 4.93578 14.0097Z" fill="url(#paint9_linear_1583_1570)"/>
<path id="Vector_11" d="M4.93578 14.0097C6.16992 14.2628 7.15335 12.9936 6.6607 11.8341C6.2925 10.9675 6.35031 9.93892 6.9057 9.09267C6.90664 9.09126 6.90757 9.08986 6.90843 9.08845C7.04882 8.87532 6.93671 8.58845 6.68773 8.53235C5.53726 8.27321 4.29601 8.73228 3.6107 9.77642C2.72757 11.122 3.10249 12.9288 4.44812 13.812C4.59882 13.9108 4.76328 13.9743 4.93578 14.0097Z" fill="url(#paint10_linear_1583_1570)"/>
<path id="Vector_12" d="M4.93578 14.0097C6.16992 14.2628 7.15335 12.9936 6.6607 11.8341C6.2925 10.9675 6.35031 9.93892 6.9057 9.09267C6.90664 9.09126 6.90757 9.08986 6.90843 9.08845C7.04882 8.87532 6.93671 8.58845 6.68773 8.53235C5.53726 8.27321 4.29601 8.73228 3.6107 9.77642C2.72757 11.122 3.10249 12.9288 4.44812 13.812C4.59882 13.9108 4.76328 13.9743 4.93578 14.0097Z" fill="url(#paint11_linear_1583_1570)"/>
</g>
</g>
</g>
<defs>
<linearGradient id="paint0_linear_1583_1570" x1="11.2606" y1="13.7951" x2="27.7587" y2="30.2932" gradientUnits="userSpaceOnUse">
<stop stop-color="#FFA1AE"/>
<stop offset="1" stop-color="#FF4565"/>
</linearGradient>
<linearGradient id="paint1_linear_1583_1570" x1="23.7584" y1="29.1328" x2="29.6062" y2="36.2059" gradientUnits="userSpaceOnUse">
<stop stop-color="#FE0364" stop-opacity="0"/>
<stop offset="0.2343" stop-color="#F90362" stop-opacity="0.234"/>
<stop offset="0.5173" stop-color="#EA035B" stop-opacity="0.517"/>
<stop offset="0.8243" stop-color="#D20250" stop-opacity="0.824"/>
<stop offset="1" stop-color="#C00148"/>
</linearGradient>
<linearGradient id="paint2_linear_1583_1570" x1="19.4701" y1="28.8486" x2="18.412" y2="40.3214" gradientUnits="userSpaceOnUse">
<stop stop-color="#FE0364" stop-opacity="0"/>
<stop offset="0.2343" stop-color="#F90362" stop-opacity="0.234"/>
<stop offset="0.5173" stop-color="#EA035B" stop-opacity="0.517"/>
<stop offset="0.8243" stop-color="#D20250" stop-opacity="0.824"/>
<stop offset="1" stop-color="#C00148"/>
</linearGradient>
<linearGradient id="paint3_linear_1583_1570" x1="24.1397" y1="18.0773" x2="34.61" y2="13.2877" gradientUnits="userSpaceOnUse">
<stop stop-color="#FE0364" stop-opacity="0"/>
<stop offset="0.2343" stop-color="#F90362" stop-opacity="0.234"/>
<stop offset="0.5173" stop-color="#EA035B" stop-opacity="0.517"/>
<stop offset="0.8243" stop-color="#D20250" stop-opacity="0.824"/>
<stop offset="1" stop-color="#C00148"/>
</linearGradient>
<linearGradient id="paint4_linear_1583_1570" x1="32.6779" y1="37.4551" x2="19.8685" y2="27.9873" gradientUnits="userSpaceOnUse">
<stop stop-color="#FE0364" stop-opacity="0"/>
<stop offset="0.2343" stop-color="#F90362" stop-opacity="0.234"/>
<stop offset="0.5173" stop-color="#EA035B" stop-opacity="0.517"/>
<stop offset="0.8243" stop-color="#D20250" stop-opacity="0.824"/>
<stop offset="1" stop-color="#C00148"/>
</linearGradient>
<linearGradient id="paint5_linear_1583_1570" x1="16.1331" y1="23.3452" x2="23.7073" y2="32.1446" gradientUnits="userSpaceOnUse">
<stop stop-color="#FEF0AE"/>
<stop offset="1" stop-color="#FAC600"/>
</linearGradient>
<linearGradient id="paint6_linear_1583_1570" x1="24.2897" y1="24.6576" x2="26.8516" y2="23.7665" gradientUnits="userSpaceOnUse">
<stop stop-color="#FE9738" stop-opacity="0"/>
<stop offset="1" stop-color="#FE9738"/>
</linearGradient>
<linearGradient id="paint7_linear_1583_1570" x1="17.3855" y1="32.7384" x2="15.492" y2="35.8201" gradientUnits="userSpaceOnUse">
<stop stop-color="#FE9738" stop-opacity="0"/>
<stop offset="1" stop-color="#FE9738"/>
</linearGradient>
<linearGradient id="paint8_linear_1583_1570" x1="22.2551" y1="33.0495" x2="23.7403" y2="36.2054" gradientUnits="userSpaceOnUse">
<stop stop-color="#FE9738" stop-opacity="0"/>
<stop offset="1" stop-color="#FE9738"/>
</linearGradient>
<linearGradient id="paint9_linear_1583_1570" x1="3.96867" y1="9.81743" x2="7.42164" y2="12.7135" gradientUnits="userSpaceOnUse">
<stop stop-color="#FFA1AE"/>
<stop offset="1" stop-color="#FF4565"/>
</linearGradient>
<linearGradient id="paint10_linear_1583_1570" x1="4.88851" y1="11.9852" x2="4.10874" y2="14.0181" gradientUnits="userSpaceOnUse">
<stop stop-color="#FE0364" stop-opacity="0"/>
<stop offset="0.2343" stop-color="#F90362" stop-opacity="0.234"/>
<stop offset="0.5173" stop-color="#EA035B" stop-opacity="0.517"/>
<stop offset="0.8243" stop-color="#D20250" stop-opacity="0.824"/>
<stop offset="1" stop-color="#C00148"/>
</linearGradient>
<linearGradient id="paint11_linear_1583_1570" x1="4.86851" y1="10.9937" x2="7.40249" y2="11.7456" gradientUnits="userSpaceOnUse">
<stop stop-color="#FE0364" stop-opacity="0"/>
<stop offset="0.2343" stop-color="#F90362" stop-opacity="0.234"/>
<stop offset="0.5173" stop-color="#EA035B" stop-opacity="0.517"/>
<stop offset="0.8243" stop-color="#D20250" stop-opacity="0.824"/>
<stop offset="1" stop-color="#C00148"/>
</linearGradient>
<clipPath id="clip0_1583_1570">
<rect width="40" height="40" fill="white"/>
</clipPath>
</defs>
</svg>
