<svg width="18" height="19" viewBox="0 0 18 19" fill="none" xmlns="http://www.w3.org/2000/svg">
<g clip-path="url(#clip0_1296_1433)">
<path d="M7.169 4.37001H4.847C3.971 4.37001 3.164 4.58601 2.426 5.01801C1.688 5.45001 1.103 6.03201 0.671005 6.76401C0.227005 7.50801 0.00500488 8.31801 0.00500488 9.19401C0.00500488 10.07 0.224005 10.877 0.662005 11.615C1.1 12.353 1.688 12.941 2.426 13.379C3.164 13.817 3.971 14.036 4.847 14.036H7.169C7.253 14.036 7.328 14.012 7.394 13.964C7.46 13.916 7.499 13.85 7.511 13.766C7.931 12.266 8.141 10.742 8.141 9.19401C8.141 7.64601 7.931 6.12801 7.511 4.64001C7.499 4.55601 7.46 4.49001 7.394 4.44201C7.328 4.39401 7.253 4.37001 7.169 4.37001ZM0.743005 9.19401C0.743005 8.45001 0.926005 7.76601 1.292 7.142C1.658 6.51801 2.156 6.02301 2.786 5.65701C3.416 5.29101 4.103 5.10801 4.847 5.10801H5.333C5.681 6.392 5.855 7.75701 5.855 9.20301C5.855 10.649 5.681 12.014 5.333 13.298H4.847C4.103 13.298 3.416 13.115 2.786 12.749C2.156 12.383 1.658 11.885 1.292 11.255C0.926005 10.625 0.743005 9.938 0.743005 9.19401ZM6.881 13.298H6.089C6.425 11.99 6.593 10.625 6.593 9.20301C6.593 7.78101 6.425 6.41601 6.089 5.10801H6.881C7.229 6.45201 7.403 7.81701 7.403 9.20301C7.403 10.589 7.229 11.954 6.881 13.298ZM8.951 6.35001L17.555 8.18601H17.645C17.729 8.18601 17.807 8.15901 17.879 8.10501C17.951 8.05101 17.993 7.97901 18.005 7.88901C18.017 7.79901 17.996 7.71201 17.942 7.62801C17.888 7.54401 17.813 7.49001 17.717 7.46601L9.113 5.63C9.017 5.60601 8.927 5.62101 8.843 5.675C8.759 5.729 8.705 5.80401 8.681 5.90001C8.657 5.99601 8.672 6.08901 8.726 6.17901C8.78 6.269 8.855 6.326 8.951 6.35001ZM17.717 9.60801L9.113 7.77201C9.017 7.74801 8.924 7.76601 8.834 7.826C8.744 7.88601 8.69 7.964 8.672 8.06001C8.654 8.15601 8.672 8.24601 8.726 8.33001C8.78 8.41401 8.855 8.46801 8.951 8.49201L17.555 10.328C17.579 10.34 17.609 10.346 17.645 10.346C17.729 10.346 17.807 10.319 17.879 10.265C17.951 10.211 17.996 10.139 18.014 10.049C18.032 9.959 18.011 9.86901 17.951 9.77901C17.891 9.689 17.813 9.63201 17.717 9.60801ZM17.717 11.768L9.113 9.91401C9.017 9.89001 8.924 9.90801 8.834 9.96801C8.744 10.028 8.69 10.106 8.672 10.202C8.654 10.298 8.672 10.388 8.726 10.472C8.78 10.556 8.855 10.61 8.951 10.634L17.555 12.47C17.579 12.482 17.609 12.488 17.645 12.488C17.729 12.488 17.807 12.461 17.879 12.407C17.951 12.353 17.996 12.281 18.014 12.191C18.032 12.101 18.011 12.011 17.951 11.921C17.891 11.831 17.813 11.78 17.717 11.768ZM17.717 13.91L9.113 12.056C9.017 12.032 8.924 12.05 8.834 12.11C8.744 12.17 8.69 12.248 8.672 12.344C8.654 12.44 8.672 12.533 8.726 12.623C8.78 12.713 8.855 12.764 8.951 12.776L17.555 14.63H17.645C17.729 14.63 17.807 14.603 17.879 14.549C17.951 14.495 17.996 14.423 18.014 14.333C18.032 14.243 18.011 14.153 17.951 14.063C17.891 13.973 17.813 13.922 17.717 13.91Z" fill="#2C3333"/>
</g>
<defs>
<clipPath id="clip0_1296_1433">
<rect width="17.98" height="18" fill="white" transform="matrix(1 0 0 -1 0 18.5)"/>
</clipPath>
</defs>
</svg>
