<svg width="24" height="24" viewBox="0 0 24 24" fill="none" xmlns="http://www.w3.org/2000/svg">
<path d="M11.9969 23.9938C18.6226 23.9938 23.9938 18.6226 23.9938 11.9969C23.9938 5.3712 18.6226 0 11.9969 0C5.3712 0 0 5.3712 0 11.9969C0 18.6226 5.3712 23.9938 11.9969 23.9938Z" fill="#EBF4FD"/>
<path d="M12.0753 7.82535L17.3128 13.1676V19.0397H14.121V15.2626C14.121 14.2829 13.1968 13.488 12.0753 13.488C10.9477 13.488 10.0296 14.289 10.0296 15.2626V19.0397H6.83786V13.1676L12.0753 7.82535ZM4.41013 13.3709C4.56427 13.5268 4.77373 13.6156 4.99296 13.6179C5.2122 13.6202 5.42348 13.5359 5.58086 13.3832L12.0199 6.95654L18.4096 13.3278C18.5654 13.4821 18.7758 13.5686 18.995 13.5686C19.2142 13.5686 19.4246 13.4821 19.5804 13.3278C19.7369 13.1707 19.8248 12.958 19.8248 12.7363C19.8248 12.5145 19.7369 12.3018 19.5804 12.1447L12.6176 5.20044C12.4798 5.06495 12.2988 4.98209 12.1062 4.9663C11.9828 4.95186 11.8579 4.96541 11.7405 5.00595C11.6232 5.04649 11.5165 5.11297 11.4284 5.20044L4.41629 12.194C4.25977 12.3511 4.17188 12.5638 4.17188 12.7856C4.17188 13.0073 4.25977 13.22 4.41629 13.3771L4.41013 13.3709Z" fill="#0074E4"/>
</svg>
