<svg width="40" height="40" viewBox="0 0 40 40" fill="none" xmlns="http://www.w3.org/2000/svg">
<path d="M17.2357 28.4028C17.2357 28.4028 17.3381 28.3015 17.2357 28.3015C12.5261 18.1704 6.07607 10.3695 6.07607 10.3695C6.07607 10.3695 2.59508 13.6114 2.79985 16.9547C2.90223 19.4875 4.84749 20.9058 4.84749 20.9058C7.91894 23.8438 15.2904 27.5923 17.0309 28.4028H17.2357ZM16.0071 30.9356C16.0071 30.8343 15.8023 30.8343 15.8023 30.8343L3.51652 31.2395C4.84749 33.5697 7.09989 35.3933 9.45467 34.8867C11.0928 34.4815 14.7785 31.9487 15.9047 31.1382C16.1095 30.9356 16.0071 30.9356 16.0071 30.9356ZM16.2119 29.8212C16.3143 29.7199 16.2119 29.6185 16.2119 29.6185C10.7856 25.9713 0.342683 20.5006 0.342683 20.5006C-0.578754 23.4386 0.649829 25.7687 0.649829 25.7687C1.98079 28.6054 4.54034 29.4159 4.54034 29.4159C5.66654 29.9225 6.89512 29.9225 6.89512 29.9225H16.1095C16.2119 29.9225 16.2119 29.8212 16.2119 29.8212ZM17.0309 5.10131C16.519 5.10131 15.0857 5.50655 15.0857 5.50655C11.8095 6.31704 11.0928 9.25506 11.0928 9.25506C10.4785 11.0787 11.0928 13.1049 11.0928 13.1049C12.219 17.8665 17.5428 25.7687 18.669 27.3897L18.7714 27.491C18.8738 27.491 18.8738 27.3897 18.8738 27.3897C20.7167 9.6603 17.0309 5.10131 17.0309 5.10131ZM21.1262 27.3897C21.2286 27.3897 21.331 27.2884 21.331 27.2884C22.5595 25.5661 27.781 17.7652 28.9072 13.0036C28.9072 13.0036 29.5215 10.6734 28.9072 9.15375C28.9072 9.15375 28.0882 6.21573 24.8119 5.40524C24.8119 5.40524 23.8905 5.20262 22.8667 5C22.8667 5 19.1809 9.6603 21.0238 27.1871C21.0238 27.3897 21.1262 27.3897 21.1262 27.3897ZM23.9929 30.8343C23.9929 30.8343 23.8905 30.8343 23.8905 30.9356V31.1382C25.1191 31.9487 28.6001 34.4815 30.3406 34.8867C30.3406 34.8867 33.5144 36.0011 36.2787 31.2395L23.9929 30.8343ZM39.6573 20.3993C39.6573 20.3993 29.2144 25.9713 23.7881 29.6185C23.7881 29.6185 23.6857 29.7199 23.6857 29.8212C23.6857 29.8212 23.6857 29.9225 23.7881 29.9225H33.2073C33.2073 29.9225 34.1287 29.9225 35.3573 29.4159C35.3573 29.4159 37.9168 28.6054 39.3502 25.6674C39.3502 25.5661 40.5788 23.236 39.6573 20.3993ZM22.7643 28.4028C22.7643 28.4028 22.8667 28.5041 22.9691 28.4028C24.7096 27.491 32.0811 23.8438 35.1525 20.9058C35.1525 20.9058 37.0978 19.3861 37.2002 16.9547C37.4049 13.5101 33.9239 10.3695 33.9239 10.3695C33.9239 10.3695 27.4739 17.9678 22.7643 28.2002C22.7643 28.2002 22.6619 28.3015 22.7643 28.4028Z" fill="#CF0A2C"/>
</svg>
