<svg width="39" height="39" viewBox="0 0 39 39" fill="none" xmlns="http://www.w3.org/2000/svg">
<path d="M38.5908 16.2137H38.5655C38.5402 16.2137 38.5085 16.238 38.5085 16.2683C38.4832 16.6441 38.1982 17.7169 36.2096 19.1958C32.2514 22.1779 25.2723 25.7479 23.4167 26.6873C23.3344 26.7116 23.2774 26.7116 23.2204 26.6873C23.1634 26.6328 23.2204 26.554 23.2204 26.5237L25.1837 23.972C25.1837 23.972 25.9943 23.087 25.6333 22.7112C25.4117 22.4991 24.2844 22.687 24.2844 22.687C24.2844 22.687 15.0571 23.9235 7.95768 22.4749C7.95768 22.4749 7.93234 22.4749 7.93234 22.4991V22.5234C9.47762 22.9537 15.0571 24.3235 23.0811 23.9174C23.1381 23.9174 23.1951 23.972 23.1951 24.0508C23.1951 24.075 23.1951 24.1053 23.1698 24.1295C22.7518 24.6387 21.6245 25.9843 19.8006 27.8087C19.3509 28.2935 19.0722 28.5602 19.4332 28.8815C19.7689 29.1482 20.3579 28.8815 20.3579 28.8815L25.4053 26.5722C25.4053 26.5722 32.7834 23.1355 35.9499 20.9353C40.0474 18.2321 38.9581 16.5895 38.5908 16.2137ZM13.9044 15.3288C13.6511 15.3288 13.4548 15.25 13.3155 15.0864C13.1761 14.9227 13.1445 14.7106 13.2015 14.4439C13.3408 13.9893 13.8158 13.6135 14.3224 13.6135C14.5758 13.6135 14.7721 13.6923 14.9114 13.8559C15.0507 14.0196 15.0824 14.2317 15.0254 14.4742C14.8861 14.9833 14.4111 15.3288 13.9044 15.3288ZM21.7891 21.8263C21.5105 21.8263 21.2572 21.8021 21.0292 21.7475C20.5542 21.6142 20.2185 21.3172 20.0475 20.8868C19.7372 20.111 20.0475 19.0321 20.4655 18.3654C20.4655 18.3412 21.6688 16.1652 24.563 15.7591H24.7847C25.2597 15.7591 25.5953 15.8925 25.8233 16.1349C26.1336 16.5107 25.9943 16.9956 25.9943 17.0199C25.969 17.0744 25.5763 18.7109 22.4604 19.3291C22.1248 19.3837 21.8968 19.3837 21.7575 19.3837H21.6181C21.5612 19.517 21.4218 19.9231 21.5612 20.2686C21.6435 20.4565 21.8145 20.6202 22.0678 20.7232C22.2388 20.7778 22.4604 20.802 22.6568 20.802C23.8917 20.802 25.1267 19.7292 25.1267 19.6989C25.1267 19.6989 25.209 19.6443 25.4053 19.4564H25.4307C25.456 19.4564 25.4877 19.4322 25.513 19.4322C25.57 19.4322 25.627 19.4564 25.6523 19.4867C25.6777 19.511 25.7093 19.5958 25.7093 19.6504C25.7093 19.6746 25.7093 19.7049 25.684 19.7595C25.627 19.8928 25.3737 20.402 24.2844 21.1293C23.7777 21.4263 23.2774 21.6384 22.7391 21.7475C22.3781 21.8021 22.0678 21.8263 21.7891 21.8263ZM24.0311 16.7774H23.8917C23.5244 16.8017 23.1634 16.9411 22.7961 17.2077C22.1248 17.6926 21.7891 18.3897 21.7891 18.3897C21.7638 18.4139 21.7638 18.4685 21.7891 18.523C21.8145 18.5776 21.9031 18.6018 22.0108 18.6018H22.0931C22.4035 18.6018 22.8784 18.5776 23.5497 18.2503C23.9171 18.0624 24.1641 17.8502 24.3097 17.5775C24.4237 17.3653 24.449 17.1774 24.449 17.1774C24.449 17.1774 24.4744 17.0138 24.3667 16.8804C24.3414 16.832 24.2021 16.7774 24.0311 16.7774ZM26.7796 21.4505C26.4693 21.4263 26.2476 21.1838 26.2476 20.9111C26.2476 20.8323 26.273 20.7474 26.3046 20.6686C26.3616 20.5899 26.672 20.0504 30.0095 14.2014C30.0348 14.1772 30.0348 14.1469 30.0665 14.1226L30.0918 14.0984C30.2881 13.8317 30.5985 13.6681 30.9341 13.6438H31.0735C31.3838 13.6681 31.6054 13.9105 31.6054 14.1832C31.6054 14.262 31.5801 14.3469 31.5484 14.4257C31.4914 14.5045 31.1811 15.0439 27.8436 20.8929C27.8182 20.9172 27.8182 20.9475 27.7866 20.9717L27.7612 20.9959C27.5649 21.2626 27.2546 21.4263 26.9189 21.4505H26.7796ZM16.064 21.8263C15.5321 21.8263 15.0254 21.5596 14.7467 21.099L14.6644 20.9353C14.5251 20.5353 14.6074 20.105 14.6644 19.9171C14.6897 19.7534 14.7214 19.7292 15.3927 18.5473C15.589 18.1957 15.7854 17.8502 16.121 17.232H14.9431C14.9177 17.232 14.8861 17.232 14.8607 17.2077C14.8354 17.1835 14.8037 17.1835 14.7784 17.1532C14.7784 17.129 14.7531 17.129 14.7531 17.0986C14.7277 17.0441 14.7277 16.935 14.7531 16.8865L14.9241 16.5895C14.9811 16.4804 15.0634 16.3774 15.1774 16.2683C15.3484 16.1046 15.5447 16.0258 15.7664 16.0016H16.8303L17.6726 14.5227C17.698 14.4984 17.698 14.4681 17.7296 14.4439L17.755 14.4196C17.9513 14.1529 18.2616 13.9893 18.5973 13.965H18.7366C19.0469 13.9893 19.2686 14.2317 19.2686 14.5045C19.2686 14.5833 19.2432 14.6681 19.2116 14.7469C19.1862 14.8015 18.4516 16.038 18.4516 16.038H19.9652C20.0222 16.038 20.0792 16.0622 20.1362 16.0925C20.1615 16.1167 20.1615 16.1167 20.1615 16.1471C20.1869 16.2016 20.2185 16.3107 20.1615 16.3592C20.1615 16.3592 19.9082 16.7895 19.8829 16.8138C19.7119 17.0562 19.4649 17.1896 19.1799 17.2138H17.7803L16.3237 19.7655C16.3237 19.7655 16.0134 20.2747 16.1274 20.5717C16.1527 20.6505 16.2097 20.705 16.3237 20.7596C16.4377 20.7838 16.5453 20.8141 16.691 20.8141C17.166 20.8141 17.755 20.5474 18.3756 20.0868L18.4009 20.0625C18.4833 20.008 18.5719 19.9534 18.6226 19.9292H18.6479C18.6733 19.9292 18.7049 19.9049 18.7303 19.9049C18.8443 19.9049 18.9266 19.9837 18.9266 20.0928C18.9266 20.1171 18.9266 20.1474 18.9013 20.1716L18.7873 20.3595C18.5339 20.7899 18.1729 21.1354 17.7233 21.4081C17.3306 21.6506 16.8557 21.7597 16.3744 21.7839H16.064V21.8263ZM10.3453 21.4505C10.0349 21.4263 9.81327 21.1838 9.81327 20.9111C9.81327 20.8323 9.8386 20.7474 9.87027 20.6686C9.8956 20.6141 12.2262 16.535 12.2262 16.535C12.2515 16.5107 12.2515 16.4804 12.2832 16.4562L12.3085 16.4319C12.5048 16.1652 12.8152 16.0016 13.1508 15.9773H13.2901C13.6005 16.0016 13.8221 16.244 13.8221 16.5168C13.8221 16.5956 13.7968 16.6804 13.7651 16.7592C13.7398 16.8138 11.4092 20.8929 11.4092 20.8929C11.3839 20.9172 11.3839 20.9475 11.3522 20.9717L11.3269 20.9959C11.1306 21.2626 10.8202 21.4263 10.4846 21.4505H10.3453ZM31.1874 12.2679C31.2128 12.2679 31.2128 12.2679 31.1874 12.2679C31.2128 12.2437 31.1874 12.2437 31.1874 12.2437C28.3566 11.5467 25.7473 11.2497 23.1064 11.0921C13.7081 10.5526 5.79809 12.4619 2.71388 14.7712C0.579627 16.3228 0.972278 17.8563 1.14327 18.2806L1.1686 18.3048C1.19394 18.3048 1.19394 18.3048 1.19394 18.2806C1.27627 17.7957 1.95391 15.8379 6.66573 14.2014C8.82531 13.5286 12.9228 12.08 20.5479 11.7346C25.8867 11.6255 29.8955 12.1649 31.1874 12.2679Z" fill="#FF0000"/>
</svg>
