<svg width="18" height="18" viewBox="0 0 18 18" fill="none" xmlns="http://www.w3.org/2000/svg">
<path d="M16.4998 9.625H8.1665C8.00074 9.625 7.84177 9.55915 7.72456 9.44194C7.60735 9.32473 7.5415 9.16576 7.5415 9C7.5415 8.83424 7.60735 8.67527 7.72456 8.55806C7.84177 8.44085 8.00074 8.375 8.1665 8.375H16.4998C16.6656 8.375 16.8246 8.44085 16.9418 8.55806C17.059 8.67527 17.1248 8.83424 17.1248 9C17.1248 9.16576 17.059 9.32473 16.9418 9.44194C16.8246 9.55915 16.6656 9.625 16.4998 9.625Z" fill="#252A34"/>
<path d="M13.9999 12.9584C13.8837 12.9587 13.7697 12.9266 13.6708 12.8656C13.5718 12.8047 13.4919 12.7173 13.4399 12.6134C13.388 12.5095 13.366 12.3931 13.3766 12.2774C13.3872 12.1617 13.4299 12.0512 13.4999 11.9584L15.719 9.00008L13.4999 6.04175C13.4506 5.97609 13.4148 5.90137 13.3944 5.82186C13.374 5.74236 13.3695 5.65961 13.3811 5.57836C13.3928 5.49711 13.4202 5.41894 13.4621 5.34832C13.5039 5.27769 13.5592 5.216 13.6249 5.16675C13.7575 5.06729 13.9242 5.02459 14.0882 5.04803C14.2523 5.07147 14.4004 5.15914 14.4999 5.29175L16.9999 8.62508C17.081 8.73327 17.1249 8.86485 17.1249 9.00008C17.1249 9.13531 17.081 9.2669 16.9999 9.37508L14.4999 12.7084C14.4417 12.7861 14.3663 12.8492 14.2795 12.8926C14.1927 12.936 14.0969 12.9585 13.9999 12.9584Z" fill="#252A34"/>
<path d="M3.16646 17.6575C2.55903 17.6569 1.9767 17.4152 1.54733 16.9855C1.11797 16.5558 0.876685 15.9733 0.876465 15.3659V2.6342C0.876742 2.30161 0.949356 1.97306 1.08927 1.67133C1.22919 1.3696 1.43306 1.10192 1.68675 0.886839C1.94043 0.67176 2.23787 0.514433 2.55842 0.425768C2.87897 0.337104 3.21498 0.319223 3.54313 0.373365L10.2098 1.48503C10.7458 1.5724 11.2331 1.84788 11.5843 2.26205C11.9356 2.67621 12.1278 3.20198 12.1265 3.74503V6.50003C12.1265 6.66579 12.0606 6.82476 11.9434 6.94197C11.8262 7.05918 11.6672 7.12503 11.5015 7.12503C11.3357 7.12503 11.1767 7.05918 11.0595 6.94197C10.9423 6.82476 10.8765 6.66579 10.8765 6.50003V3.74503C10.877 3.49838 10.7898 3.25958 10.6304 3.07134C10.471 2.88309 10.2498 2.75768 10.0065 2.71753L3.3398 1.6067C3.1904 1.58134 3.03726 1.58891 2.89109 1.62888C2.74492 1.66885 2.60924 1.74026 2.49353 1.83811C2.37782 1.93596 2.28488 2.0579 2.22119 2.19541C2.1575 2.33291 2.1246 2.48266 2.1248 2.6342V15.3659C2.12464 15.5172 2.15751 15.6668 2.2211 15.8042C2.28469 15.9416 2.37748 16.0634 2.49299 16.1612C2.60851 16.259 2.74397 16.3305 2.88994 16.3706C3.0359 16.4107 3.18885 16.4185 3.33813 16.3934L10.0048 15.2825C10.2482 15.2425 10.4695 15.1172 10.6289 14.9289C10.7883 14.7406 10.8755 14.5017 10.8748 14.255V11.5C10.8748 11.3343 10.9406 11.1753 11.0579 11.0581C11.1751 10.9409 11.334 10.875 11.4998 10.875C11.6656 10.875 11.8245 10.9409 11.9417 11.0581C12.0589 11.1753 12.1248 11.3343 12.1248 11.5V14.255C12.1261 14.7981 11.9339 15.3239 11.5827 15.738C11.2314 16.1522 10.7441 16.4277 10.2081 16.515L3.54146 17.6267C3.41751 17.6471 3.29209 17.6574 3.16646 17.6575Z" fill="#252A34"/>
</svg>
