<svg width="20" height="20" viewBox="0 0 20 20" fill="none" xmlns="http://www.w3.org/2000/svg">
<g clip-path="url(#clip0_326_2786)">
<path d="M15.8333 11.6725C15.8334 10.7128 15.5967 9.76794 15.1442 8.92162C14.6917 8.0753 14.0373 7.3537 13.2392 6.82079C12.441 6.28788 11.5238 5.96012 10.5686 5.86657C9.61349 5.77302 8.65003 5.91657 7.76366 6.2845C6.87729 6.65242 6.09538 7.23335 5.48726 7.97579C4.87914 8.71823 4.46359 9.59924 4.27745 10.5407C4.09131 11.4822 4.14033 12.455 4.42017 13.373C4.7 14.291 5.202 15.1258 5.88168 15.8034L10 19.8334L14.125 15.7992C14.6687 15.2586 15.0996 14.6155 15.3928 13.9071C15.6861 13.1987 15.8358 12.4392 15.8333 11.6725ZM10 17.5L7.05334 14.6184C6.4709 14.0359 6.07415 13.2939 5.91323 12.4861C5.7523 11.6783 5.83442 10.8409 6.1492 10.0797C6.46398 9.31857 6.9973 8.66777 7.68178 8.20957C8.36627 7.75137 9.1712 7.50633 9.99489 7.5054C10.8186 7.50447 11.6241 7.74769 12.3096 8.20434C12.9951 8.66099 13.5299 9.31058 13.8464 10.071C14.1629 10.8315 14.2469 11.6687 14.0878 12.4769C13.9287 13.2851 13.5336 14.0279 12.9525 14.6117L10 17.5ZM10 9.16669C9.50556 9.16669 9.02221 9.31332 8.61108 9.58802C8.19996 9.86272 7.87953 10.2532 7.69031 10.71C7.50109 11.1668 7.45158 11.6695 7.54805 12.1544C7.64451 12.6394 7.88261 13.0848 8.23224 13.4345C8.58187 13.7841 9.02733 14.0222 9.51228 14.1187C9.99724 14.2151 10.4999 14.1656 10.9567 13.9764C11.4135 13.7872 11.804 13.4667 12.0787 13.0556C12.3534 12.6445 12.5 12.1611 12.5 11.6667C12.5 11.0037 12.2366 10.3678 11.7678 9.89893C11.2989 9.43009 10.6631 9.16669 10 9.16669ZM20 8.37169V20H12.2108L13.9167 18.3334H18.3333V8.36919C18.3338 8.24267 18.3052 8.11773 18.2497 8.00402C18.1942 7.8903 18.1134 7.79086 18.0133 7.71336L10.5133 1.84336C10.3668 1.72875 10.1861 1.66648 10 1.66648C9.81395 1.66648 9.63324 1.72875 9.48668 1.84336L1.98668 7.71169C1.88658 7.78949 1.80567 7.88923 1.7502 8.00322C1.69472 8.11721 1.66614 8.24242 1.66668 8.36919V18.3334H6.08334L7.78751 20H8.61455e-06V8.36919C-0.000990493 7.98953 0.0849296 7.61468 0.251186 7.27336C0.417443 6.93203 0.659624 6.63329 0.959175 6.40003L8.45918 0.531695C8.89916 0.187039 9.44194 -0.000244141 10.0008 -0.000244141C10.5597 -0.000244141 11.1025 0.187039 11.5425 0.531695L19.0425 6.40169C19.3417 6.63479 19.5836 6.9333 19.7496 7.27434C19.9155 7.61539 20.0012 7.98991 20 8.36919V8.37169Z" fill="#0074E4"/>
</g>
<defs>
<clipPath id="clip0_326_2786">
<rect width="20" height="20" fill="white"/>
</clipPath>
</defs>
</svg>
