<svg width="40" height="40" viewBox="0 0 40 40" fill="none" xmlns="http://www.w3.org/2000/svg">
<g clip-path="url(#clip0_323_1957)">
<path fill-rule="evenodd" clip-rule="evenodd" d="M20.0007 0.000152588C8.96922 0.000152588 -0.00195312 8.97187 -0.00195312 20C-0.00195312 31.0282 8.96922 40.0001 20.0007 40.0001C31.0285 40.0001 39.9997 31.0282 39.9997 20C39.9998 8.97187 31.0285 0.000152588 20.0007 0.000152588Z" fill="#FF405C"/>
<path fill-rule="evenodd" clip-rule="evenodd" d="M20.7149 39.9859C30.184 39.6523 37.9981 32.705 39.6695 23.6321L28.8905 12.853C28.8297 12.7835 28.7576 12.722 28.6746 12.6712L21.8154 8.45946C21.5279 8.28118 21.163 8.2743 20.8681 8.43985C20.5696 8.60547 20.389 8.91875 20.389 9.25782V24.1328C20.0536 24.0359 19.6813 23.975 19.2722 23.9547C18.0854 23.8961 16.6737 24.1759 15.3026 24.743C13.9315 25.3102 12.7373 26.1071 11.9375 26.9883C10.9681 28.0523 10.6512 29.1578 11.0419 30.1C11.1839 30.4431 11.4005 30.7181 11.6652 30.9362L20.7149 39.9859Z" fill="#D01273"/>
<path fill-rule="evenodd" clip-rule="evenodd" d="M19.8213 27.3781C19.2132 28.0484 18.2291 28.6945 17.127 29.1516C16.0213 29.6078 14.8713 29.8445 13.9646 29.7991C13.2496 29.764 12.8478 29.5592 12.7741 29.3835C12.7041 29.2086 12.8441 28.7781 13.3233 28.2484C13.9315 27.579 14.9155 26.932 16.0176 26.4758C17.1233 26.0187 18.2769 25.7829 19.18 25.8273C19.895 25.8633 20.2968 26.0679 20.3705 26.243C20.4405 26.4188 20.3005 26.8484 19.8213 27.3781ZM28.6746 12.6712L21.8154 8.45946C21.5279 8.28118 21.163 8.2743 20.8681 8.43985C20.5696 8.60547 20.389 8.91875 20.389 9.25782V24.1328C20.0536 24.0359 19.6813 23.975 19.2722 23.9547C18.0854 23.8961 16.6737 24.1759 15.3026 24.743C13.9315 25.3102 12.7373 26.1071 11.9375 26.9883C10.9681 28.0523 10.6512 29.1578 11.0419 30.1C11.5469 31.3196 12.9953 31.6797 14.1895 31.6797C15.3063 31.6797 16.5927 31.4015 17.8421 30.8844C19.2132 30.3173 20.4074 29.5196 21.2073 28.6391C21.9518 27.8211 22.2651 27.0001 22.2614 26.1211V10.9338L27.6942 14.2688C28.1328 14.5398 28.7115 14.4016 28.9805 13.9602C29.2533 13.5196 29.1169 12.9422 28.6746 12.6712Z" fill="white"/>
</g>
<defs>
<clipPath id="clip0_323_1957">
<rect width="40" height="40" fill="white"/>
</clipPath>
</defs>
</svg>
