<svg width="72" height="72" viewBox="0 0 72 72" fill="none" xmlns="http://www.w3.org/2000/svg">
<g clip-path="url(#clip0_1632_1189)">
<path d="M54.6773 23.8001C54.1302 23.2488 53.2399 23.2452 52.6885 23.7921C52.1373 24.3391 52.1336 25.2296 52.6807 25.7809L52.6891 25.7897C52.9629 26.0657 53.3218 26.2032 53.6811 26.2032C54.0394 26.2032 54.3983 26.0663 54.6736 25.7932C55.225 25.2461 55.2243 24.3515 54.6773 23.8001Z" fill="#0079FF"/>
<path d="M71.5881 40.711L58.5271 27.65C57.978 27.101 57.0876 27.101 56.5383 27.65C55.9891 28.1992 55.9891 29.0896 56.5383 29.6389L66.9069 40.0073H42.1815C40.1303 40.0073 38.4618 38.3387 38.4618 36.2876V11.5624L48.4719 21.5724C49.021 22.1214 49.9115 22.1214 50.4608 21.5724C51.0099 21.0232 51.0099 20.1328 50.4608 19.5835L37.7581 6.88099C37.209 6.33199 36.3185 6.33199 35.7694 6.88099L13.3509 29.2998C12.8018 29.849 12.8018 30.7394 13.3509 31.2887L47.181 65.1186C47.4446 65.3823 47.8024 65.5305 48.1753 65.5305C48.5483 65.5305 48.906 65.3823 49.1697 65.1186L71.5883 42.6999C71.8519 42.4361 72.0001 42.0784 72.0001 41.7055C72 41.3326 71.8518 40.9748 71.5881 40.711ZM35.6496 10.9787V28.8881H17.7401L35.6496 10.9787ZM46.7691 60.7291L17.7401 31.7005H35.6496V36.2876C35.6496 39.8895 38.5799 42.8198 42.1817 42.8198H46.7691V60.7291ZM49.5814 60.7293V42.8198H67.4907L49.5814 60.7293Z" fill="#0079FF"/>
<path d="M9.65123 35.7188H1.40625C0.629578 35.7188 0 36.3485 0 37.125C0 37.9015 0.629578 38.5312 1.40625 38.5312H9.65123C10.4279 38.5312 11.0575 37.9017 11.0575 37.125C11.0575 36.3485 10.4279 35.7188 9.65123 35.7188Z" fill="#0079FF"/>
<path d="M13.844 35.7188H13.8229C13.0462 35.7188 12.4166 36.3485 12.4166 37.125C12.4166 37.9015 13.0462 38.5312 13.8229 38.5312H13.844C14.6206 38.5312 15.2502 37.9015 15.2502 37.125C15.2502 36.3485 14.6206 35.7188 13.844 35.7188Z" fill="#0079FF"/>
<path d="M5.9085 20.9536H1.40808C0.631409 20.9536 0.00183105 21.5833 0.00183105 22.3599C0.00183105 23.1364 0.631409 23.7661 1.40808 23.7661H5.9085C6.68517 23.7661 7.31475 23.1364 7.31475 22.3599C7.31475 21.5833 6.68517 20.9536 5.9085 20.9536Z" fill="#0079FF"/>
<path d="M15.8217 20.9536H10.5022C9.72549 20.9536 9.09592 21.5833 9.09592 22.3599C9.09592 23.1364 9.72549 23.7661 10.5022 23.7661H15.8217C16.5984 23.7661 17.228 23.1364 17.228 22.3599C17.228 21.5833 16.5984 20.9536 15.8217 20.9536Z" fill="#0079FF"/>
<path d="M18.8834 43.4526H11.0085C10.2319 43.4526 9.60229 44.0824 9.60229 44.8589C9.60229 45.6354 10.2319 46.2651 11.0085 46.2651H18.8834C19.6601 46.2651 20.2897 45.6354 20.2897 44.8589C20.2897 44.0824 19.6599 43.4526 18.8834 43.4526Z" fill="#0079FF"/>
<path d="M25.0324 52.4526H5.20438C4.4277 52.4526 3.79813 53.0824 3.79813 53.8589C3.79813 54.6354 4.4277 55.2651 5.20438 55.2651H25.0324C25.809 55.2651 26.4386 54.6354 26.4386 53.8589C26.4386 53.0824 25.809 52.4526 25.0324 52.4526Z" fill="#0079FF"/>
</g>
<defs>
<clipPath id="clip0_1632_1189">
<rect width="72" height="72" fill="white"/>
</clipPath>
</defs>
</svg>
