<svg width="32" height="32" viewBox="0 0 32 32" fill="none" xmlns="http://www.w3.org/2000/svg">
<g id="Frame">
<g id="Group">
<path id="Vector" d="M21.7851 5.55002H20.9071V4.71834C20.9071 4.52783 20.8314 4.34511 20.6967 4.2104C20.562 4.07568 20.3793 4 20.1888 4C19.9982 4 19.8155 4.07568 19.6808 4.2104C19.5461 4.34511 19.4704 4.52783 19.4704 4.71834V5.55002H15.1205V4.71834C15.1205 4.52783 15.0448 4.34511 14.9101 4.2104C14.7753 4.07568 14.5926 4 14.4021 4C14.2116 4 14.0289 4.07568 13.8942 4.2104C13.7595 4.34511 13.6838 4.52783 13.6838 4.71834V5.55002H9.33381V4.71834C9.33381 4.52783 9.25813 4.34511 9.12341 4.2104C8.9887 4.07568 8.80599 4 8.61547 4C8.42495 4 8.24224 4.07568 8.10753 4.2104C7.97281 4.34511 7.89713 4.52783 7.89713 4.71834V5.55002H7.01915C6.43702 5.55002 5.87873 5.78127 5.4671 6.1929C5.05547 6.60453 4.82422 7.16282 4.82422 7.74496V10.2184H23.98V7.74496C23.98 7.16282 23.7488 6.60453 23.3371 6.1929C22.9255 5.78127 22.3672 5.55002 21.7851 5.55002ZM26.598 17.1624C25.8397 16.3962 24.5946 16.3962 23.8363 17.1624L22.9177 18.0867L25.6809 20.8499L26.5988 19.932C27.3642 19.1658 27.3642 17.9287 26.598 17.1624ZM22.0716 18.9343L17.2276 23.7712C17.1242 23.8717 17.0568 24.0036 17.036 24.1463L16.6689 26.2854C16.651 26.3953 16.6595 26.5079 16.6937 26.6139C16.7278 26.7198 16.7867 26.8162 16.8655 26.8949C16.9442 26.9737 17.0406 27.0326 17.1465 27.0667C17.2525 27.1009 17.3651 27.1094 17.475 27.0915L19.6141 26.7323C19.7578 26.7084 19.8934 26.6366 19.9972 26.5328L24.834 21.696L22.0716 18.9343Z" fill="#0079FF"/>
<path id="Vector_2" d="M22.9871 16.3185C23.2711 16.0316 23.6084 15.8028 23.98 15.6449V11.4194H4.82422V24.9043C4.82422 26.1175 5.80595 27.0992 7.01915 27.0992H15.6073C15.4796 26.78 15.4293 26.4328 15.4884 26.0856L15.8556 23.9433C15.9242 23.5355 16.1237 23.1603 16.4167 22.8906L21.6821 17.6315L22.9871 16.3185ZM14.1148 23.5307H8.69529C8.50477 23.5307 8.32206 23.455 8.18734 23.3203C8.05263 23.1856 7.97694 23.0029 7.97694 22.8123C7.97694 22.6218 8.05263 22.4391 8.18734 22.3044C8.32206 22.1697 8.50477 22.094 8.69529 22.094H14.1148C14.3053 22.094 14.488 22.1697 14.6227 22.3044C14.7574 22.4391 14.8331 22.6218 14.8331 22.8123C14.8331 23.0029 14.7574 23.1856 14.6227 23.3203C14.488 23.455 14.3053 23.5307 14.1148 23.5307ZM17.5229 19.6756H8.69529C8.50477 19.6756 8.32206 19.5999 8.18734 19.4652C8.05263 19.3305 7.97694 19.1478 7.97694 18.9572C7.97694 18.7667 8.05263 18.584 8.18734 18.4493C8.32206 18.3146 8.50477 18.2389 8.69529 18.2389H17.5229C17.7134 18.2389 17.8961 18.3146 18.0309 18.4493C18.1656 18.584 18.2413 18.7667 18.2413 18.9572C18.2413 19.1478 18.1656 19.3305 18.0309 19.4652C17.8961 19.5999 17.7134 19.6756 17.5229 19.6756ZM20.1058 15.8293H8.69848C8.50796 15.8293 8.32525 15.7536 8.19053 15.6189C8.05582 15.4841 7.98014 15.3014 7.98014 15.1109C7.98014 14.9204 8.05582 14.7377 8.19053 14.603C8.32525 14.4683 8.50796 14.3926 8.69848 14.3926H20.1058C20.2963 14.3926 20.479 14.4683 20.6137 14.603C20.7484 14.7377 20.8241 14.9204 20.8241 15.1109C20.8241 15.3014 20.7484 15.4841 20.6137 15.6189C20.479 15.7536 20.2963 15.8293 20.1058 15.8293Z" fill="#0079FF"/>
</g>
</g>
</svg>
