<svg width="40" height="40" viewBox="0 0 40 40" fill="none" xmlns="http://www.w3.org/2000/svg">
<path d="M17.9635 34.9756C14.7631 34.6882 12.0314 34.0475 9.70856 33.039C4.42501 30.7454 1.08792 26.8742 0.182264 21.9881C0.00923687 21.055 -0.0567321 18.9525 0.0554151 17.9479C0.70945 12.09 4.95521 7.45003 11.6678 5.25754C15.24 4.0909 19.6369 3.70968 23.5837 4.22461C30.8145 5.16827 36.2841 8.57607 38.6882 13.6356C40.6457 17.755 40.3973 22.759 38.0443 26.606C36.9843 28.3389 35.2393 30.1274 33.441 31.3236C30.6431 33.1844 27.3015 34.3421 23.2429 34.8564C22.43 34.9595 18.7177 35.0432 17.9635 34.9756ZM22.2436 29.8531C25.3909 29.5136 28.0385 28.6002 30.0306 27.1673C31.6591 25.9957 32.9479 24.2689 33.5262 22.4837C33.8647 21.4389 33.9318 20.9483 33.9318 19.5203C33.9318 18.0966 33.8656 17.61 33.5298 16.5644C32.4258 13.1275 29.1971 10.5709 24.6858 9.56168C20.7303 8.67664 16.1173 8.9843 12.6998 10.3607C10.234 11.3538 8.28796 12.9614 7.14651 14.9476C5.93306 17.0596 5.6575 19.9362 6.43179 22.4153C7.26601 25.0865 9.46353 27.3219 12.4875 28.5757C14.1347 29.2587 16.1741 29.7347 18.1931 29.9071C18.9678 29.9732 21.4344 29.9402 22.2436 29.8531Z" fill="#006B33"/>
</svg>
