<svg width="18" height="20" viewBox="0 0 18 20" fill="none" xmlns="http://www.w3.org/2000/svg">
<path d="M14.1964 10.1038L13.7081 4.79113C13.6861 4.55201 13.4855 4.36903 13.2454 4.36903H10.4083V3.28962C10.4083 1.60978 9.04169 0.243164 7.36188 0.243164C5.68208 0.243164 4.31543 1.60978 4.31543 3.28962V4.36899H1.47828C1.23815 4.36899 1.0376 4.55197 1.0156 4.79109L0.0062373 15.7729C-0.03279 16.1978 0.0985788 16.5891 0.386134 16.9043C0.673767 17.2195 1.0513 17.3862 1.47801 17.3862H8.92468C9.78077 18.8055 11.3376 19.7568 13.1126 19.7568C15.8074 19.7568 17.9998 17.5644 17.9998 14.8697C17.9998 12.5473 16.3714 10.5982 14.1964 10.1038ZM5.24465 3.28962C5.24465 2.12217 6.19443 1.17239 7.36188 1.17239C8.52934 1.17239 9.47915 2.12217 9.47915 3.28962V4.36899H5.24465V3.28962ZM1.47801 16.4569C1.3128 16.4569 1.18399 16.4001 1.07264 16.278C0.961284 16.1559 0.916488 16.0224 0.931588 15.8579L1.90216 5.29825H4.31543V6.14535C4.31543 6.40193 4.52346 6.60996 4.78004 6.60996C5.03662 6.60996 5.24465 6.40193 5.24465 6.14535V5.29825H9.47915V6.14535C9.47915 6.40193 9.68718 6.60996 9.94377 6.60996C10.2003 6.60996 10.4084 6.40193 10.4084 6.14535V5.29825H12.8216L13.2524 9.98466C13.206 9.98335 13.1594 9.98254 13.1127 9.98254C10.4179 9.98254 8.22552 12.1749 8.22552 14.8697C8.22552 15.4251 8.31883 15.959 8.49031 16.4569H1.47801ZM13.1126 18.8276C10.9302 18.8276 9.1547 17.0521 9.1547 14.8697C9.1547 12.6872 10.9302 10.9117 13.1126 10.9117C15.295 10.9117 17.0706 12.6872 17.0706 14.8697C17.0706 17.0521 15.295 18.8276 13.1126 18.8276ZM15.296 13.4126C15.4735 13.5979 15.4671 13.892 15.2818 14.0695L12.9093 16.341C12.8196 16.4269 12.7038 16.47 12.588 16.47C12.4754 16.47 12.3627 16.4293 12.2738 16.3476L10.9506 15.1325C10.7616 14.9589 10.7491 14.665 10.9227 14.476C11.0962 14.287 11.3901 14.2745 11.5791 14.4481L12.5814 15.3685L14.6392 13.3983C14.8245 13.2209 15.1186 13.2273 15.296 13.4126Z" fill="#252A34"/>
</svg>
