<svg width="110" height="110" viewBox="0 0 110 110" fill="none" xmlns="http://www.w3.org/2000/svg">
<path d="M95.293 28.6376C95.254 28.3945 95.1912 28.1559 95.1055 27.9251C95.1055 27.9251 95.1055 27.9251 95.1055 27.8126C95.054 27.7517 94.9976 27.6953 94.9367 27.6438C94.866 27.5357 94.7843 27.4352 94.693 27.3438L94.393 27.1563L94.0742 27.0063C93.955 26.9553 93.8284 26.9237 93.6992 26.9126H93.4742H93.3617H92.9867C92.8716 26.9416 92.7588 26.9792 92.6492 27.0251H92.5367L47.068 53.2751L46.8992 53.4438L46.5992 53.6876C46.5259 53.7804 46.463 53.881 46.4117 53.9876C46.3506 54.0883 46.3003 54.1951 46.2617 54.3063C46.2107 54.4256 46.1791 54.5522 46.168 54.6813C46.168 54.6813 46.168 54.8313 46.168 54.9063V107.5C46.168 107.5 46.168 107.5 46.168 107.613C46.2069 107.856 46.2697 108.094 46.3555 108.325C46.3555 108.325 46.3555 108.325 46.3555 108.438C46.445 108.571 46.5454 108.696 46.6555 108.813C46.8069 108.963 46.9849 109.084 47.1805 109.169H47.3305C47.533 109.252 47.7492 109.296 47.968 109.3C48.1865 109.294 48.4022 109.249 48.6055 109.169H48.7742H48.9055L67.4867 98.4438C67.5892 98.3662 67.6835 98.2783 67.768 98.1813C67.8637 98.1166 67.9518 98.0411 68.0305 97.9563C68.0979 97.8432 68.1544 97.7239 68.1992 97.6001C68.2603 97.506 68.3106 97.4054 68.3492 97.3001C68.3586 97.1815 68.3586 97.0624 68.3492 96.9438C68.358 96.8253 68.358 96.7062 68.3492 96.5876C68.323 96.4656 68.2853 96.3463 68.2367 96.2314C68.2077 96.1162 68.1701 96.0034 68.1242 95.8939C66.2787 92.8286 65.2816 89.3278 65.235 85.7502C65.1884 82.1726 66.0941 78.647 67.8591 75.5347C69.6242 72.4225 72.1851 69.8357 75.2794 68.0394C78.3737 66.2431 81.8901 65.302 85.468 65.3126C87.9622 65.3036 90.436 65.7615 92.7617 66.6626C92.8735 66.6805 92.9874 66.6805 93.0992 66.6626C93.211 66.6802 93.3249 66.6802 93.4367 66.6626C93.5986 66.682 93.7623 66.682 93.9242 66.6626C94.0052 66.6539 94.0869 66.6539 94.168 66.6626L94.4492 66.4563C94.5576 66.4007 94.6584 66.3314 94.7492 66.2501C94.7991 66.1921 94.8431 66.1293 94.8805 66.0626C94.9958 65.9378 95.0851 65.7912 95.143 65.6313C95.1504 65.5252 95.1504 65.4187 95.143 65.3126C95.1517 65.194 95.1517 65.0749 95.143 64.9563V28.7501C95.143 28.7501 95.293 28.7501 95.293 28.6376Z" fill="#FFD164"/>
<path d="M48.9063 53.3688L3.43751 27.1188H3.32501C3.21006 27.0702 3.09078 27.0326 2.96876 27.0063H2.61251H2.50001H2.27501C2.14013 27.0197 2.00768 27.0512 1.88126 27.1001L1.58126 27.2501L1.28126 27.4376C1.1899 27.5289 1.10821 27.6295 1.03751 27.7376L0.868765 27.9063C0.868765 27.9063 0.868765 27.9063 0.868765 28.0188C0.822902 28.1284 0.785297 28.2412 0.756265 28.3563C0.747451 28.4812 0.747451 28.6065 0.756265 28.7313L0.625015 28.7501V81.2501C0.623703 81.5805 0.709718 81.9054 0.874349 82.1918C1.03898 82.4783 1.27638 82.7162 1.56251 82.8813L47.0313 109.131H47.1625H47.3313C47.5345 109.212 47.7502 109.256 47.9688 109.263C48.1876 109.259 48.4038 109.214 48.6063 109.131H48.7563C48.9518 109.046 49.1298 108.925 49.2813 108.775C49.3914 108.659 49.4917 108.533 49.5813 108.4C49.5813 108.4 49.5813 108.4 49.5813 108.288C49.6271 108.178 49.6647 108.065 49.6938 107.95C49.7026 107.825 49.7026 107.7 49.6938 107.575C49.6938 107.575 49.6938 107.575 49.6938 107.463V55.0001C49.711 54.6838 49.6478 54.3683 49.5101 54.0831C49.3724 53.7978 49.1646 53.5521 48.9063 53.3688Z" fill="#FFC350"/>
<path d="M95.2742 28.75C95.2836 28.8685 95.2836 28.9877 95.2742 29.1062C95.2453 29.2275 95.2077 29.3466 95.1617 29.4625C95.1617 29.4625 95.1617 29.6125 95.1617 29.6875V29.8L95.0492 29.95C94.9155 30.1111 94.7573 30.2503 94.5805 30.3625L70.5617 44.125L66.8117 46.3L48.9055 56.6312C48.6204 56.7958 48.2971 56.8824 47.968 56.8824C47.6388 56.8824 47.3155 56.7958 47.0305 56.6312L1.56172 30.3812C1.45325 30.3039 1.35276 30.216 1.26172 30.1187L1.01797 29.8562V29.7625C1.01797 29.7625 1.01797 29.6125 1.01797 29.5375C0.870978 29.4089 0.738899 29.2643 0.624219 29.1062C0.599219 28.8694 0.599219 28.6306 0.624219 28.3937C0.653148 28.2724 0.690745 28.1534 0.736719 28.0375C0.736719 28.0375 0.736719 27.8875 0.736719 27.8125V27.7187L0.980469 27.4562C1.07151 27.359 1.172 27.2711 1.28047 27.1937L23.593 14.3125L27.1742 12.25L46.7492 0.999982C47.0343 0.835416 47.3576 0.748779 47.6867 0.748779C48.0159 0.748779 48.3392 0.835416 48.6242 0.999982L94.3742 27.1187L94.6367 27.3625L94.8992 27.6437V27.7375C94.8992 27.7375 94.8992 27.8875 94.8992 27.9625C94.9452 28.0784 94.9828 28.1974 95.0117 28.3187C95.115 28.4523 95.203 28.5969 95.2742 28.75Z" fill="#FFE17D"/>
<path d="M70.5625 43.0375V60.8875C70.5625 61.3848 70.365 61.8617 70.0133 62.2134C69.6617 62.565 69.1848 62.7625 68.6875 62.7625C68.1902 62.7625 67.7133 62.565 67.3617 62.2134C67.01 61.8617 66.8125 61.3848 66.8125 60.8875V44.0125L23.875 14.2375L27.4562 12.175L69.7187 41.4813C69.9767 41.6512 70.1887 41.8821 70.3358 42.1536C70.483 42.4251 70.5609 42.7287 70.5625 43.0375Z" fill="#34BE82"/>
<path d="M85.4688 61.5625C80.7406 61.5625 76.1185 62.9646 72.1872 65.5914C68.2558 68.2183 65.1917 71.9519 63.3823 76.3202C61.5729 80.6885 61.0994 85.4953 62.0219 90.1326C62.9443 94.77 65.2211 99.0297 68.5645 102.373C71.9078 105.716 76.1675 107.993 80.8049 108.916C85.4422 109.838 90.249 109.365 94.6173 107.555C98.9856 105.746 102.719 102.682 105.346 98.7503C107.973 94.819 109.375 90.197 109.375 85.4688C109.37 79.1299 106.85 73.0522 102.368 68.57C97.8853 64.0877 91.8076 61.5675 85.4688 61.5625Z" fill="#34BE82"/>
<path d="M82.7484 95.9499C82.4776 95.9499 82.21 95.8913 81.964 95.778C81.718 95.6647 81.4995 95.4995 81.3234 95.2937L73.7484 86.3312C73.4277 85.9508 73.2712 85.4585 73.3134 84.9627C73.3556 84.4669 73.593 84.0082 73.9734 83.6874C74.3539 83.3667 74.8461 83.2102 75.3419 83.2524C75.8377 83.2946 76.2964 83.532 76.6172 83.9124L82.7109 91.0749L94.3734 75.7374C94.5177 75.5294 94.7027 75.3527 94.9171 75.218C95.1315 75.0834 95.371 74.9935 95.6211 74.954C95.8712 74.9144 96.1267 74.9259 96.3722 74.9877C96.6177 75.0496 96.8482 75.1605 97.0497 75.3138C97.2512 75.4672 97.4195 75.6597 97.5446 75.8799C97.6696 76.1 97.7488 76.3433 97.7773 76.5949C97.8058 76.8464 97.783 77.1012 97.7104 77.3438C97.6378 77.5863 97.5168 77.8117 97.3547 78.0062L84.2484 95.1999C84.0796 95.4253 83.8621 95.6098 83.6121 95.7397C83.3622 95.8695 83.0862 95.9414 82.8047 95.9499H82.7484Z" fill="#FDFDFD"/>
</svg>
