<svg width="120" height="120" viewBox="0 0 120 120" fill="none" xmlns="http://www.w3.org/2000/svg">
<path d="M100.293 33.6376C100.254 33.3945 100.191 33.1559 100.105 32.9251C100.105 32.9251 100.105 32.9251 100.105 32.8126C100.054 32.7517 99.9976 32.6953 99.9367 32.6438C99.866 32.5357 99.7843 32.4352 99.693 32.3438L99.393 32.1563L99.0742 32.0063C98.955 31.9553 98.8284 31.9237 98.6992 31.9126H98.4742H98.3617H97.9867C97.8716 31.9416 97.7588 31.9792 97.6492 32.0251H97.5367L52.068 58.2751L51.8992 58.4438L51.5992 58.6876C51.5259 58.7804 51.463 58.881 51.4117 58.9876C51.3506 59.0883 51.3003 59.1951 51.2617 59.3063C51.2107 59.4256 51.1791 59.5522 51.168 59.6813C51.168 59.6813 51.168 59.8313 51.168 59.9063V112.5C51.168 112.5 51.168 112.5 51.168 112.613C51.2069 112.856 51.2697 113.094 51.3555 113.325C51.3555 113.325 51.3555 113.325 51.3555 113.438C51.445 113.571 51.5454 113.696 51.6555 113.813C51.8069 113.963 51.9849 114.084 52.1805 114.169H52.3305C52.533 114.252 52.7492 114.296 52.968 114.3C53.1865 114.294 53.4022 114.249 53.6055 114.169H53.7742H53.9055L72.4867 103.444C72.5892 103.366 72.6835 103.278 72.768 103.181C72.8637 103.117 72.9518 103.041 73.0305 102.956C73.0979 102.843 73.1544 102.724 73.1992 102.6C73.2603 102.506 73.3106 102.405 73.3492 102.3C73.3586 102.182 73.3586 102.062 73.3492 101.944C73.358 101.825 73.358 101.706 73.3492 101.588C73.323 101.466 73.2853 101.346 73.2367 101.231C73.2077 101.116 73.1701 101.003 73.1242 100.894C71.2787 97.8286 70.2816 94.3278 70.235 90.7502C70.1884 87.1726 71.0941 83.647 72.8591 80.5347C74.6242 77.4225 77.1851 74.8357 80.2794 73.0394C83.3737 71.2431 86.8901 70.302 90.468 70.3126C92.9622 70.3036 95.436 70.7615 97.7617 71.6626C97.8735 71.6805 97.9874 71.6805 98.0992 71.6626C98.211 71.6802 98.3249 71.6802 98.4367 71.6626C98.5986 71.682 98.7623 71.682 98.9242 71.6626C99.0052 71.6539 99.0869 71.6539 99.168 71.6626L99.4492 71.4563C99.5576 71.4007 99.6584 71.3314 99.7492 71.2501C99.7991 71.1921 99.8431 71.1293 99.8805 71.0626C99.9958 70.9378 100.085 70.7912 100.143 70.6313C100.15 70.5252 100.15 70.4187 100.143 70.3126C100.152 70.194 100.152 70.0749 100.143 69.9563V33.7501C100.143 33.7501 100.293 33.7501 100.293 33.6376Z" fill="#FFD164"/>
<path d="M53.9063 58.3688L8.43751 32.1188H8.32501C8.21006 32.0702 8.09078 32.0326 7.96876 32.0063H7.61251H7.50001H7.27501C7.14013 32.0197 7.00768 32.0512 6.88126 32.1001L6.58126 32.2501L6.28126 32.4376C6.1899 32.5289 6.10821 32.6295 6.03751 32.7376L5.86876 32.9063C5.86876 32.9063 5.86876 32.9063 5.86876 33.0188C5.8229 33.1284 5.7853 33.2412 5.75626 33.3563C5.74745 33.4812 5.74745 33.6065 5.75626 33.7313L5.62501 33.7501V86.2501C5.6237 86.5805 5.70972 86.9054 5.87435 87.1918C6.03898 87.4783 6.27638 87.7162 6.56251 87.8813L52.0313 114.131H52.1625H52.3313C52.5345 114.212 52.7502 114.256 52.9688 114.263C53.1876 114.259 53.4038 114.214 53.6063 114.131H53.7563C53.9518 114.046 54.1298 113.925 54.2813 113.775C54.3914 113.659 54.4917 113.533 54.5813 113.4C54.5813 113.4 54.5813 113.4 54.5813 113.288C54.6271 113.178 54.6647 113.065 54.6938 112.95C54.7026 112.825 54.7026 112.7 54.6938 112.575C54.6938 112.575 54.6938 112.575 54.6938 112.463V60.0001C54.711 59.6838 54.6478 59.3683 54.5101 59.0831C54.3724 58.7978 54.1646 58.5521 53.9063 58.3688Z" fill="#FFC350"/>
<path d="M100.274 33.75C100.284 33.8685 100.284 33.9877 100.274 34.1062C100.245 34.2275 100.208 34.3466 100.162 34.4625C100.162 34.4625 100.162 34.6125 100.162 34.6875V34.8L100.049 34.95C99.9155 35.1111 99.7573 35.2503 99.5805 35.3625L75.5617 49.125L71.8117 51.3L53.9055 61.6312C53.6204 61.7958 53.2971 61.8824 52.968 61.8824C52.6388 61.8824 52.3155 61.7958 52.0305 61.6312L6.56172 35.3812C6.45325 35.3039 6.35276 35.216 6.26172 35.1187L6.01797 34.8562V34.7625C6.01797 34.7625 6.01797 34.6125 6.01797 34.5375C5.87098 34.4089 5.7389 34.2643 5.62422 34.1062C5.59922 33.8694 5.59922 33.6306 5.62422 33.3937C5.65315 33.2724 5.69074 33.1534 5.73672 33.0375C5.73672 33.0375 5.73672 32.8875 5.73672 32.8125V32.7187L5.98047 32.4562C6.07151 32.359 6.172 32.2711 6.28047 32.1937L28.593 19.3125L32.1742 17.25L51.7492 5.99998C52.0343 5.83542 52.3576 5.74878 52.6867 5.74878C53.0159 5.74878 53.3392 5.83542 53.6242 5.99998L99.3742 32.1187L99.6367 32.3625L99.8992 32.6437V32.7375C99.8992 32.7375 99.8992 32.8875 99.8992 32.9625C99.9452 33.0784 99.9828 33.1974 100.012 33.3187C100.115 33.4523 100.203 33.5969 100.274 33.75Z" fill="#FFE17D"/>
<path d="M75.5625 48.0375V65.8875C75.5625 66.3848 75.365 66.8617 75.0133 67.2134C74.6617 67.565 74.1848 67.7625 73.6875 67.7625C73.1902 67.7625 72.7133 67.565 72.3617 67.2134C72.01 66.8617 71.8125 66.3848 71.8125 65.8875V49.0125L28.875 19.2375L32.4562 17.175L74.7187 46.4813C74.9767 46.6512 75.1887 46.8821 75.3358 47.1536C75.483 47.4251 75.5609 47.7287 75.5625 48.0375Z" fill="#34BE82"/>
<path d="M90.4688 66.5625C85.7406 66.5625 81.1185 67.9646 77.1872 70.5914C73.2558 73.2183 70.1917 76.9519 68.3823 81.3202C66.5729 85.6885 66.0994 90.4953 67.0219 95.1326C67.9443 99.77 70.2211 104.03 73.5645 107.373C76.9078 110.716 81.1675 112.993 85.8049 113.916C90.4422 114.838 95.249 114.365 99.6173 112.555C103.986 110.746 107.719 107.682 110.346 103.75C112.973 99.819 114.375 95.197 114.375 90.4688C114.37 84.1299 111.85 78.0522 107.368 73.57C102.885 69.0877 96.8076 66.5675 90.4688 66.5625Z" fill="#FF1818"/>
<g clip-path="url(#clip0_1191_11341)">
<path d="M93.1209 90.0002L102.561 80.5616C103.146 79.9757 103.146 79.0256 102.561 78.4397C101.975 77.8538 101.025 77.8538 100.439 78.4397L91 87.8793L81.5614 78.4397C80.9754 77.8538 80.0254 77.8538 79.4395 78.4397C78.8536 79.0257 78.8535 79.9757 79.4395 80.5616L88.8791 90.0002L79.4395 99.4389C78.8535 100.025 78.8535 100.975 79.4395 101.561C80.0254 102.147 80.9755 102.147 81.5614 101.561L91 92.1211L100.439 101.561C101.025 102.147 101.975 102.147 102.56 101.561C103.146 100.975 103.146 100.025 102.56 99.4389L93.1209 90.0002Z" fill="#FDFDFD"/>
</g>
<defs>
<clipPath id="clip0_1191_11341">
<rect width="24" height="24" fill="white" transform="translate(79 78)"/>
</clipPath>
</defs>
</svg>
