<svg width="18" height="20" viewBox="0 0 18 20" fill="none" xmlns="http://www.w3.org/2000/svg">
<path d="M5.2942 16.7411V16.5395C5.79785 16.4311 6.17656 15.9825 6.17656 15.447V14.8588C6.17656 14.2425 5.67517 13.7411 5.0589 13.7411H4.47065C4.43822 13.7411 4.41182 13.7147 4.41182 13.6823V13.094C4.41182 13.0616 4.43822 13.0352 4.47065 13.0352H5.0589C5.09133 13.0352 5.11773 13.0616 5.11773 13.094C5.11773 13.3864 5.35477 13.6235 5.64715 13.6235C5.93952 13.6235 6.17656 13.3864 6.17656 13.094C6.17656 12.5585 5.79785 12.1099 5.2942 12.0015V11.7999C5.2942 11.5075 5.05717 11.2705 4.76479 11.2705C4.47242 11.2705 4.23538 11.5075 4.23538 11.7999V12.0015C3.73173 12.1099 3.35303 12.5585 3.35303 13.094V13.6823C3.35303 14.2985 3.85442 14.7999 4.47069 14.7999H5.05893C5.09137 14.7999 5.11777 14.8263 5.11777 14.8588V15.447C5.11777 15.4794 5.09137 15.5058 5.05893 15.5058H4.47069C4.43825 15.5058 4.41185 15.4794 4.41185 15.447C4.41185 15.1546 4.17482 14.9176 3.88244 14.9176C3.59006 14.9176 3.35303 15.1546 3.35303 15.447C3.35303 15.9825 3.73173 16.4311 4.23538 16.5395V16.7411C4.23538 17.0335 4.47242 17.2705 4.76479 17.2705C5.05717 17.2705 5.2942 17.0335 5.2942 16.7411Z" fill="#252A34"/>
<path d="M17.845 4.64916L14.3157 1.11968C14.2164 1.02036 14.0817 0.9646 13.9413 0.9646H5.82353C4.94778 0.9646 4.23529 1.67708 4.23529 2.55283V9.53535C1.85626 9.79956 0 11.8222 0 14.2705C0 16.8977 2.13745 19.0352 4.76471 19.0352H16.4118C17.2875 19.0352 18 18.3227 18 17.447V5.02353C18 4.88309 17.9442 4.74848 17.845 4.64916ZM14.4706 2.77212L15.3316 3.63312L16.1924 4.49401H14.4706V2.77212ZM1.05882 14.2705C1.05882 12.2271 2.72128 10.5646 4.76471 10.5646C6.80813 10.5646 8.47059 12.2271 8.47059 14.2705C8.47059 16.3139 6.80813 17.9764 4.76471 17.9764C2.72128 17.9764 1.05882 16.3139 1.05882 14.2705ZM16.4118 17.9764H7.75585C8.70748 17.2068 9.35781 16.079 9.49987 14.7999H15C15.2924 14.7999 15.5294 14.5629 15.5294 14.2705C15.5294 13.9781 15.2924 13.7411 15 13.7411H9.49984C9.41351 12.9639 9.13969 12.2425 8.72449 11.6234H15C15.2924 11.6234 15.5294 11.3864 15.5294 11.094C15.5294 10.8016 15.2924 10.5646 15 10.5646H7.75585C7.06687 10.0074 6.22017 9.6382 5.29412 9.53535V2.55283C5.29412 2.26092 5.53161 2.02342 5.82353 2.02342H13.4118V5.02342C13.4118 5.3158 13.6488 5.55283 13.9412 5.55283H16.9412V17.447C16.9412 17.7389 16.7037 17.9764 16.4118 17.9764Z" fill="#252A34"/>
<path d="M15.0002 7.38818H7.23547C6.94309 7.38818 6.70605 7.62522 6.70605 7.9176C6.70605 8.20997 6.94309 8.44701 7.23547 8.44701H15.0002C15.2925 8.44701 15.5296 8.20997 15.5296 7.9176C15.5296 7.62522 15.2925 7.38818 15.0002 7.38818Z" fill="#252A34"/>
</svg>
