<svg width="24" height="24" viewBox="0 0 24 24" fill="none" xmlns="http://www.w3.org/2000/svg">
<g clip-path="url(#clip0_326_2651)">
<path d="M0 12C0 18.617 5.383 24 12 24C18.617 24 24 18.617 24 12C24 5.383 18.617 0 12 0C5.383 0 0 5.383 0 12ZM5 8.89C5 8.064 5.298 7.236 5.928 6.607L7.535 5L10.699 8.164L8.628 10.235C9.657 12.796 11.4 14.469 13.765 15.372L15.836 13.301L19 16.465L17.393 18.072C16.764 18.702 15.936 19 15.11 19C10.87 19 5 13.456 5 8.89Z" fill="#0074E4"/>
</g>
<defs>
<clipPath id="clip0_326_2651">
<rect width="24" height="24" fill="white"/>
</clipPath>
</defs>
</svg>
