<svg width="40" height="40" viewBox="0 0 40 40" fill="none" xmlns="http://www.w3.org/2000/svg">
<g clip-path="url(#clip0_862_6787)">
<path d="M35.6139 36.2526C29.4932 41.2491 10.3816 41.2491 4.38583 36.2526C-1.73487 31.2561 -1.11032 9.89616 4.38583 4.27511C9.88199 -1.34594 30.1178 -1.34594 35.6139 4.27511C41.1101 9.89616 41.7346 31.2562 35.6139 36.2526Z" fill="#FEA82F"/>
<path d="M20.1251 27.5088C14.629 31.8807 8.50826 34.1291 2.76232 34.254C-1.48474 27.0091 -0.610313 9.39652 4.38619 4.27513C8.88302 -0.346602 22.9981 -1.22103 31.1174 1.65194C33.116 9.89618 28.9939 20.3887 20.1251 27.5088Z" fill="#FEC26D"/>
<path d="M22.7475 25.1354H17.3763V22.5122C17.3763 21.5129 17.5012 20.7634 17.751 20.3887C18.0008 19.889 18.5005 19.2644 19.3749 18.39L21.7482 15.8918C22.123 15.517 22.2479 14.8925 22.2479 14.2679C22.2479 13.6434 22.123 13.0188 21.6233 12.6441C21.2486 12.1444 20.7489 12.0195 20.1244 12.0195C19.4998 12.0195 19.0001 12.2693 18.6254 12.769C18.2506 13.2686 18.0008 14.0181 17.8759 14.8925H12.2549C12.5047 12.5192 13.3791 10.6454 14.8781 9.39634C16.377 8.14724 18.1258 7.39771 20.3742 7.39771C22.6226 7.39771 24.3714 8.02226 25.7455 9.14647C27.1195 10.3956 27.869 12.0194 27.869 14.143C27.869 15.1423 27.7441 15.7668 27.4943 16.2665C27.2445 16.7661 27.1195 17.0159 26.9946 17.2658C26.8697 17.5156 26.6198 17.7655 26.37 18.1402C25.9953 18.515 25.7455 18.7648 25.6206 18.8897C24.996 19.5142 24.4964 20.0139 23.9967 20.5135C23.4971 21.0132 23.1223 21.388 22.9974 21.7626C22.8725 22.1374 22.7476 22.5121 22.7476 23.1366V25.1354H22.7475ZM17.0016 29.6322C17.0016 27.8834 18.3756 26.5094 20.1244 26.5094C21.8733 26.5094 23.2473 27.8834 23.2473 29.6322C23.2473 31.3811 21.8733 32.755 20.1244 32.755C18.3756 32.755 17.0016 31.381 17.0016 29.6322Z" fill="white"/>
</g>
<defs>
<clipPath id="clip0_862_6787">
<rect width="40" height="40" fill="white"/>
</clipPath>
</defs>
</svg>
