<svg width="40" height="30" viewBox="0 0 40 30" fill="none" xmlns="http://www.w3.org/2000/svg">
<path d="M31.6429 11.3911C31.5623 10.5202 31.6239 8.15259 33.892 4.86034C34.0636 4.6119 34.0324 4.27684 33.8194 4.06384C32.8947 3.13915 32.3222 2.55565 31.9206 2.14734C31.3926 1.60897 31.1516 1.36365 30.7987 1.04378C30.5632 0.832028 30.2067 0.828341 29.9687 1.0359C26.0154 4.47584 21.6246 11.584 22.2599 20.2925C22.6322 25.406 26.3621 29.1175 31.1284 29.1175C36.0197 29.1175 39.9992 25.1387 39.9992 20.2473C39.9992 15.5287 36.2956 11.659 31.6429 11.3911ZM31.1284 27.8675C27.0353 27.8675 23.8304 24.6437 23.5063 20.2022C23.5063 20.2022 23.5063 20.2022 23.5063 20.2015C22.7916 10.4072 28.6137 4.04553 30.3727 2.36097C30.5442 2.53003 30.7402 2.72897 31.0289 3.02315C31.3767 3.37715 31.8529 3.86178 32.5731 4.58447C29.8197 8.8264 30.3392 11.8488 30.5668 12.2822C30.6749 12.4879 30.8964 12.6265 31.1284 12.6265C35.3306 12.6265 38.7492 16.045 38.7492 20.2473C38.7492 24.449 35.3306 27.8675 31.1284 27.8675Z" fill="#0074E4"/>
<path d="M9.44565 11.3912C9.36446 10.5227 9.42427 8.15693 11.6948 4.86043C11.8657 4.61199 11.8351 4.27693 11.6221 4.06393C10.6993 3.14105 10.1274 2.55818 9.72639 2.14987C9.19664 1.6103 8.9549 1.3643 8.60215 1.04387C8.36652 0.832116 8.01008 0.829053 7.77208 1.03537C3.81883 4.4753 -0.572667 11.5822 0.0614575 20.2926V20.2932C0.43502 25.4061 4.16546 29.1176 8.93171 29.1176C13.8231 29.1176 17.8026 25.1387 17.8026 20.2474C17.8026 15.5282 14.099 11.6579 9.44565 11.3912ZM8.93171 27.8676C4.83933 27.8676 1.63252 24.6437 1.30783 20.2016V20.2022C0.594957 10.4055 6.41708 4.04499 8.17608 2.36105C8.34821 2.53012 8.54477 2.7303 8.83408 3.02512C9.18133 3.37912 9.65683 3.86312 10.3758 4.58455C7.62252 8.82712 8.14196 11.8489 8.36958 12.2817C8.47765 12.4874 8.69977 12.6266 8.93171 12.6266C13.134 12.6266 16.5526 16.0451 16.5526 20.2474C16.5526 24.4491 13.134 27.8676 8.93171 27.8676Z" fill="#0074E4"/>
</svg>
