<svg width="48" height="48" viewBox="0 0 48 48" fill="none" xmlns="http://www.w3.org/2000/svg">
<path d="M13 6C19.3884 6 24 11.2741 23.9998 19.0833C23.9589 30.4295 15.4294 38.4517 3.12422 39.9923C1.9826 40.1352 1.54241 38.5537 2.5937 38.0863C7.31527 35.9868 9.69991 33.3226 10.0079 30.6857C10.2381 28.7155 9.16706 26.9898 7.82226 26.6666C4.33589 25.8288 1.99999 21.4872 1.99999 17C1.99999 10.9249 6.92486 6 13 6Z" fill="#0079FF"/>
<path d="M37 6C43.3884 6 48 11.2741 47.9998 19.0833C47.9589 30.4295 39.4294 38.4517 27.1242 39.9923C25.9826 40.1352 25.5424 38.5537 26.5937 38.0863C31.3153 35.9868 33.6999 33.3226 34.0079 30.6857C34.2381 28.7155 33.1671 26.9898 31.8223 26.6666C28.3359 25.8288 26 21.4872 26 17C26 10.9249 30.9249 6 37 6Z" fill="#0079FF"/>
</svg>
