<svg width="24" height="24" viewBox="0 0 24 24" fill="none" xmlns="http://www.w3.org/2000/svg">
<g clip-path="url(#clip0_262_4687)">
<path d="M10.7999 0.399902H1.9999C1.11625 0.399902 0.399902 1.11625 0.399902 1.9999V19.5999C0.399902 20.4836 1.11625 21.1999 1.9999 21.1999H10.7999C11.6836 21.1999 12.3999 20.4836 12.3999 19.5999V1.9999C12.3999 1.11625 11.6836 0.399902 10.7999 0.399902Z" fill="#2A2A49"/>
<path d="M8.8 0.399902V1.1999C8.79937 1.41188 8.71488 1.615 8.56499 1.76489C8.41509 1.91478 8.21198 1.99927 8 1.9999H4.8C4.58802 1.99927 4.38491 1.91478 4.23501 1.76489C4.08512 1.615 4.00063 1.41188 4 1.1999V0.399902H8.8Z" fill="#C7DFE5"/>
<path d="M8.4001 20H4.0001C3.89401 20 3.79227 19.9578 3.71726 19.8828C3.64224 19.8078 3.6001 19.706 3.6001 19.6C3.6001 19.4939 3.64224 19.3921 3.71726 19.3171C3.79227 19.2421 3.89401 19.2 4.0001 19.2H8.4001C8.50618 19.2 8.60793 19.2421 8.68294 19.3171C8.75796 19.3921 8.8001 19.4939 8.8001 19.6C8.8001 19.706 8.75796 19.8078 8.68294 19.8828C8.60793 19.9578 8.50618 20 8.4001 20Z" fill="#17172B"/>
<path d="M10.8 21.6H2C1.46976 21.5994 0.961423 21.3884 0.586488 21.0135C0.211553 20.6386 0.000635143 20.1302 0 19.6L0 2C0.000635143 1.46976 0.211553 0.961423 0.586488 0.586488C0.961423 0.211553 1.46976 0.000635143 2 0L10.8 0C11.3302 0.000635143 11.8386 0.211553 12.2135 0.586488C12.5884 0.961423 12.7994 1.46976 12.8 2V19.6C12.7994 20.1302 12.5884 20.6386 12.2135 21.0135C11.8386 21.3884 11.3302 21.5994 10.8 21.6ZM2 0.8C1.68174 0.8 1.37652 0.926428 1.15147 1.15147C0.926428 1.37652 0.8 1.68174 0.8 2V19.6C0.8 19.9183 0.926428 20.2235 1.15147 20.4485C1.37652 20.6736 1.68174 20.8 2 20.8H10.8C11.1183 20.8 11.4235 20.6736 11.6485 20.4485C11.8736 20.2235 12 19.9183 12 19.6V2C12 1.68174 11.8736 1.37652 11.6485 1.15147C11.4235 0.926428 11.1183 0.8 10.8 0.8H2Z" fill="#C7DFE5"/>
<path d="M23.5999 19.6001V22.8001C23.5993 23.0121 23.5148 23.2152 23.3649 23.3651C23.215 23.515 23.0119 23.5995 22.7999 23.6001H9.9999C9.57556 23.6001 9.16859 23.4315 8.86853 23.1315C8.56847 22.8314 8.3999 22.4244 8.3999 22.0001V21.6001L8.7999 19.6001H23.5999Z" fill="#DAEEEF"/>
<path d="M22.7999 3.6001H9.9999C9.57556 3.6001 9.16859 3.76867 8.86853 4.06873C8.56847 4.36878 8.3999 4.77575 8.3999 5.2001V22.0001C8.3999 21.5758 8.56847 21.1688 8.86853 20.8687C9.16859 20.5687 9.57556 20.4001 9.9999 20.4001H22.7999C23.0119 20.3995 23.215 20.315 23.3649 20.1651C23.5148 20.0152 23.5993 19.8121 23.5999 19.6001V4.4001C23.5993 4.18812 23.5148 3.985 23.3649 3.83511C23.215 3.68522 23.0119 3.60073 22.7999 3.6001Z" fill="#2074EF"/>
<path d="M10.3999 3.6001V20.4001H9.9999C9.57556 20.4001 9.16859 20.5687 8.86853 20.8687C8.56847 21.1688 8.3999 21.5758 8.3999 22.0001V5.2001C8.3999 4.77575 8.56847 4.36878 8.86853 4.06873C9.16859 3.76867 9.57556 3.6001 9.9999 3.6001H10.3999Z" fill="#1663BF"/>
<path d="M18.0321 11.7601L18.3081 16.4041C18.3197 16.6093 18.2893 16.8147 18.2187 17.0077C18.1482 17.2007 18.039 17.3773 17.8978 17.5267C17.7566 17.6761 17.5865 17.795 17.3977 17.8763C17.209 17.9577 17.0056 17.9996 16.8001 17.9996C16.5946 17.9996 16.3912 17.9577 16.2025 17.8763C16.0137 17.795 15.8436 17.6761 15.7024 17.5267C15.5612 17.3773 15.452 17.2007 15.3815 17.0077C15.3109 16.8147 15.2805 16.6093 15.2921 16.4041L15.5681 11.7601C14.985 11.5177 14.4868 11.108 14.1365 10.5825C13.7862 10.0571 13.5995 9.43959 13.6001 8.80809C13.6053 8.30865 13.7111 7.81537 13.9111 7.35768C14.1111 6.89999 14.4012 6.48725 14.7641 6.14409C14.8341 6.07764 14.9221 6.03312 15.0171 6.016C15.1121 5.99889 15.2101 6.00992 15.2989 6.04775C15.3878 6.08558 15.4636 6.14855 15.5171 6.22892C15.5706 6.30929 15.5995 6.40354 15.6001 6.50009V8.40809C15.5996 8.47957 15.6135 8.55041 15.641 8.61638C15.6685 8.68236 15.709 8.74212 15.7601 8.79209L16.4161 9.44809C16.518 9.5499 16.6561 9.60709 16.8001 9.60709C16.9441 9.60709 17.0822 9.5499 17.1841 9.44809L17.8401 8.79209C17.8912 8.74212 17.9317 8.68236 17.9592 8.61638C17.9867 8.55041 18.0006 8.47957 18.0001 8.40809V6.50009C17.9985 6.40625 18.024 6.31395 18.0736 6.23424C18.1232 6.15453 18.1946 6.09081 18.2795 6.0507C18.3644 6.0106 18.459 5.99581 18.552 6.00812C18.6451 6.02043 18.7326 6.05931 18.8041 6.12009C19.176 6.46307 19.4739 6.87841 19.6796 7.34063C19.8852 7.80285 19.9943 8.30222 20.0001 8.80809C20.0007 9.43959 19.814 10.0571 19.4637 10.5825C19.1134 11.108 18.6152 11.5177 18.0321 11.7601Z" fill="white"/>
</g>
<defs>
<clipPath id="clip0_262_4687">
<rect width="24" height="24" fill="white"/>
</clipPath>
</defs>
</svg>
