<svg width="48" height="48" viewBox="0 0 48 48" fill="none" xmlns="http://www.w3.org/2000/svg">
<path d="M38.3833 46.6221C38.2146 46.6221 38.0458 46.5659 37.9052 46.4253L31.494 40.9139H21.1741C19.8525 40.9139 18.7559 39.8172 18.7559 38.4956V33.6309C18.7559 33.2654 19.0089 32.9561 19.3464 32.8998V20.0492V19.9648H19.4588H29.0757C29.1882 19.6837 29.4413 19.4868 29.7506 19.4868H45.5819C46.9035 19.4868 48.0001 20.5554 48.0001 21.877V38.4956C48.0001 39.8172 46.9035 40.9139 45.5819 40.9139H38.3833L39.1144 45.7504C39.1706 46.0597 39.03 46.3691 38.7488 46.5378C38.6364 46.594 38.5239 46.6221 38.3833 46.6221Z" fill="#FFC107"/>
<path d="M10.0105 40.3515C9.89807 40.3515 9.75747 40.3234 9.64499 40.2671C9.3638 40.1265 9.2232 39.8172 9.27944 39.5079L10.0668 34.3902H2.47452C1.12478 34.3902 0 33.2654 0 31.9156V14.5097C0 13.1599 1.12478 12.0352 2.47452 12.0352H25.3919C25.6731 12.0352 25.9262 12.2039 26.0668 12.4569C26.6573 12.4288 27.5852 12.4288 28.6257 12.8506C28.6538 12.8225 28.6538 12.7944 28.6819 12.7663C28.9912 12.4569 29.4411 12.4569 29.7504 12.7381C30.2285 13.2162 30.5097 13.8348 30.5097 14.5097V31.9156C30.5097 33.2654 29.3849 34.3902 28.0351 34.3902H17.2091L10.5167 40.1828C10.3761 40.2953 10.1793 40.3515 10.0105 40.3515Z" fill="#33CC66"/>
<path d="M16.45 17.9964H5.25845C4.86478 17.9964 4.52734 17.659 4.52734 17.2653C4.52734 16.8435 4.86478 16.5061 5.25845 16.5061H16.45C16.8718 16.5061 17.2092 16.8435 17.2092 17.2653C17.2092 17.659 16.8718 17.9964 16.45 17.9964Z" fill="#24AB51"/>
<path d="M16.45 21.9894H5.25845C4.86478 21.9894 4.52734 21.652 4.52734 21.2302C4.52734 20.8084 4.86478 20.4709 5.25845 20.4709H16.45C16.8718 20.4709 17.2092 20.8084 17.2092 21.2302C17.2092 21.652 16.8718 21.9894 16.45 21.9894Z" fill="#24AB51"/>
<path d="M25.2514 25.9542H5.25845C4.86478 25.9542 4.52734 25.6168 4.52734 25.195C4.52734 24.7732 4.86478 24.4358 5.25845 24.4358H25.2514C25.6451 24.4358 25.9825 24.7732 25.9825 25.195C25.9825 25.6168 25.6451 25.9542 25.2514 25.9542Z" fill="#24AB51"/>
<path d="M25.2514 29.919H5.25845C4.86478 29.919 4.52734 29.5816 4.52734 29.1598C4.52734 28.7661 4.86478 28.4287 5.25845 28.4287H25.2514C25.6451 28.4287 25.9825 28.7661 25.9825 29.1598C25.9825 29.5816 25.6451 29.919 25.2514 29.919Z" fill="#24AB51"/>
<path d="M41.7571 34.7557C41.6727 34.7557 41.5602 34.7275 41.4759 34.6713L39.1982 33.6028L36.9205 34.6713C36.7237 34.7838 36.4425 34.7557 36.2456 34.6151C36.0488 34.4745 35.9363 34.2214 35.9644 33.9964L36.3019 31.4938L34.5866 29.666C34.4179 29.4973 34.3335 29.2442 34.4179 28.9912C34.5022 28.7662 34.6991 28.5975 34.9521 28.5413L37.3985 28.0913L38.6077 25.8699C38.7201 25.6731 38.9451 25.5325 39.1982 25.5325C39.4513 25.5325 39.6762 25.6731 39.7887 25.8699L40.9978 28.0913L43.4723 28.5413C43.6973 28.5975 43.8941 28.7662 43.9785 28.9912C44.0628 29.2442 44.0066 29.4973 43.8379 29.666L42.0945 31.4938L42.4319 33.9964C42.46 34.2214 42.3476 34.4745 42.1507 34.6151C42.0382 34.6994 41.8976 34.7557 41.7571 34.7557Z" fill="#202F51"/>
<path d="M34.9244 12.3164C35.2337 12.6257 35.768 12.6257 36.0773 12.3164L40.5764 7.81726C40.8857 7.50795 40.8857 6.97367 40.5764 6.66436L38.833 4.92095C38.5237 4.61164 38.0175 4.61164 37.6801 4.92095C37.3708 5.23027 37.3708 5.76454 37.6801 6.07385L38.8611 7.22675L34.9244 11.1635C34.6151 11.4728 34.6151 12.0071 34.9244 12.3164Z" fill="#FFAE06"/>
<path d="M19.7682 22.6361L23.5081 21.2863C23.6206 21.2301 23.7331 21.1739 23.8175 21.0895L23.9018 21.0051L20.3588 17.434L20.2744 17.5464C20.19 17.6308 20.1057 17.7152 20.0776 17.8276L19.1777 20.3022L21.0336 22.1862L19.7682 22.6361ZM24.8579 20.0491L38.2709 6.63608L34.6997 3.09302L21.3148 16.4779L24.8579 20.0491Z" fill="#202F51"/>
<path d="M38.2704 6.6643L39.1702 5.76448C40.3794 4.55534 40.1263 3.00877 39.2265 2.13706C38.3829 1.26536 36.8363 0.984161 35.6834 2.10894L34.6992 3.09312L38.2704 6.6643Z" fill="#FFC107"/>
<path d="M23.5081 21.2865C23.6206 21.2302 23.7331 21.174 23.8175 21.0896L23.9018 21.0053L20.3588 17.4341L20.2744 17.5466C20.19 17.6309 20.1057 17.7153 20.0776 17.8278L19.1777 20.3023L21.0336 22.1863L23.5081 21.2865Z" fill="#202F51"/>
<path d="M18.9242 22.4393C19.121 22.6643 19.4584 22.7486 19.7678 22.6362L21.0331 22.1863L19.1773 20.3022L18.7273 21.5957C18.6149 21.8769 18.6992 22.2144 18.9242 22.4393Z" fill="#FFC107"/>
<path d="M23.9015 21.0053L24.8575 20.0492L21.3145 16.478L20.3584 17.4341L23.9015 21.0053Z" fill="#FFC107"/>
</svg>
