<svg width="40" height="40" viewBox="0 0 40 40" fill="none" xmlns="http://www.w3.org/2000/svg">
<g clip-path="url(#clip0_878_8234)">
<path d="M35.8308 4.17938C32.057 0.420156 26.6309 0 20 0C13.3608 0 7.92641 0.425 4.15422 4.19438C0.382578 7.96219 0 13.3878 0 20.0195C0 26.6522 0.382578 32.0795 4.15578 35.8486C7.92773 39.6185 13.3615 40.0001 20 40.0001C26.6386 40.0001 32.0714 39.6185 35.8434 35.8486C39.6163 32.0788 40 26.6522 40 20.0195C40 13.3793 39.6122 7.94781 35.8308 4.17938Z" fill="#034EA2"/>
<path d="M21.0627 23.1995C21.2113 23.5615 21.1661 24.0266 21.0966 24.3076C20.9689 24.8044 20.6263 25.3108 19.6146 25.3108C18.661 25.3108 18.0824 24.7743 18.0824 23.9536V22.5074H14.0032L14 23.6646C14 26.9951 16.6699 28 19.5305 28C22.2812 28 24.5471 27.0761 24.9075 24.587C25.0918 23.2964 24.9544 22.4518 24.8914 22.1328C24.2497 19.0055 18.4768 18.072 18.0469 16.3227C17.9742 16.0226 17.9952 15.7051 18.0307 15.5353C18.1358 15.059 18.4687 14.5336 19.4206 14.5336C20.3095 14.5336 20.8348 15.0733 20.8348 15.8893C20.8348 16.1639 20.8348 16.8116 20.8348 16.8116H24.6279V15.7623C24.6279 12.508 21.6542 12 19.4998 12C16.7944 12 14.5834 12.8779 14.1794 15.3099C14.0695 15.9813 14.0533 16.5798 14.2133 17.3291C14.8776 20.3818 20.2804 21.266 21.0627 23.1995H21.0627Z" fill="white"/>
</g>
<defs>
<clipPath id="clip0_878_8234">
<rect width="40" height="40" fill="white"/>
</clipPath>
</defs>
</svg>
