<svg width="24" height="24" viewBox="0 0 24 24" fill="none" xmlns="http://www.w3.org/2000/svg">
<g clip-path="url(#clip0_1266_1576)">
<path d="M11.9969 23.9938C18.6226 23.9938 23.9938 18.6226 23.9938 11.9969C23.9938 5.3712 18.6226 0 11.9969 0C5.3712 0 0 5.3712 0 11.9969C0 18.6226 5.3712 23.9938 11.9969 23.9938Z" fill="#EBF4FD"/>
<g clip-path="url(#clip1_1266_1576)">
<path d="M18.9869 9.70663L18.195 6.53737C18.0979 6.148 17.7479 5.875 17.3462 5.875H6.65463C6.253 5.875 5.903 6.148 5.805 6.53737L5.01312 9.70663C5.00438 9.74075 5 9.77662 5 9.8125C5 11.0182 5.93188 12 7.07812 12C7.744 12 8.33812 11.6684 8.71875 11.1539C9.09937 11.6684 9.6935 12 10.3594 12C11.0252 12 11.6194 11.6684 12 11.1539C12.3806 11.6684 12.9739 12 13.6406 12C14.3074 12 14.9006 11.6684 15.2812 11.1539C15.6619 11.6684 16.2551 12 16.9219 12C18.0681 12 19 11.0182 19 9.8125C19 9.77662 18.9956 9.74075 18.9869 9.70663ZM16.9219 12.875C16.326 12.875 15.7599 12.693 15.2812 12.3605C14.324 13.0264 12.9573 13.0264 12 12.3605C11.0427 13.0264 9.676 13.0264 8.71875 12.3605C8.24012 12.693 7.674 12.875 7.07812 12.875C6.6485 12.875 6.24338 12.7744 5.875 12.6029V17.25C5.875 17.733 6.267 18.125 6.75 18.125H10.25V14.625H13.75V18.125H17.25C17.733 18.125 18.125 17.733 18.125 17.25V12.6029C17.7566 12.7744 17.3515 12.875 16.9219 12.875Z" fill="#0074E4"/>
</g>
</g>
<defs>
<clipPath id="clip0_1266_1576">
<rect width="24" height="24" fill="white"/>
</clipPath>
<clipPath id="clip1_1266_1576">
<rect width="14" height="14" fill="white" transform="translate(5 5)"/>
</clipPath>
</defs>
</svg>
