<svg width="24" height="24" viewBox="0 0 24 24" fill="none" xmlns="http://www.w3.org/2000/svg">
<g clip-path="url(#clip0_862_8294)">
<path d="M23.4617 8.86832L23.4619 8.86887C23.5581 9.16536 23.4688 9.4888 23.2341 9.69415L23.2337 9.6945L17.9977 14.2856L17.7738 14.4819L17.8397 14.7723L19.3836 21.5732C19.4526 21.8776 19.3345 22.1918 19.0818 22.3749L19.0818 22.3749C18.8297 22.5577 18.4957 22.5717 18.2309 22.4125L18.2298 22.4118L12.2567 18.8406L12.0002 18.6872L11.7436 18.8405L5.76836 22.4117L5.76814 22.4119C5.64357 22.4864 5.50723 22.5229 5.37098 22.5229C5.21246 22.5229 5.05409 22.4737 4.91671 22.3745C4.6651 22.1925 4.54653 21.879 4.6155 21.5733C4.61552 21.5732 4.61554 21.5731 4.61556 21.573L6.15943 14.7723L6.22533 14.4819L6.00151 14.2857L0.76548 9.69362L0.764531 9.69279C0.531162 9.48916 0.441917 9.16553 0.538297 8.86913C0.634583 8.57302 0.895605 8.36417 1.20535 8.33534C1.20551 8.33533 1.20568 8.33531 1.20584 8.3353L8.13318 7.70639L8.43046 7.6794L8.54776 7.40491L11.2866 0.995367C11.2867 0.995251 11.2867 0.995135 11.2868 0.995019C11.4104 0.707182 11.6901 0.523193 12.0001 0.523193C12.3103 0.523193 12.59 0.707319 12.7135 0.994129C12.7136 0.994305 12.7137 0.994481 12.7138 0.994657L15.4525 7.40488L15.5698 7.67939L15.8671 7.70639L22.7941 8.33537L22.7944 8.3354C23.1045 8.36335 23.3662 8.57283 23.4617 8.86832Z" stroke="#FFC107"/>
</g>
<defs>
<clipPath id="clip0_862_8294">
<rect width="24" height="23.9537" fill="white"/>
</clipPath>
</defs>
</svg>
