<svg width="96" height="96" viewBox="0 0 96 96" fill="none" xmlns="http://www.w3.org/2000/svg">
<g clip-path="url(#clip0_262_3799)">
<path d="M79.8044 79.815C97.3753 62.2441 97.3753 33.7559 79.8044 16.185C62.2334 -1.38594 33.7453 -1.38594 16.1744 16.185C-1.39656 33.7559 -1.39656 62.2441 16.1744 79.815C33.7453 97.3859 62.2334 97.3859 79.8044 79.815Z" fill="#46CC6B"/>
<path fill-rule="evenodd" clip-rule="evenodd" d="M92.3521 55.634C89.1502 74.369 74.3682 89.1502 55.6338 92.3524L31.4086 68.1272C25.6117 63.3431 21.917 56.1032 21.917 48.0002C21.917 33.5947 33.5945 21.9172 47.9999 21.9172C56.1029 21.9172 63.3429 25.6121 68.1269 31.4089L92.3521 55.634Z" fill="#179C5F"/>
<path fill-rule="evenodd" clip-rule="evenodd" d="M35.7911 49.5489L43.2194 56.3706C44.303 57.368 45.9802 57.315 46.9992 56.2642L60.2516 43.5759C61.3295 42.5394 61.3621 40.8245 60.3252 39.746C59.2884 38.6692 57.5744 38.6355 56.4965 39.672L45.0174 50.6627L39.4608 45.5602C38.36 44.5474 36.6449 44.6184 35.6315 45.7204C34.6182 46.8212 34.6897 48.5351 35.7911 49.5489ZM47.9999 21.9172C62.4054 21.9172 74.0829 33.5947 74.0829 48.0002C74.0829 62.4056 62.4054 74.0831 47.9999 74.0831C33.5945 74.0831 21.917 62.4056 21.917 48.0002C21.917 33.5947 33.5945 21.9172 47.9999 21.9172Z" fill="white"/>
</g>
<defs>
<clipPath id="clip0_262_3799">
<rect width="96" height="96" fill="white"/>
</clipPath>
</defs>
</svg>
