<svg width="40" height="40" viewBox="0 0 40 40" fill="none" xmlns="http://www.w3.org/2000/svg">
<path d="M39.5746 0H0.425351C0.312541 0 0.204351 0.0445459 0.124582 0.123838C0.0448136 0.20313 0 0.310674 0 0.42281L0 4.7693C0 4.88143 0.0448136 4.98898 0.124582 5.06827C0.204351 5.14756 0.312541 5.19211 0.425351 5.19211H14.4449V38.5772C14.4493 38.6909 14.4979 38.7984 14.5803 38.8772C14.6628 38.9561 14.7728 39.0001 14.8873 39H24.7724C24.8869 39.0001 24.9969 38.9561 25.0794 38.8772C25.1619 38.7984 25.2104 38.6909 25.2148 38.5772V10.7563C25.217 10.0234 25.3645 9.29806 25.6487 8.62178C25.9329 7.9455 26.3484 7.33149 26.8713 6.81481C27.3943 6.29812 28.0145 5.88889 28.6965 5.61046C29.3786 5.33204 30.1091 5.18988 30.8464 5.19211H39.5746C39.6875 5.19211 39.7957 5.14756 39.8754 5.06827C39.9552 4.98898 40 4.88143 40 4.7693V0.42281C40 0.310674 39.9552 0.20313 39.8754 0.123838C39.7957 0.0445459 39.6875 0 39.5746 0V0Z" fill="#1D76BC"/>
</svg>
