<svg width="18" height="19" viewBox="0 0 18 19" fill="none" xmlns="http://www.w3.org/2000/svg">
<g clip-path="url(#clip0_1321_1443)">
<path d="M15.377 3.128C14.525 2.276 13.55 1.625 12.452 1.175C11.354 0.725 10.205 0.5 9.005 0.5C7.805 0.5 6.656 0.725 5.558 1.175C4.46 1.625 3.485 2.276 2.633 3.128C1.781 3.98 1.13 4.955 0.680005 6.053C0.230005 7.151 0.00500488 8.3 0.00500488 9.5C0.00500488 10.7 0.230005 11.849 0.680005 12.947C1.13 14.045 1.781 15.02 2.633 15.872C3.485 16.724 4.46 17.375 5.558 17.825C6.656 18.275 7.805 18.5 9.005 18.5C10.205 18.5 11.354 18.275 12.452 17.825C13.55 17.375 14.525 16.724 15.377 15.872C16.229 15.02 16.88 14.045 17.33 12.947C17.78 11.849 18.005 10.7 18.005 9.5C18.005 8.3 17.78 7.151 17.33 6.053C16.88 4.955 16.229 3.98 15.377 3.128ZM9.005 17.78C7.505 17.78 6.113 17.402 4.829 16.646C3.581 15.914 2.591 14.924 1.859 13.676C1.103 12.392 0.725005 11 0.725005 9.5C0.725005 8 1.103 6.608 1.859 5.324C2.591 4.076 3.581 3.086 4.829 2.354C6.113 1.598 7.505 1.22 9.005 1.22C10.505 1.22 11.897 1.598 13.181 2.354C14.429 3.086 15.419 4.076 16.151 5.324C16.907 6.608 17.285 8 17.285 9.5C17.285 11 16.907 12.392 16.151 13.676C15.419 14.924 14.429 15.914 13.181 16.646C11.897 17.402 10.505 17.78 9.005 17.78ZM9.005 2.75C7.781 2.75 6.647 3.056 5.603 3.668C4.583 4.268 3.773 5.078 3.173 6.098C2.561 7.142 2.255 8.276 2.255 9.5C2.255 10.724 2.561 11.858 3.173 12.902C3.773 13.922 4.583 14.732 5.603 15.332C6.647 15.944 7.781 16.25 9.005 16.25C10.229 16.25 11.363 15.944 12.407 15.332C13.427 14.732 14.237 13.922 14.837 12.902C15.449 11.858 15.755 10.724 15.755 9.5C15.755 8.276 15.449 7.142 14.837 6.098C14.237 5.078 13.427 4.268 12.407 3.668C11.363 3.056 10.229 2.75 9.005 2.75ZM9.005 15.53C7.913 15.53 6.899 15.254 5.963 14.702C5.051 14.174 4.331 13.454 3.803 12.542C3.251 11.606 2.975 10.592 2.975 9.5C2.975 8.408 3.251 7.394 3.803 6.458C4.331 5.546 5.051 4.826 5.963 4.298C6.899 3.746 7.913 3.47 9.005 3.47C10.097 3.47 11.111 3.746 12.047 4.298C12.959 4.826 13.679 5.546 14.207 6.458C14.759 7.394 15.035 8.408 15.035 9.5C15.035 10.592 14.759 11.606 14.207 12.542C13.679 13.454 12.959 14.174 12.047 14.702C11.111 15.254 10.097 15.53 9.005 15.53ZM10.265 9.5C10.265 9.152 10.142 8.855 9.896 8.609C9.65 8.363 9.356 8.24 9.014 8.24C8.672 8.24 8.375 8.363 8.123 8.609C7.871 8.855 7.745 9.149 7.745 9.491C7.745 9.833 7.871 10.13 8.123 10.382C8.375 10.634 8.672 10.76 9.014 10.76C9.356 10.76 9.65 10.634 9.896 10.382C10.142 10.13 10.265 9.836 10.265 9.5ZM8.465 9.5C8.465 9.344 8.519 9.215 8.627 9.113C8.735 9.011 8.864 8.96 9.014 8.96C9.164 8.96 9.29 9.011 9.392 9.113C9.494 9.215 9.545 9.341 9.545 9.491C9.545 9.641 9.494 9.77 9.392 9.878C9.29 9.986 9.164 10.04 9.014 10.04C8.864 10.04 8.735 9.986 8.627 9.878C8.519 9.77 8.465 9.644 8.465 9.5ZM9.005 3.974C8.009 3.974 7.079 4.226 6.215 4.73C5.387 5.222 4.727 5.882 4.235 6.71C3.731 7.574 3.479 8.504 3.479 9.5C3.479 10.496 3.731 11.426 4.235 12.29C4.727 13.118 5.387 13.778 6.215 14.27C7.079 14.774 8.009 15.026 9.005 15.026C10.001 15.026 10.931 14.774 11.795 14.27C12.623 13.778 13.283 13.118 13.775 12.29C14.279 11.426 14.531 10.496 14.531 9.5C14.531 8.504 14.279 7.574 13.775 6.71C13.283 5.882 12.623 5.222 11.795 4.73C10.931 4.226 10.001 3.974 9.005 3.974ZM13.811 9.5C13.811 10.04 13.733 10.538 13.577 10.994L11.633 9.698C11.561 9.662 11.525 9.596 11.525 9.5C11.525 9.404 11.561 9.332 11.633 9.284L13.577 8.006C13.733 8.462 13.811 8.96 13.811 9.5ZM12.587 6.278L10.499 7.322C10.427 7.358 10.349 7.355 10.265 7.313C10.181 7.271 10.139 7.208 10.139 7.124L10.013 4.802C11.021 5.018 11.879 5.51 12.587 6.278ZM8.015 4.802L7.871 7.124C7.871 7.208 7.832 7.271 7.754 7.313C7.676 7.355 7.595 7.358 7.511 7.322L5.441 6.278C6.137 5.51 6.995 5.018 8.015 4.802ZM4.199 9.5C4.199 9.008 4.277 8.51 4.433 8.006L6.377 9.284C6.449 9.332 6.485 9.404 6.485 9.5C6.485 9.596 6.449 9.662 6.377 9.698L4.433 10.994C4.277 10.49 4.199 9.992 4.199 9.5ZM5.441 12.722L7.511 11.678C7.595 11.642 7.676 11.642 7.754 11.678C7.832 11.714 7.871 11.78 7.871 11.876L8.015 14.198C6.995 13.982 6.137 13.49 5.441 12.722ZM8.735 14.306L8.591 11.84C8.579 11.672 8.531 11.522 8.447 11.39C8.363 11.258 8.249 11.15 8.105 11.066C7.805 10.898 7.499 10.886 7.187 11.03L4.991 12.146C4.919 12.038 4.823 11.876 4.703 11.66L6.773 10.31C6.905 10.226 7.01 10.112 7.088 9.968C7.166 9.824 7.205 9.668 7.205 9.5C7.205 9.332 7.166 9.176 7.088 9.032C7.01 8.888 6.905 8.774 6.773 8.69L4.703 7.34C4.823 7.124 4.919 6.962 4.991 6.854L7.187 7.97C7.307 8.03 7.457 8.06 7.637 8.06C7.817 8.06 7.976 8.018 8.114 7.934C8.252 7.85 8.363 7.742 8.447 7.61C8.531 7.478 8.579 7.328 8.591 7.16L8.735 4.694H9.293L9.419 7.16C9.455 7.52 9.617 7.778 9.905 7.934C10.037 8.018 10.193 8.06 10.373 8.06C10.553 8.06 10.703 8.03 10.823 7.97L13.019 6.854C13.091 6.962 13.187 7.124 13.307 7.34L11.237 8.69C11.105 8.774 11 8.888 10.922 9.032C10.844 9.176 10.805 9.332 10.805 9.5C10.805 9.668 10.844 9.824 10.922 9.968C11 10.112 11.105 10.226 11.237 10.31L13.307 11.66C13.187 11.876 13.091 12.038 13.019 12.146L10.823 11.03C10.679 10.958 10.526 10.925 10.364 10.931C10.202 10.937 10.049 10.982 9.905 11.066C9.761 11.15 9.65 11.258 9.572 11.39C9.494 11.522 9.449 11.672 9.437 11.84L9.293 14.306H8.735ZM10.013 14.198L10.139 11.876C10.139 11.78 10.181 11.714 10.265 11.678C10.349 11.642 10.427 11.642 10.499 11.678L12.587 12.722C11.879 13.49 11.021 13.982 10.013 14.198Z" fill="#2C3333"/>
</g>
<defs>
<clipPath id="clip0_1321_1443">
<rect width="17.98" height="18" fill="white" transform="matrix(1 0 0 -1 0 18.5)"/>
</clipPath>
</defs>
</svg>
