<svg width="18" height="19" viewBox="0 0 18 19" fill="none" xmlns="http://www.w3.org/2000/svg">
<g clip-path="url(#clip0_1321_1535)">
<path d="M6.017 13.478C5.693 13.01 5.249 12.662 4.685 12.434V6.404C5.153 6.14 5.537 5.774 5.837 5.306C6.173 4.778 6.341 4.214 6.341 3.614C6.341 2.846 6.134 2.195 5.72 1.661C5.306 1.127 4.733 0.77 4.001 0.59C3.893 0.566 3.791 0.581001 3.695 0.635C3.599 0.689001 3.539 0.764 3.515 0.860001V0.914001C3.503 0.950001 3.503 0.974001 3.515 0.986L3.641 2.678C3.473 2.762 3.293 2.804 3.101 2.804C2.909 2.804 2.729 2.762 2.561 2.678L2.705 0.986C2.717 0.878 2.687 0.785 2.615 0.707001C2.543 0.629002 2.453 0.578001 2.345 0.554001C2.285 0.554001 2.237 0.560001 2.201 0.572001C1.517 0.776001 0.977005 1.16 0.581005 1.724C0.197005 2.252 0.00500488 2.879 0.00500488 3.605C0.00500488 4.331 0.197005 4.958 0.581005 5.486C0.905005 5.966 1.343 6.32 1.895 6.548V12.596C1.403 12.884 1.007 13.283 0.707005 13.793C0.407005 14.303 0.257005 14.84 0.257005 15.404C0.257005 16.136 0.449005 16.766 0.833005 17.294C1.253 17.858 1.847 18.23 2.615 18.41C2.723 18.434 2.822 18.416 2.912 18.356C3.002 18.296 3.059 18.218 3.083 18.122C3.095 18.086 3.101 18.044 3.101 17.996L2.975 16.304C3.143 16.208 3.323 16.16 3.515 16.16C3.707 16.16 3.881 16.208 4.037 16.304L3.893 18.014C3.881 18.122 3.911 18.215 3.983 18.293C4.055 18.371 4.145 18.416 4.253 18.428C4.313 18.428 4.361 18.422 4.397 18.41C4.721 18.314 5.024 18.17 5.306 17.978C5.588 17.786 5.825 17.552 6.017 17.276C6.401 16.724 6.593 16.091 6.593 15.377C6.593 14.663 6.401 14.03 6.017 13.478ZM4.739 17.42L4.847 16.142C4.847 15.986 4.793 15.866 4.685 15.782H4.667C4.319 15.518 3.926 15.386 3.488 15.386C3.05 15.386 2.657 15.518 2.309 15.782C2.189 15.878 2.141 15.992 2.165 16.124L2.273 17.456C1.877 17.276 1.571 17.006 1.355 16.646C1.139 16.286 1.031 15.866 1.031 15.386C1.031 14.93 1.166 14.495 1.436 14.081C1.706 13.667 2.051 13.364 2.471 13.172C2.615 13.088 2.687 12.968 2.687 12.812V6.26C2.687 6.164 2.66 6.083 2.606 6.017C2.552 5.951 2.483 5.906 2.399 5.882C1.907 5.726 1.514 5.444 1.22 5.036C0.926005 4.628 0.779005 4.148 0.779005 3.596C0.779005 3.164 0.875005 2.768 1.067 2.408C1.259 2.048 1.523 1.766 1.859 1.562L1.751 2.858C1.751 2.99 1.805 3.104 1.913 3.2H1.931C2.279 3.464 2.672 3.596 3.11 3.596C3.548 3.596 3.941 3.464 4.289 3.2V3.182C4.409 3.11 4.457 3.002 4.433 2.858L4.325 1.544C4.709 1.736 5.006 2.009 5.216 2.363C5.426 2.717 5.534 3.137 5.54 3.623C5.546 4.109 5.399 4.562 5.099 4.982C4.823 5.354 4.493 5.63 4.109 5.81C4.049 5.846 3.998 5.897 3.956 5.963C3.914 6.029 3.893 6.098 3.893 6.17V12.704C3.893 12.8 3.92 12.884 3.974 12.956C4.028 13.028 4.097 13.07 4.181 13.082C4.673 13.238 5.066 13.52 5.36 13.928C5.654 14.336 5.801 14.816 5.801 15.368C5.813 15.812 5.723 16.211 5.531 16.565C5.339 16.919 5.075 17.204 4.739 17.42ZM13.613 10.778L11.561 10.76V3.794H12.371C12.479 3.794 12.572 3.755 12.65 3.677C12.728 3.599 12.767 3.506 12.767 3.398V3.344L12.407 0.824001C12.383 0.728001 12.335 0.650002 12.263 0.59C12.191 0.530001 12.107 0.5 12.011 0.5H10.247C10.151 0.5 10.067 0.533001 9.995 0.599001C9.923 0.665001 9.881 0.740002 9.869 0.824001L9.509 3.344C9.497 3.452 9.521 3.548 9.581 3.632C9.641 3.716 9.725 3.77 9.833 3.794H10.769V10.76L8.537 10.742C8.417 10.754 8.321 10.799 8.249 10.877C8.177 10.955 8.141 11.048 8.141 11.156C8.141 11.264 8.18 11.354 8.258 11.426C8.336 11.498 8.429 11.534 8.537 11.534L9.293 11.552V16.646C9.293 16.982 9.374 17.291 9.536 17.573C9.698 17.855 9.92 18.08 10.202 18.248C10.484 18.416 10.793 18.5 11.129 18.5H11.147C11.483 18.5 11.789 18.416 12.065 18.248C12.341 18.08 12.563 17.858 12.731 17.582C12.899 17.306 12.983 17 12.983 16.664V11.552L13.613 11.57C13.733 11.57 13.829 11.531 13.901 11.453C13.973 11.375 14.009 11.282 14.009 11.174C14.009 11.066 13.97 10.973 13.892 10.895C13.814 10.817 13.721 10.778 13.613 10.778ZM10.337 3.02L10.589 1.292H11.669L11.921 3.02H10.337ZM12.191 16.664C12.191 16.952 12.089 17.198 11.885 17.402C11.681 17.606 11.435 17.714 11.147 17.726H11.129C10.829 17.714 10.577 17.606 10.373 17.402C10.169 17.198 10.067 16.952 10.067 16.664V11.552H12.191V16.664Z" fill="#2C3333"/>
</g>
<defs>
<clipPath id="clip0_1321_1535">
<rect width="17.98" height="18" fill="white" transform="matrix(1 0 0 -1 0 18.5)"/>
</clipPath>
</defs>
</svg>
