<svg width="32" height="32" viewBox="0 0 32 32" fill="none" xmlns="http://www.w3.org/2000/svg">
<g id="fi_9356319">
<g id="Layer 2">
<path id="Vector" d="M25.3344 23.3334C25.341 23.2536 25.341 23.1733 25.3344 23.0934C25.3344 22.3862 25.0534 21.7079 24.5533 21.2078C24.0532 20.7077 23.375 20.4268 22.6677 20.4268C21.9605 20.4268 21.2822 20.7077 20.7821 21.2078C20.282 21.7079 20.0011 22.3862 20.0011 23.0934C19.9944 23.1733 19.9944 23.2536 20.0011 23.3334C20.0011 24.0407 20.282 24.7189 20.7821 25.219C21.2822 25.7191 21.9605 26.0001 22.6677 26.0001C23.375 26.0001 24.0532 25.7191 24.5533 25.219C25.0534 24.7189 25.3344 24.0407 25.3344 23.3334Z" fill="#0079FF"/>
<path id="Vector_2" d="M14.6664 23.3334C14.673 23.2536 14.673 23.1733 14.6664 23.0934C14.6664 22.3862 14.3855 21.7079 13.8854 21.2078C13.3853 20.7077 12.707 20.4268 11.9998 20.4268C11.2925 20.4268 10.6142 20.7077 10.1141 21.2078C9.61404 21.7079 9.33309 22.3862 9.33309 23.0934C9.32647 23.1733 9.32647 23.2536 9.33309 23.3334C9.33309 24.0407 9.61404 24.7189 10.1141 25.219C10.6142 25.7191 11.2925 26.0001 11.9998 26.0001C12.707 26.0001 13.3853 25.7191 13.8854 25.219C14.3855 24.7189 14.6664 24.0407 14.6664 23.3334Z" fill="#0079FF"/>
<path id="Vector_3" d="M4.66797 17H2.66797C2.48437 16.9996 2.30428 17.0504 2.14797 17.1467C2.01214 17.2304 1.89832 17.3455 1.81602 17.4822C1.73372 17.6189 1.68533 17.7733 1.67489 17.9325C1.66445 18.0917 1.69226 18.2512 1.756 18.3974C1.81975 18.5437 1.91757 18.6726 2.0413 18.7734C2.21582 18.9224 2.43851 19.0029 2.66797 19H6.0013C6.26652 19 6.52087 19.1054 6.70841 19.2929C6.89595 19.4805 7.0013 19.7348 7.0013 20C7.0013 20.2653 6.89595 20.5196 6.70841 20.7071C6.52087 20.8947 6.26652 21 6.0013 21H4.66797C4.40275 21 4.1484 21.1054 3.96086 21.2929C3.77333 21.4805 3.66797 21.7348 3.66797 22C3.66797 22.2653 3.77333 22.5196 3.96086 22.7071C4.1484 22.8947 4.40275 23 4.66797 23H8.34797C8.40533 22.322 8.65512 21.6743 9.06797 21.1334C9.41302 20.6818 9.85662 20.3149 10.365 20.0607C10.8733 19.8065 11.433 19.6718 12.0013 19.6667C12.9173 19.6632 13.8011 20.0039 14.4777 20.6212C15.1544 21.2386 15.5744 22.0876 15.6546 23H19.0146C19.0929 22.085 19.5117 21.2326 20.1882 20.6115C20.8646 19.9904 21.7496 19.6458 22.668 19.6458C23.5863 19.6458 24.4713 19.9904 25.1478 20.6115C25.8243 21.2326 26.2431 22.085 26.3213 23H28.1346C28.4466 23.0063 28.7508 22.903 28.9944 22.7081C29.2381 22.5132 29.4056 22.2391 29.468 21.9334L30.348 17.5334C30.3411 17.5026 30.3411 17.4708 30.348 17.44C30.3669 17.3253 30.3669 17.2082 30.348 17.0934L27.8413 9.70671C27.7047 9.31442 27.4486 8.97482 27.109 8.73566C26.7694 8.49649 26.3633 8.36979 25.948 8.37337H23.548L23.6946 7.30671C23.7305 7.02408 23.7059 6.73707 23.6226 6.46463C23.5393 6.19219 23.3992 5.94054 23.2114 5.72629C23.0236 5.51205 22.7925 5.3401 22.5333 5.2218C22.2742 5.1035 21.9929 5.04155 21.708 5.04004H6.66797C6.40275 5.04004 6.1484 5.1454 5.96086 5.33293C5.77333 5.52047 5.66797 5.77482 5.66797 6.04004C5.66797 6.30526 5.77333 6.55961 5.96086 6.74715C6.1484 6.93468 6.40275 7.04004 6.66797 7.04004H8.33464C8.59985 7.04004 8.85421 7.1454 9.04174 7.33293C9.22928 7.52047 9.33464 7.77482 9.33464 8.04004C9.33464 8.30526 9.22928 8.55961 9.04174 8.74715C8.85421 8.93468 8.59985 9.04004 8.33464 9.04004H2.66797C2.40383 9.04349 2.15147 9.14996 1.96468 9.33675C1.77789 9.52354 1.67142 9.7759 1.66797 10.04C1.6676 10.2927 1.7642 10.5359 1.93785 10.7195C2.11151 10.9031 2.34898 11.013 2.6013 11.0267H6.0013C6.26652 11.0267 6.52087 11.1321 6.70841 11.3196C6.89595 11.5071 7.0013 11.7615 7.0013 12.0267C7.0013 12.2919 6.89595 12.5463 6.70841 12.7338C6.52087 12.9213 6.26652 13.0267 6.0013 13.0267H4.0013H3.78797C3.56567 13.0752 3.36658 13.1981 3.22356 13.3751C3.08053 13.5521 3.00213 13.7725 3.0013 14C3.0013 14.2653 3.10666 14.5196 3.2942 14.7071C3.48173 14.8947 3.73609 15 4.0013 15H4.66797C4.93319 15 5.18754 15.1054 5.37508 15.2929C5.56261 15.4805 5.66797 15.7348 5.66797 16C5.66797 16.2653 5.56261 16.5196 5.37508 16.7071C5.18754 16.8947 4.93319 17 4.66797 17ZM23.3346 10.3334H25.7613C25.8313 10.3344 25.8993 10.3567 25.9564 10.3971C26.0135 10.4376 26.0571 10.4944 26.0813 10.56L28.0013 16.3334H22.5346L23.3346 10.3334Z" fill="#0079FF"/>
</g>
</g>
</svg>
