<svg width="22" height="24" viewBox="0 0 22 24" fill="none" xmlns="http://www.w3.org/2000/svg">
<path d="M11.0009 12.4626C14.4295 12.4626 17.2322 9.6599 17.2322 6.2313C17.2322 2.80271 14.4295 0 11.0009 0C7.57231 0 4.76965 2.80271 4.76965 6.2313C4.76965 9.6599 7.57236 12.4626 11.0009 12.4626ZM21.6948 17.4422C21.5315 17.034 21.3139 16.6531 21.069 16.2993C19.8173 14.449 17.8853 13.2245 15.7085 12.9252C15.4364 12.898 15.137 12.9523 14.9193 13.1156C13.7765 13.9592 12.416 14.3945 11.001 14.3945C9.58595 14.3945 8.22543 13.9592 7.08257 13.1156C6.86486 12.9523 6.56553 12.8707 6.29345 12.9252C4.11658 13.2245 2.15741 14.449 0.932931 16.2993C0.688035 16.6531 0.470327 17.0613 0.307098 17.4422C0.225483 17.6055 0.252671 17.7959 0.334285 17.9592C0.551993 18.3402 0.824077 18.7211 1.06897 19.0477C1.44991 19.5647 1.85809 20.0272 2.32069 20.4626C2.70163 20.8435 3.13699 21.1973 3.57241 21.551C5.72205 23.1565 8.3071 24 10.9738 24C13.6404 24 16.2255 23.1565 18.3751 21.551C18.8105 21.2245 19.2458 20.8435 19.6268 20.4626C20.0622 20.0272 20.4976 19.5646 20.8786 19.0477C21.1506 18.6939 21.3956 18.3402 21.6132 17.9592C21.7492 17.7959 21.7764 17.6054 21.6948 17.4422Z" fill="#222831"/>
</svg>
