<svg width="18" height="20" viewBox="0 0 18 20" fill="none" xmlns="http://www.w3.org/2000/svg">
<path d="M0.000488281 16.8681V19.0865C0.000488281 19.3106 0.179747 19.4674 0.403832 19.4899H12.3921C12.6162 19.4899 12.7731 19.3106 12.7955 19.0865V16.8681C12.7955 14.224 11.0477 11.9159 8.51553 11.1765C9.2998 10.7507 9.92723 10.0785 10.3082 9.29421C10.6443 9.56312 11.0252 9.76479 11.4062 9.89922V10.3922C11.4062 10.9524 11.8543 11.423 12.4369 11.423H13.3333C13.8935 11.423 14.3641 10.9748 14.3641 10.3922V9.89922C14.8122 9.74238 15.2156 9.49588 15.5965 9.20455L16.0223 9.45105C16.5153 9.71996 17.1427 9.56307 17.4116 9.07012L17.8597 8.30826C18.151 7.81527 17.9717 7.18784 17.4788 6.89656L17.053 6.65006C17.0979 6.42598 17.1203 6.17948 17.1203 5.95539C17.1203 5.73131 17.0979 5.48481 17.053 5.26072L17.4788 5.01423C17.9718 4.74532 18.151 4.11789 17.8597 3.62494C17.8373 3.60252 17.7701 3.4905 17.4116 2.86308C17.1202 2.37008 16.5152 2.21323 16.0223 2.48215L15.5965 2.72864C15.238 2.43732 14.8122 2.19087 14.3641 2.03398V1.54103C14.3641 0.980837 13.9159 0.510254 13.3333 0.510254H12.4369C11.8768 0.510254 11.4062 0.958424 11.4062 1.54103V2.03402C10.958 2.19087 10.5547 2.43737 10.1737 2.72869L9.74797 2.48219C9.25498 2.21328 8.62755 2.37017 8.35868 2.86312L8.04499 3.4009C7.52963 3.17681 6.9694 3.08721 6.40921 3.08721C4.03397 3.08721 2.08445 4.99191 2.08445 7.36714C2.08445 8.93569 2.93596 10.3922 4.30284 11.1541C1.74834 11.8935 0.000488281 14.224 0.000488281 16.8681ZM9.00853 3.26647C9.07577 3.15445 9.2102 3.10962 9.34463 3.17681L10.0169 3.55774C10.1737 3.6474 10.353 3.62498 10.4875 3.51292C10.8908 3.13199 11.3614 2.86308 11.8992 2.70623C12.056 2.6614 12.1905 2.50456 12.1905 2.3253V1.56344C12.1905 1.42901 12.3025 1.31694 12.437 1.31694H13.3333C13.4678 1.31694 13.5798 1.42896 13.5798 1.56344V2.3253C13.5798 2.50456 13.6919 2.6614 13.8712 2.70623C14.3865 2.86308 14.8795 3.13199 15.2829 3.51292C15.4173 3.62494 15.5965 3.64735 15.7534 3.55774L16.4257 3.17681C16.5377 3.10957 16.6946 3.1544 16.7618 3.26647L17.2099 4.02833C17.2771 4.14035 17.2323 4.29724 17.1202 4.34202L16.448 4.72295C16.2911 4.8126 16.2239 4.99186 16.2687 5.14871C16.4031 5.68648 16.4031 6.2243 16.2687 6.76208C16.2239 6.94134 16.3135 7.1206 16.448 7.18784L17.1202 7.56877C17.2322 7.63601 17.2771 7.77044 17.2099 7.90487L16.7617 8.66673C16.6945 8.77875 16.56 8.82358 16.448 8.75638L15.7758 8.37545C15.6189 8.2858 15.4397 8.30821 15.3052 8.42028C14.9018 8.80121 14.4313 9.07012 13.8935 9.22697C13.7142 9.27179 13.6022 9.42864 13.6022 9.6079V10.3698C13.6022 10.5042 13.4901 10.6163 13.3557 10.6163H12.4593C12.3249 10.6163 12.2128 10.5042 12.2128 10.3698V9.6079C12.2128 9.42864 12.1008 9.27179 11.9215 9.22697C11.4285 9.09254 10.9804 8.84604 10.5994 8.50993C10.689 8.15142 10.7338 7.72566 10.7338 7.41192C10.7338 5.88815 9.92714 4.54369 8.73952 3.78183L9.00853 3.26647ZM2.84631 7.38951C2.84631 5.44003 4.43727 3.87144 6.38679 3.87144C8.33632 3.87144 9.92728 5.4624 9.92728 7.38951C9.92728 9.22697 8.53799 10.93 6.36438 10.93C4.43727 10.93 2.84631 9.33903 2.84631 7.38951ZM5.93862 11.7143C5.98345 11.7143 6.87974 11.7143 6.83496 11.7143C9.68078 11.7143 11.9888 14.0223 11.9888 16.8681V18.6832H0.784762V16.8681C0.784762 14.0223 3.0928 11.7143 5.93862 11.7143Z" fill="#252A34"/>
<path d="M12.863 8.15152C14.073 8.15152 15.0365 7.16558 15.0365 5.95555C15.0365 4.74552 14.0506 3.78198 12.8406 3.78198C11.6305 3.78198 10.667 4.76793 10.667 5.97796C10.667 7.16553 11.6529 8.15152 12.863 8.15152ZM12.863 4.56621C13.6472 4.56621 14.2523 5.21605 14.2523 5.97791C14.2523 6.76219 13.6024 7.3672 12.8406 7.3672C12.0787 7.3672 11.4513 6.73977 11.4513 5.9555C11.4513 5.17123 12.0787 4.5438 12.863 4.56621Z" fill="#252A34"/>
</svg>
