<svg width="32" height="32" viewBox="0 0 32 32" fill="none" xmlns="http://www.w3.org/2000/svg">
<g id="fi_666201">
<g id="Group">
<g id="Group_2">
<g id="Group_3">
<path id="Vector" d="M16.0036 16.6168C20.5751 16.6168 24.312 12.8799 24.312 8.3084C24.312 3.73694 20.5751 0 16.0036 0C11.4322 0 7.69531 3.73694 7.69531 8.3084C7.69531 12.8799 11.4323 16.6168 16.0036 16.6168Z" fill="#0079FF"/>
<path id="Vector_2" d="M30.2623 23.256C30.0446 22.7118 29.7544 22.2039 29.4279 21.7322C27.7589 19.2651 25.183 17.6324 22.2805 17.2333C21.9178 17.1971 21.5187 17.2696 21.2284 17.4873C19.7046 18.612 17.8905 19.1925 16.0039 19.1925C14.1172 19.1925 12.3032 18.612 10.7794 17.4873C10.4891 17.2696 10.09 17.1608 9.72721 17.2333C6.82471 17.6324 4.21248 19.2651 2.57985 21.7322C2.25332 22.2039 1.96304 22.7481 1.7454 23.256C1.63658 23.4737 1.67283 23.7277 1.78165 23.9454C2.07193 24.4533 2.43471 24.9613 2.76123 25.3967C3.26915 26.086 3.81339 26.7028 4.43019 27.2833C4.93811 27.7912 5.5186 28.2628 6.09915 28.7345C8.96533 30.8751 12.4121 31.9998 15.9676 31.9998C19.5232 31.9998 22.9699 30.8751 25.8361 28.7345C26.4166 28.2992 26.9971 27.7912 27.5051 27.2833C28.0855 26.7028 28.666 26.086 29.174 25.3967C29.5368 24.925 29.8634 24.4533 30.1536 23.9454C30.3349 23.7277 30.3712 23.4737 30.2623 23.256Z" fill="#0079FF"/>
</g>
</g>
</g>
</g>
</svg>
