<svg width="40" height="40" viewBox="0 0 40 40" fill="none" xmlns="http://www.w3.org/2000/svg">
<path d="M39.0046 7H35.2155C33.5928 7 33.2583 7.27363 32.6328 8.19046C32.0065 9.1073 21.1682 25.4455 21.1682 25.4455C20.8228 25.9477 20.456 26.1509 20.0001 26.1509C19.5433 26.1509 19.1769 25.9477 18.831 25.4455C18.831 25.4455 7.99281 9.10681 7.36737 8.19001C6.74193 7.27363 6.40737 7 4.78466 7H0.995568C0.021954 7 -0.275808 7.67319 0.272836 8.49546C0.820581 9.31815 13.2165 27.9032 13.2165 27.9032C15.2251 30.8209 16.6997 32 20.0001 32C23.3001 32 24.7751 30.8209 26.7833 27.9032L39.7274 8.49546C40.2756 7.67315 39.9782 7 39.0046 7Z" fill="#415FFF"/>
</svg>
