<svg width="66" height="66" viewBox="0 0 66 66" fill="none" xmlns="http://www.w3.org/2000/svg">
<path d="M32.9992 0.825014C28.7735 0.823536 24.589 1.65476 20.6846 3.27118C16.7803 4.8876 13.2328 7.25754 10.2448 10.2456C7.25674 13.2336 4.88681 16.7811 3.27039 20.6854C1.65396 24.5897 0.822742 28.7743 0.824221 33C0.822742 37.2257 1.65396 41.4103 3.27039 45.3146C4.88681 49.2189 7.25674 52.7665 10.2448 55.7545C13.2328 58.7425 16.7803 61.1124 20.6846 62.7289C24.589 64.3453 28.7735 65.1765 32.9992 65.175C37.2249 65.1765 41.4095 64.3453 45.3138 62.7289C49.2181 61.1124 52.7657 58.7425 55.7537 55.7545C58.7417 52.7665 61.1116 49.2189 62.7281 45.3146C64.3445 41.4103 65.1757 37.2257 65.1742 33C65.1757 28.7743 64.3445 24.5897 62.7281 20.6854C61.1116 16.7811 58.7417 13.2336 55.7537 10.2456C52.7657 7.25754 49.2181 4.8876 45.3138 3.27118C41.4095 1.65476 37.2249 0.823536 32.9992 0.825014ZM32.9992 56.175C32.0371 56.1772 31.0959 55.8938 30.2949 55.3606C29.494 54.8275 28.8693 54.0686 28.5001 53.1801C28.1308 52.2916 28.0337 51.3134 28.2208 50.3696C28.408 49.4258 28.8711 48.5588 29.5514 47.8785C30.2318 47.1981 31.0988 46.735 32.0426 46.5479C32.9864 46.3607 33.9645 46.4579 34.853 46.8271C35.7415 47.1964 36.5004 47.821 37.0336 48.622C37.5668 49.4229 37.8502 50.3641 37.848 51.3263C37.845 52.6113 37.3332 53.8429 36.4245 54.7516C35.5159 55.6602 34.2843 56.172 32.9992 56.175ZM38.883 16.125L37.0492 40.875C37.0378 41.0461 36.9617 41.2065 36.8363 41.3235C36.7109 41.4405 36.5457 41.5054 36.3742 41.505H29.6242C29.4527 41.5054 29.2875 41.4405 29.1622 41.3235C29.0368 41.2065 28.9607 41.0461 28.9492 40.875L27.1155 16.125C27.0658 15.3217 27.1811 14.5168 27.4543 13.7598C27.7275 13.0028 28.1528 12.3097 28.7041 11.7233C29.2553 11.137 29.9207 10.6697 30.6594 10.3502C31.3981 10.0308 32.1944 9.86599 32.9992 9.86599C33.804 9.86599 34.6003 10.0308 35.339 10.3502C36.0777 10.6697 36.7432 11.137 37.2944 11.7233C37.8456 12.3097 38.2709 13.0028 38.5442 13.7598C38.8174 14.5168 38.9327 15.3217 38.883 16.125Z" fill="#F99417"/>
</svg>
