<svg width="140" height="151" viewBox="0 0 140 151" fill="none" xmlns="http://www.w3.org/2000/svg">
<g clip-path="url(#clip0_1191_8000)">
<path d="M129.444 110.989L89.1457 41.5059L78.1554 22.5564C75.892 18.6534 72.2404 16.3459 68.3357 15.6341C67.4644 15.475 66.5804 15.3955 65.6963 15.3955C60.851 15.3955 56.0057 17.7826 53.2372 22.5564L32.1899 58.847L18.3317 82.7415L1.94884 110.989C-1.5034 116.942 -0.112922 123.822 4.10773 128.16C5.76116 129.86 7.85008 131.169 10.2524 131.879C11.5522 132.263 12.9439 132.472 14.4082 132.472H116.984C122.027 132.472 126.209 129.997 128.746 126.4C129.766 124.954 130.52 123.325 130.957 121.603C131.819 118.204 131.445 114.441 129.444 110.989ZM77.4879 108.325C77.4879 109.413 77.3406 110.479 77.0486 111.51C76.9157 111.98 76.7527 112.442 76.5601 112.895C75.9658 114.293 75.1162 115.548 74.0344 116.625C73.6635 116.994 73.2711 117.337 72.8593 117.651C72.0707 118.252 71.21 118.751 70.2873 119.139C68.8313 119.753 67.2868 120.063 65.6963 120.063C64.1058 120.063 62.5613 119.753 61.1054 119.139C59.7008 118.548 58.4404 117.702 57.3582 116.625C56.2764 115.548 55.4268 114.293 54.8325 112.895C54.2168 111.446 53.9047 109.908 53.9047 108.325C53.9047 106.742 54.2168 105.204 54.8325 103.755C55.4268 102.356 56.2764 101.101 57.3582 100.024C58.4404 98.9474 59.7008 98.1014 61.1054 97.5101C61.7718 97.2299 62.4562 97.0127 63.1556 96.8594C63.9844 96.6777 64.8336 96.5864 65.6963 96.5864C67.2868 96.5864 68.8313 96.8972 70.2873 97.5101C70.3809 97.5495 70.4735 97.5899 70.5659 97.6319C70.5662 97.6316 70.5662 97.6319 70.5662 97.6319C71.8592 98.2153 73.0244 99.0193 74.0344 100.024C75.1162 101.101 75.9658 102.356 76.5601 103.755C77.1758 105.204 77.4879 106.742 77.4879 108.325ZM71.8247 42.6331C72.4017 43.0342 72.9398 43.4925 73.4347 44.0049C74.4312 45.0371 75.2 46.2342 75.7195 47.5634C76.2591 48.9435 76.5029 50.3986 76.4438 51.8884L76.4419 51.9323L76.439 51.9766L75.375 67.721V67.7216L74.1846 85.3417C74.1344 86.445 73.8763 87.5112 73.4165 88.5112C73.2024 88.9771 72.9487 89.4195 72.6573 89.8362C72.3356 90.2961 71.9682 90.7246 71.5573 91.1177C70.7745 91.8667 69.8697 92.4542 68.8677 92.8638C67.8306 93.2878 66.7337 93.5032 65.6072 93.5032C64.4806 93.5032 63.3802 93.2875 62.3421 92.8623C61.3392 92.4516 60.4334 91.8626 59.6503 91.1116C58.8672 90.3607 58.2423 89.4819 57.7924 88.4994C57.3336 87.4975 57.0767 86.4294 57.0291 85.3245L55.8077 66.6971V66.6962L54.8412 51.9549L54.8383 51.9107L54.8367 51.8665C54.7808 50.3789 55.0265 48.926 55.5674 47.5485C56.0885 46.2215 56.8579 45.0269 57.8541 43.9973C58.8503 42.9677 60.0206 42.1576 61.3332 41.5896C62.6958 41.0002 64.1451 40.7012 65.6407 40.7012C67.1363 40.7012 68.5891 41.0008 69.9534 41.5921C70.6147 41.8787 71.2394 42.2267 71.8244 42.6328C71.8244 42.6328 71.8245 42.6328 71.8247 42.6328V42.6331Z" fill="#0074E4"/>
<path d="M139.918 108.32C139.766 106.789 139.409 105.284 138.855 103.847C138.28 102.354 137.492 100.933 136.513 99.622L75.3274 17.6636C74.3484 16.3522 73.2084 15.1913 71.939 14.2129C70.7163 13.2708 69.3718 12.496 67.943 11.9101C65.1991 10.7858 62.1721 10.3732 59.1896 10.7177C56.2067 11.0625 53.3551 12.1538 50.9428 13.8742C49.6869 14.7698 48.5561 15.8306 47.5829 17.0265C46.572 18.2685 45.7295 19.6585 45.078 21.1578L18.3323 82.7414L4.37159 114.887C3.72012 116.386 3.28016 117.949 3.06386 119.533C2.85554 121.058 2.85362 122.605 3.05874 124.129C3.24406 125.508 3.59807 126.862 4.10832 128.16C4.68119 129.617 5.45055 131.003 6.3982 132.272C8.18934 134.672 10.5645 136.584 13.2672 137.804C14.6746 138.439 16.1626 138.883 17.6898 139.124C19.2755 139.375 20.9059 139.406 22.536 139.218L80.9344 132.472H53.2171L22.1676 136.059C17.4195 136.607 13.1822 134.858 10.253 131.879C6.39565 127.956 4.80611 121.9 7.304 116.149L32.1905 58.847L48.0107 22.4199C50.2083 17.3601 54.7449 14.4333 59.5576 13.8773C62.5415 13.5326 65.6317 14.0993 68.3363 15.634C69.9945 16.5748 71.508 17.8795 72.763 19.5608L89.1463 41.5059L133.949 101.519C138.964 108.237 137.005 117.145 130.958 121.603C130.521 123.325 129.767 124.953 128.746 126.4C128.873 126.352 128.999 126.303 129.125 126.251C130.556 125.668 131.902 124.897 133.126 123.958C135.476 122.154 137.348 119.751 138.54 117.008C139.732 114.264 140.208 111.26 139.918 108.32Z" fill="#222831"/>
<path d="M59.0457 84.3348C59.2211 85.427 59.6001 86.4582 60.172 87.4012C60.7324 88.3252 61.4551 89.1264 62.32 89.7826C63.1849 90.4387 64.1527 90.9196 65.1965 91.2126C66.2771 91.516 67.3931 91.6041 68.5139 91.4747C69.6328 91.3452 70.6977 91.0058 71.6789 90.4654C72.0211 90.2772 72.348 90.0669 72.6585 89.8363C73.2081 89.4279 73.7068 88.955 74.1484 88.4222C74.8391 87.5882 75.359 86.6455 75.6932 85.6198C76.0341 84.5736 76.167 83.4849 76.089 82.3835L75.3762 67.7217V67.7211L74.4653 48.9818L74.4631 48.9379L74.4596 48.8937C74.3458 47.4074 73.9353 45.9898 73.2397 44.6806C72.8464 43.9411 72.3735 43.2567 71.8259 42.6333C71.8259 42.6333 71.8258 42.6333 71.8256 42.6333C71.2406 42.2271 70.6159 41.8791 69.9546 41.5926C68.5903 41.0013 67.1394 40.7017 65.6419 40.7017C64.1444 40.7017 62.697 41.0006 61.3343 41.59C60.0218 42.1581 58.8515 42.9682 57.8553 43.9977C56.859 45.0273 56.0897 46.222 55.5686 47.5489C55.0276 48.9264 54.7819 50.3794 54.8379 51.8669L54.8395 51.9111L54.8423 51.9554L55.8088 66.6966V66.6976L59.0457 84.3351V84.3348ZM62.8015 42.1803C63.1002 42.1457 63.3971 42.1288 63.6907 42.1288C67.6155 42.1288 70.9683 45.1418 71.2738 49.1354L72.8994 82.5762C73.1196 85.4496 71.0207 87.983 68.1455 88.315C67.9347 88.3395 67.7254 88.3513 67.518 88.3513C64.8926 88.3513 62.6053 86.4454 62.196 83.8017L56.1517 50.8669C55.4938 46.6183 58.5118 42.6756 62.8015 42.1803Z" fill="#222831"/>
<path d="M80.5809 100.401C79.8288 99.0804 78.8396 97.9312 77.6402 96.9853C76.4408 96.0397 75.0905 95.3441 73.6269 94.9176C72.1099 94.4758 70.5395 94.3441 68.9596 94.5267C67.3796 94.7092 65.8815 95.1952 64.5063 95.971C63.1797 96.7197 62.0254 97.7044 61.0752 98.8984C60.1253 100.092 59.4265 101.437 58.9981 102.894C58.5543 104.404 58.422 105.967 58.6054 107.54C58.7888 109.113 59.277 110.604 60.0563 111.973C60.8084 113.294 61.7976 114.443 62.997 115.389C64.1964 116.334 65.5466 117.03 67.0103 117.456C68.5273 117.898 70.0977 118.03 71.6776 117.847C73.2575 117.665 74.7557 117.179 76.1308 116.403C77.4574 115.654 78.6118 114.67 79.562 113.476C80.5119 112.282 81.2106 110.937 81.6391 109.48C82.0829 107.97 82.2152 106.407 82.0318 104.834C81.8484 103.261 81.3602 101.77 80.5809 100.401ZM71.3099 114.688C66.5936 115.233 62.327 111.868 61.7797 107.174C61.2324 102.479 64.6121 98.2315 69.328 97.6866C74.0442 97.1418 78.3108 100.506 78.8581 105.201C79.4054 109.896 76.0257 114.143 71.3099 114.688Z" fill="#222831"/>
<path d="M84.0748 23.2708C83.9885 23.8576 84.1362 24.4432 84.4911 24.9193L84.4959 24.9257L85.3413 26.0529C85.4238 26.1626 85.5161 26.265 85.6164 26.3573C86.4069 27.0844 87.6069 27.1464 88.4702 26.5049C88.9476 26.1499 89.2585 25.6311 89.3447 25.0443C89.4313 24.4575 89.2834 23.8719 88.9284 23.3958L88.9236 23.3894L88.0782 22.2622C87.3401 21.2791 85.9366 21.0765 84.9493 21.8103C84.4716 22.1652 84.1611 22.684 84.0748 23.2708Z" fill="#222831"/>
<path d="M80.0235 18.9536L80.8689 20.0808C80.951 20.1906 81.0436 20.2927 81.144 20.3852C81.9344 21.1123 83.1348 21.1743 83.9978 20.5328C84.4751 20.1778 84.786 19.6591 84.8723 19.0723C84.9588 18.4854 84.8109 17.8999 84.4559 17.4237L84.4511 17.4174L83.6057 16.2902C83.2485 15.8137 82.7261 15.5045 82.1354 15.419C81.5443 15.3337 80.9555 15.4823 80.4768 15.8382C79.4921 16.5701 79.2867 17.9648 80.0187 18.9473L80.0235 18.9536Z" fill="#222831"/>
<path d="M97.8331 42.891L97.8379 42.8974L98.6833 44.0246C98.7658 44.1343 98.8581 44.2367 98.9584 44.329C99.7489 45.0561 100.949 45.1181 101.812 44.4765C102.29 44.1216 102.6 43.6028 102.687 43.016C102.773 42.4292 102.625 41.8436 102.27 41.3675L102.266 41.3611L101.42 40.2339C100.682 39.2508 99.2786 39.0482 98.2913 39.7819C97.3066 40.5138 97.1011 41.9085 97.8331 42.891Z" fill="#222831"/>
<path d="M93.3605 36.9188L93.3652 36.9252L94.2107 38.0524C94.2931 38.1621 94.3854 38.2645 94.4858 38.3568C95.2762 39.0839 96.4766 39.1459 97.3396 38.5043C97.8169 38.1494 98.1278 37.6306 98.214 37.0438C98.3003 36.457 98.1527 35.8714 97.7977 35.3953L97.7929 35.3889L96.9475 34.2617C96.5903 33.7852 96.0679 33.4761 95.4772 33.3905C94.8861 33.305 94.2972 33.4538 93.8186 33.8097C92.8339 34.5416 92.6285 35.9363 93.3605 36.9188Z" fill="#222831"/>
<path d="M88.8878 30.9468L88.8926 30.9532L89.738 32.0804C89.8204 32.1901 89.9128 32.2925 90.0131 32.3848C90.8036 33.1119 92.0036 33.1739 92.8669 32.5323C93.8516 31.8005 94.0571 30.4058 93.3251 29.4233L93.3203 29.4169L92.4749 28.2897C91.7371 27.3066 90.3336 27.1036 89.346 27.8377C88.3613 28.5696 88.1558 29.9643 88.8878 30.9468Z" fill="#222831"/>
<path d="M36.8392 139.764C36.3705 139.398 35.7864 139.235 35.195 139.305L35.187 139.306L33.7844 139.477C32.5607 139.627 31.6872 140.739 31.837 141.956C31.9096 142.545 32.2077 143.071 32.6764 143.437C33.1451 143.803 33.7291 143.966 34.3205 143.896L34.3285 143.895L35.7312 143.724C35.8679 143.708 36.0031 143.678 36.1331 143.637C37.1593 143.316 37.8095 142.309 37.6785 141.245C37.606 140.656 37.3079 140.13 36.8392 139.764Z" fill="#222831"/>
<path d="M29.4116 140.664C28.9429 140.298 28.3589 140.135 27.7675 140.205L27.7595 140.206L26.3568 140.377C25.7642 140.449 25.2351 140.747 24.8673 141.215C24.4996 141.684 24.3369 142.266 24.4095 142.856C24.5587 144.071 25.6728 144.941 26.893 144.796L26.901 144.795L28.3036 144.624C28.44 144.608 28.5752 144.578 28.7055 144.538C29.7321 144.215 30.382 143.209 30.2513 142.145C30.1788 141.556 29.8807 141.03 29.4119 140.664H29.4116Z" fill="#222831"/>
<path d="M59.1341 137.157C58.6654 136.79 58.0814 136.628 57.49 136.698L57.482 136.699L56.0793 136.87C54.8556 137.019 53.9821 138.132 54.132 139.349C54.2812 140.564 55.3953 141.434 56.6155 141.289L56.6235 141.288L58.0261 141.117C58.1625 141.101 58.298 141.071 58.428 141.03C59.4543 140.708 60.1045 139.702 59.9735 138.637C59.9009 138.049 59.6028 137.523 59.1341 137.157Z" fill="#222831"/>
<path d="M51.7046 138.056C51.2359 137.69 50.6518 137.527 50.0604 137.598L50.0524 137.599L48.6498 137.77C48.0571 137.842 47.528 138.139 47.1603 138.608C46.7925 139.076 46.6299 139.659 46.7024 140.249C46.8516 141.464 47.9658 142.333 49.1859 142.189L49.1939 142.188L50.5966 142.017C50.7333 142 50.8684 141.971 50.9985 141.93C52.0251 141.608 52.6749 140.602 52.5439 139.538C52.4714 138.949 52.1733 138.423 51.7046 138.057V138.056Z" fill="#222831"/>
<path d="M42.6325 138.498L42.6245 138.499L41.2219 138.67C39.9982 138.819 39.1247 139.931 39.2745 141.149C39.4238 142.364 40.5379 143.233 41.758 143.089L41.766 143.088L43.1687 142.917C43.3051 142.9 43.4402 142.871 43.5706 142.83C44.5972 142.508 45.247 141.502 45.116 140.438C44.9668 139.223 43.8527 138.353 42.6325 138.498V138.498Z" fill="#222831"/>
<path d="M111.896 60.5395L114.018 58.4263C114.465 57.9813 114.465 57.2597 114.018 56.8147C113.571 56.3697 112.846 56.3697 112.399 56.8147L110.277 58.9279C109.83 59.3729 109.83 60.0945 110.277 60.5395C110.724 60.9845 111.449 60.9845 111.896 60.5395Z" fill="#222831"/>
<path d="M120.898 51.5793L123.02 49.4661C123.467 49.0211 123.467 48.2994 123.02 47.8545C122.573 47.4095 121.848 47.4095 121.401 47.8545L119.279 49.9677C118.832 50.4127 118.832 51.1343 119.279 51.5793C119.726 52.0243 120.451 52.0243 120.898 51.5793Z" fill="#222831"/>
<path d="M121.401 60.5395C121.848 60.9845 122.573 60.9845 123.02 60.5395C123.467 60.0945 123.467 59.3729 123.02 58.9279L120.898 56.8147C120.451 56.3697 119.726 56.3697 119.279 56.8147C118.832 57.2597 118.832 57.9813 119.279 58.4263L121.401 60.5395Z" fill="#222831"/>
<path d="M112.399 51.5793C112.846 52.0243 113.571 52.0243 114.018 51.5793C114.465 51.1343 114.465 50.4127 114.018 49.9677L111.896 47.8545C111.449 47.4095 110.724 47.4095 110.277 47.8545C109.83 48.2994 109.83 49.0211 110.277 49.4661L112.399 51.5793Z" fill="#222831"/>
<path d="M49.2045 9.1958L50.7039 7.70313C51.0196 7.38889 51.0196 6.87903 50.7039 6.56479C50.3882 6.25054 49.8761 6.25054 49.5604 6.56479L48.061 8.05746C47.7453 8.3717 47.7453 8.88156 48.061 9.1958C48.3766 9.51005 48.8888 9.51005 49.2045 9.1958Z" fill="#222831"/>
<path d="M55.5619 2.8667L57.0613 1.37403C57.377 1.05979 57.377 0.549931 57.0613 0.235685C56.7457 -0.0785615 56.2335 -0.0785615 55.9178 0.235685L54.4184 1.72835C54.1027 2.0426 54.1027 2.55245 54.4184 2.8667C54.7341 3.18095 55.2462 3.18095 55.5619 2.8667Z" fill="#222831"/>
<path d="M55.9178 9.1958C56.2335 9.51005 56.7457 9.51005 57.0613 9.1958C57.377 8.88156 57.377 8.3717 57.0613 8.05746L55.5619 6.56479C55.2462 6.25054 54.7341 6.25054 54.4184 6.56479C54.1027 6.87903 54.1027 7.38889 54.4184 7.70313L55.9178 9.1958Z" fill="#222831"/>
<path d="M49.5604 2.8667C49.8761 3.18095 50.3882 3.18095 50.7039 2.8667C51.0196 2.55245 51.0196 2.0426 50.7039 1.72835L49.2045 0.235685C48.8888 -0.0785615 48.3766 -0.0785615 48.061 0.235685C47.7453 0.549931 47.7453 1.05979 48.061 1.37403L49.5604 2.8667Z" fill="#222831"/>
<path d="M10.8392 74.4355L12.3387 72.9429C12.6543 72.6286 12.6543 72.1188 12.3387 71.8045C12.023 71.4903 11.5108 71.4903 11.1952 71.8045L9.69574 73.2972C9.38007 73.6114 9.38007 74.1213 9.69574 74.4355C10.0114 74.7498 10.5236 74.7498 10.8392 74.4355Z" fill="#222831"/>
<path d="M17.1986 68.1067L18.6981 66.614C19.0137 66.2998 19.0137 65.7899 18.6981 65.4757C18.3824 65.1614 17.8702 65.1614 17.5545 65.4757L16.0551 66.9683C15.7394 67.2826 15.7394 67.7924 16.0551 68.1067C16.3708 68.4209 16.8829 68.4209 17.1986 68.1067Z" fill="#222831"/>
<path d="M17.5545 74.4355C17.8702 74.7498 18.3824 74.7498 18.6981 74.4355C19.0137 74.1213 19.0137 73.6114 18.6981 73.2972L17.1986 71.8045C16.8829 71.4903 16.3708 71.4903 16.0551 71.8045C15.7394 72.1188 15.7394 72.6286 16.0551 72.9429L17.5545 74.4355Z" fill="#222831"/>
<path d="M11.1952 68.1067C11.5108 68.4209 12.023 68.4209 12.3387 68.1067C12.6543 67.7924 12.6543 67.2826 12.3387 66.9683L10.8392 65.4757C10.5236 65.1614 10.0114 65.1614 9.69574 65.4757C9.38007 65.7899 9.38007 66.2998 9.69574 66.614L11.1952 68.1067Z" fill="#222831"/>
<path d="M12.1151 148.133L10.6157 149.626C10.3 149.94 10.3 150.45 10.6157 150.764C10.9313 151.079 11.4435 151.079 11.7592 150.764L13.2586 149.272C13.5743 148.957 13.5743 148.448 13.2586 148.133C12.9429 147.819 12.4308 147.819 12.1151 148.133Z" fill="#222831"/>
<path d="M18.4725 141.804L16.9731 143.297C16.6574 143.611 16.6574 144.121 16.9731 144.435C17.2888 144.749 17.8009 144.749 18.1166 144.435L19.616 142.942C19.9317 142.628 19.9317 142.118 19.616 141.804C19.3003 141.49 18.7882 141.49 18.4725 141.804Z" fill="#222831"/>
<path d="M18.1166 148.133C17.8009 147.819 17.2888 147.819 16.9731 148.133C16.6574 148.448 16.6574 148.957 16.9731 149.272L18.4725 150.764C18.7882 151.079 19.3003 151.079 19.616 150.764C19.9317 150.45 19.9317 149.94 19.616 149.626L18.1166 148.133Z" fill="#222831"/>
<path d="M11.7592 141.804C11.4435 141.49 10.9313 141.49 10.6157 141.804C10.3 142.118 10.3 142.628 10.6157 142.942L12.1151 144.435C12.4308 144.749 12.9429 144.749 13.2586 144.435C13.5743 144.121 13.5743 143.611 13.2586 143.297L11.7592 141.804Z" fill="#222831"/>
<path d="M131.574 134.321L130.075 135.814C129.759 136.128 129.759 136.638 130.075 136.952C130.39 137.266 130.902 137.266 131.218 136.952L132.718 135.459C133.033 135.145 133.033 134.635 132.718 134.321C132.402 134.007 131.89 134.007 131.574 134.321Z" fill="#222831"/>
<path d="M137.932 127.992L136.432 129.485C136.116 129.799 136.116 130.309 136.432 130.623C136.748 130.937 137.26 130.937 137.576 130.623L139.075 129.13C139.391 128.816 139.391 128.306 139.075 127.992C138.759 127.678 138.247 127.678 137.932 127.992Z" fill="#222831"/>
<path d="M137.576 134.321C137.26 134.007 136.748 134.007 136.432 134.321C136.116 134.635 136.116 135.145 136.432 135.459L137.932 136.952C138.247 137.266 138.759 137.266 139.075 136.952C139.391 136.638 139.391 136.128 139.075 135.814L137.576 134.321Z" fill="#222831"/>
<path d="M131.218 127.992C130.902 127.678 130.39 127.678 130.075 127.992C129.759 128.306 129.759 128.816 130.075 129.13L131.574 130.623C131.89 130.937 132.402 130.937 132.718 130.623C133.033 130.309 133.033 129.799 132.718 129.485L131.218 127.992Z" fill="#222831"/>
</g>
<defs>
<clipPath id="clip0_1191_8000">
<rect width="140" height="151" fill="white"/>
</clipPath>
</defs>
</svg>
