<svg width="18" height="16" viewBox="0 0 18 16" fill="none" xmlns="http://www.w3.org/2000/svg">
<path d="M16.1435 2.0063C14.1185 0.293795 11.0435 0.450045 8.99977 2.27505C6.95602 0.450045 3.88102 0.293795 1.85602 2.0063C0.74977 2.9438 0.0997695 4.3688 0.0747695 5.9188C0.0435195 7.5688 0.71852 9.15005 1.91852 10.2375L6.73727 15.0625C7.36227 15.6875 8.18102 16 8.99977 16C9.81852 16 10.6373 15.6875 11.2623 15.0625L16.0623 10.2563C17.281 9.15005 17.956 7.5688 17.9248 5.9188C17.8998 4.3688 17.2498 2.9438 16.1435 2.0063V2.0063ZM15.1998 9.3563L10.3748 14.1813C9.61852 14.9375 8.38102 14.9375 7.62477 14.1813L2.78102 9.33755C1.83102 8.4688 1.29977 7.2313 1.31852 5.9438C1.34352 4.75005 1.83727 3.66255 2.66852 2.9563C3.36852 2.36255 4.26227 2.07505 5.18102 2.07505C6.39977 2.07505 7.65602 2.58755 8.53102 3.57505C8.76852 3.83755 9.23102 3.83755 9.46852 3.57505C11.006 1.85005 13.6935 1.56879 15.331 2.9563C16.1623 3.66255 16.656 4.75005 16.681 5.9438C16.6998 7.2313 16.1685 8.4688 15.1998 9.3563V9.3563Z" fill="#252A34"/>
</svg>
