<svg width="40" height="40" viewBox="0 0 40 40" fill="none" xmlns="http://www.w3.org/2000/svg">
<g clip-path="url(#clip0_878_8110)">
<path d="M35.8308 4.17938C32.057 0.420156 26.6309 0 20 0C13.3608 0 7.92641 0.425 4.15422 4.19438C0.382578 7.96219 0 13.3878 0 20.0195C0 26.6522 0.382578 32.0795 4.15578 35.8486C7.92773 39.6185 13.3615 40.0001 20 40.0001C26.6386 40.0001 32.0714 39.6185 35.8434 35.8486C39.6163 32.0788 40 26.6522 40 20.0195C40 13.3793 39.6122 7.94781 35.8308 4.17938Z" fill="#FF6900"/>
<path d="M31.6066 12.3911C31.7441 12.3911 31.8584 12.5018 31.8584 12.6381V27.4338C31.8584 27.5678 31.7441 27.6791 31.6066 27.6791H28.3648C28.2256 27.6791 28.1126 27.5678 28.1126 27.4338V12.6381C28.1126 12.5019 28.2255 12.3911 28.3648 12.3911H31.6066ZM17.538 12.3911C19.9836 12.3911 22.5406 12.5032 23.8018 13.7653C25.0417 15.0072 25.176 17.48 25.1812 19.8813V27.4338C25.1812 27.5678 25.0682 27.679 24.9297 27.679H21.6883C21.5495 27.679 21.436 27.5678 21.436 27.4338V19.7514C21.4326 18.4103 21.3555 17.0319 20.6638 16.338C20.0685 15.741 18.9577 15.6043 17.8025 15.576H11.9267C11.7889 15.576 11.6761 15.6868 11.6761 15.821V27.4338C11.6761 27.5678 11.5619 27.6791 11.4232 27.6791H8.17977C8.04117 27.6791 7.92969 27.5678 7.92969 27.4338V12.6381C7.92969 12.5019 8.04109 12.3911 8.17977 12.3911H17.538ZM18.2636 18.2838C18.4016 18.2838 18.5137 18.3942 18.5137 18.5294V27.4338C18.5137 27.5678 18.4015 27.6791 18.2636 27.6791H14.8586C14.7186 27.6791 14.6064 27.5678 14.6064 27.4338V18.5294C14.6064 18.3942 14.7186 18.2838 14.8586 18.2838H18.2636Z" fill="white"/>
</g>
<defs>
<clipPath id="clip0_878_8110">
<rect width="40" height="40" fill="white"/>
</clipPath>
</defs>
</svg>
