<svg width="181" height="62" viewBox="0 0 181 62" fill="none" xmlns="http://www.w3.org/2000/svg">
<g clip-path="url(#clip0_155_46)">
<path d="M45.0365 49.2818V16.5142H65.8887V21.7695H50.3063V30.2933H61.3261V35.5256H50.3063V49.2818H45.0365Z" fill="#262626"/>
<path d="M70.0344 49.2818L70.0804 16.5142H91.8699V21.7695H75.3503V30.2933H87.3102V35.5256H75.3503V44.0494H91.8699V49.2818H70.0344Z" fill="#262626"/>
<path d="M105.135 49.2818C102.507 49.2818 100.262 48.3528 98.399 46.495C96.536 44.6371 95.6045 42.398 95.6045 39.7775V37.4466H100.874V39.7775C100.874 40.9358 101.294 41.9364 102.134 42.7822C102.973 43.6279 103.974 44.0494 105.135 44.0494H108.137C109.298 44.0494 110.301 43.6279 111.149 42.7822C111.998 41.9364 112.42 40.9358 112.42 39.7775V16.5142H117.667V39.7746C117.667 42.3349 116.741 44.5569 114.896 46.4462C113.047 48.3356 110.793 49.2789 108.137 49.2789H105.135V49.2818Z" fill="#262626"/>
<path d="M122.342 49.2818V16.5142H126.329L136.435 31.3656L146.517 16.5142H150.505V49.2818H145.258V27.6671L138.637 37.6759H134.33L127.617 27.6671V49.2846H122.348L122.342 49.2818Z" fill="#262626"/>
<path d="M164.708 49.6487C162.08 49.6487 159.834 48.7313 157.971 46.8964C156.108 45.0615 155.177 42.8166 155.177 40.1674L155.223 25.7949C155.223 23.1744 156.146 20.9438 157.994 19.1003C159.843 17.2568 162.08 16.3365 164.708 16.3365H171.513C174.08 16.3365 176.302 17.2511 178.18 19.0774C180.057 20.9065 180.997 23.0998 180.997 25.6572V40.2591C180.997 42.8481 180.066 45.0615 178.203 46.8964C176.34 48.7313 174.109 49.6487 171.513 49.6487H164.708ZM164.708 44.4164H171.513C172.703 44.4164 173.715 44.0006 174.549 43.1721C175.379 42.3406 175.796 41.34 175.796 40.1674V25.8866C175.796 24.6997 175.374 23.6847 174.526 22.8475C173.677 22.0104 172.674 21.5918 171.513 21.5918H164.708C163.517 21.5918 162.508 22.0018 161.683 22.8246C160.858 23.6474 160.447 24.6538 160.447 25.8407V40.1674C160.447 41.3544 160.858 42.3607 161.683 43.1835C162.508 44.0064 163.517 44.4164 164.708 44.4164Z" fill="#262626"/>
<path d="M11.5717 24.4129C11.7241 24.3384 11.842 24.2897 11.9541 24.2237C16.9048 21.3624 21.8527 18.4982 26.8005 15.6369C26.9011 15.5796 26.9989 15.5136 27.1052 15.4591C27.6946 15.1552 28.2696 15.3043 28.5772 15.8433C28.9021 16.4081 28.7526 17.0131 28.1747 17.3485C26.0185 18.5986 23.8594 19.8343 21.7003 21.0786C18.4544 22.945 15.2115 24.8201 11.9599 26.6751C11.6379 26.8585 11.5344 27.0564 11.5372 27.4176C11.5487 32.0622 11.5372 36.704 11.5545 41.3486C11.5545 42.0511 11.2929 42.4926 10.6805 42.8366C7.86877 44.4164 5.07141 46.0277 2.27119 47.6303C1.33682 48.1636 0.505949 47.6905 0.505949 46.6068C0.505949 38.2035 0.434075 29.8001 0.534699 21.3997C0.580699 17.5464 2.27694 14.4757 5.73266 12.4917C12.7045 8.48361 19.6619 4.45253 26.6251 0.430058C26.7689 0.346914 26.9155 0.260902 27.0621 0.183492C27.686 -0.151953 28.2552 -0.0172016 28.5744 0.536139C28.9079 1.11815 28.7469 1.7145 28.1345 2.06715C25.1934 3.76157 22.2465 5.44167 19.3112 7.14183C17.8507 7.98761 16.3442 8.77605 14.9786 9.75658C13.1731 11.0525 11.9282 12.7899 11.6062 15.0635C11.5689 15.3273 11.5459 15.5968 11.5459 15.8605C11.543 18.6014 11.5459 21.3395 11.5459 24.0804C11.5459 24.175 11.5602 24.2696 11.5717 24.4129Z" fill="#262626"/>
<path d="M17.707 39.6628C17.707 35.4024 17.7156 31.1419 17.6984 26.8843C17.6984 26.2364 17.9629 25.8063 18.5005 25.4996C21.318 23.8911 24.1355 22.2856 26.9501 20.6743C27.4187 20.4048 27.8873 20.2987 28.3531 20.6571C28.7067 20.9295 28.7498 21.3223 28.7498 21.738C28.7441 25.2301 28.7498 28.7193 28.7498 32.2113C28.7498 36.9735 28.7814 41.7328 28.7412 46.495C28.7067 50.6809 26.9731 53.9063 23.2184 55.9792C20.6136 57.4156 18.075 58.9724 15.4703 60.4117C12.2963 62.1663 8.98721 62.6307 5.62061 60.9965C2.34601 59.4082 0.658398 56.6501 0.103527 53.1351C0.0690274 52.92 0.0517775 52.705 0.0201528 52.49C-0.0689716 51.8506 0.189776 51.412 0.750397 51.088C5.06861 48.6023 9.37821 46.1051 13.6907 43.6136C14.3548 43.2294 14.9442 43.347 15.2949 43.9232C15.6399 44.488 15.4502 45.0844 14.7832 45.4686C10.7266 47.8024 6.6671 50.1361 2.60188 52.4556C2.27126 52.6448 2.18214 52.8226 2.26551 53.2039C2.72551 55.3484 3.6455 57.2264 5.48549 58.5108C7.88897 60.1909 10.4793 60.254 13.1301 59.1874C15.7578 58.1295 17.7013 55.1076 17.707 52.1459C17.7156 47.9858 17.707 43.8258 17.707 39.6685V39.6628Z" fill="#262626"/>
</g>
<defs>
<clipPath id="clip0_155_46">
<rect width="181" height="62" fill="white"/>
</clipPath>
</defs>
</svg>
