<svg width="40" height="40" viewBox="0 0 40 40" fill="none" xmlns="http://www.w3.org/2000/svg">
<path d="M34.1422 5.85785C30.3647 2.08038 25.3421 0 20 0C14.6579 0 9.63531 2.08038 5.85785 5.85785C2.08038 9.63531 0 14.6579 0 20C0 25.3421 2.08038 30.3647 5.85785 34.1422C9.63531 37.9196 14.6579 40 20 40C25.3421 40 30.3647 37.9196 34.1422 34.1422C37.9196 30.3647 40 25.3421 40 20C40 14.6579 37.9196 9.63531 34.1422 5.85785ZM20 38.4375C9.83337 38.4375 1.5625 30.1666 1.5625 20C1.5625 9.83337 9.83337 1.5625 20 1.5625C30.1666 1.5625 38.4375 9.83337 38.4375 20C38.4375 30.1666 30.1666 38.4375 20 38.4375Z" fill="#57CC99"/>
<path d="M20 4.21875C17.0761 4.21875 14.2206 5.02472 11.7422 6.54938C11.3748 6.77551 11.2601 7.25647 11.4862 7.62421C11.712 7.99164 12.1936 8.10608 12.5607 7.88025C14.7928 6.50696 17.3651 5.78125 20 5.78125C27.8403 5.78125 34.2188 12.1597 34.2188 20C34.2188 27.8403 27.8403 34.2188 20 34.2188C12.1597 34.2188 5.78125 27.8403 5.78125 20C5.78125 17.3654 6.50696 14.7931 7.87994 12.5613C8.10608 12.1936 7.99133 11.7126 7.6239 11.4865C7.25616 11.2604 6.77521 11.3751 6.54907 11.7426C5.02441 14.2209 4.21875 17.0761 4.21875 20C4.21875 28.7018 11.2982 35.7812 20 35.7812C28.7018 35.7812 35.7812 28.7018 35.7812 20C35.7812 11.2982 28.7018 4.21875 20 4.21875Z" fill="#57CC99"/>
<path d="M19.2188 17.4612C18.1342 17.7957 17.3438 18.8071 17.3438 20C17.3438 21.4645 18.5355 22.6562 20 22.6562C20.4486 22.6562 20.8713 22.5439 21.2421 22.3468L27.4164 28.5211C27.569 28.6737 27.7689 28.75 27.9688 28.75C28.1686 28.75 28.3685 28.6737 28.5211 28.5211C28.8263 28.2159 28.8263 27.7216 28.5211 27.4164L22.3468 21.2421C22.5439 20.8713 22.6562 20.4486 22.6562 20C22.6562 18.8071 21.8658 17.7954 20.7812 17.4612V11.2808C20.7812 10.8493 20.4315 10.4996 20 10.4996C19.5685 10.4996 19.2188 10.8493 19.2188 11.2808V17.4612ZM20 21.0938C19.397 21.0938 18.9062 20.603 18.9062 20C18.9062 19.397 19.397 18.9062 20 18.9062C20.603 18.9062 21.0938 19.397 21.0938 20C21.0938 20.603 20.603 21.0938 20 21.0938Z" fill="#57CC99"/>
<path d="M20 8.93738C20.2054 8.93738 20.4071 8.85376 20.5524 8.7085C20.6976 8.56323 20.7812 8.36182 20.7812 8.15613C20.7812 7.95013 20.6976 7.74933 20.5524 7.60376C20.4071 7.45789 20.2054 7.37488 20 7.37488C19.7946 7.37488 19.5929 7.45789 19.4476 7.60376C19.3024 7.74933 19.2188 7.95074 19.2188 8.15613C19.2188 8.36182 19.3024 8.56262 19.4476 8.7085C19.5929 8.85376 19.7946 8.93738 20 8.93738Z" fill="#57CC99"/>
<path d="M19.4476 31.2915C19.3024 31.4374 19.2188 31.6382 19.2188 31.8439C19.2188 32.0499 19.3024 32.2507 19.4476 32.3962C19.5929 32.5421 19.7946 32.6251 20 32.6251C20.2054 32.6251 20.4071 32.5421 20.5524 32.3962C20.6976 32.2507 20.7812 32.0499 20.7812 31.8439C20.7812 31.6382 20.6976 31.4368 20.5524 31.2915C20.4071 31.1462 20.2054 31.0632 20 31.0632C19.7946 31.0632 19.5929 31.1462 19.4476 31.2915Z" fill="#57CC99"/>
<path d="M32.3967 20.5524C32.542 20.4071 32.625 20.2054 32.625 20C32.625 19.7946 32.542 19.5929 32.3967 19.4476C32.2505 19.3024 32.05 19.2188 31.8438 19.2188C31.6381 19.2188 31.4373 19.3024 31.2914 19.4476C31.1461 19.5929 31.0625 19.7946 31.0625 20C31.0625 20.2054 31.1461 20.4071 31.2914 20.5524C31.4373 20.6976 31.6381 20.7812 31.8438 20.7812C32.0497 20.7812 32.2505 20.6976 32.3967 20.5524Z" fill="#57CC99"/>
<path d="M7.375 20C7.375 20.2054 7.45801 20.4071 7.60327 20.5524C7.74915 20.6976 7.94995 20.7812 8.15625 20.7812C8.36194 20.7812 8.56244 20.6976 8.70862 20.5524C8.85388 20.4071 8.9375 20.2054 8.9375 20C8.9375 19.7946 8.85388 19.5929 8.70862 19.4476C8.56244 19.3024 8.36194 19.2188 8.15625 19.2188C7.94995 19.2188 7.74915 19.3024 7.60327 19.4476C7.45801 19.5929 7.375 19.7946 7.375 20Z" fill="#57CC99"/>
<path d="M9.39258 10.1749C9.59888 10.1749 9.79938 10.0916 9.94556 9.94598C10.0908 9.80072 10.1744 9.5993 10.1744 9.39362C10.1744 9.18762 10.0911 8.98682 9.94556 8.84064C9.79938 8.69537 9.59888 8.61237 9.39258 8.61237C9.18689 8.61237 8.98547 8.69537 8.84021 8.84064C8.69495 8.98682 8.61133 9.18823 8.61133 9.39362C8.61133 9.5993 8.69495 9.80011 8.84021 9.94598C8.98547 10.0916 9.18719 10.1749 9.39258 10.1749Z" fill="#57CC99"/>
</svg>
