<svg width="40" height="40" viewBox="0 0 40 40" fill="none" xmlns="http://www.w3.org/2000/svg">
<path d="M32.3438 11.6211C32.7752 11.6211 33.125 11.2713 33.125 10.8398V2.34375C33.125 1.05141 32.0736 0 30.7812 0H2.34375C1.05141 0 0 1.05141 0 2.34375V37.6562C0 38.9486 1.05141 40 2.34375 40H30.7812C32.0736 40 33.125 38.9486 33.125 37.6562V31.9006C33.125 31.4691 32.7752 31.1194 32.3438 31.1194C31.9123 31.1194 31.5625 31.4691 31.5625 31.9006V37.6562C31.5625 38.087 31.212 38.4375 30.7812 38.4375H2.34375C1.91297 38.4375 1.5625 38.087 1.5625 37.6562V2.34375C1.5625 1.91297 1.91297 1.5625 2.34375 1.5625H30.7812C31.212 1.5625 31.5625 1.91297 31.5625 2.34375V10.8398C31.5625 11.2713 31.9123 11.6211 32.3438 11.6211Z" fill="#57CC99"/>
<path d="M16.5625 4.21875C12.5993 4.21875 9.375 7.44305 9.375 11.4062C9.375 13.4623 10.243 15.3191 11.6314 16.6304C11.6574 16.6582 11.6851 16.6845 11.7153 16.7085C12.9943 17.8787 14.6964 18.5937 16.5624 18.5937C18.4284 18.5937 20.1305 17.8787 21.4095 16.7085C21.4398 16.6845 21.4674 16.6581 21.4934 16.6304C22.882 15.3191 23.75 13.4623 23.75 11.4062C23.75 7.44305 20.5257 4.21875 16.5625 4.21875ZM16.5625 17.0312C15.2868 17.0312 14.1095 16.6038 13.1648 15.8853C13.8514 14.6677 15.1327 13.9062 16.5625 13.9062C17.9923 13.9062 19.2736 14.6677 19.9602 15.8853C19.0155 16.6038 17.8382 17.0312 16.5625 17.0312ZM15.3125 11.0938V10.5859C15.3125 9.89672 15.8733 9.33594 16.5625 9.33594C17.2517 9.33594 17.8125 9.89672 17.8125 10.5859V11.0938C17.8125 11.783 17.2517 12.3438 16.5625 12.3438C15.8733 12.3438 15.3125 11.783 15.3125 11.0938ZM21.0891 14.7409C20.5129 13.8863 19.7144 13.2217 18.7873 12.8114C19.1552 12.3359 19.375 11.7402 19.375 11.0938V10.5859C19.375 9.03508 18.1134 7.77344 16.5625 7.77344C15.0116 7.77344 13.75 9.03508 13.75 10.5859V11.0938C13.75 11.7402 13.9698 12.3359 14.3377 12.8114C13.4106 13.2217 12.6121 13.8863 12.0359 14.7409C11.3462 13.807 10.9375 12.6537 10.9375 11.4062C10.9375 8.30461 13.4609 5.78125 16.5625 5.78125C19.6641 5.78125 22.1875 8.30461 22.1875 11.4062C22.1875 12.6537 21.7788 13.807 21.0891 14.7409Z" fill="#57CC99"/>
<path d="M20.7812 34.2188H16.5625C16.1311 34.2188 15.7812 34.5685 15.7812 35C15.7812 35.4315 16.1311 35.7812 16.5625 35.7812H20.7812C21.2127 35.7812 21.5625 35.4315 21.5625 35C21.5625 34.5685 21.2127 34.2188 20.7812 34.2188Z" fill="#57CC99"/>
<path d="M20.7812 29.8438H9.6875C9.25609 29.8438 8.90625 30.1935 8.90625 30.625C8.90625 31.0565 9.25609 31.4062 9.6875 31.4062H20.7812C21.2127 31.4062 21.5625 31.0565 21.5625 30.625C21.5625 30.1935 21.2127 29.8438 20.7812 29.8438Z" fill="#57CC99"/>
<path d="M20.7812 25.4688H9.6875C9.25609 25.4688 8.90625 25.8185 8.90625 26.25C8.90625 26.6815 9.25609 27.0312 9.6875 27.0312H20.7812C21.2127 27.0312 21.5625 26.6815 21.5625 26.25C21.5625 25.8185 21.2127 25.4688 20.7812 25.4688Z" fill="#57CC99"/>
<path d="M6.90461 21.3227C6.75937 21.1773 6.55781 21.0938 6.35156 21.0938C6.14602 21.0938 5.94445 21.1773 5.79922 21.3227C5.65391 21.468 5.57031 21.6695 5.57031 21.875C5.57031 22.0805 5.65383 22.282 5.79922 22.4273C5.94531 22.5727 6.14602 22.6562 6.35156 22.6562C6.55781 22.6562 6.75859 22.5727 6.90461 22.4273C7.04992 22.282 7.13359 22.0805 7.13359 21.875C7.13359 21.6695 7.05 21.468 6.90461 21.3227Z" fill="#57CC99"/>
<path d="M6.90461 25.6977C6.75859 25.5523 6.55781 25.4688 6.35156 25.4688C6.14602 25.4688 5.94531 25.5523 5.79922 25.6977C5.65391 25.843 5.57031 26.0445 5.57031 26.25C5.57031 26.4555 5.65383 26.657 5.79922 26.8023C5.94531 26.9477 6.14602 27.0312 6.35156 27.0312C6.55781 27.0312 6.75859 26.9477 6.90461 26.8023C7.04992 26.657 7.13359 26.4555 7.13359 26.25C7.13359 26.0445 7.05 25.843 6.90461 25.6977Z" fill="#57CC99"/>
<path d="M6.90461 30.0727C6.75859 29.9273 6.55781 29.8438 6.35156 29.8438C6.14602 29.8438 5.94531 29.9273 5.79922 30.0727C5.65391 30.218 5.57031 30.4195 5.57031 30.625C5.57031 30.8305 5.65383 31.032 5.79922 31.1773C5.94445 31.3227 6.14602 31.4062 6.35156 31.4062C6.55781 31.4062 6.75937 31.3227 6.90461 31.1773C7.04992 31.032 7.13359 30.8305 7.13359 30.625C7.13359 30.4195 7.05 30.218 6.90461 30.0727Z" fill="#57CC99"/>
<path d="M20.7812 21.0938H9.6875C9.25609 21.0938 8.90625 21.4435 8.90625 21.875C8.90625 22.3065 9.25609 22.6562 9.6875 22.6562H20.7812C21.2127 22.6562 21.5625 22.3065 21.5625 21.875C21.5625 21.4435 21.2127 21.0938 20.7812 21.0938Z" fill="#57CC99"/>
<path d="M38.3604 10.1813C37.6014 9.74305 36.7172 9.62664 35.8705 9.85344C35.0239 10.0803 34.3162 10.6233 33.8781 11.3823L24.0467 28.4106C23.9929 28.504 23.9588 28.6075 23.9469 28.7146L23.2548 34.9134C23.2205 35.2218 23.3719 35.5214 23.6406 35.6766C23.7619 35.7466 23.8967 35.7813 24.0312 35.7813C24.1946 35.7813 24.3574 35.7302 24.4945 35.6291L29.5167 31.9304C29.6035 31.8665 29.6762 31.7853 29.73 31.692L39.5613 14.6636C40.466 13.0967 39.9272 11.0859 38.3604 10.1813ZM25.0058 33.312L25.3672 30.0752L27.6283 31.3806L25.0058 33.312ZM28.7675 30.2341L25.7905 28.5153L33.68 14.8505L36.6569 16.5692L28.7675 30.2341ZM38.2082 13.8823L37.4381 15.2161L34.4612 13.4973L35.2312 12.1635C35.4608 11.7659 35.8314 11.4816 36.2748 11.3627C36.7184 11.2438 37.1815 11.3049 37.579 11.5345C37.9766 11.764 38.261 12.1346 38.3798 12.578C38.4987 13.0215 38.4377 13.4847 38.2082 13.8823Z" fill="#57CC99"/>
</svg>
