<svg width="40" height="40" viewBox="0 0 40 40" fill="none" xmlns="http://www.w3.org/2000/svg">
<g clip-path="url(#clip0_486_6464)">
<path d="M29.5583 30.1862C29.5583 29.8406 29.8417 29.5662 30.1873 29.5662C30.533 29.5662 30.8073 29.8406 30.8073 30.1862V39.3712C30.8073 39.7166 30.5327 40.0003 30.1873 40.0003H3.56922C3.22391 40.0003 2.94922 39.7169 2.94922 39.3712V23.5784C2.94922 23.2328 3.22359 22.9584 3.56922 22.9584C3.91484 22.9584 4.19828 23.2328 4.19828 23.5784V38.7509H29.5583V30.1862Z" fill="#57CC99"/>
<path d="M9.09641 37.75C9.09641 38.0953 8.81297 38.3791 8.46734 38.3791C8.12172 38.3791 7.84766 38.0956 7.84766 37.75V29.7697C7.84766 28.5828 8.32578 27.5022 9.11422 26.7228C9.89391 25.9434 10.9745 25.4559 12.1614 25.4559C13.3483 25.4559 14.4289 25.9434 15.2083 26.7228C15.988 27.5022 16.4752 28.5828 16.4752 29.7697V37.75C16.4752 38.0953 16.1917 38.3791 15.8464 38.3791C15.5008 38.3791 15.2261 38.0956 15.2261 37.75V29.7697C15.2261 28.9284 14.8808 28.1662 14.3227 27.6087C13.7645 27.0506 13.0027 26.705 12.1611 26.705C11.3195 26.705 10.5489 27.0503 9.99109 27.6087C9.44172 28.1662 9.09641 28.9284 9.09641 29.7697V37.75Z" fill="#57CC99"/>
<path d="M20.4952 32.7634H26.2348V28.3966H20.4952V32.7634ZM26.8639 34.0125H19.8752C19.5298 34.0125 19.2461 33.7378 19.2461 33.3925V27.7678C19.2461 27.4225 19.5295 27.1478 19.8752 27.1478H26.8639C27.2092 27.1478 27.493 27.4225 27.493 27.7678V33.3922C27.493 33.7378 27.2092 34.0125 26.8639 34.0125Z" fill="#57CC99"/>
<path fill-rule="evenodd" clip-rule="evenodd" d="M13.2033 34.3931C13.5398 34.3931 13.8233 34.11 13.8233 33.7734C13.8233 33.4281 13.5398 33.1444 13.2033 33.1444C12.858 33.1444 12.5742 33.4278 12.5742 33.7734C12.5742 34.1097 12.8577 34.3931 13.2033 34.3931Z" fill="#57CC99"/>
<path d="M13.9314 19.3622V19.3266L14.3479 11.5941H11.947L10.5298 19.3975C10.5386 19.8934 10.7248 20.3366 11.0348 20.6644C11.3358 20.9834 11.7611 21.1781 12.2304 21.1781C12.6914 21.1781 13.1161 20.9834 13.4173 20.6644C13.7364 20.3278 13.9223 19.8672 13.9223 19.3622H13.9314ZM15.5879 11.5944L15.1804 19.3622C15.1804 19.8672 15.3754 20.3278 15.6854 20.6644C15.9867 20.9834 16.4117 21.1781 16.8811 21.1781C17.3417 21.1781 17.7667 20.9834 18.0679 20.6644C18.387 20.3278 18.5729 19.8672 18.5729 19.3622H18.5817L18.3689 15.465C18.3511 15.1197 18.617 14.8272 18.9626 14.8094C19.3079 14.7916 19.6004 15.0575 19.6179 15.4028L19.8217 19.3266V19.3622H19.8304C19.8304 19.8672 20.0254 20.3278 20.3354 20.6644C20.6364 20.9834 21.0617 21.1781 21.5311 21.1781C21.8761 21.1781 22.1508 21.4616 22.1508 21.8069C22.1508 22.1522 21.8761 22.4359 21.5311 22.4359C20.7073 22.4359 19.9629 22.0816 19.4317 21.5238C19.352 21.4353 19.2723 21.3469 19.2014 21.2491C19.1308 21.3469 19.0511 21.4353 18.9714 21.5238C18.4398 22.0816 17.6954 22.4359 16.8808 22.4359C16.057 22.4359 15.3129 22.0816 14.7814 21.5238C14.7017 21.4353 14.622 21.3469 14.5511 21.2491C14.4801 21.3469 14.4008 21.4353 14.3211 21.5238C13.7895 22.0816 13.0454 22.4359 12.2304 22.4359C11.4067 22.4359 10.6626 22.0816 10.1311 21.5238C10.0514 21.4353 9.97169 21.3469 9.90075 21.2491C9.82981 21.3469 9.75013 21.4353 9.67044 21.5238C9.13888 22.0816 8.39481 22.4359 7.58013 22.4359C6.75638 22.4359 6.012 22.0816 5.48075 21.5238C5.40106 21.4353 5.32138 21.3469 5.25044 21.2491C5.1795 21.3469 5.09981 21.4353 5.02013 21.5238C4.48888 22.0816 3.74481 22.4359 2.92981 22.4359C2.23013 22.4359 1.59231 22.1791 1.08731 21.7628C0.582314 21.3469 0.210127 20.7534 0.059502 20.0713C0.00668949 19.85 -0.011123 19.6372 0.00668949 19.4247C0.0241895 19.2122 0.077627 18.9997 0.166064 18.7869L2.75263 12.4803C3.01825 11.8247 3.45231 11.2934 3.98388 10.9216C4.52419 10.5494 5.162 10.3456 5.85294 10.3456H17.2795C17.6248 10.3456 17.9083 10.6291 17.9083 10.9747C17.9083 11.3113 17.6248 11.5947 17.2795 11.5947H15.5879V11.5944ZM10.6895 11.5944H8.15606L5.87981 19.4331C5.89763 19.9116 6.08356 20.3456 6.38481 20.6644C6.68606 20.9831 7.11106 21.1781 7.58075 21.1781C8.04138 21.1781 8.46638 20.9834 8.76763 20.6644C9.08669 20.3278 9.27263 19.8672 9.27263 19.3622H9.28138C9.28138 19.3266 9.28138 19.2825 9.29013 19.2469L10.6895 11.5944ZM6.86294 11.5944H5.85325C5.41919 11.5944 5.02044 11.7181 4.69294 11.9488C4.35638 12.1878 4.08169 12.5244 3.90481 12.9584L1.31794 19.2559C1.28263 19.3444 1.25606 19.4331 1.247 19.5219C1.247 19.6103 1.247 19.6991 1.27356 19.7963C1.362 20.2038 1.58356 20.5581 1.88481 20.8059C2.177 21.0453 2.53138 21.1778 2.93013 21.1778C3.39075 21.1778 3.81575 20.9831 4.117 20.6641C4.43606 20.3275 4.622 19.8669 4.622 19.3619H4.63075C4.63075 19.2997 4.6395 19.2466 4.64856 19.1847L6.86294 11.5944Z" fill="#57CC99"/>
<path d="M18.9455 36.1203C18.6002 36.1203 18.3164 35.8459 18.3164 35.5006C18.3164 35.1553 18.6002 34.8716 18.9455 34.8716H27.7942C28.1392 34.8716 28.4139 35.155 28.4139 35.5006C28.4139 35.8463 28.1392 36.1203 27.7942 36.1203H18.9455Z" fill="#57CC99"/>
<path d="M38.7491 14.6147L30.7066 28.2197C30.5294 28.5206 30.1484 28.6181 29.8559 28.4409C29.7584 28.3878 29.6791 28.3081 29.6259 28.2109L21.5916 14.6147C21.5828 14.5969 21.5738 14.5794 21.565 14.5703C21.1753 13.8616 20.8741 13.0912 20.6616 12.2941C20.4578 11.4969 20.3516 10.6731 20.3516 9.82281C20.3516 7.1125 21.45 4.65906 23.2216 2.87875C25.0019 1.09812 27.4553 0 30.1747 0C32.885 0 35.3388 1.09813 37.1194 2.87844C38.9 4.65875 39.9981 7.1125 39.9981 9.82281C39.9981 10.6731 39.8831 11.4969 39.6791 12.2941C39.4663 13.1088 39.1563 13.8794 38.7578 14.5969L38.7491 14.6147ZM30.1747 3.86156C31.8219 3.86156 33.3103 4.52594 34.3909 5.60625C35.4716 6.68688 36.1359 8.175 36.1359 9.8225C36.1359 11.47 35.4716 12.9581 34.3909 14.0387C33.3103 15.1194 31.8219 15.7925 30.1747 15.7925C28.5269 15.7925 27.03 15.1194 25.9494 14.0387C24.8775 12.9581 24.2047 11.47 24.2047 9.8225C24.2047 8.175 24.8775 6.68688 25.9494 5.60625C27.0303 4.52594 28.5269 3.86156 30.1747 3.86156ZM33.5053 6.49219C32.655 5.63312 31.4769 5.11031 30.175 5.11031C28.8728 5.11031 27.6947 5.63312 26.8353 6.49219C25.985 7.3425 25.4534 8.52063 25.4534 9.8225C25.4534 11.1247 25.985 12.3028 26.8353 13.1619C27.6947 14.0122 28.8728 14.5347 30.175 14.5347C31.4769 14.5347 32.6553 14.0122 33.5053 13.1619C34.3559 12.3028 34.8875 11.1247 34.8875 9.8225C34.8875 8.52063 34.3556 7.34281 33.5053 6.49219ZM30.1747 26.6784L37.6772 13.9769C38.0225 13.3569 38.2884 12.6838 38.4744 11.975C38.6516 11.2928 38.7491 10.5753 38.7491 9.8225C38.7491 7.45781 37.7834 5.31406 36.2338 3.76406C34.6831 2.21406 32.5397 1.24875 30.1747 1.24875C27.8006 1.24875 25.6572 2.21406 24.1072 3.76406C22.5566 5.31406 21.6003 7.45781 21.6003 9.8225C21.6003 10.5753 21.6888 11.2928 21.8659 11.975C22.0522 12.6747 22.3178 13.3391 22.6544 13.9591L22.6631 13.9769L30.1747 26.6784Z" fill="#57CC99"/>
<path d="M30.1773 6.96187C30.957 6.96187 31.6742 7.28968 32.1967 7.80343C32.7108 8.31718 33.0295 9.03437 33.0295 9.82281C33.0295 10.6112 32.7105 11.3284 32.1967 11.8422C31.6742 12.3647 30.9661 12.6837 30.1773 12.6837C29.3892 12.6837 28.6714 12.3647 28.1486 11.8422C28.1398 11.8334 28.1308 11.8156 28.1133 11.8069C27.6177 11.2931 27.3164 10.5934 27.3164 9.82281C27.3164 9.03468 27.6355 8.31718 28.1486 7.80343C28.1664 7.79468 28.1752 7.77687 28.193 7.76781C28.7067 7.27187 29.407 6.96187 30.1773 6.96187ZM31.3111 8.67999C31.0189 8.39656 30.6205 8.21937 30.1773 8.21937C29.7433 8.21937 29.3536 8.38781 29.0614 8.66218C29.0527 8.67093 29.0436 8.67999 29.0348 8.68874C28.742 8.98124 28.5648 9.37968 28.5648 9.82249C28.5648 10.2566 28.7333 10.6462 29.0083 10.9387C29.017 10.9475 29.0261 10.9566 29.0348 10.9653C29.3273 11.2487 29.7258 11.4347 30.1773 11.4347C30.6205 11.4347 31.0189 11.2487 31.3111 10.9653C31.6036 10.6728 31.7805 10.2744 31.7805 9.82249C31.7805 9.37968 31.6036 8.98124 31.3111 8.68874V8.67999Z" fill="#57CC99"/>
</g>
<defs>
<clipPath id="clip0_486_6464">
<rect width="40" height="40" fill="white"/>
</clipPath>
</defs>
</svg>
