<svg width="89" height="82" viewBox="0 0 89 82" fill="none" xmlns="http://www.w3.org/2000/svg">
<g clip-path="url(#clip0_1139_1454)">
<path d="M4.88563 1.31681L5.33717 2.44133C3.62034 3.14233 2.10393 4.12081 0.83139 5.35243L-0.0016634 4.47861C1.38194 3.13989 3.02634 2.07622 4.88563 1.31681ZM11.8133 -3.1996e-06C13.3056 -3.13437e-06 14.8075 0.167945 16.2732 0.498973L16.01 1.68191C14.6288 1.37036 13.2163 1.21214 11.8133 1.21214C11.4101 1.21214 11.002 1.22675 10.6036 1.25109L10.5263 0.0413752C10.9513 0.0146009 11.3835 -3.21839e-06 11.8133 -3.1996e-06ZM13.8851 33.4411L15.0297 33.8135C14.4646 35.5782 14.1652 37.3867 14.1459 39.1952L12.9434 39.1806C12.9651 37.2504 13.2815 35.3178 13.8851 33.4387L13.8851 33.4411ZM14.9814 44.5525C15.2277 45.2681 15.5295 45.9618 15.8796 46.6165C16.3915 47.5755 17.0025 48.4299 17.6955 49.1601L16.8262 49.9974C16.0607 49.1893 15.387 48.2449 14.822 47.191C14.4429 46.4802 14.1145 45.7257 13.8465 44.9492L14.9838 44.5525L14.9814 44.5525ZM20.1995 23.8632L21.0108 24.7565C19.6224 26.0368 18.4175 27.4339 17.4274 28.909L16.4302 28.2299C17.4733 26.677 18.741 25.2092 20.1971 23.8632L20.1995 23.8632ZM21.6579 2.5679C23.2927 3.47579 24.8598 4.61248 26.3159 5.94876L25.5069 6.84449C24.1209 5.57149 22.6311 4.49078 21.0784 3.62913L21.6579 2.56546L21.6579 2.5679ZM22.1819 51.655C22.5441 51.7134 22.9136 51.7402 23.2806 51.7402C24.5797 51.7402 25.9078 51.3872 27.2286 50.6886L27.7864 51.7621C26.2917 52.5531 24.7753 52.9523 23.2782 52.9523C22.8484 52.9523 22.4162 52.9182 21.9936 52.8501L22.1795 51.6525L22.1819 51.655ZM26.7891 19.2775C27.796 18.7566 28.844 18.2796 29.9065 17.8633L30.3411 18.9927C29.3173 19.3943 28.308 19.8519 27.3397 20.3533C26.6805 20.6941 26.0309 21.0617 25.4079 21.4438L24.7825 20.4069C25.4297 20.0101 26.1034 19.628 26.7891 19.2751L26.7891 19.2775ZM30.1383 10.2424C31.2394 11.7442 32.2463 13.392 33.1301 15.1397L32.0579 15.6897C31.2032 14.0005 30.23 12.4087 29.17 10.9604L30.1383 10.24L30.1383 10.2424ZM34.0042 42.8584L34.1177 42.576L35.2332 43.0288L35.1149 43.3208C34.4292 44.9857 33.444 46.6141 32.2656 48.0283L31.3432 47.2494C32.4443 45.9277 33.3643 44.4089 34.0018 42.8584L34.0042 42.8584ZM35.3322 20.4385C35.9407 22.2665 36.414 24.1407 36.7352 26.0052L35.5496 26.2145C35.2381 24.4084 34.7793 22.5951 34.1901 20.8231L35.3298 20.4385L35.3322 20.4385ZM41.0381 15.534L41.0937 16.7437C39.2392 16.8289 37.3968 17.0601 35.622 17.4276L35.3805 16.2398C37.2181 15.8601 39.1209 15.6216 41.0381 15.5315L41.0381 15.534ZM36.0591 32.0318L36.0591 31.7446L37.2616 31.7324L37.2616 32.0343C37.2616 33.889 37.107 35.7194 36.7979 37.4767L35.6123 37.265C35.9093 35.5782 36.0591 33.8184 36.0591 32.0318ZM46.7319 15.6946C48.6009 15.8845 50.4891 16.2131 52.3412 16.6682L52.0563 17.8463C50.2573 17.4033 48.427 17.0869 46.6112 16.9019L46.7319 15.6946ZM57.7646 18.4037C59.5297 19.1047 61.261 19.9298 62.9078 20.8596L62.321 21.9184C60.7201 21.0154 59.0395 20.2122 57.3251 19.5331L57.7646 18.4061L57.7646 18.4037ZM67.6695 24.002C69.1932 25.1679 70.6299 26.4457 71.9435 27.799L71.0839 28.6461C69.8114 27.3366 68.4181 26.0977 66.9427 24.9683L67.6695 24.002ZM75.6355 32.1633C76.7535 33.6772 77.7943 35.2959 78.7263 36.9729L77.6784 37.5668C76.7704 35.9336 75.7563 34.3588 74.6697 32.8862L75.6355 32.1633ZM81.2014 42.1282C81.9137 43.8709 82.5391 45.6916 83.0582 47.5366L81.9016 47.8676C81.3945 46.0664 80.7836 44.2896 80.0882 42.5882L81.2014 42.1257L81.2014 42.1282ZM84.3066 53.1178C84.6205 54.9823 84.8379 56.8954 84.9562 58.8013L83.7561 58.8767C83.6402 57.0147 83.4277 55.1454 83.121 53.3223L84.3066 53.1203L84.3066 53.1178ZM83.8092 64.4677L85.0117 64.5188C84.932 66.4222 84.7509 68.3378 84.4757 70.212L83.2852 70.0343C83.5557 68.1991 83.7319 66.3273 83.8116 64.4677L83.8092 64.4677Z" fill="#222831"/>
<path d="M82.0385 82L78.7545 70.3361L83.4414 72.6168L89 72.1105L82.0385 82Z" fill="#222831"/>
</g>
<defs>
<clipPath id="clip0_1139_1454">
<rect width="82" height="89" fill="white" transform="translate(89) rotate(90)"/>
</clipPath>
</defs>
</svg>
