<svg width="32" height="24" viewBox="0 0 32 24" fill="none" xmlns="http://www.w3.org/2000/svg">
<path d="M7.5 0.857971C3.36363 0.857971 0 4.22253 0 8.35797C0 12.1336 2.80338 15.2665 6.43981 15.7829C6.14869 17.8978 5.34119 19.9101 4.07956 21.6551C3.83419 21.9957 3.84337 22.4571 4.10519 22.7867C4.36206 23.111 4.80844 23.2339 5.20019 23.0687C11.1529 20.584 15 14.8088 15 8.35797C15 4.22253 11.6364 0.857971 7.5 0.857971ZM24.5 0.857971C20.3636 0.857971 17 4.22253 17 8.35797C17 12.1336 19.8034 15.2665 23.4398 15.7829C23.1487 17.8978 22.3412 19.9101 21.0796 21.6551C20.8342 21.9957 20.8434 22.4571 21.1052 22.7867C21.3621 23.111 21.8084 23.2339 22.2002 23.0687C28.1529 20.584 32 14.8088 32 8.35797C32 4.22253 28.6364 0.857971 24.5 0.857971Z" fill="url(#paint0_linear_1139_1443)"/>
<defs>
<linearGradient id="paint0_linear_1139_1443" x1="16" y1="23.142" x2="16" y2="0.857971" gradientUnits="userSpaceOnUse">
<stop stop-color="#5558FF"/>
<stop offset="1" stop-color="#00C0FF"/>
</linearGradient>
</defs>
</svg>
