<svg width="72" height="72" viewBox="0 0 72 72" fill="none" xmlns="http://www.w3.org/2000/svg">
<g id="fi_9453946">
<path id="Vector" d="M36 66C52.5685 66 66 52.5685 66 36C66 19.4315 52.5685 6 36 6C19.4315 6 6 19.4315 6 36C6 52.5685 19.4315 66 36 66Z" fill="url(#paint0_linear_973_555)"/>
<path id="Vector_2" d="M43.8872 31.7655L41.9516 26.1409C41.294 24.233 39.5734 23 37.5682 23H34.4315C32.4242 23 30.7035 24.2331 30.0482 26.141L28.1109 31.7654H21V33.3029H22.5028L24.9596 45.8429C25.324 47.7018 26.8927 49 28.7744 49H43.2257C45.1087 49 46.6767 47.7014 47.0386 45.8429L49.4972 33.3029H51V31.7654H43.8872V31.7655ZM31.3243 44.0472H29.7989V36.7183H31.3243V44.0472ZM36.7347 44.6821H35.2092V36.0835H36.7347V44.6821ZM42.1434 44.0472H40.618V36.7183H42.1434V44.0472ZM29.7257 31.7655L31.4894 26.6447C31.9291 25.3647 33.084 24.5376 34.4315 24.5376H37.5682C38.9143 24.5376 40.0693 25.365 40.5105 26.6451L42.2726 31.7655H29.7257Z" fill="white"/>
</g>
<defs>
<linearGradient id="paint0_linear_973_555" x1="36" y1="6" x2="36" y2="66" gradientUnits="userSpaceOnUse">
<stop stop-color="#1ED760"/>
<stop offset="1" stop-color="#00B7F0"/>
</linearGradient>
</defs>
</svg>
