<svg width="72" height="72" viewBox="0 0 72 72" fill="none" xmlns="http://www.w3.org/2000/svg">
<g id="fi_7245051">
<g id="a">
<g id="Group">
<path id="Vector" d="M52.7405 11.7931C54.7174 12.7013 56.6733 13.6622 58.5601 14.6583C62.2304 16.5837 64.423 20.4803 64.5167 24.3615C64.7558 32.1194 64.7558 39.8772 64.5167 47.6351C64.423 51.5175 62.2304 55.4129 58.5601 57.3383C52.519 60.5375 45.8862 63.2727 39.8146 65.3668C37.3549 66.2094 34.7017 66.2094 32.2408 65.3668C26.1692 63.2738 19.5364 60.5387 13.4953 57.3383C9.82384 55.4129 7.63242 51.5164 7.53867 47.6351C7.29961 39.8772 7.29961 32.1194 7.53867 24.3615C7.63242 20.4791 9.82384 16.5837 13.4953 14.6583C19.5364 11.4603 26.1681 8.72511 32.2408 6.63096C34.7017 5.78838 37.3537 5.78838 39.8146 6.63096C41.6346 7.2626 43.4932 7.94112 45.374 8.67355L52.7417 11.7931H52.7405Z" fill="#FAAB48"/>
<path id="Vector_2" d="M52.3913 20.4475C52.3913 17.1827 51.9073 14.0315 51.0096 11.0608L45.3729 8.67365C43.4932 7.94122 41.6334 7.2627 39.8135 6.63106C38.7939 6.28184 37.7427 6.08027 36.6845 6.02051H35.3685C34.3103 6.08027 33.2591 6.28301 32.2396 6.63106C26.1681 8.72521 19.5364 11.4604 13.4953 14.6596C9.82384 16.585 7.63242 20.4815 7.53867 24.3628C7.29961 32.1207 7.29961 39.8785 7.53867 47.6364C7.56211 48.6313 7.725 49.6262 8.01446 50.5883C11.7141 52.0579 15.7489 52.8676 19.9723 52.8676C37.8775 52.8676 52.3924 38.3527 52.3924 20.4475H52.3913Z" fill="#F8C358"/>
<path id="Vector_3" d="M52.7411 11.7935C44.9293 14.3201 35.7805 17.647 26.5531 21.7791C24.7402 22.5877 23.5202 24.3654 23.4558 26.3119C23.3116 30.7604 23.2683 35.3612 23.3257 39.9022C23.3327 40.5233 22.5804 40.7811 22.1995 40.2925C21.2245 39.0444 20.2683 37.8057 19.3378 36.5858C19.1866 36.3878 18.923 36.3338 18.7167 36.4581C17.9925 36.8893 17.28 37.3147 16.5815 37.7342C16.1901 37.9674 15.7085 37.6569 15.7061 37.1741C15.6827 32.6483 15.7964 28.1084 16.0378 23.7092C16.1397 21.8529 17.3046 20.1068 19.0261 19.2607C27.8761 14.8896 37.318 11.3189 45.3735 8.67627C45.3735 8.67627 48.6407 9.79776 52.7411 11.7958V11.7935Z" fill="white"/>
<path id="Vector_4" d="M51.3036 39.1309C43.8844 39.1309 37.8691 45.1461 37.8691 52.5653C37.8691 59.9845 43.8844 65.9998 51.3036 65.9998C58.7228 65.9998 64.738 59.9845 64.738 52.5653C64.738 45.1461 58.7228 39.1309 51.3036 39.1309Z" fill="#2AD352"/>
<path id="Vector_5" d="M58.9032 50.3887L50.8524 58.8427C50.4094 59.3079 49.7965 59.5728 49.1531 59.5763H49.1426C48.5039 59.5763 47.8922 59.3173 47.4481 58.8591L43.1765 54.4575C42.2683 53.5212 42.2906 52.0259 43.2269 51.1176C44.1621 50.2094 45.6574 50.2317 46.5656 51.168L49.1262 53.8059L55.4825 47.1309C56.3825 46.1864 57.8766 46.1489 58.8212 47.0489C59.7657 47.9477 59.8032 49.443 58.9032 50.3876V50.3887Z" fill="white"/>
</g>
</g>
</g>
</svg>
