<svg width="72" height="72" viewBox="0 0 72 72" fill="none" xmlns="http://www.w3.org/2000/svg">
<g id="fi_6769651">
<g id="Flat Color">
<path id="Vector" d="M14.9991 18C14.1799 17.9985 13.3691 18.1648 12.6167 18.4886C11.8642 18.8124 11.186 19.2868 10.6239 19.8827C10.0618 20.4785 9.62763 21.1832 9.34819 21.9532C9.06875 22.7232 8.94994 23.5423 8.99909 24.36L10.9191 54.75C11.1101 57.8009 12.4583 60.6638 14.6883 62.7545C16.9184 64.8452 19.8623 66.006 22.9191 66H49.1391C52.1959 66.006 55.1398 64.8452 57.3698 62.7545C59.5999 60.6638 60.948 57.8009 61.1391 54.75L62.9991 24.36C63.0482 23.5423 62.9294 22.7232 62.65 21.9532C62.3706 21.1832 61.9364 20.4785 61.3743 19.8827C60.8121 19.2868 60.1339 18.8124 59.3815 18.4886C58.629 18.1648 57.8183 17.9985 56.9991 18H14.9991Z" fill="url(#paint0_linear_969_500)"/>
<path id="Vector_2" d="M48 30C47.2044 30 46.4413 29.6839 45.8787 29.1213C45.3161 28.5587 45 27.7956 45 27V21C45 18.6131 44.0518 16.3239 42.364 14.636C40.6761 12.9482 38.3869 12 36 12C33.6131 12 31.3239 12.9482 29.636 14.636C27.9482 16.3239 27 18.6131 27 21V27C27 27.7956 26.6839 28.5587 26.1213 29.1213C25.5587 29.6839 24.7956 30 24 30C23.2044 30 22.4413 29.6839 21.8787 29.1213C21.3161 28.5587 21 27.7956 21 27V21C21 17.0218 22.5804 13.2064 25.3934 10.3934C28.2064 7.58035 32.0218 6 36 6C39.9782 6 43.7936 7.58035 46.6066 10.3934C49.4196 13.2064 51 17.0218 51 21V27C51 27.7956 50.6839 28.5587 50.1213 29.1213C49.5587 29.6839 48.7956 30 48 30Z" fill="#0079FF"/>
<path id="Vector_3" d="M32.1898 52.5599C31.407 52.5646 30.6534 52.2631 30.0898 51.7199L24.9898 46.6799C24.494 46.1095 24.2317 45.373 24.2554 44.6176C24.2791 43.8622 24.587 43.1436 25.1176 42.6055C25.6482 42.0673 26.3624 41.7492 27.1173 41.7148C27.8723 41.6804 28.6125 41.9322 29.1898 42.4199L32.1898 45.4199L40.8598 36.8999C41.4421 36.493 42.1499 36.3058 42.8572 36.3719C43.5645 36.4379 44.2255 36.7528 44.7223 37.2605C45.2192 37.7682 45.5198 38.4357 45.5707 39.1443C45.6215 39.8529 45.4192 40.5565 44.9998 41.1299L34.2298 51.7199C33.6812 52.2488 32.9518 52.5492 32.1898 52.5599Z" fill="#EDEBEA"/>
</g>
</g>
<defs>
<linearGradient id="paint0_linear_969_500" x1="35.9991" y1="18" x2="35.9991" y2="66" gradientUnits="userSpaceOnUse">
<stop stop-color="#01A6FF"/>
<stop offset="1" stop-color="#5558FF"/>
</linearGradient>
</defs>
</svg>
