<svg width="72" height="72" viewBox="0 0 72 72" fill="none" xmlns="http://www.w3.org/2000/svg">
<circle cx="36" cy="36" r="30" fill="url(#paint0_linear_982_601)"/>
<path d="M47.8062 38.1725C47.8062 42.9889 45.6969 52.7271 34.5453 52.7271C31.1633 52.7271 28.4211 49.985 28.4211 46.6029V34.6217H24.1953V30.2834H28.4211V26.2545C28.4211 26.2545 28.5758 24.6795 26.5719 24.6795H24.5609V19.2725H26.5719C31.4164 19.2725 34.5453 19.9545 34.5453 26.2475V30.2834H38.7711V34.6217H34.5453V47.2287C38.4758 47.2287 40.2758 44.5076 41.0914 42.0537C39.7484 41.2803 38.8484 39.8318 38.8484 38.1725C38.8484 35.6975 40.8523 33.6936 43.3273 33.6936C46.0906 33.6936 47.8062 35.8873 47.8062 38.1725Z" fill="white"/>
<g clip-path="url(#clip0_982_601)">
<path fill-rule="evenodd" clip-rule="evenodd" d="M56 6C50.4844 6 46 10.4844 46 16C46 21.5156 50.4844 26 56 26C61.5156 26 66 21.5156 66 16C66 10.4844 61.5156 6 56 6Z" fill="#00C0FF"/>
<path d="M54.0742 20.5742C52.7969 19.2969 51.5273 18.0078 50.2461 16.7305C50.1055 16.5898 50.1055 16.3555 50.2461 16.2148L51.7187 14.7422C51.8594 14.6016 52.0938 14.6016 52.2344 14.7422L54.3398 16.8477L59.7539 11.4297C59.8984 11.2891 60.1289 11.2891 60.2734 11.4297L61.75 12.9063C61.8945 13.0508 61.8945 13.2813 61.75 13.4219L54.5898 20.5742C54.4492 20.7188 54.2188 20.7188 54.0742 20.5742Z" fill="white"/>
</g>
<defs>
<linearGradient id="paint0_linear_982_601" x1="36" y1="6" x2="36" y2="66" gradientUnits="userSpaceOnUse">
<stop stop-color="#1751FF"/>
<stop offset="1" stop-color="#00C0FF"/>
</linearGradient>
<clipPath id="clip0_982_601">
<rect width="20" height="20" fill="white" transform="translate(46 6)"/>
</clipPath>
</defs>
</svg>
