<svg width="72" height="72" viewBox="0 0 72 72" fill="none" xmlns="http://www.w3.org/2000/svg">
<g id="fi_7245139">
<g id="a">
<g id="Group">
<path id="Vector" d="M36.0176 6C19.4484 6 6.01758 19.432 6.01758 36C6.01758 52.568 19.4496 66 36.0176 66C52.5855 66 66.0176 52.568 66.0176 36C66.0176 19.432 52.5855 6 36.0176 6Z" fill="url(#paint0_linear_982_588)"/>
<path id="Vector_2" d="M6.01758 35.9988V36.0012C6.01758 41.5605 7.53164 46.7648 10.1672 51.2285C13.357 52.2785 16.7648 52.8469 20.3051 52.8469C38.2102 52.8469 52.725 38.332 52.725 20.427C52.725 16.7836 52.1215 13.2809 51.0129 10.0113C46.6008 7.46016 41.4797 6 36.0176 6C19.4496 6 6.01758 19.4309 6.01758 35.9988Z" fill="#FF6200"/>
<path id="Vector_3" d="M36.0181 53.6744L33.1728 51.6541C30.3181 49.5095 28.5509 48.1654 26.3056 46.1228C24.1587 44.167 21.7494 41.7646 20.2728 38.8853C20.2728 38.8841 19.5345 37.315 19.1982 35.9697C18.9884 35.0498 18.89 34.083 18.931 33.0599C19.2076 27.5498 24.0111 22.5259 28.981 22.24C30.1834 22.1838 31.3166 22.4146 32.3619 22.881C32.9853 23.1599 33.5771 23.5232 34.1291 23.958L36.017 25.5646L37.9048 23.958C39.3837 22.7931 41.1357 22.1486 43.0529 22.2388C48.0228 22.5259 52.8263 27.5486 53.1029 33.0588C53.1439 34.0818 53.0455 35.0486 52.8357 35.9685C52.838 35.9685 52.4044 37.7263 51.7611 38.8841C50.2845 41.7634 47.8763 44.167 45.7295 46.1216C44.9666 46.8142 44.2705 47.4201 43.5673 48.0037C42.1951 49.1439 40.79 50.2021 38.8623 51.6529L36.017 53.6744H36.0181Z" fill="white"/>
</g>
</g>
</g>
<defs>
<linearGradient id="paint0_linear_982_588" x1="105" y1="86" x2="23.5" y2="36" gradientUnits="userSpaceOnUse">
<stop stop-color="#FF3647"/>
<stop offset="1" stop-color="#FFA50A"/>
</linearGradient>
</defs>
</svg>
