<svg width="72" height="72" viewBox="0 0 72 72" fill="none" xmlns="http://www.w3.org/2000/svg">
<g id="Frame" clip-path="url(#clip0_1086_1592)">
<g id="Group">
<g id="Group_2">
<g id="Vector">
<path d="M36 72C55.8823 72 72 55.8823 72 36C72 16.1177 55.8823 0 36 0C16.1177 0 0 16.1177 0 36C0 55.8823 16.1177 72 36 72Z" fill="url(#paint0_linear_1086_1592)"/>
<path d="M36 72C55.8823 72 72 55.8823 72 36C72 16.1177 55.8823 0 36 0C16.1177 0 0 16.1177 0 36C0 55.8823 16.1177 72 36 72Z" fill="url(#paint1_linear_1086_1592)"/>
</g>
<path id="Vector_2" fill-rule="evenodd" clip-rule="evenodd" d="M38.8157 56.7499L15.5223 49.4529C15.1497 49.3362 14.9062 49.0047 14.9062 48.6142V28.0865L38.8157 35.5765V56.7499ZM26.3236 19.431L32.4679 15.3963C32.6869 15.2526 32.9311 15.2141 33.1837 15.2837L55.3842 21.3961L49.0819 26.1352L26.3236 19.431ZM46.2929 28.2322L23.2553 21.4458L16.7396 25.7244L39.9559 32.9973L46.2929 28.2322ZM41.623 35.2413V55.8535L56.743 44.4839C56.9711 44.3124 57.0938 44.0668 57.0938 43.7815V23.608L41.623 35.2413Z" fill="#FDFDFD"/>
</g>
</g>
</g>
<defs>
<linearGradient id="paint0_linear_1086_1592" x1="36" y1="72" x2="36" y2="0" gradientUnits="userSpaceOnUse">
<stop stop-color="#FFC3F9"/>
<stop offset="1" stop-color="#FFF0FF"/>
</linearGradient>
<linearGradient id="paint1_linear_1086_1592" x1="36" y1="72" x2="36" y2="0" gradientUnits="userSpaceOnUse">
<stop stop-color="#0079FF"/>
<stop offset="1" stop-color="#01A6FF"/>
</linearGradient>
<clipPath id="clip0_1086_1592">
<rect width="72" height="72" fill="white"/>
</clipPath>
</defs>
</svg>
