<svg xmlns="http://www.w3.org/2000/svg" width="224" height="200" fill="none"><g clip-path="url(#a)"><path fill="#39F" d="M204.019 14.172c-3.568 0-6.468-2.896-6.468-6.455s2.902-6.455 6.468-6.455c3.565 0 6.467 2.896 6.467 6.455s-2.902 6.455-6.467 6.455Zm0-11.798c-2.952 0-5.353 2.397-5.353 5.343s2.401 5.342 5.353 5.342c2.951 0 5.352-2.396 5.352-5.342 0-2.946-2.401-5.343-5.352-5.343Z"/><path fill="#F06" d="M24.768 34.972a3.01 3.01 0 0 1-2.758 3.244 3.013 3.013 0 0 1-3.25-2.752 3.01 3.01 0 0 1 2.758-3.244 3.012 3.012 0 0 1 3.25 2.752Z"/><path fill="#39F" d="M6.025 60.726a5.962 5.962 0 0 1-3.408-1.406A5.946 5.946 0 0 1 .52 55.242c-.27-3.29 2.194-6.187 5.49-6.457 3.297-.27 6.2 2.19 6.47 5.48.27 3.29-2.194 6.187-5.49 6.457a6.08 6.08 0 0 1-.965.003v.001Zm.855-10.832a4.884 4.884 0 0 0-5.248 5.258 4.845 4.845 0 0 0 1.707 3.32 4.855 4.855 0 0 0 3.56 1.141 4.884 4.884 0 0 0 4.47-5.256 4.887 4.887 0 0 0-4.49-4.463Z"/><path fill="#F06" d="M46.03 190.619a3.405 3.405 0 0 1-3.405-3.398 3.405 3.405 0 0 1 6.81 0 3.405 3.405 0 0 1-3.405 3.398Zm0-5.906a2.513 2.513 0 0 0-2.512 2.508 2.512 2.512 0 0 0 5.024 0 2.513 2.513 0 0 0-2.512-2.508Z"/><path fill="#E2F1FF" d="M46.769 44.442C31.65 55.808 18.988 69.581 14.313 86.289c-5.89 21.061 1.045 43.936 14.69 61.012 25.215 31.558 73.773 43.56 112.59 27.83 39.176-15.876 61.723-58.248 66.805-96.887 2.096-15.932-.187-32.782-9.267-46.072-10.992-16.09-31.018-25.222-51.193-26.493-20.175-1.27-40.423 4.6-58.539 13.59-13.521 6.711-29.065 14.975-42.632 25.175l.002-.002Z"/><path fill="#F06" d="M150.64 199.999a.335.335 0 0 1-.064-.666 4.746 4.746 0 0 0 1.539-.452.335.335 0 0 1 .296.6 5.42 5.42 0 0 1-1.755.516c-.006 0-.01 0-.016.002Zm3.028-1.501a.33.33 0 0 1-.254-.091.332.332 0 0 1-.013-.472c.125-.133.245-.276.355-.423l.004-.006c.246-.317.504-.613.769-.881a.334.334 0 0 1 .478.468c-.246.25-.486.525-.715.82-.126.168-.262.33-.405.481a.337.337 0 0 1-.217.104h-.002Zm2.454-2.397a.334.334 0 0 1-.208-.614 7.246 7.246 0 0 1 1.624-.786.335.335 0 0 1 .211.635 6.652 6.652 0 0 0-1.471.713.315.315 0 0 1-.158.052h.002Zm4.961-1.003h-.041a17.664 17.664 0 0 1-.42-.025c-.38-.025-.812-.052-1.272-.032a.333.333 0 1 1-.031-.666c.498-.024.95.007 1.347.033l.406.025a.334.334 0 0 1 .009.666l.002-.001Zm1.707-.162a.334.334 0 0 1-.104-.658 5.556 5.556 0 0 0 1.499-.611.334.334 0 1 1 .336.578 6.284 6.284 0 0 1-1.676.682.263.263 0 0 1-.055.009Zm2.967-1.671a.336.336 0 0 1-.273-.11.332.332 0 0 1 .024-.471c.366-.332.751-.726 1.173-1.207a.333.333 0 0 1 .472-.031.333.333 0 0 1 .031.471c-.44.5-.842.913-1.228 1.262a.337.337 0 0 1-.2.086h.001Zm2.305-2.557a.334.334 0 0 1-.284-.544l.084-.102c.33-.407.672-.827 1.021-1.233a.335.335 0 0 1 .509.435c-.342.398-.681.815-1.01 1.219l-.083.104a.327.327 0 0 1-.236.122l-.001-.001Zm22.609-3.199a10.18 10.18 0 0 1-1.512-.003.335.335 0 1 1 .048-.666 9.695 9.695 0 0 0 1.664-.019h.011a.334.334 0 0 1 .057.665 5.847 5.847 0 0 1-.269.023h.001Zm-6.33.419a8.597 8.597 0 0 1-1.304-.003.334.334 0 1 1 .054-.666c.399.032.793.033 1.202.002.146-.01.293-.024.453-.043.006 0 .01 0 .016-.002a.334.334 0 0 1 .064.665 9.982 9.982 0 0 1-.484.047h-.001Zm8.275-.791a.333.333 0 0 1-.342-.23.335.335 0 0 1 .215-.421 6.533 6.533 0 0 0 1.488-.698.335.335 0 0 1 .349.571c-.193.116-.371.218-.532.303a7.15 7.15 0 0 1-1.097.459.326.326 0 0 1-.079.016h-.002Zm-6.112.425a.334.334 0 0 1-.192-.623 12.96 12.96 0 0 1-.6-.213.334.334 0 1 1 .239-.624c.484.185.982.34 1.483.459.179-.07.354-.145.525-.224a.332.332 0 0 1 .444.162.332.332 0 0 1-.162.443c-.183.085-.37.165-.56.241a.314.314 0 0 1-.172.065c-.307.114-.621.216-.941.302a.276.276 0 0 1-.063.01l-.001.002Zm-5.113.074a.317.317 0 0 1-.11-.01 10.901 10.901 0 0 1-1.672-.594.334.334 0 0 1 .268-.611c.589.257 1.074.429 1.573.559a.334.334 0 0 1-.059.655v.001Zm-11.055.482a.335.335 0 0 1-.257-.574c.463-.446.91-.816 1.367-1.131a.334.334 0 0 1 .379.549c-.427.294-.846.641-1.283 1.062a.337.337 0 0 1-.208.094h.002Zm19.273-2.016a.332.332 0 0 1-.222-.602c.45-.327.861-.699 1.224-1.105a.334.334 0 0 1 .499.445 8.508 8.508 0 0 1-1.33 1.201.334.334 0 0 1-.173.062l.002-.001Zm5.996-.656a.333.333 0 0 1-.221-.604c.457-.33.907-.68 1.34-1.043a.335.335 0 1 1 .431.512c-.446.373-.909.735-1.379 1.073a.329.329 0 0 1-.171.063v-.001Zm-11.312.574a.32.32 0 0 1-.187-.042 12.49 12.49 0 0 1-.901-.557c-.173-.12-.371-.254-.577-.406a.334.334 0 0 1 .396-.538c.199.146.392.277.561.394.271.185.556.362.848.525a.334.334 0 0 1-.139.626l-.001-.002Zm-6.095.33a.32.32 0 0 1-.155-.026c-.601-.257-1.085-.409-1.567-.493a.336.336 0 0 1-.272-.387.335.335 0 0 1 .388-.271c.534.095 1.063.259 1.712.537a.333.333 0 0 1-.106.638v.002Zm-5.023-.137a.334.334 0 0 1-.336-.212.33.33 0 0 1 .19-.431 7.13 7.13 0 0 1 1.748-.437.333.333 0 0 1 .372.292.334.334 0 0 1-.292.372 6.56 6.56 0 0 0-1.584.395.333.333 0 0 1-.096.022l-.002-.001Zm25.067-2.981a.335.335 0 0 1-.258-.574c.407-.396.79-.797 1.173-1.228a.336.336 0 0 1 .472-.029.333.333 0 0 1 .029.471c-.393.444-.787.856-1.207 1.265a.323.323 0 0 1-.209.093v.002Zm-6.346.325a.333.333 0 0 1-.311-.505c.292-.487.527-.99.698-1.493a.334.334 0 0 1 .633.214 8.513 8.513 0 0 1-.757 1.622.332.332 0 0 1-.263.162Zm-10.342.389a.332.332 0 0 1-.27-.106 7.056 7.056 0 0 1-1.051-1.466.333.333 0 0 1 .138-.452.337.337 0 0 1 .453.137c.251.471.571.917.951 1.326a.334.334 0 0 1-.221.56v.001Zm19.051-3.224a.336.336 0 0 1-.255-.577c.382-.361.831-.746 1.334-1.14a.334.334 0 1 1 .415.525c-.487.382-.919.753-1.288 1.1a.325.325 0 0 1-.206.09v.002Zm-7.631-.404h-.049a.335.335 0 0 1-.309-.359 5.761 5.761 0 0 0 0-.891 5.596 5.596 0 0 0-.068-.562l-.031-.169a.334.334 0 0 1 .656-.13l.035.188c.035.207.06.417.076.624.023.329.023.661 0 .991a.334.334 0 0 1-.308.308h-.002Zm-13.033.627a.336.336 0 0 1-.349-.253 7.05 7.05 0 0 1-.215-1.789.335.335 0 0 1 .339-.33.335.335 0 0 1 .33.339c-.003.169.003.342.016.516.027.364.088.735.18 1.102a.334.334 0 0 1-.3.415h-.001Zm23.363-2.369a.33.33 0 0 1-.298-.141.336.336 0 0 1 .082-.466c.444-.31.929-.636 1.444-.967a.336.336 0 0 1 .463.1.334.334 0 0 1-.099.462 43.79 43.79 0 0 0-1.424.954.339.339 0 0 1-.166.06l-.002-.002Zm2.897-1.876a.331.331 0 0 1-.31-.159.333.333 0 0 1 .111-.459c.548-.334 1.058-.636 1.486-.887a.335.335 0 0 1 .341.576c-.426.251-.934.552-1.478.883a.331.331 0 0 1-.149.048l-.001-.002Zm-13.886.28a.332.332 0 0 1-.324-.185 6.478 6.478 0 0 0-.908-1.356.334.334 0 0 1 .503-.441c.389.444.737.963 1.004 1.5a.332.332 0 0 1-.275.481v.001Zm-12.301.568a.335.335 0 0 1-.343-.438 5.89 5.89 0 0 1 .824-1.619.335.335 0 0 1 .543.391 5.223 5.223 0 0 0-.732 1.437.333.333 0 0 1-.293.229h.001Zm29.15-2.62a.333.333 0 0 1-.207-.612c.454-.298.89-.646 1.293-1.036a.335.335 0 0 1 .465.482 9.59 9.59 0 0 1-1.392 1.114.343.343 0 0 1-.159.054v-.002Zm-19.102-.501a.338.338 0 0 1-.208-.054 6.401 6.401 0 0 0-1.473-.708.334.334 0 1 1 .212-.634 7.07 7.07 0 0 1 1.628.782.334.334 0 0 1-.159.612v.002Zm-8.077.358a.333.333 0 0 1-.231-.595 7.38 7.38 0 0 1 1.548-.923.335.335 0 0 1 .27.611c-.51.225-.983.508-1.406.837a.324.324 0 0 1-.181.07Zm29.656-2.227a.335.335 0 0 1-.292-.532c.32-.43.625-.904.907-1.409a.335.335 0 0 1 .585.324c-.295.531-.617 1.03-.956 1.483a.33.33 0 0 1-.244.134Zm-24.814.772h-.056c-.495-.045-.85-.026-.947-.021h-.007c-.222.018-.45.046-.675.086a.335.335 0 1 1-.119-.657 7.11 7.11 0 0 1 .746-.095h.007c.142-.01.526-.029 1.058.02.184.018.318.18.302.363a.331.331 0 0 1-.308.302l-.001.002Zm26.499-3.765a.333.333 0 0 1-.332-.463 20.43 20.43 0 0 0 .595-1.586.335.335 0 0 1 .636.209 21.523 21.523 0 0 1-.614 1.638.332.332 0 0 1-.284.202h-.001Zm1.084-3.262a.334.334 0 0 1-.348-.416 29.22 29.22 0 0 0 .373-1.661.335.335 0 0 1 .658.128 31.893 31.893 0 0 1-.382 1.698.334.334 0 0 1-.299.251h-.002Zm.67-3.375a.335.335 0 0 1-.357-.382c.025-.167.048-.336.072-.506a.334.334 0 1 1 .663.09c-.023.174-.048.346-.073.515a.335.335 0 0 1-.307.284l.002-.001ZM214.603 161.563c4.914 0 8.897-3.976 8.897-8.88 0-4.904-3.983-8.879-8.897-8.879-4.913 0-8.896 3.975-8.896 8.879s3.983 8.88 8.896 8.88Z"/><path fill="#EBEBEB" d="m212.205 154.092 1.098 3.39 1.551-2.725 5.478-6.817-5.322 3.024s-2.512 1.954-2.601 2.157c-.089.204-.206.97-.206.97l.002.001Z"/><path fill="#fff" d="m208.816 153.287 11.517-5.347-8.128 6.152-3.389-.805ZM217.467 155.608l-4.158-.967 7.024-6.701-2.866 7.668ZM167.11 169.635l-77.104 15.319c-2.03.403-3.99-.853-4.38-2.808L53.133 19.128l80.779-16.05 33.198 166.557Z"/><path fill="#003049" d="M54.19 45.683c-.24 0-.469-.048-.672-.14-.333-.153-.56-.423-.623-.738l-.986-4.949c-.126-.631.406-1.252 1.21-1.411l.473-.094 1.435 7.204-.472.093a1.835 1.835 0 0 1-.365.037v-.002Zm-1.1-6.57c-.351.12-.598.385-.551.617l.986 4.948c.03.153.177.242.263.282.138.063.309.09.484.078l-1.18-5.925h-.002ZM149.257 58.225l-4.167-20.916.343-.07c.469-.092.937-.066 1.318.074.434.159.727.46.8.827l3.662 18.374c.141.713-.566 1.434-1.611 1.64l-.343.07h-.002Zm-3.339-20.339 3.885 19.49c.507-.19.762-.52.721-.723l-3.662-18.375c-.024-.122-.153-.234-.353-.307a1.578 1.578 0 0 0-.592-.083l.001-.002ZM57.968 64.04c-.266 0-.523-.053-.747-.156-.366-.17-.616-.464-.685-.81l-2.082-10.447c-.139-.697.451-1.381 1.346-1.559l.315-.063 2.578 12.933-.314.063c-.136.027-.273.04-.408.04l-.003-.001Zm-2.353-12.247c-.356.159-.584.445-.533.707l2.082 10.447c.04.196.221.305.325.353.127.059.279.092.438.097l-2.313-11.604h.002ZM61.117 79.834c-.266 0-.523-.053-.747-.156-.367-.17-.617-.464-.685-.81l-2.083-10.447c-.139-.697.452-1.381 1.346-1.559l.316-.063 2.578 12.933-.315.063c-.136.027-.273.04-.407.04l-.003-.001Zm-2.353-12.247c-.357.159-.585.445-.533.707l2.082 10.448c.04.195.22.304.324.352.127.059.28.092.439.097l-2.313-11.604h.001Z"/><path fill="#fff" stroke="#003049" stroke-miterlimit="10" stroke-width="5.34" d="M80.994 176.855c1.388 6.967 8.38 11.449 15.617 10.011l62.548-12.426c8.745-2.315 12.347-8.465 10.589-15.218L140.14 10.669C138.752 3.703 131.76-.78 124.523.659L61.975 13.086c-7.236 1.438-11.978 8.25-10.589 15.216l29.61 148.553h-.002Z"/><path stroke="#003049" stroke-miterlimit="10" stroke-width="5.34" d="M164.897 159.751c.842 4.227-2.081 8.865-6.472 9.737l-63.044 12.526c-4.391.872-8.658-2.219-9.5-6.444L56.145 26.379c-.843-4.227 2.546-7.86 6.938-8.733l7.212-1.432-.003-.011 49.541-9.844v.012l5.87-1.166c4.392-.872 8.767 1.89 9.61 6.116l29.584 148.432v-.002Z"/><path fill="#39F" d="M157.147 54.914H89.675c-4.9 0-8.874 4.507-8.874 10.067v37.04c0 5.56 3.973 10.066 8.874 10.066h16.504c1.003 0 1.972.406 2.734 1.145l11.817 13.233c1.544 1.498 3.819 1.498 5.364 0l11.816-13.233c.762-.739 1.732-1.145 2.734-1.145h16.504c4.901 0 8.875-4.506 8.875-10.066v-37.04c0-5.56-3.974-10.067-8.875-10.067h-.001ZM180.83 64.387l-11.287-5.484 15.595-2.713-4.308 8.197ZM181.933 47.976l-13.273 6.363 9.103-14.66 4.17 8.297ZM166.75 42.893l-1.786 9.664-5.026-10.596 6.812.932Z"/><path fill="#FFDF66" d="M101.394 68.792a1.01 1.01 0 0 0-1.011 1.008v29.775a1.005 1.005 0 0 0 1.011 1.008c.184 0 .367-.05.529-.149l17.559-10.758a5.813 5.813 0 0 0 2.797-4.99 5.815 5.815 0 0 0-2.797-4.99L101.923 68.94a1.011 1.011 0 0 0-.529-.149v.002Z"/><path fill="#003149" d="M101.393 100.785a1.213 1.213 0 0 1-1.213-1.21V69.799a1.21 1.21 0 0 1 1.213-1.21c.223 0 .444.061.634.18l17.559 10.757a6.014 6.014 0 0 1 2.895 5.162 6.016 6.016 0 0 1-2.895 5.163l-17.559 10.758a1.218 1.218 0 0 1-.634.179v-.003Zm0-31.792a.809.809 0 0 0-.809.805v29.775a.802.802 0 0 0 .809.805c.149 0 .295-.04.422-.119l17.559-10.758a5.611 5.611 0 0 0 2.7-4.818 5.61 5.61 0 0 0-2.7-4.817l-17.559-10.758a.813.813 0 0 0-.422-.12v.005Z"/><path fill="#FFDF66" d="M145.737 68.792c-.185 0-.367.05-.529.148l-17.56 10.758a5.812 5.812 0 0 0-2.796 4.99 5.816 5.816 0 0 0 2.796 4.99l17.56 10.757a1.007 1.007 0 0 0 1.54-.859V69.801c0-.365-.197-.702-.518-.88a1.001 1.001 0 0 0-.493-.128v-.001Z"/><path fill="#003149" d="M145.737 100.785a1.21 1.21 0 0 1-.635-.179l-17.559-10.758a6.015 6.015 0 0 1-2.895-5.163 6.01 6.01 0 0 1 2.895-5.162l17.559-10.758a1.211 1.211 0 0 1 1.847 1.031v29.776a1.21 1.21 0 0 1-1.212 1.21v.003Zm0-31.792a.803.803 0 0 0-.423.12L127.755 79.87a5.61 5.61 0 0 0-2.7 4.817 5.61 5.61 0 0 0 2.7 4.817l17.559 10.758a.81.81 0 0 0 .817.018.81.81 0 0 0 .414-.703V69.802a.803.803 0 0 0-.808-.805v-.004Z"/><path fill="#FFDA47" d="M101.56 100.079a.504.504 0 0 1-.32-.894l21.696-17.703a1.266 1.266 0 0 1 1.593 0l21.696 17.703a.504.504 0 0 1-.32.894h-44.346.001Z"/><path fill="#003149" d="M145.905 100.282h-44.346a.707.707 0 0 1-.447-1.254l21.696-17.703a1.464 1.464 0 0 1 1.85 0l21.696 17.703a.708.708 0 0 1-.447 1.254h-.002ZM123.733 81.4c-.243 0-.481.085-.668.238l-21.696 17.703a.301.301 0 0 0 .191.536h44.347c.127 0 .242-.08.285-.2a.303.303 0 0 0-.094-.336l-21.696-17.703a1.06 1.06 0 0 0-.668-.238h-.001Z"/><path fill="#FFDA47" d="M123.731 80.693c-.407 0-.803.142-1.117.398l-21.696 17.704a1.008 1.008 0 0 0 .639 1.788h44.346c.427 0 .808-.269.951-.67a1.005 1.005 0 0 0-.312-1.118L124.846 81.09a1.772 1.772 0 0 0-1.117-.398h.002Z"/><path fill="#003149" d="M145.903 100.785h-44.346a1.21 1.21 0 0 1-.769-2.147l21.696-17.703a1.975 1.975 0 0 1 2.491 0l21.696 17.703a1.21 1.21 0 0 1-.769 2.147h.001Zm-22.172-19.89c-.359 0-.71.126-.988.352l-21.696 17.704a.808.808 0 0 0-.25.894.81.81 0 0 0 .76.535h44.346a.806.806 0 0 0 .51-1.43l-21.696-17.703a1.558 1.558 0 0 0-.987-.351h.001Z"/><path fill="#FFDA47" d="M123.565 88.168c.407 0 .803-.142 1.117-.398l21.696-17.704a1.006 1.006 0 0 0-.639-1.788h-44.346a1.01 1.01 0 0 0-.951.67c-.144.4-.019.849.312 1.118L122.45 87.77c.314.256.71.398 1.117.398h-.002Z"/><path fill="#003149" d="M146.904 68.87a1.237 1.237 0 0 1-.383 1.373l-21.696 17.703a1.995 1.995 0 0 1-2.522 0l-21.696-17.703a1.237 1.237 0 0 1 .785-2.194h44.346c.523 0 .992.33 1.168.822h-.002Zm-22.368 18.723 21.696-17.703a.78.78 0 0 0-.494-1.383h-44.346a.778.778 0 0 0-.494 1.383l21.696 17.703a1.539 1.539 0 0 0 1.943 0h-.001Z"/></g><defs><clipPath id="a"><path fill="#fff" d="M.5 0h223v200H.5z"/></clipPath></defs></svg>