<svg xmlns="http://www.w3.org/2000/svg" width="847" height="375" fill="none"><g clip-path="url(#a)"><path fill="#111224" fill-rule="evenodd" d="M113.41 64.752h645.28a87.635 87.635 0 0 1 33.689 6.719 88.849 88.849 0 0 1 28.686 19.188 88.732 88.732 0 0 1 19.206 28.659 87.418 87.418 0 0 1 6.725 33.657v67.692a87.403 87.403 0 0 1-6.725 33.657 88.754 88.754 0 0 1-19.206 28.659 88.827 88.827 0 0 1-28.686 19.188 87.641 87.641 0 0 1-33.689 6.719H113.41a87.63 87.63 0 0 1-33.69-6.719 88.846 88.846 0 0 1-28.684-19.188 88.728 88.728 0 0 1-19.207-28.659 87.422 87.422 0 0 1-6.725-33.657v-67.692a87.407 87.407 0 0 1 6.725-33.657 88.747 88.747 0 0 1 19.206-28.659 88.824 88.824 0 0 1 28.686-19.188 87.647 87.647 0 0 1 33.689-6.719Zm645.28 22.314H113.41a65.372 65.372 0 0 0-25.144 4.994c-8.049 3.346-15.326 8.266-21.44 14.375-6.114 6.109-11.04 13.378-14.388 21.42a65.23 65.23 0 0 0-5 25.12v67.692c0 8.903 1.781 17.39 5 25.12 3.349 8.041 8.273 15.311 14.388 21.42 6.115 6.109 13.391 11.029 21.44 14.375a65.415 65.415 0 0 0 25.144 4.994h645.28a65.387 65.387 0 0 0 25.144-4.994c8.049-3.346 15.325-8.266 21.44-14.375 6.114-6.109 11.039-13.379 14.388-21.42a65.23 65.23 0 0 0 4.999-25.12v-67.692c0-8.904-1.78-17.39-4.999-25.12-3.349-8.042-8.274-15.311-14.388-21.42-6.115-6.109-13.391-11.029-21.44-14.375a65.405 65.405 0 0 0-25.144-4.995Z" clip-rule="evenodd"/><path fill="#fff" fill-rule="evenodd" d="M113.41 71.443h645.28c22.449 0 42.849 9.171 57.639 23.947 14.79 14.776 23.969 35.161 23.969 57.585v67.692c0 22.428-9.179 42.809-23.969 57.585-14.79 14.776-35.194 23.947-57.639 23.947H113.41c-22.45 0-42.85-9.171-57.639-23.947-14.79-14.776-23.97-35.161-23.97-57.585v-67.692c0-22.428 9.18-42.809 23.97-57.585 14.79-14.776 35.194-23.947 57.639-23.947Zm645.28 8.927H113.41c-19.983 0-38.15 8.172-51.324 21.33-13.174 13.162-21.35 31.311-21.35 51.275v67.692c0 19.964 8.18 38.113 21.35 51.275 13.175 13.162 31.341 21.334 51.324 21.334h645.28c19.983 0 38.149-8.172 51.323-21.33 13.175-13.162 21.35-31.311 21.35-51.275v-67.692c0-19.964-8.179-38.113-21.35-51.275-13.174-13.162-31.34-21.33-51.323-21.33v-.004Z" clip-rule="evenodd"/><path fill="#111224" d="M758.69 75.907H113.41c-42.604 0-77.14 34.505-77.14 77.068v67.696c0 42.564 34.536 77.068 77.14 77.068h645.28c42.604 0 77.141-34.504 77.141-77.068v-67.696c0-42.563-34.537-77.068-77.141-77.068Z"/><path fill="#111224" fill-rule="evenodd" d="M142.572 26.462 25.955 57.415V233.26c0 8.013 2.62 16.216 7.107 24.38 5.354 9.741 13.305 19.377 22.674 28.583 11.602 11.399 25.324 22.066 39.137 31.5 17.075 11.667 34.221 21.413 47.71 28.36 13.467-6.928 30.585-16.662 47.644-28.32 13.821-9.447 27.562-20.125 39.181-31.536 9.38-9.214 17.339-18.857 22.701-28.599 4.491-8.164 7.115-16.362 7.115-24.364V57.415L142.572 26.462ZM9.652 34.968 140.606 0h3.861l131.052 34.968v.008l4.066 1.078 5.586 1.484v195.725c0 12.182-3.609 24.147-9.786 35.692-6.71 12.536-16.453 24.529-27.835 35.708-13.036 12.804-28.362 24.675-43.66 35.07-20.518 13.941-40.91 25.187-55.586 32.437l-2.427 1.197-3.309 1.633-3.302-1.633-2.423-1.197c-14.703-7.278-35.119-18.531-55.653-32.484-15.282-10.388-30.592-22.239-43.609-35.027-11.374-11.175-21.105-23.16-27.807-35.692-6.173-11.545-9.778-23.511-9.778-35.704V37.538l5.586-1.484 4.07-1.078v-.008Z" clip-rule="evenodd"/><path fill="#53C73B" fill-rule="evenodd" d="M142.572 18.74 18.466 51.684v181.579c0 19.861 13.41 39.986 32.03 58.277 27.91 27.418 67.279 50.429 92.08 62.914 24.777-12.458 64.139-35.492 92.06-62.91 18.639-18.307 32.07-38.444 32.07-58.281V51.684L142.572 18.74ZM11.582 42.187 142.537 7.219l131.052 34.968 4.098 1.086v189.99c0 23.211-14.814 45.89-35.371 66.082-29.868 29.335-72.094 53.672-97.316 66.134l-2.427 1.196-2.423-1.196c-25.25-12.497-67.476-36.81-97.332-66.138-20.538-20.176-35.331-42.844-35.331-66.078V43.273l4.097-1.086Z" clip-rule="evenodd"/><path fill="#53C73B" fill-rule="evenodd" d="M142.572 13.075 12.977 47.476v185.782c0 53.842 88.05 106.746 129.595 127.312 41.517-20.511 129.622-73.541 129.622-127.312V47.476l-129.622-34.4Z" clip-rule="evenodd"/><path fill="#fff" fill-rule="evenodd" d="M142.572 22.72 20.621 54.935v175.257c0 19.912 13.237 39.825 31.616 57.793 27.543 26.926 66.547 49.393 90.339 61.186 23.768-11.765 62.768-34.252 90.323-61.182 18.398-17.984 31.652-37.908 31.652-57.797V54.936L142.572 22.719ZM18.225 51.652l123.862-32.72h.969l123.886 32.72 1.422.378v178.166c0 21.057-13.738 41.86-32.802 60.497-28.236 27.599-68.241 50.539-92.151 62.296l-.843.413-.843-.413c-23.93-11.789-63.938-34.708-92.163-62.3C30.517 272.068 16.8 251.278 16.8 230.2V52.027l1.422-.378.004.004Z" clip-rule="evenodd"/><path fill="#fff" fill-rule="evenodd" d="M195.223 141.875v-17.31c0-27.675-22.666-50.319-50.366-50.319h-4.547c-27.7 0-50.365 22.644-50.365 50.319v17.31h32.585v-20.896c0-11.017 9.022-20.035 20.054-20.035 11.027 0 20.053 9.014 20.053 20.035v20.896h32.586Zm-90.571 65.662 13.608-11.261 14.454 21.239 28.899-42.758 15.987 6.463-44.972 55.2-27.972-28.883h-.004Zm-12.702-55.66c-10.476 0-19.049 8.565-19.049 19.031v68.613c0 10.466 8.573 19.031 19.049 19.031h101.267c10.476 0 19.049-8.565 19.049-19.031v-68.613c0-10.466-8.573-19.031-19.049-19.031H91.95ZM344.78 164.385h-9.617v-36.353c-3.511 3.298-7.651 5.739-12.426 7.317v-8.766c2.517-.818 5.24-2.373 8.179-4.676 2.947-2.29 4.96-4.967 6.059-8.017h7.805v50.499-.004ZM364.754 112.484c4.866 0 8.672 1.744 11.422 5.227 3.266 4.114 4.901 10.955 4.901 20.492s-1.651 16.378-4.937 20.538c-2.726 3.436-6.516 5.156-11.386 5.156-4.869 0-8.833-1.881-11.831-5.644-2.994-3.763-4.491-10.486-4.491-20.141 0-9.655 1.651-16.307 4.936-20.467 2.727-3.437 6.517-5.157 11.386-5.157v-.004Zm0 7.995a4.642 4.642 0 0 0-3.065 1.121c-.902.736-1.603 2.071-2.096 3.999-.654 2.492-.981 6.699-.981 12.604 0 5.904.292 9.97.879 12.182.583 2.208 1.324 3.684 2.21 4.42a4.65 4.65 0 0 0 3.053 1.098c1.147 0 2.175-.374 3.077-1.122.891-.736 1.592-2.07 2.084-3.999.654-2.468.981-6.664.981-12.579 0-5.916-.291-9.959-.878-12.171-.583-2.208-1.324-3.696-2.21-4.432-.891-.748-1.907-1.121-3.054-1.121ZM400.07 113.186c4.866 0 8.672 1.743 11.422 5.227 3.266 4.113 4.901 10.954 4.901 20.491 0 9.537-1.651 16.378-4.937 20.538-2.726 3.436-6.516 5.156-11.386 5.156-4.869 0-8.833-1.881-11.831-5.644-2.994-3.763-4.491-10.486-4.491-20.141 0-9.655 1.651-16.307 4.936-20.467 2.727-3.436 6.517-5.157 11.386-5.157v-.003Zm0 7.994a4.645 4.645 0 0 0-3.065 1.121c-.902.736-1.603 2.071-2.096 3.999-.654 2.492-.981 6.7-.981 12.604 0 5.904.292 9.97.879 12.182.583 2.208 1.323 3.684 2.21 4.42a4.65 4.65 0 0 0 3.053 1.098c1.147 0 2.175-.374 3.077-1.122.891-.736 1.592-2.07 2.084-3.999.654-2.468.981-6.663.981-12.579s-.291-9.958-.878-12.171c-.583-2.208-1.324-3.692-2.21-4.432-.891-.747-1.907-1.121-3.054-1.121ZM417.724 125.773c0-4.487.993-7.809 2.971-9.97 1.978-2.161 4.657-3.251 8.037-3.251 3.38 0 6.237 1.074 8.214 3.227 1.978 2.149 2.959 5.483 2.959 9.994s-.981 7.809-2.959 9.97c-1.977 2.161-4.668 3.251-8.048 3.251-3.381 0-6.225-1.074-8.203-3.227-1.978-2.149-2.971-5.483-2.971-9.994Zm7.513 0c0 3.239.375 5.412 1.135 6.522.575.819 1.367 1.228 2.376 1.228 1.008 0 1.836-.409 2.411-1.228.737-1.11 1.099-3.287 1.099-6.522 0-3.235-.362-5.4-1.099-6.487-.575-.842-1.379-1.263-2.411-1.263s-1.801.409-2.376 1.228c-.76 1.11-1.135 3.287-1.135 6.522Zm10.847 39.872h-7.127l26.758-53.093h6.974l-26.609 53.093h.004Zm15.55-13.245c0-4.499.993-7.832 2.97-10.005 1.978-2.173 4.681-3.263 8.108-3.263 3.428 0 6.166 1.086 8.144 3.263 1.978 2.173 2.959 5.506 2.959 10.005 0 4.499-.981 7.88-2.959 10.053-1.978 2.173-4.669 3.263-8.049 3.263s-6.225-1.086-8.203-3.263c-1.977-2.173-2.97-5.518-2.97-10.053Zm7.513.024c0 3.275.374 5.459 1.135 6.546.575.854 1.367 1.275 2.375 1.275 1.009 0 1.824-.409 2.376-1.24.76-1.11 1.135-3.306 1.135-6.581 0-3.275-.363-5.471-1.1-6.581-.575-.831-1.379-1.24-2.411-1.24s-1.824.409-2.375 1.24c-.761 1.11-1.135 3.31-1.135 6.581ZM495.184 147.413l9.9-.98c.595 3.307 1.789 5.727 3.605 7.282 1.813 1.555 4.259 2.326 7.336 2.326 3.254 0 5.709-.689 7.36-2.07 1.65-1.382 2.482-2.992 2.482-4.842 0-1.192-.351-2.196-1.04-3.038-.69-.831-1.907-1.555-3.641-2.161-1.182-.421-3.873-1.145-8.084-2.196-5.417-1.358-9.219-3.015-11.41-4.991-3.077-2.771-4.609-6.148-4.609-10.136 0-2.558.725-4.967 2.163-7.199 1.45-2.231 3.534-3.928 6.26-5.097 2.726-1.169 6.004-1.751 9.865-1.751 6.284 0 11.024 1.389 14.191 4.184 3.183 2.794 4.846 6.51 5.008 11.174l-10.181.35c-.433-2.593-1.355-4.455-2.773-5.589-1.415-1.133-3.546-1.708-6.379-1.708-2.832 0-5.22.606-6.867 1.822-1.064.784-1.603 1.823-1.603 3.133 0 1.193.504 2.209 1.509 3.051 1.276 1.086 4.377 2.208 9.301 3.377 4.925 1.157 8.565 2.373 10.917 3.613 2.364 1.252 4.212 2.944 5.548 5.109 1.335 2.161 2.001 4.83 2.001 7.994 0 2.878-.796 5.578-2.399 8.089-1.604 2.515-3.861 4.385-6.788 5.601-2.924 1.228-6.576 1.834-10.941 1.834-6.355 0-11.232-1.46-14.636-4.396-3.404-2.921-5.429-7.191-6.095-12.789v.004ZM542.012 163.685v-50.22h37.207v8.486h-27.027v11.155h25.132v8.486h-25.132v13.607h28.012v8.486h-38.192ZM618.325 145.17l9.83 3.015c-1.509 5.53-4.027 9.631-7.537 12.32-3.51 2.676-7.958 4.022-13.352 4.022-6.682 0-12.17-2.279-16.476-6.837-4.294-4.558-6.446-10.788-6.446-18.704 0-8.356 2.163-14.858 6.481-19.487 4.318-4.629 10.003-6.943 17.048-6.943 6.154 0 11.149 1.822 14.987 5.459 2.292 2.149 4.002 5.239 5.149 9.269l-10.039 2.386c-.595-2.594-1.836-4.653-3.719-6.16-1.895-1.508-4.188-2.256-6.879-2.256-3.731 0-6.764 1.335-9.081 4.011-2.328 2.665-3.486 6.991-3.486 12.977 0 6.337 1.146 10.86 3.427 13.548 2.293 2.7 5.264 4.047 8.928 4.047 2.702 0 5.031-.855 6.973-2.571 1.942-1.72 3.345-4.408 4.188-8.088l.004-.008ZM634.202 113.465h10.18v27.214c0 4.325.131 7.12.375 8.391.433 2.059 1.45 3.716 3.065 4.956 1.627 1.252 3.837 1.87 6.646 1.87 2.809 0 4.996-.587 6.446-1.764 1.45-1.181 2.316-2.617 2.608-4.337.291-1.72.445-4.558.445-8.534v-27.796h10.18v26.407c0 6.03-.268 10.297-.819 12.788-.552 2.492-1.556 4.594-3.03 6.314-1.461 1.72-3.427 3.074-5.886 4.089-2.47 1.016-5.673 1.531-9.64 1.531-4.787 0-8.412-.551-10.882-1.661-2.47-1.11-4.424-2.546-5.862-4.325-1.438-1.776-2.376-3.626-2.833-5.578-.666-2.877-.993-7.132-.993-12.753v-26.816.004ZM682.236 163.685v-50.22h21.377c5.37 0 9.278.456 11.713 1.354 2.446.901 4.389 2.503 5.85 4.806 1.462 2.314 2.199 4.943 2.199 7.915 0 3.775-1.1 6.884-3.31 9.34-2.21 2.457-5.512 3.999-9.912 4.641 2.186 1.275 3.991 2.677 5.405 4.208 1.426 1.531 3.345 4.255 5.756 8.159l6.13 9.797H715.31l-7.277-10.966c-2.608-3.893-4.401-6.349-5.37-7.364-.961-1.004-1.978-1.708-3.053-2.082-1.087-.374-2.797-.563-5.138-.563h-2.06v20.971h-10.18l.004.004Zm10.18-28.965h7.513c4.866 0 7.899-.209 9.117-.618 1.205-.41 2.163-1.122 2.844-2.13.69-1.004 1.028-2.267 1.028-3.774 0-1.697-.457-3.051-1.355-4.102-.902-1.039-2.175-1.696-3.814-1.964-.831-.118-3.301-.177-7.406-.177h-7.923v12.765h-.004ZM730.265 163.685v-50.22h37.207v8.486h-27.027v11.155h25.132v8.486h-25.132v13.607h28.012v8.486h-38.192ZM372.134 254.218v-59.072h19.143c7.253 0 11.973.287 14.175.881 3.384.894 6.221 2.818 8.506 5.79s3.428 6.806 3.428 11.509c0 3.629-.662 6.668-1.97 9.144-1.32 2.475-2.987 4.412-5.012 5.829-2.025 1.401-4.089 2.338-6.181 2.791-2.849.562-6.966.854-12.359.854h-7.761v22.278H372.13l.004-.004Zm11.973-49.091v16.831h6.508c4.692 0 7.816-.315 9.4-.937 1.584-.618 2.821-1.582 3.715-2.916.895-1.319 1.348-2.846 1.348-4.606 0-2.157-.634-3.932-1.887-5.333-1.265-1.401-2.849-2.283-4.791-2.641-1.418-.26-4.267-.398-8.561-.398h-5.74.008ZM469.836 254.218h-12.895l-5.106-13.45h-23.714l-4.913 13.45h-12.662l22.957-59.072h12.651l23.685 59.072h-.003Zm-21.886-23.431-8.218-21.865-7.982 21.865h16.2ZM479.634 254.218v-24.864l-21.681-34.212h13.998l13.986 23.392 13.612-23.392h13.734l-21.676 34.294v24.782h-11.973ZM514.504 254.218v-59.076h17.934l10.598 40.293 10.476-40.293h17.973v59.076h-11.067l-.039-46.505-11.658 46.505h-11.508l-11.602-46.505-.04 46.505h-11.067ZM578.939 254.218v-59.076h43.771v9.985h-31.794v13.119h29.564v9.982h-29.564v16.004h32.948v9.986h-44.925ZM629.502 254.218v-59.076h11.591l24.336 39.588v-39.588h11.062v59.076H664.53l-23.961-38.833v38.833h-11.067ZM697.916 254.218v-49.091h-17.505v-9.985h46.907v9.985h-17.425v49.091h-11.977Z" clip-rule="evenodd"/></g><defs><clipPath id="a"><path fill="#fff" d="M0 0h847v375H0z"/></clipPath></defs></svg>