<svg width="121" height="120" viewBox="0 0 121 120" fill="none" xmlns="http://www.w3.org/2000/svg">
<g clip-path="url(#clip0_1251_2368)">
<path d="M100.255 99.7687C122.219 77.8051 122.219 42.1949 100.255 20.2313C78.2918 -1.73242 42.6816 -1.73242 20.718 20.2313C-1.24571 42.1949 -1.24571 77.8051 20.718 99.7687C42.6816 121.732 78.2918 121.732 100.255 99.7687Z" fill="#46CC6B"/>
<path fill-rule="evenodd" clip-rule="evenodd" d="M115.938 69.5425C111.936 92.9612 93.4586 111.438 70.0405 115.44L39.7591 85.1589C32.5129 79.1788 27.8945 70.1289 27.8945 60.0002C27.8945 41.9934 42.4914 27.3965 60.4982 27.3965C70.627 27.3965 79.6769 32.0151 85.657 39.261L115.938 69.5425Z" fill="#179C5F"/>
<path fill-rule="evenodd" clip-rule="evenodd" d="M45.2371 61.9361L54.5226 70.4631C55.877 71.71 57.9735 71.6437 59.2473 70.3302L75.8127 54.4698C77.1602 53.1742 77.2009 51.0306 75.9048 49.6825C74.6087 48.3365 72.4663 48.2943 71.1189 49.5899L56.77 63.3283L49.8243 56.9502C48.4483 55.6841 46.3045 55.773 45.0377 57.1504C43.7711 58.5264 43.8604 60.6688 45.2371 61.9361ZM60.4982 27.3965C78.505 27.3965 93.1019 41.9934 93.1019 60.0002C93.1019 78.007 78.505 92.6038 60.4982 92.6038C42.4914 92.6038 27.8945 78.007 27.8945 60.0002C27.8945 41.9934 42.4914 27.3965 60.4982 27.3965Z" fill="white"/>
</g>
<defs>
<clipPath id="clip0_1251_2368">
<rect width="120" height="120" fill="white" transform="translate(0.5)"/>
</clipPath>
</defs>
</svg>
