<svg height="512" viewBox="0 0 32 32" width="512" xmlns="http://www.w3.org/2000/svg" xmlns:xlink="http://www.w3.org/1999/xlink"><linearGradient id="linear-gradient" gradientUnits="userSpaceOnUse" x1="15.924" x2="16.076" y1="1.5" y2="30.5"><stop offset="0" stop-color="#09c6f9"/><stop offset="1" stop-color="#045de9"/></linearGradient><g id="battery_storage" data-name="battery storage"><circle cx="16" cy="16" fill="url(#linear-gradient)" r="14.5"/><g fill="#fff" fill-rule="evenodd"><path d="m10.4 10.167h2.048v-.524h-2.048zm9.143 0h2.057v-.524h-2.052zm3.957 2.023v9.143a1.14 1.14 0 0 1 -.267.749.76.76 0 0 1 -.566.275h-13.334a.76.76 0 0 1 -.566-.275 1.14 1.14 0 0 1 -.267-.749v-9.143a1.138 1.138 0 0 1 .267-.748.76.76 0 0 1 .566-.275h13.334a.76.76 0 0 1 .566.275 1.138 1.138 0 0 1 .267.748zm-14.1-2.023h-.067a1.751 1.751 0 0 0 -1.319.617 2.142 2.142 0 0 0 -.514 1.406v9.143a2.142 2.142 0 0 0 .514 1.407 1.751 1.751 0 0 0 1.319.617h13.334a1.751 1.751 0 0 0 1.319-.617 2.142 2.142 0 0 0 .514-1.407v-9.143a2.142 2.142 0 0 0 -.514-1.406 1.751 1.751 0 0 0 -1.319-.617h-.067v-1.024a.5.5 0 0 0 -.5-.5h-3.052a.5.5 0 0 0 -.5.5v1.024h-5.1v-1.024a.5.5 0 0 0 -.5-.5h-3.048a.5.5 0 0 0 -.5.5z"/><path d="m10.929 13.6h-1.029a.5.5 0 0 0 0 1h1.024v1.024a.5.5 0 1 0 1 0v-1.024h1.024a.5.5 0 0 0 0-1h-1.019v-1.029a.5.5 0 0 0 -1 0z"/><path d="m19.048 14.6h3.052a.5.5 0 0 0 0-1h-3.052a.5.5 0 0 0 0 1z"/></g></g></svg>