<svg height="512" viewBox="0 0 512 512" width="512" xmlns="http://www.w3.org/2000/svg" xmlns:xlink="http://www.w3.org/1999/xlink"><linearGradient id="linear-gradient" gradientUnits="userSpaceOnUse" x1="74.98" x2="437.02" y1="74.98" y2="437.02"><stop offset="0" stop-color="#43bcff"/><stop offset="1" stop-color="#0149ed"/></linearGradient><g id="Layer_2" data-name="Layer 2"><g id="shield"><circle id="background" cx="256" cy="256" fill="url(#linear-gradient)" r="256"/><path d="m256 125a16.62 16.62 0 0 1 6.83 1.48l95.95 40.71a31.63 31.63 0 0 1 19.51 29.15c-.25 50.55-21 145.56-108.84 187.6a31.09 31.09 0 0 1 -26.9 0c-87.8-42-108.59-137-108.84-187.6a31.63 31.63 0 0 1 19.51-29.15l96-40.71a16.22 16.22 0 0 1 6.78-1.48z" fill="#fff"/></g></g></svg>