<svg id="Capa_1" enable-background="new 0 0 512 512" height="512" viewBox="0 0 512 512" width="512" xmlns="http://www.w3.org/2000/svg" xmlns:xlink="http://www.w3.org/1999/xlink"><linearGradient id="SVGID_1_" gradientUnits="userSpaceOnUse" x1="256" x2="256" y1="512" y2="0"><stop offset="0" stop-color="#addcff"/><stop offset=".5028" stop-color="#eaf6ff"/><stop offset="1" stop-color="#eaf6ff"/></linearGradient><linearGradient id="SVGID_00000096759708366895121330000006296177380447234226_" gradientUnits="userSpaceOnUse" x1="256" x2="256" y1="407" y2="105"><stop offset="0" stop-color="#00c0ff"/><stop offset="1" stop-color="#5558ff"/></linearGradient><g><circle cx="256" cy="256" fill="url(#SVGID_1_)" r="256"/><g><g><path d="m380.353 105h-248.706c-14.694 0-26.647 11.953-26.647 26.647v248.706c0 14.694 11.953 26.647 26.647 26.647h248.706c14.694 0 26.647-11.953 26.647-26.647v-248.706c0-14.694-11.953-26.647-26.647-26.647zm-230.941 35.529c4.905 0 8.883 3.976 8.883 8.882 0 4.905-3.977 8.883-8.883 8.883-4.905 0-8.882-3.977-8.882-8.883-.001-4.906 3.977-8.882 8.882-8.882zm0 230.942c-4.905 0-8.882-3.977-8.882-8.882 0-4.907 3.977-8.882 8.882-8.882s8.883 3.976 8.883 8.882c-.001 4.905-3.978 8.882-8.883 8.882zm213.176 0c-4.905 0-8.883-3.977-8.883-8.882 0-4.907 3.977-8.882 8.883-8.882 4.905 0 8.882 3.976 8.882 8.882.001 4.905-3.977 8.882-8.882 8.882zm-106.588 0c-63.668 0-115.471-51.802-115.471-115.471s51.803-115.471 115.471-115.471 115.471 51.803 115.471 115.471-51.803 115.471-115.471 115.471zm106.588-213.177c-4.905 0-8.883-3.977-8.883-8.883s3.977-8.882 8.883-8.882c4.905 0 8.882 3.976 8.882 8.882.001 4.906-3.977 8.883-8.882 8.883zm-97.706 124.353v35.529c9.793 0 17.765-7.971 17.765-17.765 0-9.792-7.971-17.764-17.765-17.764zm17.765-35.529h35.53c0-9.793-7.972-17.765-17.765-17.765s-17.765 7.971-17.765 17.765zm-71.059 35.529c9.793 0 17.765-7.972 17.765-17.765h-35.53c0 9.793 7.972 17.765 17.765 17.765zm44.412-35.529c-4.901 0-8.882 3.981-8.882 8.882s3.981 8.882 8.882 8.882 8.882-3.981 8.882-8.882-3.981-8.882-8.882-8.882zm-8.882-53.295c-9.793 0-17.765 7.972-17.765 17.765s7.971 17.765 17.765 17.765zm8.882-35.529c-53.875 0-97.706 43.831-97.706 97.706s43.831 97.706 97.706 97.706 97.706-43.831 97.706-97.706-43.831-97.706-97.706-97.706zm79.941 88.824v8.882c0 4.91-3.973 8.882-8.882 8.882h-46.048c-.404 1.134-.887 2.215-1.434 3.272 12.259 5.608 20.835 17.917 20.835 32.257 0 19.595-15.934 35.53-35.529 35.53h-8.883c-4.91 0-8.882-3.973-8.882-8.883v-46.048c-1.134-.404-2.215-.887-3.272-1.435-5.608 12.259-17.917 20.835-32.257 20.835-19.595 0-35.53-15.934-35.53-35.529v-8.881c0-4.91 3.973-8.882 8.882-8.882h46.048c.404-1.134.887-2.215 1.434-3.272-12.259-5.608-20.835-17.917-20.835-32.257 0-19.595 15.934-35.529 35.529-35.529h8.883c4.91 0 8.882 3.973 8.882 8.882v46.048c1.134.405 2.215.887 3.272 1.435 5.608-12.259 17.917-20.835 32.257-20.835 19.596-.002 35.53 15.933 35.53 35.528z" fill="url(#SVGID_00000096759708366895121330000006296177380447234226_)"/></g></g></g></svg>