<svg id="Capa_1" enable-background="new 0 0 512 512" height="512" viewBox="0 0 512 512" width="512" xmlns="http://www.w3.org/2000/svg" xmlns:xlink="http://www.w3.org/1999/xlink"><linearGradient id="SVGID_1_" gradientUnits="userSpaceOnUse" x1="256" x2="256" y1="512" y2="0"><stop offset="0" stop-color="#addcff"/><stop offset=".5028" stop-color="#eaf6ff"/><stop offset="1" stop-color="#eaf6ff"/></linearGradient><linearGradient id="SVGID_2_" gradientUnits="userSpaceOnUse" x1="256" x2="256" y1="113.5" y2="398.5"><stop offset="0" stop-color="#5558ff"/><stop offset="1" stop-color="#00c0ff"/></linearGradient><g><g><circle cx="256" cy="256" fill="url(#SVGID_1_)" r="256"/></g><g><g><path d="m344.824 380.688h-29.131l-5.921-17.813h-107.543l-5.921 17.813h-29.131c-4.91 0-8.882 3.983-8.882 8.906s3.973 8.906 8.882 8.906h177.647c4.91 0 8.882-3.983 8.882-8.906s-3.973-8.906-8.882-8.906zm-88.824-160.313c-4.901 0-8.882 3.992-8.882 8.906s3.981 8.906 8.882 8.906 8.882-3.992 8.882-8.906-3.981-8.906-8.882-8.906zm47.873-8.524 10.409-6.027-8.882-15.429-10.565 6.123c-3.244 1.887-7.347 1.505-10.21-.939-4.138-3.549-8.796-6.262-13.844-8.071-3.539-1.261-5.898-4.618-5.898-8.384v-12.185h-17.765v12.185c0 3.766-2.359 7.123-5.898 8.384-5.048 1.809-9.706 4.523-13.844 8.071-2.871 2.444-6.957 2.827-10.21.939l-10.574-6.123-8.882 15.429 10.418 6.027c3.253 1.887 4.979 5.627 4.294 9.332-.486 2.635-.833 5.323-.833 8.097s.347 5.462.833 8.097c.685 3.705-1.041 7.445-4.294 9.332l-10.418 6.027 8.882 15.429 10.574-6.123c3.253-1.896 7.356-1.505 10.201.939 4.155 3.549 8.813 6.262 13.844 8.054 3.539 1.261 5.907 4.627 5.907 8.393v12.194h17.765v-12.182c0-3.766 2.359-7.123 5.898-8.384 5.04-1.809 9.698-4.523 13.853-8.071 2.854-2.444 6.957-2.835 10.201-.939l10.565 6.123 8.882-15.429-10.409-6.027c-3.253-1.887-4.979-5.627-4.294-9.332.486-2.635.833-5.323.833-8.097 0-2.775-.347-5.462-.833-8.097-.685-3.708 1.041-7.448 4.294-9.336zm-47.873 44.149c-14.694 0-26.647-11.985-26.647-26.719s11.953-26.719 26.647-26.719 26.647 11.985 26.647 26.719-11.953 26.719-26.647 26.719zm142.118-142.5h-284.236c-4.91 0-8.882 3.983-8.882 8.906v213.75c0 4.923 3.973 8.906 8.882 8.906h284.235c4.91 0 8.882-3.983 8.882-8.906v-213.75c.001-4.923-3.972-8.906-8.881-8.906zm-79.942 115.781c0 1.687-.087 3.357-.234 5.001l12.916 7.48c4.25 2.461 5.708 7.906 3.253 12.168l-17.765 30.859c-2.514 4.356-7.972 5.641-12.135 3.261l-13.124-7.602c-2.689 1.861-5.508 3.505-8.44 4.914v15.168c0 4.923-3.973 8.906-8.882 8.906h-35.529c-4.91 0-8.882-3.983-8.882-8.906v-15.168c-2.932-1.409-5.751-3.053-8.44-4.914l-13.133 7.602c-4.166 2.381-9.622 1.093-12.135-3.261l-17.766-30.859c-1.18-2.044-1.492-4.479-.885-6.758.607-2.287 2.099-4.227 4.138-5.41l12.924-7.48c-.147-1.644-.234-3.314-.234-5.001s.087-3.357.234-5.001l-12.924-7.48c-2.038-1.183-3.53-3.122-4.138-5.41-.607-2.279-.295-4.714.885-6.758l17.765-30.859c1.18-2.044 3.123-3.54 5.395-4.149 2.255-.617 4.701-.296 6.74.887l13.133 7.602c2.68-1.861 5.499-3.505 8.44-4.914v-15.168c0-4.923 3.973-8.906 8.882-8.906h35.529c4.91 0 8.882 3.983 8.882 8.906v15.169c2.932 1.409 5.751 3.053 8.44 4.914l13.124-7.602c2.038-1.183 4.476-1.505 6.74-.887 2.273.609 4.216 2.105 5.395 4.149l17.765 30.859c2.455 4.262.998 9.706-3.253 12.168l-12.916 7.48c.149 1.643.235 3.313.235 5z" fill="url(#SVGID_2_)"/></g></g></g></svg>