<svg id="Capa_1" enable-background="new 0 0 512 512" height="512" viewBox="0 0 512 512" width="512" xmlns="http://www.w3.org/2000/svg" xmlns:xlink="http://www.w3.org/1999/xlink"><linearGradient id="SVGID_1_" gradientUnits="userSpaceOnUse" x1="256" x2="256" y1="512" y2="0"><stop offset="0" stop-color="#ffbef9"/><stop offset="1" stop-color="#fff1ff"/></linearGradient><linearGradient id="SVGID_2_" gradientUnits="userSpaceOnUse" x1="256" x2="256" y1="389.235" y2="122.765"><stop offset="0" stop-color="#ff81ff"/><stop offset="1" stop-color="#a93aff"/></linearGradient><g><g><g><circle cx="256" cy="256" fill="url(#SVGID_1_)" r="256"/></g></g><g><g><g><path d="m380.353 176.059h-71.059c-14.694 0-26.647 11.953-26.647 26.647v159.882c0 3.129.641 6.09 1.636 8.882h-19.401v-17.765h-53.294v17.765h-26.647c-4.91 0-8.882 3.973-8.882 8.882s3.973 8.882 8.882 8.882h195.412c14.694 0 26.647-11.953 26.647-26.647v-159.881c0-14.694-11.953-26.647-26.647-26.647zm-26.647 177.647h-17.765c-4.91 0-8.882-3.973-8.882-8.882 0-4.91 3.973-8.882 8.882-8.882h17.765c4.91 0 8.882 3.973 8.882 8.882s-3.973 8.882-8.882 8.882zm0-124.353h-17.765c-4.91 0-8.882-3.973-8.882-8.882s3.973-8.882 8.882-8.882h17.765c4.91 0 8.882 3.973 8.882 8.882s-3.973 8.882-8.882 8.882zm-88.824-26.647c0-24.487 19.925-44.412 44.412-44.412h62.176v-8.882c0-14.694-11.953-26.647-26.647-26.647h-213.176c-14.694 0-26.647 11.953-26.647 26.647v159.882c0 14.694 11.953 26.647 26.647 26.647h133.235z" fill="url(#SVGID_2_)"/></g></g></g></g></svg>