<svg id="Capa_1" enable-background="new 0 0 512 512" height="512" viewBox="0 0 512 512" width="512" xmlns="http://www.w3.org/2000/svg" xmlns:xlink="http://www.w3.org/1999/xlink"><linearGradient id="SVGID_1_" gradientUnits="userSpaceOnUse" x1="74.981" x2="437.02" y1="437.019" y2="74.98"><stop offset="0" stop-color="#230be0"/><stop offset="1" stop-color="#dda2fc"/></linearGradient><radialGradient id="SVGID_2_" cx="256.001" cy="256" gradientUnits="userSpaceOnUse" r="256"><stop offset="0" stop-color="#230be0" stop-opacity=".8"/><stop offset="1" stop-color="#dda2fc" stop-opacity="0"/></radialGradient><linearGradient id="lg1"><stop offset="0" stop-color="#dda2fc"/><stop offset=".1867" stop-color="#e1adfc"/><stop offset=".511" stop-color="#ebc9fd"/><stop offset=".9317" stop-color="#fcf7ff"/><stop offset="1" stop-color="#fff"/></linearGradient><linearGradient id="SVGID_3_" gradientUnits="userSpaceOnUse" x1="-121.112" x2="526.379" xlink:href="#lg1" y1="633.112" y2="-14.379"/><linearGradient id="lg2"><stop offset="0" stop-color="#170794"/><stop offset=".5" stop-color="#230be0"/><stop offset="1" stop-color="#f2d5ff"/></linearGradient><linearGradient id="SVGID_4_" gradientUnits="userSpaceOnUse" x1="-54.65" x2="574.078" xlink:href="#lg2" y1="501.842" y2="-126.885"/><linearGradient id="SVGID_5_" gradientUnits="userSpaceOnUse" x1="-417.068" x2="804.546" xlink:href="#lg2" y1="1025.756" y2="-195.858"/><linearGradient id="SVGID_6_" gradientUnits="userSpaceOnUse" x1="-388.985" x2="836.634" xlink:href="#lg2" y1="931.13" y2="-294.488"/><linearGradient id="SVGID_7_" gradientUnits="userSpaceOnUse" x1="-2171.893" x2="1869.919" xlink:href="#lg2" y1="2742.435" y2="-1299.377"/><linearGradient id="SVGID_8_" gradientUnits="userSpaceOnUse" x1="-688.52" x2="765.879" xlink:href="#lg2" y1="1305.83" y2="-148.569"/><linearGradient id="SVGID_9_" gradientUnits="userSpaceOnUse" x1="-658.948" x2="589.374" xlink:href="#lg2" y1="1088.23" y2="-142.752"/><linearGradient id="SVGID_10_" gradientUnits="userSpaceOnUse" x1="-799.671" x2="647.446" xlink:href="#lg2" y1="1327.427" y2="-119.69"/><linearGradient id="SVGID_11_" gradientUnits="userSpaceOnUse" x1="94.223" x2="471.913" xlink:href="#lg2" y1="422.856" y2="45.167"/><linearGradient id="SVGID_12_" gradientUnits="userSpaceOnUse" x1="-118.044" x2="562.649" xlink:href="#lg2" y1="663.351" y2="-17.342"/><linearGradient id="SVGID_13_" gradientUnits="userSpaceOnUse" x1="125.277" x2="555.573" xlink:href="#lg1" y1="303.736" y2="-126.559"/><linearGradient id="SVGID_14_" gradientUnits="userSpaceOnUse" x1="81.039" x2="426.91" xlink:href="#lg1" y1="375.98" y2="30.109"/><linearGradient id="SVGID_15_" gradientUnits="userSpaceOnUse" x1="-135.166" x2="605.614" xlink:href="#lg2" y1="658.683" y2="-82.097"/><linearGradient id="SVGID_16_" gradientUnits="userSpaceOnUse" x1="-145.476" x2="358.484" xlink:href="#lg1" y1="756.9" y2="252.939"/><linearGradient id="SVGID_17_" gradientUnits="userSpaceOnUse" x1="198.263" x2="384.374" xlink:href="#lg2" y1="167.686" y2="-18.425"/><radialGradient id="SVGID_18_" cx="256" cy="109.938" gradientUnits="userSpaceOnUse" r="11.191"><stop offset="0" stop-color="#230be0" stop-opacity="0"/><stop offset=".04" stop-color="#220bdd" stop-opacity=".032"/><stop offset=".6847" stop-color="#1a08a8" stop-opacity=".548"/><stop offset="1" stop-color="#170794" stop-opacity=".8"/></radialGradient><g><circle cx="256" cy="256" fill="url(#SVGID_1_)" r="256"/><circle cx="256" cy="256" fill="url(#SVGID_2_)" r="256"/><path d="m357.25 74.178c-67.5-3.571-135-3.571-202.5 0-16.541.905-30.476 15.293-31.003 31.822-3.038 100-3.038 200 0 300 .526 16.529 14.462 30.917 31.003 31.822 67.5 3.571 135 3.571 202.5 0 16.541-.905 30.477-15.293 31.003-31.822 3.038-100 3.038-200 0-300-.526-16.529-14.462-30.917-31.003-31.822z" fill="url(#SVGID_3_)"/><path d="m154.346 89.33c-8.298.407-15.256 7.555-15.484 15.862-2.691 100.539-2.691 201.077 0 301.616.228 8.307 7.186 15.454 15.484 15.862 25.727 1.242 51.455 2.013 77.182 2.313-.683-112.655-.683-225.31 0-337.966-25.728.299-51.455 1.07-77.182 2.313z" fill="url(#SVGID_4_)"/><path d="m357.654 89.33c-5.02-.243-10.04-.467-15.06-.673 2.416 111.563 2.416 223.125 0 334.687 5.02-.207 10.04-.431 15.06-.674 8.298-.408 15.256-7.555 15.484-15.862 2.691-100.539 2.691-201.078 0-301.616-.228-8.308-7.186-15.454-15.484-15.862z" fill="url(#SVGID_5_)"/><path d="m358.023 407.518c2.344-101.012 2.344-202.024 0-303.037-.199-8.347-7.131-15.479-15.429-15.825-37.022-1.523-74.044-2.07-111.067-1.639-8.298.099-15.122 7.115-15.203 15.57-.911 102.275-.911 204.55 0 306.825.081 8.455 6.906 15.473 15.203 15.57 37.022.43 74.044-.116 111.067-1.639 8.298-.346 15.23-7.478 15.429-15.825z" fill="url(#SVGID_6_)"/><path d="m168.327 362.491c.14 10.142.299 20.284.479 30.426 15.796.528 31.592.913 47.388 1.154 19.921-36.766 40.416-74.016 60.935-111.181-36.518 26.946-72.956 53.915-108.802 79.601z" fill="url(#SVGID_7_)"/><path d="m343.673 362.491c-42.199-25.522-85.07-52.672-128.011-79.644.058 37.075.235 74.149.533 111.224 42.333.646 84.666.261 126.999-1.154.179-10.141.339-20.284.479-30.426z" fill="url(#SVGID_8_)"/><path d="m168.552 134.296c-1.198 76.065-1.273 152.131-.225 228.196 15.883.411 31.765.71 47.648.897 20.091-38.113 40.674-76.666 61.164-115.072-20.508-38.423-41.057-76.968-61.062-115.047-15.841.214-31.683.556-47.525 1.026z" fill="url(#SVGID_9_)"/><path d="m343.448 134.296c-42.457-1.258-84.913-1.6-127.37-1.026-.547 76.706-.581 153.412-.103 230.119 42.566.503 85.131.203 127.697-.897 1.049-76.066.974-152.131-.224-228.196z" fill="url(#SVGID_10_)"/><path d="m190.69 282.751c-4.244-.019-7.674 3.38-7.659 7.594.06 16.537.164 33.073.312 49.609.038 4.213 3.493 7.695 7.712 7.764 8.277.135 16.555.245 24.832.328 5.036-10.815 10.104-21.659 15.192-32.52-5.135-10.902-10.278-21.799-15.418-32.681-8.323-.022-16.647-.054-24.971-.094z" fill="url(#SVGID_11_)"/><path d="m248.352 340.556c-.016-16.655-.026-33.31-.033-49.965-.001-4.246-3.442-7.689-7.686-7.693-8.324-.009-16.648-.026-24.971-.05.034 21.734.109 43.467.225 65.2 8.277.084 16.555.141 24.832.173 4.219.016 7.636-3.42 7.633-7.665z" fill="url(#SVGID_12_)"/><path d="m190.833 194.854c-4.233.047-7.689 3.507-7.713 7.72-.094 16.536-.144 33.073-.151 49.61-.002 4.214 3.442 7.633 7.687 7.638 8.328.006 16.656.01 24.984.014 5.123-10.865 10.256-21.748 15.389-32.639-5.111-10.871-10.208-21.729-15.281-32.561-8.304.055-16.609.128-24.915.218z" fill="url(#SVGID_13_)"/><path d="m248.313 252.156c.001-16.655.006-33.31.016-49.965.002-4.245-3.428-7.683-7.662-7.672-8.306.021-16.611.06-24.917.115-.077 21.733-.114 43.467-.109 65.2 8.328.003 16.656.006 24.984.007 4.246.002 7.688-3.439 7.688-7.685z" fill="url(#SVGID_14_)"/><path d="m321.167 194.854c-16.611-.18-33.222-.292-49.833-.334-4.234-.011-7.664 3.425-7.662 7.672.01 16.655.015 33.31.016 49.965 0 4.245 3.442 7.687 7.687 7.686 16.656-.003 33.312-.01 49.968-.021 4.246-.004 7.689-3.424 7.687-7.638-.007-16.536-.057-33.073-.151-49.61-.024-4.213-3.479-7.673-7.712-7.72z" fill="url(#SVGID_15_)"/><path d="m321.31 282.751c-16.648.079-33.295.128-49.943.146-4.244.005-7.685 3.448-7.686 7.693-.006 16.655-.017 33.31-.033 49.965-.003 4.245 3.414 7.681 7.633 7.665 16.555-.064 33.109-.231 49.664-.501 4.219-.069 7.673-3.551 7.712-7.764.147-16.537.251-33.073.312-49.609.015-4.215-3.415-7.613-7.659-7.595z" fill="url(#SVGID_16_)"/><path d="m263.57 109.949c.008 4.245-3.381 7.676-7.57 7.676s-7.578-3.431-7.57-7.676 3.398-7.699 7.57-7.699 7.562 3.454 7.57 7.699z" fill="url(#SVGID_17_)"/><path d="m263.57 109.949c.008 4.245-3.381 7.676-7.57 7.676s-7.578-3.431-7.57-7.676 3.398-7.699 7.57-7.699 7.562 3.454 7.57 7.699z" fill="url(#SVGID_18_)"/></g></svg>