<svg id="Capa_1" enable-background="new 0 0 512 512" height="512" viewBox="0 0 512 512" width="512" xmlns="http://www.w3.org/2000/svg" xmlns:xlink="http://www.w3.org/1999/xlink"><linearGradient id="SVGID_1_" gradientUnits="userSpaceOnUse" x1="256" x2="256" y1="512" y2="0"><stop offset="0" stop-color="#ffbef9"/><stop offset="1" stop-color="#fff1ff"/></linearGradient><linearGradient id="SVGID_00000072989764717675285030000001381305070662837388_" gradientUnits="userSpaceOnUse" x1="256" x2="256" y1="407" y2="105"><stop offset="0" stop-color="#ff81ff"/><stop offset="1" stop-color="#a93aff"/></linearGradient><g><circle cx="256" cy="256" fill="url(#SVGID_1_)" r="256"/><path d="m273.765 247.118h-53.294v-17.765h53.294zm-79.941-71.059h106.588c14.694 0 26.647 11.953 26.647 26.647v44.412h8.882c4.91 0 8.882 3.973 8.882 8.882s-3.973 8.882-8.882 8.882h-8.882v44.412c0 14.694-11.953 26.647-26.647 26.647h-106.588c-14.694 0-26.647-11.953-26.647-26.647v-106.588c-.001-14.694 11.952-26.647 26.647-26.647zm8.882 79.941c0 4.91 3.973 8.882 8.882 8.882h71.059c4.91 0 8.882-3.973 8.882-8.882v-35.529c0-4.91-3.973-8.882-8.882-8.882h-71.059c-4.91 0-8.882 3.973-8.882 8.882zm0 35.529c0 4.91 3.973 8.882 8.882 8.882h71.059c4.91 0 8.882-3.973 8.882-8.882s-3.973-8.882-8.882-8.882h-71.059c-4.909 0-8.882 3.973-8.882 8.882zm.26 108.74c.989 3.955 4.545 6.731 8.622 6.731h71.059c4.077 0 7.633-2.776 8.622-6.731l11.641-46.563h-111.585zm88.303-288.538c-.989-3.955-4.545-6.731-8.622-6.731h-71.059c-4.077 0-7.633 2.776-8.622 6.731l-11.641 46.563h111.585z" fill="url(#SVGID_00000072989764717675285030000001381305070662837388_)"/></g></svg>