<svg id="Layer_1" enable-background="new 0 0 512 512" height="512" viewBox="0 0 512 512" width="512" xmlns="http://www.w3.org/2000/svg" xmlns:xlink="http://www.w3.org/1999/xlink"><linearGradient id="lg1"><stop offset="0" stop-color="#ff4747"/><stop offset="1" stop-color="#ff9ceb"/></linearGradient><linearGradient id="SVGID_1_" gradientUnits="userSpaceOnUse" x1="74.98" x2="437.019" xlink:href="#lg1" y1="437.02" y2="74.982"/><radialGradient id="SVGID_2_" cx="256" cy="256" gradientUnits="userSpaceOnUse" r="256"><stop offset="0" stop-color="#ff2f2b"/><stop offset="1" stop-color="#ff9ceb" stop-opacity="0"/></radialGradient><linearGradient id="lg2"><stop offset="0" stop-color="#ffb5d3"/><stop offset=".4183" stop-color="#ffdbea"/><stop offset=".7836" stop-color="#fff5f9"/><stop offset="1" stop-color="#fff"/></linearGradient><linearGradient id="SVGID_3_" gradientUnits="userSpaceOnUse" x1="186.001" x2="321.349" xlink:href="#lg2" y1="181.999" y2="46.652"/><linearGradient id="SVGID_4_" gradientUnits="userSpaceOnUse" x1="182.706" x2="334.066" xlink:href="#lg2" y1="144.347" y2="-7.013"/><linearGradient id="SVGID_5_" gradientUnits="userSpaceOnUse" x1="256" x2="256" y1="110.89" y2="18.64"><stop offset="0" stop-color="#ff2f2b"/><stop offset=".0413" stop-color="#ff4450" stop-opacity=".959"/><stop offset=".0913" stop-color="#ff5874" stop-opacity=".909"/><stop offset=".1474" stop-color="#ff6b94" stop-opacity=".853"/><stop offset=".2096" stop-color="#ff7ab0" stop-opacity=".79"/><stop offset=".2799" stop-color="#ff87c6" stop-opacity=".72"/><stop offset=".3618" stop-color="#ff90d7" stop-opacity=".638"/><stop offset=".4632" stop-color="#ff97e2" stop-opacity=".537"/><stop offset=".6054" stop-color="#ff9be9" stop-opacity=".395"/><stop offset="1" stop-color="#ff9ceb" stop-opacity="0"/></linearGradient><linearGradient id="SVGID_6_" gradientUnits="userSpaceOnUse" x1="155.006" x2="331.044" xlink:href="#lg2" y1="541.941" y2="365.904"/><linearGradient id="SVGID_7_" gradientUnits="userSpaceOnUse" x1="152.824" x2="406.016" xlink:href="#lg2" y1="517.876" y2="264.684"/><linearGradient id="SVGID_8_" gradientTransform="matrix(1 0 0 -1 0 512)" gradientUnits="userSpaceOnUse" x1="256" x2="256" y1="122.671" y2="30.421"><stop offset="0" stop-color="#ff2f2b"/><stop offset=".0393" stop-color="#ff383c" stop-opacity=".961"/><stop offset=".1607" stop-color="#ff536a" stop-opacity=".839"/><stop offset=".2866" stop-color="#ff6992" stop-opacity=".713"/><stop offset=".4152" stop-color="#ff7cb2" stop-opacity=".585"/><stop offset=".5476" stop-color="#ff8acb" stop-opacity=".452"/><stop offset=".6851" stop-color="#ff94dd" stop-opacity=".315"/><stop offset=".8311" stop-color="#ff9ae8" stop-opacity=".169"/><stop offset="1" stop-color="#ff9ceb" stop-opacity="0"/></linearGradient><linearGradient id="SVGID_9_" gradientUnits="userSpaceOnUse" x1="129.896" x2="382.104" xlink:href="#lg2" y1="382.104" y2="129.896"/><linearGradient id="lg3"><stop offset="0" stop-color="#ff91bb"/><stop offset=".6508" stop-color="#ffb8d8"/><stop offset="1" stop-color="#ffc8e3"/></linearGradient><linearGradient id="SVGID_10_" gradientUnits="userSpaceOnUse" x1="166.778" x2="453.595" xlink:href="#lg3" y1="306.363" y2="19.546"/><linearGradient id="SVGID_11_" gradientUnits="userSpaceOnUse" x1="150.697" x2="437.347" xlink:href="#lg3" y1="398.439" y2="111.789"/><linearGradient id="SVGID_12_" gradientUnits="userSpaceOnUse" x1="195.912" x2="432.115" xlink:href="#lg1" y1="347.951" y2="111.748"/><linearGradient id="SVGID_13_" gradientUnits="userSpaceOnUse" x1="168.127" x2="410.34" xlink:href="#lg1" y1="423.14" y2="180.927"/><linearGradient id="SVGID_14_" gradientUnits="userSpaceOnUse" x1="72.521" x2="344.051" xlink:href="#lg1" y1="360.189" y2="88.659"/><linearGradient id="SVGID_15_" gradientUnits="userSpaceOnUse" x1="69.241" x2="375.868" xlink:href="#lg1" y1="443.853" y2="137.227"/><g><circle cx="256" cy="256" fill="url(#SVGID_1_)" r="256"/><circle cx="256" cy="256" fill="url(#SVGID_2_)" r="256"/><path d="m312.057 59.875c-2.13-6.315-7.914-10.728-14.369-10.896-10-.26-20-.426-30-.499-3.81 30.715-7.725 61.458-11.688 92.208 22.889-15.375 45.639-30.487 68.167-45.021-4.049-11.916-8.088-23.849-12.11-35.792z" fill="url(#SVGID_3_)"/><path d="m281.983 59.149c-2.086-6.304-7.84-10.622-14.294-10.669-17.792-.13-35.585.037-53.377.499-6.453.167-12.239 4.58-14.369 10.896-4.022 11.942-8.061 23.875-12.11 35.791 22.528 14.534 45.278 29.646 68.167 45.021 12.716-15.375 25.355-30.669 37.87-45.784-3.981-11.915-7.947-23.836-11.887-35.754z" fill="url(#SVGID_4_)"/><path d="m297.689 48.979c-27.792-.722-55.585-.722-83.377 0-6.454.167-12.239 4.58-14.369 10.896-4.022 11.942-8.061 23.875-12.11 35.791 22.528 14.534 45.278 29.646 68.167 45.021 22.889-15.375 45.639-30.487 68.167-45.021-4.049-11.915-8.088-23.848-12.11-35.791-2.13-6.315-7.914-10.728-14.368-10.896z" fill="url(#SVGID_5_)"/><path d="m256 371.313c3.963 30.75 7.879 61.492 11.688 92.208 10-.073 20-.239 30-.499 6.454-.167 12.24-4.581 14.369-10.896 4.022-11.942 8.061-23.875 12.11-35.791-22.528-14.535-45.278-29.648-68.167-45.022z" fill="url(#SVGID_6_)"/><path d="m281.983 452.851c3.94-11.918 7.905-23.839 11.887-35.754-12.515-15.115-25.154-30.409-37.87-45.784-22.889 15.375-45.639 30.487-68.167 45.021 4.049 11.915 8.088 23.848 12.11 35.791 2.129 6.317 7.915 10.726 14.369 10.896 17.792.462 35.585.628 53.377.499 6.455-.047 12.208-4.365 14.294-10.669z" fill="url(#SVGID_7_)"/><path d="m297.689 463.021c-27.792.722-55.585.722-83.377 0-6.454-.167-12.239-4.581-14.369-10.896-4.022-11.943-8.061-23.875-12.11-35.792 22.528-14.534 45.278-29.646 68.167-45.021 22.889 15.375 45.639 30.487 68.167 45.021-4.049 11.916-8.088 23.849-12.11 35.792-2.13 6.316-7.914 10.727-14.368 10.896z" fill="url(#SVGID_8_)"/><path d="m324.167 416.334c-45.444 1.471-90.889 1.471-136.333 0-33.387-1.189-61.223-29.863-61.782-62.834-.985-65-.985-130 0-195 .559-32.973 28.395-61.644 61.782-62.834 45.444-1.471 90.889-1.471 136.333 0 33.387 1.192 61.223 29.861 61.782 62.834.985 65 .985 130 0 195-.558 32.971-28.395 61.643-61.782 62.834z" fill="url(#SVGID_9_)"/><path d="m187.648 110.936c-25.087.79-45.948 22.154-46.309 47.024-.869 65.36-.869 130.719 0 196.079.362 24.87 21.221 46.236 46.309 47.024 25.316.74 50.631 1.068 75.946.986.124-97.367.124-194.734 0-292.101-25.315-.081-50.63.248-75.946.988z" fill="url(#SVGID_10_)"/><path d="m324.352 110.936c-20.252-.592-40.505-.921-60.757-.986-25.089-.075-45.672 20.978-45.815 46.324-.29 66.484-.29 132.969 0 199.453.143 25.346 20.726 46.4 45.815 46.324 20.252-.066 40.505-.394 60.757-.986 25.087-.789 45.947-22.156 46.309-47.024.869-65.36.869-130.719 0-196.079-.362-24.871-21.222-46.238-46.309-47.026z" fill="url(#SVGID_11_)"/><path d="m232.957 294.408c-20.473 10.19-40.914 20.27-61.29 30.073.068 10.145.151 20.291.249 30.436.084 8.383 7.007 15.411 15.418 15.607 11.048.253 22.095.446 33.143.577 4.092-25.528 8.266-51.098 12.48-76.693z" fill="url(#SVGID_12_)"/><path d="m217.564 263.671c.01 30.685.082 61.37.216 92.055.023 5.38.98 10.552 2.697 15.375 34.73.412 69.46.22 104.19-.577 8.423-.199 15.334-7.21 15.418-15.607.098-10.145.181-20.291.249-30.436-40.754-19.606-81.765-40.319-122.77-60.81z" fill="url(#SVGID_13_)"/><path d="m187.334 141.476c-8.411.198-15.333 7.223-15.418 15.607-.54 55.8-.623 111.598-.249 167.398 15.333.257 30.667.444 46 .561 15.681-30.565 31.537-61.364 47.341-92.101-14.937-30.756-29.853-61.524-44.531-92.042-11.048.131-22.096.323-33.143.577z" fill="url(#SVGID_14_)"/><path d="m340.085 157.083c-.083-8.397-6.994-15.409-15.418-15.607-34.73-.797-69.46-.99-104.19-.577-1.716 4.825-2.674 9.996-2.697 15.375-.245 56.256-.283 112.512-.113 168.768 40.889.312 81.778.125 122.667-.561.373-55.8.29-111.598-.249-167.398z" fill="url(#SVGID_15_)"/></g></svg>