<svg id="lcd" enable-background="new 0 0 512 512" height="512" viewBox="0 0 512 512" width="512" xmlns="http://www.w3.org/2000/svg" xmlns:xlink="http://www.w3.org/1999/xlink"><linearGradient id="SVGID_1_" gradientUnits="userSpaceOnUse" x1="256" x2="256" y1="0" y2="512"><stop offset="0" stop-color="#00f28e"/><stop offset="1" stop-color="#009ffd"/></linearGradient><switch><g><circle cx="256" cy="256" fill="url(#SVGID_1_)" r="256"/><path d="m371.5 130.6h-230.1c-11.8 0-21.5 9.7-21.5 21.5v143c0 11.8 9.7 21.5 21.5 21.5h78.5v37.6c-22.6 2.2-45.2 6.5-66.7 12.9-4.3 1.1-6.5 5.4-5.4 8.6 2.2 3.2 5.4 5.4 8.6 5.4h2.2c23.7-6.5 47.3-10.8 72-12.9 17.2-1.1 35.5-1.1 52.7 0 24.7 2.2 48.4 6.5 72 12.9 4.3 1.1 7.5-1.1 8.6-5.4s-1.1-7.5-5.4-8.6c-21.5-6.5-44.1-10.8-66.7-12.9v-37.6h78.5c11.8 0 21.5-9.7 21.5-21.5v-143c1.3-11.8-8.4-21.5-20.3-21.5zm-124.7 222.6c-4.3 0-7.5 0-11.8 0v-36.6h43v36.6c-4.3 0-7.5 0-11.8 0-6.5-1.1-12.9-1.1-19.4 0zm131.2-58.1c0 4.3-3.2 7.5-7.5 7.5h-86-143c-4.3 0-7.5-3.2-7.5-7.5v-143c1.1-4.3 4.3-7.5 7.5-7.5h229c4.3 0 7.5 3.2 7.5 7.5z" fill="#fff"/></g></switch></svg>