<svg id="Capa_1" enable-background="new 0 0 512 512" height="512" viewBox="0 0 512 512" width="512" xmlns="http://www.w3.org/2000/svg" xmlns:xlink="http://www.w3.org/1999/xlink"><linearGradient id="SVGID_1_" gradientUnits="userSpaceOnUse" x1="74.981" x2="437.02" y1="437.019" y2="74.98"><stop offset="0" stop-color="#230be0"/><stop offset="1" stop-color="#fc54ff"/></linearGradient><radialGradient id="SVGID_2_" cx="256.001" cy="256" gradientUnits="userSpaceOnUse" r="256"><stop offset="0" stop-color="#8d00db" stop-opacity=".8"/><stop offset="1" stop-color="#fc54ff" stop-opacity="0"/></radialGradient><linearGradient id="lg1"><stop offset="0" stop-color="#fc54ff"/><stop offset=".2201" stop-color="#fd75ff"/><stop offset=".7016" stop-color="#fec8ff"/><stop offset="1" stop-color="#fff"/></linearGradient><linearGradient id="SVGID_3_" gradientUnits="userSpaceOnUse" x1="-13.887" x2="455.791" xlink:href="#lg1" y1="381.412" y2="-88.266"/><linearGradient id="SVGID_4_" gradientUnits="userSpaceOnUse" x1="-119.347" x2="583.052" xlink:href="#lg1" y1="604.398" y2="-98.001"/><linearGradient id="lg2"><stop offset="0" stop-color="#fc54ff"/><stop offset=".4062" stop-color="#fd9bff"/><stop offset="1" stop-color="#fff"/></linearGradient><linearGradient id="SVGID_5_" gradientUnits="userSpaceOnUse" x1="129.292" x2="594.666" xlink:href="#lg2" y1="631.922" y2="166.548"/><linearGradient id="SVGID_6_" gradientUnits="userSpaceOnUse" x1="122.4" x2="498.469" xlink:href="#lg2" y1="478.665" y2="102.596"/><linearGradient id="SVGID_7_" gradientUnits="userSpaceOnUse" x1="-185.85" x2="416.348" xlink:href="#lg2" y1="906.778" y2="304.581"/><linearGradient id="SVGID_8_" gradientUnits="userSpaceOnUse" x1="-75.418" x2="407.261" xlink:href="#lg2" y1="629.535" y2="146.856"/><linearGradient id="SVGID_9_" gradientUnits="userSpaceOnUse" x1="-243.743" x2="421.688" xlink:href="#lg2" y1="866.332" y2="200.901"/><linearGradient id="SVGID_10_" gradientUnits="userSpaceOnUse" x1="5.711" x2="664.752" xlink:href="#lg2" y1="696.624" y2="37.583"/><linearGradient id="SVGID_11_" gradientUnits="userSpaceOnUse" x1="138.08" x2="387.475" xlink:href="#lg2" y1="351.211" y2="101.817"/><linearGradient id="SVGID_12_" gradientUnits="userSpaceOnUse" x1="104.798" x2="616.598" xlink:href="#lg2" y1="502.531" y2="-9.269"/><linearGradient id="lg3"><stop offset="0" stop-color="#1805b0"/><stop offset="1" stop-color="#fc54ff"/></linearGradient><linearGradient id="SVGID_13_" gradientUnits="userSpaceOnUse" x1="36.098" x2="402.546" xlink:href="#lg3" y1="305.027" y2="-61.422"/><linearGradient id="SVGID_14_" gradientUnits="userSpaceOnUse" x1="209.4" x2="338.654" xlink:href="#lg3" y1="164.422" y2="35.169"/><linearGradient id="SVGID_15_" gradientUnits="userSpaceOnUse" x1="-138.249" x2="573.597" xlink:href="#lg3" y1="603.689" y2="-108.157"/><linearGradient id="SVGID_16_" gradientUnits="userSpaceOnUse" x1="-123.358" x2="487.427" xlink:href="#lg3" y1="645.998" y2="35.214"/><linearGradient id="SVGID_17_" gradientUnits="userSpaceOnUse" x1="-161.656" x2="352.904" xlink:href="#lg1" y1="498.34" y2="-16.22"/><linearGradient id="SVGID_18_" gradientUnits="userSpaceOnUse" x1="-97.959" x2="235.751" xlink:href="#lg1" y1="451.271" y2="117.56"/><linearGradient id="SVGID_19_" gradientUnits="userSpaceOnUse" x1="-144.807" x2="369.806" xlink:href="#lg1" y1="511.726" y2="-2.886"/><linearGradient id="SVGID_20_" gradientUnits="userSpaceOnUse" x1="-854.533" x2="492.05" xlink:href="#lg1" y1="1274.987" y2="-71.596"/><linearGradient id="SVGID_21_" gradientUnits="userSpaceOnUse" x1="-820.427" x2="384.176" xlink:href="#lg1" y1="1323.325" y2="118.722"/><linearGradient id="SVGID_22_" gradientUnits="userSpaceOnUse" x1="-127.292" x2="386.509" xlink:href="#lg1" y1="524.606" y2="10.805"/><linearGradient id="SVGID_23_" gradientUnits="userSpaceOnUse" x1="-284.365" x2="344.262" xlink:href="#lg1" y1="723.736" y2="95.109"/><g><circle cx="256" cy="256" fill="url(#SVGID_1_)" r="256"/><circle cx="256" cy="256" fill="url(#SVGID_2_)" r="256"/><path d="m127.5 96.493c-8.242.228-15.32 7.257-15.682 15.588-2.368 55.578-3.289 111.156-2.762 166.734.08 8.332 7.086 15.215 15.521 15.287 22.496 10.312 44.97 20.697 67.355 31.064-.786-76.666-.393-153.333 1.179-229.999-21.87.291-43.741.732-65.611 1.326z" fill="url(#SVGID_3_)"/><path d="m384.5 96.493c-63.796-1.73-127.593-2.172-191.389-1.325-8.242.111-15.17 7.116-15.37 15.534-1.285 56.14-1.785 112.28-1.499 168.421.045 8.418 7.004 15.343 15.439 15.378 21.534 15.417 43.021 30.875 64.32 46.25 43.519-15.375 87.423-31.099 131.424-46.648 8.435-.071 15.44-6.955 15.521-15.287.526-55.578-.395-111.156-2.762-166.734-.364-8.333-7.442-15.361-15.684-15.589z" fill="url(#SVGID_4_)"/><path d="m356.076 340.136c-.394 20.363-.919 40.727-1.576 61.09 20-.416 40-.958 60-1.627 16.465-.574 30.842-14.625 31.697-31.099-29.768-9.045-59.838-18.557-90.121-28.364z" fill="url(#SVGID_5_)"/><path d="m385.656 370.106c-42.705-14.271-86.02-29.356-129.656-44.731-64.011 15.375-127.552 30.125-190.197 43.125.855 16.474 15.231 30.525 31.697 31.099 85.667 2.866 171.333 3.409 257 1.627 16.466-.357 30.565-14.418 31.156-31.12z" fill="url(#SVGID_6_)"/><path d="m407.117 301.285c-2.693-4.531-7.65-7.282-13.039-7.237-20.455.171-40.91.304-61.365.399 18.049 25.441 35.808 50.711 52.943 75.659 20.18-.434 40.36-.969 60.54-1.606-12.53-22.141-25.626-44.573-39.079-67.215z" fill="url(#SVGID_7_)"/><path d="m256 294.621c-46.027 0-92.054-.192-138.082-.577-5.389-.044-10.344 2.712-13.036 7.245-13.453 22.641-26.548 45.071-39.079 67.211 88.624 2.796 177.248 3.637 265.871 2.525.448.179-75.373-76.266-75.674-76.404z" fill="url(#SVGID_8_)"/><path d="m345.8 301.809c13.61 22.926 26.965 45.717 39.857 68.297-38.084.819-76.168 1.277-114.251 1.374-20.894.057-39.82-8.665-53.708-22.613-13.872-13.962-22.643-33.18-22.788-54.36 45.936.17 91.872.148 137.808-.065 5.389-.024 10.359 2.777 13.082 7.367z" fill="url(#SVGID_9_)"/><path d="m393.842 309.231c-14.466.161-28.933.298-43.399.408-7.209 5.15-14.411 10.307-21.602 15.466 13.184 5.009 26.33 9.971 39.427 14.872 14.396-.198 28.791-.435 43.187-.709-5.79-9.97-11.667-19.984-17.613-30.037z" fill="url(#SVGID_10_)"/><path d="m118.158 309.231c-5.946 10.053-11.823 20.068-17.613 30.037 36.675.7 73.351 1.151 110.026 1.356-4.664-10.261-9.34-20.518-14.015-30.767-26.133-.126-52.266-.335-78.398-.626z" fill="url(#SVGID_11_)"/><path d="m350.443 309.639c-51.296.392-102.591.465-153.887.218 2.388 11.35 7.278 21.805 14.015 30.767 52.566.293 105.131.077 157.697-.647-5.875-10.08-11.823-20.195-17.825-30.338z" fill="url(#SVGID_12_)"/><path d="m126.701 116.76c-1.732 47.291-2.532 94.582-2.399 141.874.008 2.798 2.312 5.072 5.142 5.08 15.58.04 31.16.072 46.74.097 25.804-25.477 51.834-51.181 77.616-76.811-25.768-25.62-51.279-51.154-76.059-76.299-15.276.225-30.552.516-45.827.872-2.774.066-5.11 2.39-5.213 5.187z" fill="url(#SVGID_13_)"/><path d="m263.552 117.818c.01 4.245-3.371 7.682-7.552 7.682s-7.562-3.437-7.552-7.682c.01-4.246 3.392-7.693 7.552-7.693s7.542 3.447 7.552 7.693z" fill="url(#SVGID_14_)"/><path d="m256 140.875c-6.29 0-11.989-2.574-16.088-6.735-6.386-6.482-12.74-12.951-19.054-19.403-2.799-2.86-6.606-4.449-10.605-4.415-10.838.093-21.676.22-32.514.379-1.168 51.037-1.688 102.073-1.558 153.11 67.511.108 135.021.079 202.532-.087 0-.085.001-.169.001-.254-40.747-40.413-82.288-81.68-122.714-122.595z" fill="url(#SVGID_15_)"/><path d="m385.3 116.76c1.732 47.291 2.532 94.582 2.399 141.874-.008 2.798-2.312 5.072-5.142 5.08-1.281.003-2.562.006-3.843.01 0-.085.001-.169.001-.254-33.901.102-64.558-13.542-86.805-35.76-22.244-22.22-35.937-52.912-35.91-86.835 6.29 0 11.989-2.574 16.088-6.735 6.386-6.482 12.74-12.951 19.054-19.403 2.8-2.861 6.61-4.45 10.603-4.415 26.114.225 52.228.642 78.342 1.252 2.773.065 5.109 2.389 5.213 5.186z" fill="url(#SVGID_16_)"/><path d="m163.544 156.774c-4.208.049-7.686 3.51-7.762 7.726-.076 4.217 3.291 7.6 7.511 7.561 4.452-.042 8.904-.081 13.356-.117 5.126-2.593 10.248-5.186 15.364-7.778-5.058-2.519-10.109-5.03-15.15-7.533-4.439.044-8.879.091-13.319.141z" fill="url(#SVGID_17_)"/><path d="m205.891 164.078c.036-4.239-3.342-7.655-7.549-7.624-7.159.051-14.319.111-21.478.18-.078 5.104-.149 10.207-.214 15.311 7.179-.058 14.358-.108 21.536-.15 4.221-.024 7.669-3.478 7.705-7.717z" fill="url(#SVGID_18_)"/><path d="m163.089 187.35c-4.228.033-7.702 3.479-7.75 7.696s3.354 7.614 7.591 7.591c4.469-.025 8.939-.049 13.408-.07 5.133-2.577 10.264-5.155 15.392-7.734-5.091-2.532-10.177-5.059-15.256-7.577-4.461.029-8.923.06-13.385.094z" fill="url(#SVGID_19_)"/><path d="m176.474 187.256c-.052 5.104-.097 10.207-.136 15.311 32.033-.154 64.065-.216 96.098-.184 3.617-2.829 7.231-5.657 10.841-8.482-6.124-2.302-12.244-4.602-18.359-6.898-29.481-.021-58.962.063-88.444.253z" fill="url(#SVGID_20_)"/><path d="m347.89 187.342c-27.657-.206-55.315-.319-82.972-.339 2.154 5.322 4.667 10.46 7.518 15.38 25.204.025 50.408.108 75.612.248 4.237.023 7.639-3.376 7.591-7.593s-3.521-7.664-7.749-7.696z" fill="url(#SVGID_21_)"/><path d="m155.093 225.591c-.021 4.217 3.41 7.629 7.655 7.621 4.478-.008 8.956-.016 13.434-.023 5.13-2.56 10.261-5.123 15.391-7.689-5.114-2.546-10.225-5.087-15.332-7.622-4.475.014-8.95.03-13.425.047-4.241.016-7.702 3.449-7.723 7.666z" fill="url(#SVGID_22_)"/><path d="m248.314 233.126c4.245 0 7.686-3.442 7.686-7.688s-3.439-7.687-7.68-7.686c-24.026.007-48.053.05-72.079.127-.026 5.104-.045 10.207-.058 15.311 24.043-.04 48.087-.061 72.131-.064z" fill="url(#SVGID_23_)"/></g></svg>