<svg id="Layer_1" enable-background="new 0 0 24 24" height="512" viewBox="0 0 24 24" width="512" xmlns="http://www.w3.org/2000/svg" xmlns:xlink="http://www.w3.org/1999/xlink"><linearGradient id="SVGID_1_" gradientUnits="userSpaceOnUse" x1="0" x2="24" y1="12" y2="12"><stop offset="0" stop-color="#4e54c8"/><stop offset="1" stop-color="#8f94fb"/></linearGradient><circle cx="12" cy="12" fill="url(#SVGID_1_)" r="12"/><path d="m15.8 5.9c2.5 0 4.6 2.1 4.6 4.6v3c0 2.5-2.1 4.6-4.6 4.6h-7.6c-2.5 0-4.6-2.1-4.6-4.6v-3c0-2.5 2.1-4.6 4.6-4.6zm-5.3 3.8h-1.5v1.5h-1.6v1.5h1.6v1.5h1.5v-1.5h1.5v-1.5h-1.5zm6.1 3.1h-1.6v1.5h1.5v-1.5zm-1.6-3.1h-1.5v1.5h1.5z" fill="#fff"/></svg>