<svg id="Capa_1" enable-background="new 0 0 512 512" height="512" viewBox="0 0 512 512" width="512" xmlns="http://www.w3.org/2000/svg" xmlns:xlink="http://www.w3.org/1999/xlink"><linearGradient id="SVGID_1_" gradientUnits="userSpaceOnUse" x1="74.98" x2="437.019" y1="437.019" y2="74.98"><stop offset="0" stop-color="#0056e0"/><stop offset=".3455" stop-color="#369be0"/><stop offset=".6498" stop-color="#61d1e0"/><stop offset=".8764" stop-color="#7bf2e0"/><stop offset="1" stop-color="#85ffe0"/></linearGradient><radialGradient id="SVGID_2_" cx="256" cy="256" gradientUnits="userSpaceOnUse" r="256"><stop offset="0" stop-color="#0056e0" stop-opacity=".7"/><stop offset="1" stop-color="#00e5a1" stop-opacity="0"/></radialGradient><linearGradient id="SVGID_3_" gradientUnits="userSpaceOnUse" x1="-525.797" x2="468.289" y1="972.214" y2="-21.872"><stop offset="0" stop-color="#389fff"/><stop offset=".1209" stop-color="#45affa"/><stop offset=".5726" stop-color="#73e9e7"/><stop offset=".79" stop-color="#85ffe0"/><stop offset=".881" stop-color="#9dffe6"/><stop offset="1" stop-color="#c2fff0"/></linearGradient><linearGradient id="lg1"><stop offset="0" stop-color="#85ffe0"/><stop offset=".2339" stop-color="#9dffe6"/><stop offset=".7251" stop-color="#dafff6"/><stop offset="1" stop-color="#fff"/></linearGradient><linearGradient id="SVGID_4_" gradientUnits="userSpaceOnUse" x1="-433.843" x2="537.559" xlink:href="#lg1" y1="1034.532" y2="63.13"/><linearGradient id="SVGID_5_" gradientUnits="userSpaceOnUse" x1="-76.506" x2="776.848" xlink:href="#lg1" y1="605.456" y2="-247.898"/><linearGradient id="lg2"><stop offset="0" stop-color="#230be0"/><stop offset=".5" stop-color="#0056e0"/><stop offset="1" stop-color="#85ffe0"/></linearGradient><linearGradient id="SVGID_6_" gradientUnits="userSpaceOnUse" x1="78.611" x2="343.832" xlink:href="#lg2" y1="268.138" y2="2.918"/><linearGradient id="SVGID_7_" gradientUnits="userSpaceOnUse" x1="-3.687" x2="396.165" xlink:href="#lg2" y1="326.882" y2="-72.969"/><linearGradient id="lg3"><stop offset="0" stop-color="#389fff"/><stop offset=".1139" stop-color="#45affa"/><stop offset=".5397" stop-color="#73e9e7"/><stop offset=".7447" stop-color="#85ffe0"/><stop offset=".8044" stop-color="#9dffe6"/><stop offset=".9298" stop-color="#dafff6"/><stop offset="1" stop-color="#fff"/></linearGradient><linearGradient id="SVGID_8_" gradientUnits="userSpaceOnUse" x1="200.599" x2="466.194" xlink:href="#lg3" y1="473.762" y2="208.168"/><linearGradient id="SVGID_9_" gradientUnits="userSpaceOnUse" x1="235.94" x2="367.221" xlink:href="#lg3" y1="438.422" y2="307.141"/><linearGradient id="SVGID_10_" gradientUnits="userSpaceOnUse" x1="147.659" x2="423.601" xlink:href="#lg2" y1="378.999" y2="103.057"/><linearGradient id="SVGID_11_" gradientUnits="userSpaceOnUse" x1="7.886" x2="620.488" xlink:href="#lg2" y1="621.822" y2="9.22"/><linearGradient id="SVGID_12_" gradientUnits="userSpaceOnUse" x1="-77.521" x2="440.197" xlink:href="#lg2" y1="464.568" y2="-53.15"/><linearGradient id="SVGID_13_" gradientUnits="userSpaceOnUse" x1="-278.105" x2="595.6" xlink:href="#lg2" y1="762.559" y2="-111.147"/><linearGradient id="SVGID_14_" gradientUnits="userSpaceOnUse" x1="-112.929" x2="461.502" xlink:href="#lg2" y1="579.18" y2="4.749"/><g><circle cx="256" cy="256" fill="url(#SVGID_1_)" r="256"/><circle cx="256" cy="256" fill="url(#SVGID_2_)" r="256"/><path d="m134.163 90c-2.893 110.667-2.893 221.333 0 332 .454 16.524 14.312 31.089 30.855 32.129 19.857 1.21 39.715 2.023 59.572 2.441-1.047-133.713-1.047-267.426 0-401.139-19.857.417-39.715 1.231-59.572 2.441-16.544 1.039-30.401 15.603-30.855 32.128z" fill="url(#SVGID_3_)"/><path d="m346.587 57.847c-4.856-.295-9.713-.566-14.569-.813 2.534 132.644 2.534 265.287 0 397.931 4.988-.254 9.976-.533 14.964-.837 16.557-1.04 30.421-15.628 30.856-32.164 2.759-110.658 2.617-221.333-.4-332.027-.472-16.514-14.322-31.056-30.851-32.09z" fill="url(#SVGID_4_)"/><path d="m317.249 240.759c15.743-51.252 31.144-102.01 45.518-151.723-.401-16.626-14.206-31.134-30.749-32.002-40.809-2.077-81.619-2.481-122.428-1.213-8.278.261-15.101 7.388-15.226 15.82-1.673 117.813-1.743 235.627-.208 353.44.242 16.851 13.89 31.129 30.434 31.489 35.805.753 71.61.219 107.415-1.604 16.549-.869 30.356-15.385 30.749-32.016.458-20.111.833-40.222 1.126-60.333-15.097-39.962-30.787-80.729-46.631-121.858z" fill="url(#SVGID_5_)"/><path d="m277.814 70.621c-7.271-.098-14.543-.146-21.814-.146v15.375c7.296 0 14.592.045 21.888.134 4.173.05 7.533-3.328 7.505-7.568-.029-4.239-3.423-7.739-7.579-7.795z" fill="url(#SVGID_6_)"/><path d="m263.541 78.179c-.008-4.245-3.384-7.704-7.541-7.704-7.391 0-14.781.05-22.172.151-4.156.058-7.55 3.557-7.579 7.796-.029 4.24 3.331 7.617 7.504 7.566 7.416-.092 14.831-.138 22.247-.138 4.173-.001 7.549-3.425 7.541-7.671z" fill="url(#SVGID_7_)"/><path d="m278.713 418.325c-.07 12.719-10.235 23.199-22.695 23.2-12.46 0-22.626-10.48-22.695-23.199-.068-12.724 10.098-22.921 22.695-22.926 12.597.004 22.762 10.202 22.695 22.925z" fill="url(#SVGID_8_)"/><path d="m263.571 426.134c-12.503.054-22.681-10.375-22.727-23.102-.002-.634.029-1.26.077-1.881-4.693 4.19-7.629 10.311-7.597 17.174.069 12.719 10.235 23.199 22.695 23.199 11.841 0 21.598-9.466 22.605-21.318-4.022 3.656-9.288 5.904-15.053 5.928z" fill="url(#SVGID_9_)"/><path d="m239.241 333.865c-30.492-.127-60.983-.602-91.475-1.423.105 10.058.23 20.116.377 30.174.124 8.323 7.058 15.38 15.467 15.698 10.01.371 20.02.681 30.03.931 15.087-14.897 30.307-30.076 45.601-45.38z" fill="url(#SVGID_10_)"/><path d="m193.285 333.41c.091 15.278.209 30.557.354 45.835 51.591 1.29 103.182.979 154.773-.932 8.409-.319 15.342-7.373 15.467-15.696.391-28.233.368-30.176.38-30.176-56.99 1.536-113.982 1.859-170.974.969z" fill="url(#SVGID_11_)"/><path d="m164.683 73.034c-8.309.472-15.219 7.678-15.414 16-1.847 81.136-2.348 162.271-1.502 243.407.089 8.323 7.023 15.305 15.467 15.546 10.051.279 20.101.512 30.152.701 20.578-40.69 41.644-82.096 62.614-123.438-20.97-51.592-41.819-103.119-61.636-153.609-9.894.374-19.787.838-29.681 1.393z" fill="url(#SVGID_12_)"/><path d="m256.018 101.225c-7.444 0-14.889.042-22.333.126-6.263.071-11.929-2.415-16.006-6.492-.055-.07-23.358-23.296-23.315-23.218-1.312 92.349-1.638 184.699-.978 277.048 51.801.97 103.603.736 155.404-.701 8.444-.241 15.378-7.222 15.467-15.545.51-28.232.422-121.704.262-121.704-36.386-36.115-72.811-73.297-108.501-109.514z" fill="url(#SVGID_13_)"/><path d="m364.519 210.739c-.286-50.202-1.21-98.184-1.764-121.712-.196-8.322-7.106-15.518-15.414-15.991-10.033-.563-20.066-1.032-30.099-1.409-7.566 7.502-15.18 15.094-22.835 22.757-4.105 4.353-9.955 7.035-16.452 6.964-7.312-.081-14.625-.122-21.937-.122-.126 60.043 48.469 108.693 108.501 109.513z" fill="url(#SVGID_14_)"/></g></svg>