<svg id="Layer_1" enable-background="new 0 0 512 512" height="512" viewBox="0 0 512 512" width="512" xmlns="http://www.w3.org/2000/svg" xmlns:xlink="http://www.w3.org/1999/xlink"><linearGradient id="SVGID_1_" gradientTransform="matrix(1 0 0 -1 0 512.39)" gradientUnits="userSpaceOnUse" x1="256.05" x2="256.05" y1="512.34" y2=".34"><stop offset="0" stop-color="#f704fe"/><stop offset="1" stop-color="#24bce3"/></linearGradient><circle clip-rule="evenodd" cx="256" cy="256" fill="url(#SVGID_1_)" fill-rule="evenodd" r="256"/><g id="Layer_x0020_1"><path clip-rule="evenodd" d="m140.1 278.6c-4.1 1.1-6.7 5.4-5.6 9.7 8.6 31.9 17.1 63.9 25.7 95.8.5 2 1.8 3.7 3.7 4.8 1.8 1.1 4 1.3 6 .8l31.1-8.3c2-.5 3.7-1.9 4.8-3.7s1.3-4 .8-6l-25.6-95.7c-1.1-4.2-5.5-6.7-9.7-5.6zm115.9-156.6c-42.2 0-73.4 13.4-107.8 46.1-1.9 1.9-2.8 4.2-2.5 6.9s1.7 4.8 4 6.1c6.5 3.8 13.1 7.5 19.6 11.3 3.1 1.8 6.8 1.4 9.5-1 24.6-21.7 47.7-31 77.2-31 28.7 0 51.4 8.9 75.8 29.7 2.7 2.3 6.3 2.6 9.4.9 6.6-3.8 13.1-7.6 19.7-11.4 2.3-1.4 3.7-3.5 4-6.2s-.6-5.1-2.6-6.9c-34.2-31.4-64.9-44.5-106.3-44.5zm-95.9 72.8-13.5-7.8c-13.7 17.6-23.1 38.4-27.1 60.5-3.6 19.5-2.9 39.8 2 59l10.5-2.8-3.7-13.7c-1.5-5.5.4-11.1 4.4-14.6-.2-8.4.5-16.9 2-25.2 3.7-20.3 12.4-39.4 25.4-55.4zm204-9.4-13.5 7.8c13.7 16.3 22.9 35.9 26.7 57 1.5 8.3 2.2 16.7 2 25.2 4 3.5 5.9 9.1 4.4 14.6l-3.7 13.7 10.5 2.8c4.8-19.2 5.5-39.5 2-59-4-22.7-13.9-44.1-28.4-62.1zm7.8 93.2-31.1-8.3c-.7-.2-1.4-.3-2-.3-3.5 0-6.7 2.3-7.6 5.9l-25.7 95.8c-.5 2-.3 4.1.8 6 1.1 1.8 2.8 3.1 4.8 3.7l31.1 8.3c2 .5 4.1.3 6-.8 1.8-1.1 3.1-2.8 3.7-4.8 8.6-31.9 17.1-63.9 25.7-95.8.9-4.3-1.6-8.5-5.7-9.7zm-256.1 36.2c-2.4.6-3.9 3.1-3.2 5.6l12.6 47c.6 2.4 3.1 3.9 5.6 3.2l17.8-4.8-15-55.8c-5.9 1.5-11.8 3.1-17.8 4.8zm262.7-4.8-15 55.8 17.8 4.8c2.4.7 4.9-.8 5.6-3.2l12.6-47c.6-2.4-.8-4.9-3.2-5.6-6.1-1.7-11.9-3.3-17.8-4.8z" fill="#fffffe" fill-rule="evenodd"/></g></svg>