<svg height="512" viewBox="0 0 512 512" width="512" xmlns="http://www.w3.org/2000/svg" xmlns:xlink="http://www.w3.org/1999/xlink"><linearGradient id="linear-gradient" gradientUnits="userSpaceOnUse" x1="74.98" x2="437.02" y1="74.98" y2="437.02"><stop offset="0" stop-color="#ff6432"/><stop offset="1" stop-color="#f44336"/></linearGradient><linearGradient id="linear-gradient-2" gradientUnits="userSpaceOnUse" x1="210.9" x2="427.76" y1="229.42" y2="446.28"><stop offset="0" stop-color="#b33128"/><stop offset=".93" stop-color="#b33128" stop-opacity="0"/></linearGradient><g id="Layer_2" data-name="Layer 2"><g id="_02.camera" data-name="02.camera"><circle id="background" cx="256" cy="256" fill="url(#linear-gradient)" r="256"/><path d="m506.67 308.23c-22.82 110.07-116.32 194.27-230.9 203l-146.88-146.86 77.32-130.27 90.51-83.47 52.28 52.31 35.47-16.94z" fill="url(#linear-gradient-2)"/><g fill="#fff"><path d="m368.26 179.24h-56.12a40.33 40.33 0 0 0 -40.2-37.13h-31.88a40.33 40.33 0 0 0 -40.2 37.13h-56.12a22.74 22.74 0 0 0 -22.74 22.76v145.15a22.74 22.74 0 0 0 22.74 22.74h224.52a22.74 22.74 0 0 0 22.74-22.74v-145.15a22.74 22.74 0 0 0 -22.74-22.76zm-112.26 148.01a52.69 52.69 0 1 1 52.68-52.69 52.68 52.68 0 0 1 -52.68 52.69z"/><circle cx="256" cy="274.56" r="28.95"/></g></g></g></svg>