<svg id="Capa_1" enable-background="new 0 0 512 512" height="512" viewBox="0 0 512 512" width="512" xmlns="http://www.w3.org/2000/svg" xmlns:xlink="http://www.w3.org/1999/xlink"><linearGradient id="SVGID_1_" gradientUnits="userSpaceOnUse" x1="256" x2="256" y1="512" y2="0"><stop offset="0" stop-color="#addcff"/><stop offset=".5028" stop-color="#eaf6ff"/><stop offset="1" stop-color="#eaf6ff"/></linearGradient><linearGradient id="SVGID_2_" gradientUnits="userSpaceOnUse" x1="256" x2="256" y1="105" y2="407"><stop offset="0" stop-color="#5558ff"/><stop offset="1" stop-color="#00c0ff"/></linearGradient><g><g><circle cx="256" cy="256" fill="url(#SVGID_1_)" r="256"/></g><g><g><path d="m176.056 318.173h159.888v-88.827h-159.888zm186.536-142.123h-88.831l42.639-56.853c2.949-3.921 2.151-9.49-1.778-12.431-3.912-2.923-9.472-2.143-12.43 1.778l-47.155 62.864-28.288-28.287c-3.47-3.47-9.091-3.47-12.561 0s-3.47 9.091 0 12.561l20.368 20.368h-85.149c-14.695 0-26.648 11.953-26.648 26.648v142.123c0 14.695 11.954 26.648 26.648 26.648h21.157l-11.337 22.675c-2.195 4.389-.417 9.724 3.973 11.919 4.43 2.2 9.733.386 11.919-3.973l15.311-30.621h131.14l15.311 30.621c2.184 4.356 7.485 6.175 11.919 3.973 4.389-2.195 6.167-7.53 3.973-11.919l-11.337-22.675h21.157c14.695 0 26.648-11.953 26.648-26.648v-142.123c-.001-14.695-11.954-26.648-26.649-26.648zm-8.883 151.005c0 4.91-3.973 8.883-8.883 8.883h-177.653c-4.91 0-8.883-3.973-8.883-8.883v-106.592c0-4.91 3.973-8.883 8.883-8.883h177.653c4.91 0 8.883 3.973 8.883 8.883z" fill="url(#SVGID_2_)"/></g></g></g></svg>